<svg width="21" height="21" viewBox="0 0 21 21" fill="none" xmlns="http://www.w3.org/2000/svg">
<path d="M7.38281 3.77344H7.21875C7.30898 3.77344 7.38281 3.69961 7.38281 3.60938V3.77344H13.6172V3.60938C13.6172 3.69961 13.691 3.77344 13.7812 3.77344H13.6172V5.25H15.0938V3.60938C15.0938 2.88545 14.5052 2.29688 13.7812 2.29688H7.21875C6.49482 2.29688 5.90625 2.88545 5.90625 3.60938V5.25H7.38281V3.77344ZM17.7188 5.25H3.28125C2.91826 5.25 2.625 5.54326 2.625 5.90625V6.5625C2.625 6.65273 2.69883 6.72656 2.78906 6.72656H4.02773L4.53428 17.4521C4.56709 18.1515 5.14541 18.7031 5.84473 18.7031H15.1553C15.8566 18.7031 16.4329 18.1535 16.4657 17.4521L16.9723 6.72656H18.2109C18.3012 6.72656 18.375 6.65273 18.375 6.5625V5.90625C18.375 5.54326 18.0817 5.25 17.7188 5.25ZM14.9974 17.2266H6.00264L5.50635 6.72656H15.4937L14.9974 17.2266Z" fill="#00BDC8"/>
</svg>
