<svg width="67" height="64" viewBox="0 0 67 64" fill="none" xmlns="http://www.w3.org/2000/svg">
<path d="M19.0824 24.0768C19.9126 21.6127 25.5443 7.59174 29.9457 2.01327C31.1714 3.16597 34.2498 6.20773 34.7069 6.74455C35.7911 8.01772 39.7035 13.4718 42.7986 19.2558C45.8938 25.0398 47.0244 30.6663 47.1339 34.2338C47.2433 37.8014 44.2245 45.8632 41.6152 48.8174C40.0937 50.54 34.4636 54.1754 28.5386 54.0959C22.6137 54.0163 16.7138 47.4862 16.1715 45.5915C15.2448 42.3539 15.5597 38.4249 15.7172 36.4605C15.8747 34.496 18.0447 27.157 19.0824 24.0768Z" fill="#FDDBC6"/>
<path fill-rule="evenodd" clip-rule="evenodd" d="M28.6686 55.3312C35.9008 55.778 42.6322 51.3085 46.1127 42.8486C49.5211 34.5546 47.8745 25.3856 42.5752 16.0319C39.0064 9.73272 33.8467 3.68232 30.2529 0.63506C29.805 0.255298 29.131 0.352168 28.8054 0.830599L28.7075 0.991639L28.5202 1.31062L28.2791 1.72612C28.1665 1.92129 28.0467 2.13036 27.9202 2.35283L27.5242 3.0539C26.8673 4.22464 26.1642 5.51594 25.4328 6.9072C23.0207 11.4953 20.7871 16.2342 18.9504 20.8731L18.7281 21.4392C15.3212 30.183 13.7657 37.4935 14.6952 42.7693L14.726 42.9388C16.0556 50.0286 21.7722 54.9052 28.6686 55.3312ZM16.658 42.5765C15.7309 37.6418 17.3068 30.3642 20.778 21.5967C22.5861 17.03 24.7909 12.3524 27.1727 7.82191L27.6683 6.88627C28.268 5.76273 28.8445 4.71366 29.387 3.75167L29.8102 3.00678L29.8629 2.91538L30.0075 3.0491C33.352 6.16631 37.7459 11.4959 40.8648 17.0009C45.8949 25.8795 47.4354 34.4579 44.2945 42.101C41.1265 49.8014 35.1604 53.7627 28.7897 53.3691C22.7784 52.9978 17.8189 48.767 16.658 42.5765Z" fill="#FDDBC6"/>
<path fill-rule="evenodd" clip-rule="evenodd" d="M53.2072 27.6177C51.047 21.0366 47.5718 14.3096 44.3679 9.61553C43.9135 8.94978 42.9241 9.00216 42.5359 9.69196L42.4955 9.77036L42.3059 10.162L42.0946 10.6045C41.8009 11.2233 41.475 11.9229 41.1231 12.6942L41.0049 12.954C38.5604 18.3357 36.2266 24.1207 34.4223 29.7005C32.1794 36.6365 31.0298 42.4407 31.2957 46.7272L31.3092 46.927C31.7487 53.2739 35.0512 58.2529 39.6289 59.6323C44.5181 61.1056 49.6235 58.2085 53.1659 51.4829C56.5334 45.0894 56.246 36.8761 53.2072 27.6177ZM51.2545 50.476C48.1525 56.3656 44.0333 58.7031 40.2522 57.5637C36.6564 56.4802 33.9085 52.3862 33.4777 46.9589L33.464 46.7734C33.1739 42.8103 34.279 37.1646 36.4778 30.3649C38.2532 24.8744 40.5583 19.1605 42.9717 13.8472L43.0884 13.5908C43.2428 13.2525 43.392 12.9283 43.5355 12.6191L43.6273 12.4217L43.7987 12.6938C46.5349 17.0638 49.3339 22.7439 51.1547 28.2912C54.0286 37.0472 54.2964 44.7007 51.2545 50.476Z" fill="#00BDC8"/>
</svg>
