<svg width="66" height="56" viewBox="0 0 66 56" fill="none" xmlns="http://www.w3.org/2000/svg">
<path d="M6.125 48.125C6.125 49.093 6.90703 49.875 7.875 49.875H48.125C49.093 49.875 49.875 49.093 49.875 48.125V25.1562H6.125V48.125ZM48.125 10.0625H38.9375V6.5625C38.9375 6.32187 38.7406 6.125 38.5 6.125H35.4375C35.1969 6.125 35 6.32187 35 6.5625V10.0625H21V6.5625C21 6.32187 20.8031 6.125 20.5625 6.125H17.5C17.2594 6.125 17.0625 6.32187 17.0625 6.5625V10.0625H7.875C6.90703 10.0625 6.125 10.8445 6.125 11.8125V21.4375H49.875V11.8125C49.875 10.8445 49.093 10.0625 48.125 10.0625Z" fill="#FDDBC6"/>
<path d="M39.2198 48.875C39.2198 49.4281 39.6807 49.875 40.2511 49.875H58.7491C59.3195 49.875 59.7804 49.4281 59.7804 48.875V41.5938C59.7804 36.0875 55.1784 31.625 49.5001 31.625C43.8218 31.625 39.2198 36.0875 39.2198 41.5938V48.875ZM41.5401 41.5938C41.5401 37.3313 45.1044 33.875 49.5001 33.875C53.8958 33.875 57.4601 37.3313 57.4601 41.5938V47.625H46.0196V42.2812C46.0196 42.1094 45.8746 41.9688 45.6974 41.9688H44.2794C44.1021 41.9688 43.9571 42.1094 43.9571 42.2812V47.625H41.5401V41.5938ZM39.99 33.7031L41.2662 32.4656C41.3661 32.3687 41.3661 32.2094 41.2662 32.1125L39.078 29.9906C39.0296 29.9441 38.9641 29.918 38.8959 29.918C38.8277 29.918 38.7623 29.9441 38.7139 29.9906L37.4377 31.2281C37.3897 31.2751 37.3628 31.3386 37.3628 31.4047C37.3628 31.4708 37.3897 31.5343 37.4377 31.5813L39.6259 33.7031C39.7258 33.8 39.8869 33.8 39.99 33.7031ZM61.5689 31.2281L60.2928 29.9906C60.2443 29.9441 60.1789 29.918 60.1107 29.918C60.0425 29.918 59.9771 29.9441 59.9286 29.9906L57.7404 32.1125C57.6924 32.1595 57.6655 32.2229 57.6655 32.2891C57.6655 32.3552 57.6924 32.4186 57.7404 32.4656L59.0166 33.7031C59.1165 33.8 59.2809 33.8 59.3808 33.7031L61.5689 31.5813C61.6688 31.4813 61.6688 31.325 61.5689 31.2281V31.2281ZM59.8126 51.875H39.1876C38.6172 51.875 38.1563 52.3219 38.1563 52.875V53.625C38.1563 53.7625 38.2724 53.875 38.4142 53.875H60.586C60.7278 53.875 60.8438 53.7625 60.8438 53.625V52.875C60.8438 52.3219 60.383 51.875 59.8126 51.875ZM48.5977 29.625H50.4024C50.5442 29.625 50.6602 29.5125 50.6602 29.375V26.375C50.6602 26.2375 50.5442 26.125 50.4024 26.125H48.5977C48.456 26.125 48.3399 26.2375 48.3399 26.375V29.375C48.3399 29.5125 48.456 29.625 48.5977 29.625Z" fill="#00BDC8"/>
</svg>
