<svg width="47" height="60" viewBox="0 0 47 60" fill="none" xmlns="http://www.w3.org/2000/svg">
<g clip-path="url(#clip0)">
<path fill-rule="evenodd" clip-rule="evenodd" d="M14.12 60L3.87109 51.0437L12.9236 34.8387H31.9089L40.6453 51.3225L30.735 60H14.12Z" fill="#FDDBC6"/>
<path d="M28 26.5C27.6 28.9 24.5 37.1667 23 41C21.1667 36 17.2 25 16 21C14.5 16 15.5 7 16.5 5C17.5 3 20 1 22 1C24 1 26 3 28 7C30 11 28.5 23.5 28 26.5Z" fill="white"/>
<path d="M21.3232 39.3865C21.6853 40.3749 21.971 41.1887 22.1683 41.7619C17.6713 40.2169 11.0666 36.4755 4.52203 27.4499C1.023 22.6245 0.67563 18.6511 1.80961 16.6097C2.36341 15.6127 3.2834 15.0353 4.46483 14.9925C5.66769 14.949 7.19081 15.4612 8.88404 16.7713C10.5595 18.0676 12.257 20.3145 13.8677 23.0073C15.472 25.6895 16.9647 28.7698 18.2434 31.6912C19.5215 34.611 20.582 37.3635 21.3232 39.3865Z" fill="white" stroke="#00BDC8"/>
<path fill-rule="evenodd" clip-rule="evenodd" d="M0.739073 16.0195C-0.837494 18.8576 0.115237 23.4543 3.53024 28.1639C9.6379 36.5869 16.2816 41.3026 22.7518 43.2297C23.2987 43.3926 23.8059 42.8944 23.6607 42.3566L23.6418 42.2954L23.4785 41.8072C23.409 41.6022 23.3312 41.375 23.2452 41.127L23.0279 40.5059C22.7539 39.7294 22.4494 38.8902 22.1165 38.0012C20.9057 34.7676 19.5694 31.5336 18.1454 28.5119L17.9558 28.1119C15.1437 22.2142 12.3532 17.9103 9.63659 15.8084C5.99937 12.9943 2.34613 13.1265 0.739073 16.0195ZM8.74484 16.9436C11.2875 18.9109 14.0479 23.2146 16.8318 29.1219C18.2373 32.1043 19.5591 35.3033 20.7571 38.5028L20.8463 38.7415C21.1707 39.6125 21.4668 40.4328 21.7322 41.1893L21.8067 41.403L21.6845 41.3589C15.9866 39.2684 10.1534 34.8362 4.70567 27.3233C1.58451 23.019 0.747795 18.982 2.00738 16.7145C3.12025 14.7112 5.73714 14.6165 8.74484 16.9436Z" fill="#00BDC8"/>
<path fill-rule="evenodd" clip-rule="evenodd" d="M19.4782 0.547086C15.8205 2.2545 13.6486 7.45646 14.1449 14.4123C14.2176 15.4088 14.3269 16.4244 14.4716 17.4595C15.1946 22.6303 16.7495 28.0815 18.991 33.9779L19.2735 34.7146C20.1962 37.1026 20.9726 38.9397 22.4882 42.4185C22.7356 42.9864 23.5418 42.9999 23.8083 42.4407L23.881 42.2848C23.9194 42.2018 23.9617 42.1089 24.0077 42.0064L24.0796 41.8456C24.292 41.3678 24.5283 40.8143 24.7825 40.1911C25.5077 38.4136 26.2324 36.4321 26.9088 34.296C28.8952 28.0227 30.0653 21.7357 30.0041 15.8487C29.9698 12.5508 29.543 9.4702 28.6806 6.64766L28.6033 6.39929C26.9535 1.19214 23.1187 -1.15224 19.4782 0.547086ZM27.2207 6.83077C28.0895 9.57709 28.521 12.6029 28.5549 15.8635C28.6143 21.5788 27.4707 27.7238 25.5262 33.8645C24.8621 35.9621 24.1505 37.9077 23.4393 39.651L23.3055 39.9763L23.1585 40.3278L22.703 39.2705C21.8032 37.1716 21.1967 35.6868 20.4756 33.8066C18.1999 27.8722 16.627 22.4087 15.9073 17.2617C15.7669 16.2571 15.6609 15.2729 15.5907 14.3095C15.1326 7.88943 17.0636 3.26433 20.095 1.8493C22.8167 0.578853 25.7511 2.34344 27.1781 6.69832L27.2207 6.83077Z" fill="#00BDC8"/>
<path d="M25.2224 41.2147C24.8812 41.3796 24.5785 41.5206 24.3202 41.6379C25.9591 36.7404 27.5542 32.0728 29.5222 27.9625C31.6304 23.5595 34.1492 19.8346 37.5666 17.1788C39.2596 15.869 40.7826 15.3569 41.9853 15.4004C43.1667 15.4431 44.0867 16.0206 44.6405 17.0175C45.7745 19.0589 45.4271 23.0323 41.9281 27.8578C38.4412 32.6665 33.7893 36.2232 29.994 38.5816C28.0987 39.7593 26.4229 40.6345 25.2224 41.2147Z" fill="white" stroke="#00BDC8"/>
<path fill-rule="evenodd" clip-rule="evenodd" d="M36.8147 16.2162C33.7223 18.6194 31.2179 21.9116 28.9982 26.2612L28.8855 26.4832C27.1952 29.8373 25.8268 33.3677 23.8535 39.186L22.8034 42.3141C22.6138 42.8814 23.1614 43.4111 23.7209 43.2231L23.7582 43.2095C23.8106 43.1889 23.9071 43.1496 24.0448 43.0915L24.2211 43.0164C24.3734 42.9508 24.5393 42.8778 24.7179 42.7974L24.8266 42.7483C25.6631 42.3685 26.5937 41.9113 27.595 41.3757C30.4541 39.8467 33.313 37.9944 35.9842 35.8107C38.6651 33.6189 41.0096 31.2077 42.921 28.5717C46.3361 23.8621 47.2888 19.2654 45.7122 16.4273C44.1052 13.5342 40.4519 13.4021 36.8147 16.2162ZM37.5586 17.4678L37.7072 17.3512C40.7149 15.0242 43.3318 15.1188 44.4446 17.1222C45.7042 19.3897 44.8675 23.4266 41.7464 27.731C39.9125 30.2601 37.6539 32.5829 35.0644 34.6999C32.4715 36.8197 29.6902 38.6217 26.9092 40.109L26.7156 40.212C26.0799 40.5486 25.4754 40.8517 24.909 41.1216L24.6975 41.2214L24.9329 40.5209C27.0482 34.2337 28.4487 30.569 30.1833 27.1272C32.3055 22.9163 34.6715 19.7556 37.5586 17.4678Z" fill="#00BDC8"/>
<path d="M22.931 45.2248C22.8317 45.2215 22.7196 45.217 22.5956 45.2105C22.0208 45.1806 21.1901 45.1103 20.177 44.9486C18.1497 44.6249 15.3995 43.9362 12.5089 42.4778L12.5082 42.4774C9.61479 41.0234 6.82021 39.0321 4.90743 37.1507C3.94879 36.2078 3.23326 35.3135 2.83118 34.5472C2.41711 33.7581 2.40084 33.2383 2.57453 32.9279C2.86358 32.4113 3.18357 31.9573 3.62074 31.6281C4.04713 31.307 4.61765 31.0803 5.45299 31.0763C7.16866 31.068 9.96197 31.9979 14.6752 34.954C19.3365 37.8774 21.3363 40.5316 22.2133 42.4432C22.6522 43.3998 22.8163 44.1839 22.8861 44.7435C22.909 44.9266 22.9219 45.0861 22.931 45.2248Z" fill="white" stroke="#00BDC8"/>
<path fill-rule="evenodd" clip-rule="evenodd" d="M5.44669 29.8571C3.53712 29.8663 2.41096 30.7144 1.50432 32.3346C0.0295181 34.9702 5.43982 40.2917 11.9561 43.5664C14.489 44.8443 17.0977 45.6578 19.654 46.0984C20.5801 46.2579 21.4452 46.3584 22.2336 46.4109L22.4372 46.4235C22.8326 46.4462 23.1574 46.4536 23.4033 46.4514L23.5148 46.4495L23.5555 46.4471C24.0391 46.4064 24.3272 45.9201 24.1782 45.4962L24.1741 45.486L24.1521 45.1361C24.1438 45.0123 24.1343 44.8969 24.122 44.7771C24.0898 44.4652 24.0409 44.1525 23.9681 43.823C23.7796 42.9699 23.4485 42.0868 22.9333 41.1616C21.5878 38.7456 19.1446 36.3164 15.3275 33.9224L15.017 33.7288C10.6995 31.0537 7.63035 29.8466 5.44669 29.8571ZM5.4538 31.2961C7.34702 31.287 10.2861 32.4625 14.5535 35.139C18.1749 37.4102 20.4451 39.6674 21.665 41.8579L21.7344 41.984C22.3445 43.1055 22.5692 43.887 22.674 44.8984L22.6833 44.9956L22.6071 44.9918C22.5193 44.9872 22.4272 44.9817 22.3307 44.9753C21.5915 44.926 20.7766 44.8314 19.9019 44.6807C17.4809 44.2635 15.009 43.4926 12.6117 42.2831C9.79722 40.8687 7.00517 38.9032 5.06655 36.9964C3.2169 35.1771 2.4208 33.66 2.77138 33.0335C3.44691 31.8263 4.14253 31.3024 5.4538 31.2961Z" fill="#00BDC8"/>
<path fill-rule="evenodd" clip-rule="evenodd" d="M41.536 29.8571C39.3004 29.8464 36.1365 31.1118 31.6552 33.9224C27.8381 36.3164 25.3949 38.7456 24.0494 41.1616C23.5342 42.0868 23.2031 42.9699 23.0146 43.823C22.9418 44.1525 22.8929 44.4652 22.8608 44.7771C22.8525 44.857 22.8456 44.9349 22.8394 45.0146L22.8084 45.486L22.8045 45.4962C22.656 45.9187 22.9417 46.4031 23.4223 46.4467L23.4816 46.4499L23.5196 46.4506C23.8105 46.4553 24.2256 46.4458 24.7492 46.4109C25.5375 46.3584 26.4026 46.2579 27.3288 46.0984C29.885 45.6578 32.4938 44.8443 35.0277 43.5658C41.5429 40.2917 46.9532 34.9702 45.4784 32.3346C44.5718 30.7144 43.4456 29.8663 41.536 29.8571ZM41.53 31.2962C42.8413 31.3025 43.5369 31.8263 44.2124 33.0336C44.563 33.6601 43.7669 35.1772 41.9173 36.9965C39.9787 38.9033 37.1866 40.8688 34.3731 42.2827C31.9749 43.4927 29.5029 44.2635 27.0819 44.6807C26.2072 44.8315 25.3923 44.9261 24.6531 44.9753L24.3768 44.9919L24.3003 44.9957L24.3098 44.8985C24.4185 43.8496 24.6561 43.048 25.3188 41.858C26.5387 39.6675 28.8089 37.4102 32.4303 35.139L32.7293 34.9526C36.8355 32.4079 39.6813 31.2873 41.53 31.2962Z" fill="#00BDC8"/>
<path d="M24.0522 45.2248C24.0614 45.0861 24.0743 44.9266 24.0971 44.7435C24.1669 44.1839 24.331 43.3998 24.7699 42.4432C25.6469 40.5316 27.6467 37.8774 32.308 34.954C37.0212 31.9979 39.8146 31.068 41.5302 31.0763C42.3656 31.0803 42.9361 31.307 43.3625 31.6281C43.7997 31.9573 44.1196 32.4113 44.4087 32.9279C44.5824 33.2383 44.5661 33.7581 44.152 34.5472C43.75 35.3135 43.0344 36.2078 42.0758 37.1507C40.163 39.0321 37.3684 41.0234 34.475 42.4774L34.4743 42.4778C31.5837 43.9362 28.8335 44.6249 26.8062 44.9486C25.7931 45.1103 24.9624 45.1806 24.3876 45.2105C24.2636 45.217 24.1516 45.2215 24.0522 45.2248Z" fill="white" stroke="#00BDC8"/>
</g>
<defs>
<clipPath id="clip0">
<rect width="47" height="60" fill="white"/>
</clipPath>
</defs>
</svg>
