<svg width="1436" height="390" viewBox="0 0 1436 390" fill="none" xmlns="http://www.w3.org/2000/svg">
<path d="M1404.78 137.824C1399.68 145.455 1366.98 168.983 1351.26 179.793C1349.35 178.945 1345.02 176.74 1342.98 174.706C1340.43 172.162 1339.79 146.091 1340.43 137.824C1341.07 129.557 1351.26 82.5017 1355.08 71.0557C1358.91 59.6098 1379.29 32.9024 1390.13 27.1794C1400.96 21.4564 1416.25 29.0871 1420.71 30.3589C1425.17 31.6307 1428.99 43.0766 1432.18 50.7073C1435.36 58.338 1433.45 77.4146 1432.18 85.0453C1430.9 92.676 1411.15 128.286 1404.78 137.824Z" fill="#C1E3E0"/>
<path d="M1307.93 207.772C1308.95 215.402 1306.66 219.006 1305.39 219.854C1301.56 219.43 1292.9 218.2 1288.82 216.674C1283.72 214.767 1263.97 201.413 1261.42 199.505C1258.87 197.598 1233.39 173.434 1230.84 170.89C1228.29 168.347 1219.37 150.542 1217.46 145.455C1215.55 140.368 1214.91 128.922 1214.91 122.563C1214.91 116.204 1222.56 106.03 1225.74 103.486C1228.93 100.942 1237.21 100.307 1242.95 100.942C1248.68 101.578 1260.15 109.845 1265.25 113.66C1270.34 117.476 1276.71 126.378 1281.81 132.737C1286.91 139.096 1294.55 158.172 1297.74 165.803C1300.93 173.434 1306.66 198.233 1307.93 207.772Z" fill="#C1E3E0"/>
<path fill-rule="evenodd" clip-rule="evenodd" d="M1214.28 118.304C1209.56 136.548 1217.92 160.26 1238.77 181.172L1239.41 181.805C1255.11 197.334 1268.58 208.062 1279.98 214.72L1280.83 215.21C1288.97 219.862 1295.45 222.088 1300.4 222.526C1302.78 222.756 1305.14 221.998 1307.02 220.427C1309.27 218.485 1310.43 215.66 1310.12 212.775L1310.09 212.553C1304.68 163.348 1282.2 118.852 1251.39 102.489C1234.49 93.4978 1218.82 100.766 1214.28 118.304ZM1249.64 105.776C1278.89 121.304 1300.66 163.994 1306.24 211.556L1306.4 212.999C1306.63 214.741 1305.97 216.425 1304.62 217.588C1303.51 218.513 1302.13 218.955 1300.74 218.82C1296.2 218.418 1289.95 216.232 1281.86 211.506C1270.87 205.092 1257.81 194.721 1242.55 179.679L1242.03 179.158C1221.58 158.962 1213.48 136.267 1217.88 119.236C1221.83 103.994 1234.9 97.9308 1249.64 105.776Z" fill="#C1E3E0"/>
<path fill-rule="evenodd" clip-rule="evenodd" d="M1222.4 106.856C1223.1 106.154 1224.21 106.12 1224.95 106.758L1225.1 106.901L1226.06 107.872C1226.82 108.635 1227.68 109.518 1228.65 110.515L1229.83 111.745C1232.69 114.721 1235.84 118.069 1239.2 121.745C1249.8 133.355 1260.41 145.857 1270.31 158.78C1282.17 174.264 1292.21 189.311 1299.86 203.542C1302.26 208.012 1304.41 212.378 1306.29 216.631C1306.71 217.57 1306.28 218.669 1305.34 219.086C1304.41 219.502 1303.31 219.079 1302.89 218.139C1301.04 213.975 1298.94 209.693 1296.58 205.303C1289.04 191.267 1279.11 176.38 1267.35 161.044C1257.87 148.671 1247.74 136.678 1237.58 125.495L1236.45 124.255C1232.94 120.411 1229.66 116.929 1226.71 113.861L1225.41 112.526C1225.05 112.149 1224.7 111.791 1224.36 111.451L1222.89 109.962L1222.42 109.487C1221.69 108.764 1221.68 107.586 1222.4 106.856Z" fill="#F7FAFA"/>
<path fill-rule="evenodd" clip-rule="evenodd" d="M1233.96 168.389L1234.72 168.376C1235.96 168.365 1237.56 168.396 1239.49 168.491L1239.86 168.51C1243.33 168.692 1247.12 169.051 1251.15 169.626C1262.19 171.202 1273.37 174.14 1284.12 178.773C1285.06 179.18 1285.5 180.275 1285.09 181.218C1284.68 182.162 1283.59 182.597 1282.65 182.191C1272.22 177.697 1261.36 174.842 1250.62 173.31C1246.7 172.751 1243.03 172.403 1239.66 172.226L1238.97 172.192C1237.27 172.113 1235.85 172.088 1234.76 172.097L1234.08 172.108C1233.06 172.143 1232.2 171.338 1232.16 170.311C1232.13 169.284 1232.93 168.424 1233.96 168.389Z" fill="#F7FAFA"/>
<path fill-rule="evenodd" clip-rule="evenodd" d="M1260.76 112.188C1261.66 111.683 1262.79 111.999 1263.3 112.894L1263.83 113.848C1264.02 114.199 1264.24 114.587 1264.47 115.012L1265.12 116.222C1265.87 117.608 1266.68 119.126 1267.53 120.76C1270.7 126.828 1273.86 133.26 1276.82 139.774C1279.16 144.929 1281.27 149.927 1283.1 154.698L1283.5 155.727C1288.52 169.041 1291.03 179.786 1290.32 187.234C1290.22 188.257 1289.31 189.006 1288.29 188.908C1287.27 188.81 1286.52 187.902 1286.62 186.879C1287.28 179.978 1284.72 169.315 1279.63 156.031C1277.83 151.334 1275.74 146.403 1273.43 141.313C1270.51 134.865 1267.37 128.494 1264.23 122.482L1263.48 121.057C1262.91 119.974 1262.37 118.95 1261.85 117.991L1261.07 116.546L1260.17 114.923C1260.12 114.834 1260.08 114.767 1260.06 114.723C1259.55 113.828 1259.87 112.693 1260.76 112.188Z" fill="#F7FAFA"/>
<path fill-rule="evenodd" clip-rule="evenodd" d="M1262.8 196.368L1262.96 196.359L1263.91 196.342C1266.09 196.32 1268.87 196.405 1272.06 196.67C1277.3 197.108 1282.48 197.954 1287.35 199.31C1292 200.606 1296.17 202.321 1299.74 204.511C1300.61 205.049 1300.88 206.195 1300.35 207.071C1299.81 207.946 1298.66 208.22 1297.79 207.683C1294.54 205.69 1290.69 204.104 1286.35 202.894C1281.73 201.607 1276.77 200.798 1271.75 200.379C1268.55 200.112 1265.78 200.035 1263.67 200.066L1263.05 200.08C1262.02 200.118 1261.16 199.316 1261.12 198.29C1261.08 197.299 1261.83 196.461 1262.8 196.368Z" fill="#F7FAFA"/>
<path fill-rule="evenodd" clip-rule="evenodd" d="M1401.37 24.0333C1380.37 24.9608 1360.68 44.6201 1350.37 78.9956L1350.06 80.0417L1349.58 81.6793C1342.44 106.421 1338.74 126.826 1337.88 143.311L1337.85 143.853C1337.25 156.454 1338.34 165.798 1340.46 172.314C1341.4 175.192 1343.21 177.642 1345.6 179.239C1348.65 181.293 1352.18 181.655 1355.04 180.062C1402.14 154.441 1435.46 109.161 1436 64.0887C1436.31 39.7825 1421.28 23.1541 1401.37 24.0333ZM1432.27 64.0428C1431.76 107.62 1399.27 151.765 1353.25 176.801C1351.67 177.676 1349.63 177.467 1347.68 176.149C1345.98 175.019 1344.68 173.26 1344 171.162C1342.02 165.096 1340.98 156.201 1341.57 144.033L1341.63 142.966C1342.53 126.695 1346.25 106.476 1353.39 81.8976L1353.63 81.0857C1358.76 63.5107 1366.25 49.9236 1375.37 40.7288C1383.5 32.5357 1392.65 28.1436 1401.54 27.7509C1419.19 26.9714 1432.56 41.7688 1432.27 64.0428Z" fill="#C1E3E0"/>
<path fill-rule="evenodd" clip-rule="evenodd" d="M1416.52 32.282C1417.42 31.7986 1418.55 32.1417 1419.03 33.0485C1419.52 33.9553 1419.17 35.0823 1418.27 35.5658C1399.17 45.7475 1383.33 70.1579 1370.63 104.463C1364.57 120.848 1359.62 138.418 1355.71 155.99L1355.35 157.657C1354.26 162.623 1353.33 167.286 1352.54 171.564L1352.29 172.976C1352.04 174.32 1351.83 175.55 1351.64 176.658L1351.3 178.79L1351.2 179.391C1351.05 180.407 1350.11 181.109 1349.09 180.958C1348.11 180.812 1347.42 179.927 1347.51 178.953L1347.54 178.76L1347.76 177.365L1347.91 176.414C1348.07 175.439 1348.26 174.368 1348.46 173.206L1348.62 172.317C1349.55 167.145 1350.7 161.385 1352.08 155.182C1356.02 137.458 1361.01 119.731 1367.14 103.172C1380.13 68.0827 1396.41 43.0055 1416.52 32.282Z" fill="#F7FAFA"/>
<path fill-rule="evenodd" clip-rule="evenodd" d="M1430.9 69.6845C1431.84 69.2677 1432.94 69.6912 1433.35 70.6304C1433.77 71.5697 1433.35 72.6691 1432.41 73.0859C1422.9 77.308 1411.95 82.6029 1401.36 88.4282L1400.28 89.0239C1385.44 97.2546 1374.04 105.1 1367.66 112.029C1366.97 112.785 1365.79 112.834 1365.03 112.138C1364.28 111.443 1364.23 110.266 1364.92 109.509C1371.72 102.127 1383.59 93.9923 1399.01 85.4752L1399.57 85.1672C1410.26 79.2843 1421.3 73.9459 1430.9 69.6845Z" fill="#F7FAFA"/>
<path fill-rule="evenodd" clip-rule="evenodd" d="M1352.53 79.8341C1352.63 78.8109 1353.54 78.0585 1354.56 78.1536C1355.58 78.2487 1356.33 79.1553 1356.24 80.1785L1356.1 81.7212C1353.87 106.817 1354.51 126.884 1359.71 133.706C1360.33 134.524 1360.18 135.691 1359.36 136.314C1358.54 136.937 1357.37 136.779 1356.75 135.961C1353.27 131.386 1351.6 122.579 1351.26 110.308C1351.01 101.157 1351.52 90.7002 1352.53 79.8341Z" fill="#F7FAFA"/>
<path fill-rule="evenodd" clip-rule="evenodd" d="M1410.96 124.326C1411.76 123.684 1412.93 123.813 1413.57 124.616C1414.21 125.418 1414.09 126.589 1413.28 127.231C1407.51 131.857 1399.18 136.64 1388.94 141.477C1381.83 144.834 1374.23 148.02 1366.63 150.934L1365.41 151.397C1363.41 152.156 1361.53 152.851 1359.79 153.476L1358.17 154.052L1356.47 154.645C1355.5 154.974 1354.44 154.452 1354.11 153.479C1353.8 152.54 1354.27 151.525 1355.18 151.158L1357.2 150.451L1358.02 150.157C1360.21 149.372 1362.66 148.469 1365.29 147.459C1372.82 144.576 1380.34 141.425 1387.35 138.112C1397.35 133.389 1405.45 128.735 1410.96 124.326Z" fill="#F7FAFA"/>
<path fill-rule="evenodd" clip-rule="evenodd" d="M1378.17 209.019C1379.19 208.932 1380.09 209.692 1380.18 210.716C1380.26 211.74 1379.5 212.64 1378.48 212.727C1369.23 213.507 1361.38 217.577 1354.78 224.252C1349.72 229.368 1345.74 235.657 1342.75 242.333C1342.33 243.271 1341.23 243.692 1340.29 243.272C1339.36 242.853 1338.94 241.752 1339.36 240.814C1342.51 233.761 1346.73 227.106 1352.13 221.636C1359.32 214.364 1367.97 209.878 1378.17 209.019Z" fill="#C1E3E0"/>
<path fill-rule="evenodd" clip-rule="evenodd" d="M1379.1 210.06C1381.27 209.761 1382.3 204.209 1381.4 197.66C1380.5 191.11 1378.01 186.043 1375.83 186.342C1373.66 186.641 1372.63 192.193 1373.53 198.743C1374.44 205.292 1376.93 210.359 1379.1 210.06Z" fill="#FFE0CD"/>
<path fill-rule="evenodd" clip-rule="evenodd" d="M1389.92 205.943C1394.62 202.118 1397.42 197.768 1396.17 196.226C1394.91 194.685 1390.08 196.535 1385.38 200.36C1380.68 204.184 1377.88 208.534 1379.13 210.076C1380.38 211.618 1385.21 209.767 1389.92 205.943Z" fill="#FFE0CD"/>
<path fill-rule="evenodd" clip-rule="evenodd" d="M1379.09 209.756C1380.09 207.808 1376.15 203.77 1370.27 200.736C1364.4 197.702 1358.82 196.822 1357.82 198.77C1356.81 200.718 1360.76 204.756 1366.63 207.79C1372.5 210.824 1378.08 211.704 1379.09 209.756Z" fill="#FFE0CD"/>
<path fill-rule="evenodd" clip-rule="evenodd" d="M1398.44 220.547C1399.38 218.799 1395.82 215.046 1390.49 212.163C1385.16 209.281 1380.07 208.361 1379.12 210.109C1378.18 211.857 1381.74 215.611 1387.07 218.493C1392.41 221.375 1397.49 222.295 1398.44 220.547Z" fill="#FFE0CD"/>
<path fill-rule="evenodd" clip-rule="evenodd" d="M1377.71 221.555C1380.25 216.053 1380.85 210.916 1379.05 210.081C1377.25 209.246 1373.72 213.03 1371.18 218.532C1368.63 224.034 1368.03 229.171 1369.83 230.006C1371.63 230.841 1375.16 227.057 1377.71 221.555Z" fill="#FFE0CD"/>
<path fill-rule="evenodd" clip-rule="evenodd" d="M1278.64 68.6181C1279.27 67.8123 1280.44 67.6759 1281.25 68.3135L1281.48 68.4968C1281.57 68.5762 1281.69 68.674 1281.83 68.7901L1282.17 69.088C1282.53 69.4 1282.93 69.754 1283.36 70.1503C1285 71.649 1286.81 73.4547 1288.76 75.5714C1294.32 81.5992 1299.87 88.9207 1305.05 97.5689C1314.67 113.63 1321.88 132.39 1325.69 153.928C1330.37 180.336 1329.7 209.679 1322.72 242.028C1322.5 243.033 1321.51 243.671 1320.51 243.454C1319.5 243.238 1318.86 242.247 1319.08 241.243C1325.96 209.361 1326.62 180.505 1322.03 154.577C1318.29 133.498 1311.25 115.163 1301.86 99.4807C1296.82 91.0589 1291.42 83.9404 1286.03 78.0945C1284.15 76.0555 1282.41 74.323 1280.85 72.8933L1280.45 72.5348C1280.07 72.1902 1279.72 71.8872 1279.42 71.6258L1279.01 71.2895C1278.98 71.2658 1278.96 71.2465 1278.94 71.2318C1278.14 70.5942 1278 69.424 1278.64 68.6181Z" fill="#C1E3E0"/>
<path fill-rule="evenodd" clip-rule="evenodd" d="M1285.51 73.6275C1289.24 71.4514 1288.68 63.5483 1284.26 55.9754C1279.84 48.4026 1273.23 44.0276 1269.5 46.2037C1265.78 48.3798 1266.34 56.283 1270.76 63.8558C1275.18 71.4287 1281.79 75.8037 1285.51 73.6275Z" fill="#FFE0CD"/>
<path fill-rule="evenodd" clip-rule="evenodd" d="M1286.48 73.5386C1286.56 69.2235 1279.53 65.5838 1270.76 65.4092C1261.99 65.2346 1254.82 68.5912 1254.73 72.9063C1254.65 77.2214 1261.68 80.861 1270.45 81.0357C1279.22 81.2103 1286.39 77.8537 1286.48 73.5386Z" fill="#FFE0CD"/>
<path fill-rule="evenodd" clip-rule="evenodd" d="M1300.63 66.741C1305.36 60.4885 1306.72 53.5419 1303.66 51.2255C1300.61 48.9091 1294.29 52.0999 1289.55 58.3525C1284.82 64.605 1283.46 71.5516 1286.51 73.868C1289.57 76.1845 1295.89 72.9936 1300.63 66.741Z" fill="#FFE0CD"/>
<path fill-rule="evenodd" clip-rule="evenodd" d="M1293.06 96.3684C1296.55 94.7805 1296.75 87.7047 1293.5 80.5642C1290.26 73.4237 1284.79 68.9224 1281.3 70.5103C1277.81 72.0982 1277.61 79.174 1280.86 86.3145C1284.1 93.455 1289.57 97.9563 1293.06 96.3684Z" fill="#FFE0CD"/>
<path fill-rule="evenodd" clip-rule="evenodd" d="M1305.4 74.8441C1305.76 71.4035 1300.34 68.0096 1293.29 67.2637C1286.24 66.5178 1280.23 68.7022 1279.87 72.1428C1279.5 75.5834 1284.92 78.9773 1291.97 79.7232C1299.02 80.4691 1305.03 78.2847 1305.4 74.8441Z" fill="#FFE0CD"/>
<path fill-rule="evenodd" clip-rule="evenodd" d="M1395.63 240.023H1263.79C1255.99 240.023 1250.5 248.519 1252.42 257.053L1281.57 387.545C1281.76 388.395 1282.51 389 1283.38 389H1375.97C1376.84 389 1377.59 388.395 1377.78 387.545L1406.93 257.051C1408.85 248.533 1403.37 240.023 1395.63 240.023ZM1395.62 243.744L1395.79 243.746C1400.87 243.874 1404.71 249.946 1403.3 256.237L1374.48 385.279H1284.87L1256.05 256.239C1254.62 249.868 1258.57 243.744 1263.79 243.744H1395.62Z" fill="#FFF4EE"/>
<path d="M1404.14 256.099L1374.83 385.185L1284.36 385.821L1253.78 254.828C1253.78 253.344 1254.16 249.613 1255.69 246.561C1257.22 243.509 1260.15 242.322 1261.42 242.11H1395.22C1401.59 242.746 1401.59 245.289 1404.14 249.105C1406.18 252.157 1404.99 255.04 1404.14 256.099Z" fill="#FFF4EE"/>
<path fill-rule="evenodd" clip-rule="evenodd" d="M1264.31 248.093C1253.87 248.223 1244.45 249.576 1235.96 252.047C1235.42 252.203 1235.11 252.765 1235.27 253.302C1235.42 253.839 1235.99 254.147 1236.52 253.991C1244.55 251.656 1253.44 250.338 1263.28 250.135L1263.53 250.13L1263.58 250.36C1263.76 251.188 1263.94 252.154 1264.12 253.246C1265.47 261.908 1265.26 271.95 1262.43 282.449C1262.29 282.989 1262.61 283.544 1263.15 283.69C1263.69 283.835 1264.24 283.516 1264.39 282.976C1267.26 272.304 1267.5 262.1 1266.16 253.25L1266.12 252.934C1265.94 251.8 1265.75 250.794 1265.56 249.926L1265.5 249.674C1265.48 249.552 1265.45 249.438 1265.42 249.33L1265.31 248.892C1265.31 248.87 1265.3 248.851 1265.3 248.836C1265.18 248.392 1264.77 248.087 1264.31 248.093Z" fill="#00BDC8"/>
<path fill-rule="evenodd" clip-rule="evenodd" d="M1237.3 252.74C1237.21 252.189 1236.68 251.823 1236.13 251.921C1235.58 252.02 1235.21 252.545 1235.31 253.096C1237.25 263.962 1237.09 274.532 1235.11 284.884C1235 285.433 1235.36 285.963 1235.91 286.069C1236.46 286.174 1236.99 285.814 1237.1 285.265C1239.13 274.676 1239.29 263.856 1237.3 252.74Z" fill="#00BDC8"/>
<path fill-rule="evenodd" clip-rule="evenodd" d="M1204.9 191.341C1204.59 190.992 1204.08 190.899 1203.67 191.116L1203.51 191.205C1203.38 191.276 1203.22 191.36 1203.05 191.458L1202.74 191.632C1202.38 191.843 1201.97 192.081 1201.53 192.347L1201.34 192.463C1199.51 193.577 1197.47 194.92 1195.28 196.496C1189.02 200.995 1182.77 206.46 1176.93 212.915C1173.3 216.93 1169.94 221.213 1166.91 225.768C1166.6 226.234 1166.73 226.862 1167.2 227.172C1167.66 227.481 1168.29 227.355 1168.6 226.889C1171.57 222.42 1174.87 218.215 1178.43 214.273C1184.17 207.93 1190.32 202.559 1196.46 198.14C1198.51 196.669 1200.42 195.406 1202.14 194.349L1202.39 194.192C1202.83 193.927 1203.23 193.688 1203.6 193.477L1203.92 193.292L1203.92 193.296C1221.5 213.318 1231.6 233.101 1235.2 252.502L1235.31 253.096C1235.41 253.646 1235.93 254.013 1236.49 253.914C1237.04 253.816 1237.4 253.29 1237.3 252.74C1233.7 232.569 1223.23 212.046 1204.9 191.341Z" fill="#00BDC8"/>
<path fill-rule="evenodd" clip-rule="evenodd" d="M1114.07 269.363C1102.23 264.39 1088.48 263.914 1072.72 268.72C1072.26 268.859 1071.96 269.302 1072 269.78L1072.02 269.984L1072.07 270.427L1072.13 270.902C1072.2 271.438 1072.28 272.038 1072.38 272.697C1072.73 274.996 1073.2 277.556 1073.84 280.311C1075.81 289.388 1089.94 323.687 1093.99 330.841C1094.24 331.34 1094.85 331.54 1095.35 331.288C1095.85 331.036 1096.05 330.427 1095.8 329.928C1092.16 322.73 1077.58 287.582 1075.81 279.859C1075.19 277.155 1074.72 274.646 1074.38 272.396L1074.31 271.936C1074.26 271.561 1074.21 271.209 1074.17 270.881L1074.11 270.415L1074.22 270.382C1089.01 266.05 1101.86 266.53 1112.94 271.087L1113.28 271.229C1122.63 275.158 1130.42 281.866 1136.76 290.579C1140.47 295.676 1143.47 301.142 1145.8 306.608C1146.61 308.52 1147.29 310.294 1147.83 311.884L1147.95 312.245C1148.07 312.596 1148.17 312.918 1148.26 313.209L1148.38 313.595L1148.45 313.856C1148.6 314.395 1149.16 314.711 1149.7 314.563C1150.24 314.414 1150.55 313.857 1150.4 313.318L1150.32 313.02C1150.29 312.941 1150.27 312.854 1150.24 312.761L1150.15 312.456C1150.03 312.088 1149.9 311.68 1149.74 311.233C1149.19 309.596 1148.5 307.774 1147.66 305.814C1145.27 300.216 1142.21 294.618 1138.4 289.388C1131.85 280.395 1123.79 273.447 1114.07 269.363Z" fill="#00BDC8"/>
<path fill-rule="evenodd" clip-rule="evenodd" d="M1131.08 195.363C1130.7 195.131 1130.2 195.181 1129.87 195.487L1129.76 195.591L1129.54 195.802C1129.32 196.024 1129.06 196.282 1128.77 196.576L1128.65 196.705C1127.69 197.696 1126.63 198.871 1125.49 200.229C1122.23 204.098 1118.98 208.651 1115.94 213.858C1112.7 219.415 1092.64 258.542 1090.72 265.563C1090.54 266.091 1090.82 266.668 1091.35 266.852C1091.88 267.036 1092.45 266.091 1092.64 265.563C1094.82 259.292 1114.51 220.325 1117.69 214.878C1120.66 209.775 1123.85 205.317 1127.04 201.532L1127.45 201.045C1128.34 200.008 1129.17 199.089 1129.93 198.292L1130.11 198.11C1130.23 197.984 1130.34 197.866 1130.45 197.754L1130.71 197.501L1131.09 197.733C1147.97 208.028 1161.27 219.545 1171.3 232.102L1171.61 232.491C1180.68 243.954 1186.91 256.118 1190.61 268.791C1190.77 269.327 1191.33 269.635 1191.87 269.479C1192.41 269.322 1192.71 268.76 1192.56 268.223C1184.45 240.478 1164.79 215.643 1131.08 195.363Z" fill="#00BDC8"/>
<path fill-rule="evenodd" clip-rule="evenodd" d="M1149.32 238.032C1137.2 252.637 1130.23 266.554 1127.78 279.761C1127.67 280.311 1128.04 280.839 1128.59 280.941C1129.14 281.043 1129.67 280.68 1129.77 280.13C1132.1 267.539 1138.7 254.22 1150.17 240.185L1150.38 239.928L1150.76 240.112C1151.04 240.245 1151.33 240.389 1151.65 240.545L1152.03 240.738L1152.64 241.042C1154.36 241.919 1156.25 242.931 1158.28 244.076C1164.74 247.73 1171.2 251.963 1177.23 256.72C1189.46 266.375 1198.3 276.909 1202.28 288.106C1207.2 301.912 1204.48 316.077 1192.62 330.559C1192.27 330.992 1192.33 331.63 1192.77 331.984C1193.2 332.338 1193.84 332.274 1194.19 331.842C1206.49 316.82 1209.35 301.914 1204.19 287.428C1200.06 275.811 1190.99 265.001 1178.48 255.131C1172.37 250.304 1165.82 246.016 1159.27 242.314L1158.56 241.91C1156.54 240.781 1154.65 239.786 1152.94 238.928L1152.55 238.732C1152.17 238.541 1151.81 238.367 1151.48 238.209L1151.06 238.006L1150.52 237.756C1150.11 237.568 1149.62 237.681 1149.32 238.032Z" fill="#00BDC8"/>
<path fill-rule="evenodd" clip-rule="evenodd" d="M1263.47 282.311C1240.73 280.31 1220.34 286.964 1202.41 300.018C1195.52 305.035 1189.27 310.812 1183.67 317.07C1179.46 321.769 1175.92 326.392 1173.06 330.671C1172.75 331.136 1172.87 331.765 1173.34 332.076C1173.8 332.386 1174.43 332.262 1174.74 331.797C1177.56 327.593 1181.03 323.045 1185.17 318.42C1190.69 312.263 1196.83 306.583 1203.6 301.655C1221.16 288.872 1241.08 282.373 1263.29 284.328C1263.85 284.377 1264.34 283.965 1264.39 283.409C1264.43 282.852 1264.02 282.36 1263.47 282.311Z" fill="#00BDC8"/>
<path fill-rule="evenodd" clip-rule="evenodd" d="M1263.46 282.311C1262.91 282.263 1262.42 282.676 1262.37 283.233C1262.32 283.79 1262.73 284.28 1263.29 284.328C1269.45 284.86 1275.85 286.09 1282.47 288.032L1282.93 288.169L1282.74 288.568C1282.65 288.736 1282.57 288.91 1282.48 289.091L1282.2 289.65C1281.17 291.674 1279.92 293.93 1278.43 296.362C1274.2 303.316 1268.98 310.271 1262.74 316.761C1256.71 323.037 1250.02 328.545 1242.66 333.072C1242.19 333.364 1242.04 333.988 1242.33 334.464C1242.62 334.94 1243.25 335.089 1243.72 334.796C1251.24 330.175 1258.05 324.558 1264.2 318.164C1270.55 311.561 1275.85 304.489 1280.16 297.416C1281.67 294.938 1282.95 292.636 1284 290.568L1284.2 290.18C1284.42 289.737 1284.62 289.327 1284.8 288.952L1284.95 288.639C1285 288.521 1285.05 288.412 1285.1 288.312L1285.26 287.959L1285.27 287.94C1285.51 287.387 1285.21 286.748 1284.64 286.57C1277.32 284.313 1270.26 282.898 1263.46 282.311Z" fill="#00BDC8"/>
<path fill-rule="evenodd" clip-rule="evenodd" d="M1096.54 330.155C1093.32 330.155 1090.69 332.741 1090.63 335.949L1090.63 336.059V353.909C1090.63 357.131 1093.22 359.754 1096.43 359.813L1096.54 359.814L1104.44 359.814L1120.9 465.227C1121.02 465.753 1121.53 466.089 1122.06 466.001L1122.11 465.99C1122.64 465.87 1122.98 465.361 1122.89 464.836L1122.88 464.778L1106.23 358.577C1106.13 358.137 1105.75 357.818 1105.31 357.792L1105.25 357.79H1096.54C1094.43 357.79 1092.71 356.103 1092.66 354.008L1092.66 353.909V336.059C1092.66 333.952 1094.34 332.233 1096.44 332.18L1096.54 332.179H1164.46C1165.02 332.179 1165.47 331.726 1165.47 331.167C1165.47 330.628 1165.05 330.187 1164.52 330.156L1164.46 330.155H1096.54Z" fill="#B5BDBF"/>
<path fill-rule="evenodd" clip-rule="evenodd" d="M1161.21 330.188C1160.65 330.188 1160.2 330.642 1160.2 331.201C1160.2 331.74 1160.62 332.18 1161.15 332.211L1161.21 332.213H1238.91C1241.01 332.213 1242.73 333.9 1242.79 335.995L1242.79 336.093V353.943C1242.79 356.05 1241.1 357.77 1239 357.822L1238.91 357.823H1230.77C1230.32 357.823 1229.93 358.123 1229.8 358.552L1229.78 358.611L1205.52 465.17C1205.39 465.715 1205.73 466.258 1206.28 466.382C1206.8 466.502 1207.33 466.188 1207.48 465.677L1207.49 465.62L1231.58 359.848H1238.91C1242.13 359.848 1244.75 357.261 1244.81 354.054L1244.81 353.943V336.093C1244.81 332.872 1242.23 330.249 1239.02 330.189L1238.91 330.188H1161.21Z" fill="#B5BDBF"/>
<g opacity="0.9">
<path fill-rule="evenodd" clip-rule="evenodd" d="M109.274 320.234C103.442 279.206 90.6792 189.739 128.873 147.516C167.067 105.292 173.138 115.334 179.783 80.6184C186.427 45.9027 221.658 31.8442 239.392 52.0234C257.175 72.1547 235.807 110.744 228.923 119.16C222.04 127.576 228.254 179.41 205.835 215.273C183.416 251.137 147.421 225.459 148.95 256.636C146.895 318.082 109.274 320.234 109.274 320.234Z" fill="#BAE0DD"/>
<path fill-rule="evenodd" clip-rule="evenodd" d="M222.756 65.394C222.086 64.9717 221.201 65.1729 220.779 65.8433L220.155 66.8411L218.902 68.863C217.982 70.3538 216.949 72.0397 215.812 73.9114L214.724 75.704C211.063 81.7523 207.038 88.5299 202.733 95.9358C189.206 119.211 175.678 143.917 163.051 168.983C152.635 189.659 143.286 209.702 135.268 228.795C120.089 264.943 110.18 296.474 106.659 322.094C106.551 322.879 107.099 323.603 107.884 323.711C108.668 323.819 109.392 323.27 109.5 322.485C112.982 297.156 122.822 265.843 137.913 229.906C145.903 210.878 155.225 190.895 165.612 170.274C178.212 145.264 191.712 120.606 205.213 97.3779L206.916 94.4553C210.854 87.7153 214.54 81.534 217.903 75.9933L219.662 73.106C220.109 72.3752 220.536 71.6793 220.943 71.0189L222.785 68.0442L223.206 67.3723C223.628 66.7019 223.426 65.8162 222.756 65.394Z" fill="white"/>
<path fill-rule="evenodd" clip-rule="evenodd" d="M88.6715 0.236653C126.005 -3.34968 133.749 34.522 134.944 66.56C136.139 98.5979 130.212 110.122 148.424 127.145C166.637 144.216 137 167.264 139.533 184.192C142.067 201.119 159.562 246.355 91.5396 346.581C89.0539 350.215 85.5165 379.48 85.5165 379.48L70.7934 375.511C70.7934 375.511 80.2583 351.745 69.5505 322.959C58.8428 294.125 40.678 280.593 38.9571 244.538C37.2362 208.483 63.0016 215.465 58.2692 191.747C53.5368 168.029 29.3488 151.628 31.2131 127.862C33.0774 104.049 77.7725 86.7391 67.8775 59.3395C57.9824 31.8921 56.3571 3.34481 88.6715 0.236653Z" fill="#BAE0DD"/>
<path fill-rule="evenodd" clip-rule="evenodd" d="M102.752 12.9812C102.027 13.2215 101.623 13.9848 101.818 14.7134L102.041 15.4153L102.215 15.975C102.337 16.3709 102.471 16.8122 102.615 17.2984L102.813 17.9712C103.382 19.9141 104.007 22.1675 104.675 24.724L104.966 25.8472C107.004 33.7701 109.038 42.9536 110.942 53.324C117.577 89.4592 121.088 130.869 119.813 176.571C118.148 236.28 108.375 298.316 88.8308 361.699C88.5974 362.456 89.0217 363.259 89.7785 363.493C90.5353 363.726 91.3381 363.302 91.5715 362.545C111.194 298.906 121.008 236.613 122.68 176.651C123.96 130.741 120.432 89.1315 113.763 52.8058L113.488 51.3227C111.559 40.998 109.505 31.8655 107.45 23.9986L107.097 22.6588C106.553 20.619 106.041 18.7857 105.566 17.1634L105.364 16.481C105.168 15.8197 104.991 15.2385 104.834 14.7383L104.565 13.8916C104.316 13.1396 103.504 12.732 102.752 12.9812Z" fill="white"/>
<path fill-rule="evenodd" clip-rule="evenodd" d="M90.8704 316.982C103.681 284.609 131.598 213.935 176.819 198.776C222.04 183.618 222.231 193.421 241.495 170.755C260.76 148.089 292.07 152.297 296.564 174.294C301.057 196.29 269.555 215.704 261.094 219.051C252.633 222.398 235.568 262.804 204.449 279.827C173.329 296.851 157.937 263.33 146.082 286.761C119.026 330.801 90.8704 316.982 90.8704 316.982Z" fill="#BAE0DD"/>
<path fill-rule="evenodd" clip-rule="evenodd" d="M281.437 171.814C281.135 171.112 280.34 170.774 279.631 171.032L279.515 171.08L279.03 171.291C278.709 171.432 278.346 171.592 277.941 171.773L277.521 171.96C275.874 172.698 273.963 173.571 271.812 174.575L269.949 175.45C264.297 178.118 258.091 181.173 251.46 184.592C230.408 195.449 209.356 207.74 189.7 221.224C169.617 235.002 152.123 249.277 137.964 263.925C121.555 280.902 109.995 298.005 104.048 315.124C103.788 315.873 104.183 316.69 104.932 316.95C105.68 317.21 106.497 316.814 106.757 316.066C117.677 284.63 147.85 253.413 191.323 223.59C210.87 210.18 231.822 197.948 252.774 187.143L254.234 186.392C260.528 183.167 266.42 180.28 271.795 177.752L273.026 177.175C274.895 176.302 276.581 175.529 278.068 174.86L279.676 174.141L280.687 173.699C281.414 173.385 281.75 172.541 281.437 171.814Z" fill="white"/>
<path fill-rule="evenodd" clip-rule="evenodd" d="M107.41 325.159C106.645 287.765 104.924 206.14 65.0571 173.959C25.1899 141.777 21.318 151.58 10.419 121.55C-0.479889 91.5209 -33.6069 84.0135 -46.3701 104.48C-59.1333 124.946 -34.7063 156.314 -27.4404 162.817C-20.1744 169.32 -18.1189 216.421 6.88166 245.255C31.8823 274.042 59.8944 246.068 63.0494 274.089C73.9005 328.506 107.41 325.159 107.41 325.159Z" fill="#BAE0DD"/>
<path fill-rule="evenodd" clip-rule="evenodd" d="M-30.4855 107.841C-31.0323 108.414 -31.011 109.322 -30.438 109.869L-29.6247 110.655L-28.6236 111.635C-27.6944 112.548 -26.6519 113.585 -25.5038 114.74L-24.3459 115.908C-20.4065 119.896 -16.0605 124.428 -11.4044 129.448C2.88568 144.853 17.176 161.67 30.5108 179.338C52.8936 208.996 70.2607 237.986 80.6631 265.147C87.9765 284.242 91.6586 302.01 91.3009 318.193C91.2834 318.986 91.9111 319.642 92.703 319.659C93.4948 319.677 94.1509 319.049 94.1684 318.257C94.535 301.665 90.7789 283.539 83.3414 264.12C72.829 236.672 55.3312 207.464 32.7999 177.61C19.6997 160.252 5.68753 143.719 -8.34518 128.53L-9.30199 127.496C-14.1582 122.261 -18.6798 117.552 -22.7589 113.433L-24.0396 112.145C-24.9733 111.209 -25.8327 110.356 -26.6134 109.588L-27.7514 108.475L-28.458 107.793C-29.031 107.246 -29.9388 107.267 -30.4855 107.841Z" fill="white"/>
<path fill-rule="evenodd" clip-rule="evenodd" d="M54.5884 389L36.7582 306.945C35.2763 300.728 40.1043 294.799 46.6054 294.799H157.507C164.008 294.799 168.788 300.68 167.402 306.849L149.189 388.474" fill="#FFF4EE"/>
</g>
<g opacity="0.8">
<path fill-rule="evenodd" clip-rule="evenodd" d="M214.887 176.289C223.412 174.689 231.741 179.78 233.61 187.722L233.665 187.963L239.702 216.006C239.809 216.501 239.495 216.989 239.001 217.095C238.525 217.198 238.055 216.909 237.927 216.445L237.914 216.393L231.877 188.351C230.338 181.269 222.886 176.653 215.224 178.09C207.636 179.514 202.717 186.282 204.105 193.28L204.149 193.492L213.215 234.986C213.322 235.481 213.008 235.968 212.514 236.075C212.038 236.178 211.568 235.89 211.44 235.425L211.427 235.373L202.361 193.88C200.605 185.768 206.238 177.911 214.887 176.289Z" fill="#00BDC8"/>
<path fill-rule="evenodd" clip-rule="evenodd" d="M248.809 176.488C249.07 168.237 256.459 161.749 265.24 162.007C273.965 162.264 280.854 168.982 280.738 177.117L279.757 218.238C279.745 218.744 279.326 219.144 278.821 219.132C278.334 219.12 277.945 218.729 277.928 218.248L277.928 218.194L278.904 177.313C279.132 170.106 273.018 164.07 265.186 163.84C257.464 163.612 250.996 169.221 250.647 176.331L250.638 176.547L249.418 214.823C249.402 215.329 248.98 215.726 248.475 215.71C247.988 215.695 247.602 215.301 247.59 214.819L247.59 214.765L248.809 176.488Z" fill="#00BDC8"/>
<path fill-rule="evenodd" clip-rule="evenodd" d="M293.743 187.9C295.499 179.823 303.91 174.612 312.521 176.228C321.075 177.833 326.692 185.573 325.097 193.575L325.047 193.818L316.479 233.561C316.372 234.056 315.885 234.37 315.392 234.263C314.915 234.16 314.607 233.703 314.681 233.227L314.691 233.174L323.259 193.429C324.791 186.38 319.84 179.465 312.184 178.029C304.598 176.606 297.219 181.116 295.573 188.103L295.525 188.316L288.36 217.275C288.238 217.767 287.742 218.066 287.252 217.944C286.779 217.827 286.484 217.361 286.573 216.887L286.584 216.834L293.743 187.9Z" fill="#00BDC8"/>
<path fill-rule="evenodd" clip-rule="evenodd" d="M331.762 216.377C335.715 209.009 345.264 206.033 353.138 209.686C360.97 213.32 364.205 222.154 360.415 229.516L360.298 229.738L322.733 299.816C322.493 300.261 321.939 300.429 321.494 300.189C321.065 299.959 320.894 299.435 321.096 298.998L321.121 298.948L358.686 228.871C362.151 222.412 359.342 214.584 352.369 211.349C345.43 208.129 337.03 210.693 333.48 217.05L333.374 217.244L323.83 235.053C323.591 235.499 323.037 235.667 322.592 235.427C322.163 235.197 321.992 234.673 322.193 234.236L322.218 234.186L331.762 216.377Z" fill="#00BDC8"/>
<path fill-rule="evenodd" clip-rule="evenodd" d="M191.453 273.208C191.711 272.758 192.181 272.91 192.523 273.538L192.561 273.613L204.399 297.407C204.743 298.097 204.804 299.036 204.535 299.503C204.276 299.953 203.806 299.801 203.465 299.173L203.426 299.098L191.063 274.721C190.72 274.03 191.184 273.675 191.453 273.208Z" fill="#00BDC8"/>
<path fill-rule="evenodd" clip-rule="evenodd" d="M173.862 209.235C181.657 205.619 191.094 208.499 195.117 215.706L195.238 215.926L206.519 236.974C206.758 237.42 206.591 237.975 206.146 238.215C205.718 238.445 205.188 238.299 204.935 237.889L204.908 237.841L193.626 216.793C190.14 210.295 181.64 207.646 174.631 210.898C167.728 214.101 164.906 221.805 168.212 228.226L168.314 228.42L192.646 273.784C192.885 274.23 192.718 274.785 192.273 275.025C191.844 275.256 191.314 275.109 191.062 274.7L191.034 274.652L166.702 229.288C162.73 221.882 165.951 212.906 173.862 209.235Z" fill="#00BDC8"/>
<path fill-rule="evenodd" clip-rule="evenodd" d="M243.602 213.457C251.785 212.42 259.271 219.278 260.477 228.73L260.512 229.017L263.879 258.605L270.326 228.868C272.304 219.628 280.37 214.158 288.4 216.656L288.643 216.735C296.6 219.37 301.412 228.849 299.553 238.019L299.495 238.297L293.616 265.453L304.476 241.573C308.287 233.166 317.301 230.111 324.643 234.718L324.865 234.86C332.074 239.558 334.868 249.998 331.226 258.36L331.114 258.613L312.392 299.853C312.183 300.314 311.641 300.517 311.181 300.308C310.738 300.106 310.533 299.593 310.706 299.144L310.727 299.094L329.448 257.855C332.893 250.258 330.373 240.636 323.867 236.396C317.515 232.257 309.699 234.782 306.245 242.108L306.141 242.331L291.75 273.979C291.303 274.961 289.842 274.494 290.013 273.459L290.023 273.405L297.707 237.907C299.53 229.529 295.175 220.829 288.069 218.475C281.122 216.173 274.039 220.838 272.169 229.006L272.114 229.255L264.491 264.416C264.276 265.41 262.86 265.357 262.696 264.382L262.688 264.325L258.694 229.225C257.713 220.579 251.014 214.366 243.832 215.276C236.72 216.177 231.64 223.744 232.493 232.271L232.521 232.53L236.667 268.668C236.788 269.717 235.346 270.093 234.927 269.155L234.906 269.104L225.819 245.613C222.74 237.655 214.922 233.99 208.366 237.331C201.792 240.68 198.844 249.774 201.791 257.723L201.882 257.963L217.799 299.081C217.981 299.553 217.747 300.084 217.276 300.267C216.822 300.443 216.313 300.232 216.114 299.794L216.093 299.744L200.176 258.626C196.754 249.782 200.017 239.529 207.536 235.697C215.041 231.873 223.896 235.95 227.42 244.684L227.525 244.95L234.036 261.782L230.703 232.738C229.624 223.262 235.241 214.676 243.355 213.491L243.602 213.457Z" fill="#00BDC8"/>
<path fill-rule="evenodd" clip-rule="evenodd" d="M327.75 298.527C330.661 298.527 333.032 300.868 333.085 303.772L333.086 303.873V320.094C333.086 323.01 330.749 325.385 327.851 325.439L327.75 325.44H321.065L300.57 418.095C300.459 418.57 299.997 418.871 299.523 418.787L299.47 418.777C298.996 418.665 298.696 418.202 298.779 417.727L298.79 417.674L319.451 324.313C319.544 323.917 319.885 323.632 320.286 323.608L320.341 323.607H327.75C329.655 323.607 331.208 322.079 331.256 320.183L331.257 320.094V303.873C331.257 301.965 329.733 300.408 327.839 300.361L327.75 300.36H198.773C196.869 300.36 195.315 301.887 195.268 303.783L195.266 303.873V320.094C195.266 322.002 196.791 323.558 198.684 323.606L198.773 323.607H206.701C207.107 323.607 207.462 323.874 207.577 324.26L207.591 324.313L229.514 417.546C229.63 418.038 229.325 418.532 228.834 418.648C228.359 418.76 227.884 418.48 227.747 418.018L227.733 417.966L205.976 325.44H198.773C195.862 325.44 193.491 323.098 193.438 320.194L193.437 320.094V303.873C193.437 300.956 195.774 298.581 198.673 298.528L198.773 298.527H327.75Z" fill="#B5BDBF"/>
</g>
<path fill-rule="evenodd" clip-rule="evenodd" d="M381.832 271.521C385.738 268.111 389.19 266.904 391.622 269.125C398.883 275.743 392.253 289.27 379.301 295.799L379.219 295.839L379.261 296.032C380.715 302.893 381.561 310.418 381.71 317.566L381.715 317.827L381.766 317.805C384.744 316.499 387.553 316.7 389.442 318.698L389.552 318.818C391.055 320.468 391.29 323.443 390.331 325.841C389.214 328.638 386.71 330.037 383.781 328.892L383.632 328.831C382.884 328.527 382.254 328.256 381.628 327.971L381.407 327.869L381.403 327.932C381.107 331.346 380.619 334.467 379.963 337.119L379.872 337.478C379.658 338.31 378.812 338.811 377.982 338.596C377.152 338.381 376.653 337.533 376.867 336.7C377.667 333.589 378.223 329.693 378.476 325.378C378.541 324.263 379.722 323.578 380.719 324.078L381.319 324.377C382.564 324.992 383.489 325.414 384.813 325.953C386.08 326.483 386.912 326.03 387.45 324.683C388.002 323.303 387.866 321.582 387.251 320.907C386.11 319.632 383.834 319.829 381.069 321.766C380.036 322.489 378.62 321.743 378.628 320.48C378.68 312.239 377.726 303.241 375.925 295.314C375.761 294.594 376.125 293.857 376.796 293.552C388.837 288.059 394.879 276.299 389.534 271.427C387.621 269.681 380.614 275.798 375.235 284.384C374.566 285.452 372.974 285.32 372.489 284.157C370.348 279.027 367.888 275.387 365.152 273.408C361.052 270.455 359.017 271.577 357.743 276.891C356.555 281.85 356.53 289.769 357.462 298.961C357.601 300.333 356.022 301.195 354.948 300.333C353.616 299.265 352.242 298.507 350.957 298.194C347.799 297.447 344.773 301.939 345.928 306.015C346.743 308.951 352.32 309.969 356.454 307.438C357.392 306.864 358.613 307.423 358.793 308.511C359.211 311.024 359.688 313.423 360.143 315.345L360.219 315.661L360.233 315.723C360.311 316.113 360.431 316.539 360.597 317.041C361.028 318.336 359.705 319.52 358.47 318.944C356.375 317.967 354.741 317.564 353.863 317.77L353.781 317.792C350.559 318.649 347.26 321.537 347.762 323.905C348.574 327.785 350.699 329.309 354.95 328.362C356.962 327.9 359.058 326.806 360.971 325.327C361.81 324.678 363.037 325.044 363.385 326.048C364.733 329.942 366.152 333.377 367.591 336.167C367.985 336.93 367.687 337.869 366.925 338.264C366.164 338.659 365.228 338.36 364.834 337.597C363.638 335.279 362.468 332.567 361.343 329.549L361.142 329.005L361.007 329.091C359.375 330.115 357.655 330.892 355.922 331.328L355.633 331.398C349.615 332.739 345.879 330.058 344.725 324.548C344.19 322.023 345.317 319.702 347.512 317.781C349.05 316.435 351.107 315.329 352.74 314.852L352.942 314.796C353.992 314.484 355.226 314.551 356.647 314.934L356.879 314.999L356.807 314.672L356.629 313.834C356.48 313.121 356.332 312.374 356.188 311.604L356.09 311.078L355.94 311.136C350.624 313.147 344.369 311.524 342.986 307.014L342.94 306.858C341.207 300.744 345.887 293.797 351.679 295.167C352.412 295.346 353.139 295.613 353.857 295.958L354.083 296.07L354.05 295.661L353.985 294.78C353.461 287.331 353.636 280.929 354.664 276.426L354.725 276.163C356.466 268.901 360.855 266.481 366.965 270.882C369.639 272.816 371.969 275.888 374.007 279.994L374.179 280.347L374.359 280.089C376.616 276.875 379.16 273.91 381.556 271.765L381.832 271.521Z" fill="#07928A"/>
<path fill-rule="evenodd" clip-rule="evenodd" d="M408.274 300.963L408.324 300.891C413.017 294.091 418.466 290.336 424.815 290.704L425.042 290.719L425.126 290.727C429.385 291.274 430.476 295.284 429.195 301.254C428.363 305.132 426.517 309.988 424 315.153L423.835 315.489L424.083 315.464C427.02 315.18 429.856 315.596 431.811 316.669L431.977 316.763C434.667 318.352 435.806 322.33 434.368 325.509C432.673 329.255 428.106 331.101 421.243 330.337C419.127 330.105 417.348 329.779 415.894 329.367L415.797 329.339L413.261 333.239L412.654 334.162C411.296 336.214 410.285 337.65 409.472 338.645C408.93 339.31 407.952 339.409 407.289 338.864C406.625 338.32 406.527 337.34 407.07 336.674L407.333 336.345C408.121 335.336 409.157 333.833 410.546 331.716L413.585 327.047C413.698 326.875 413.793 326.732 413.86 326.629C414.259 326.03 415.017 325.783 415.691 326.033C417.072 326.546 419.03 326.964 421.583 327.243C427.242 327.873 430.483 326.563 431.541 324.224C432.338 322.461 431.693 320.207 430.409 319.449C428.505 318.339 424.808 318.138 421.434 319.13C420.117 319.517 418.984 318.125 419.626 316.909C422.851 310.797 425.227 304.947 426.16 300.6C427.094 296.247 426.549 294.116 424.82 293.827L424.773 293.82L424.618 293.81C419.131 293.506 414.203 297.268 409.801 304.298L409.643 304.554C409.031 305.545 407.59 305.535 406.992 304.535C405.168 301.487 401.753 298.762 399.471 298.429C395.227 297.839 393.2 299.747 394.185 303.128C395.097 306.146 400.228 310.287 404.129 310.803C405.156 310.939 405.764 312.026 405.345 312.976C404.543 314.791 403.797 316.648 403.038 318.676L402.713 319.552C402.605 319.848 402.494 320.151 402.379 320.47L401.403 323.194C400.163 326.657 399.195 331.643 398.587 337.006C398.491 337.86 397.722 338.473 396.87 338.376C396.018 338.279 395.406 337.508 395.503 336.654C396.118 331.228 397.089 326.165 398.372 322.454L399.221 320.077C399.511 319.267 399.765 318.569 400.021 317.879L400.132 317.583C400.599 316.334 401.062 315.147 401.537 313.992L401.765 313.44L401.686 313.415C397.178 311.949 392.453 307.81 391.258 304.167L391.21 304.015C389.537 298.272 393.579 294.468 399.907 295.347C402.591 295.739 405.816 297.975 408.151 300.812L408.274 300.963Z" fill="#07928A"/>
<path fill-rule="evenodd" clip-rule="evenodd" d="M420.894 336.052H348.106C339.748 336.052 333 342.818 333 351.199V352.547C333 373.223 349.732 390 370.351 390H398.649C419.268 390 436 373.223 436 352.547V351.199C436 342.818 429.252 336.052 420.894 336.052ZM348.106 339.164H420.894C427.538 339.164 432.896 344.537 432.896 351.199V352.547C432.896 371.504 417.554 386.888 398.649 386.888H370.351C351.446 386.888 336.104 371.504 336.104 352.547V351.199C336.104 344.537 341.462 339.164 348.106 339.164Z" fill="#DDDDDD"/>
<path fill-rule="evenodd" clip-rule="evenodd" d="M1068.36 372.479C1071.98 372.479 1074.94 375.401 1075 379.015L1075 379.125V389.245C1075 389.662 1074.66 390 1074.25 390C1073.84 390 1073.51 389.686 1073.49 389.289L1073.49 389.245V379.125C1073.49 376.324 1071.23 374.037 1068.44 373.99L1068.36 373.99H1000.64C997.843 373.99 995.557 376.247 995.511 379.038L995.51 379.125V387.407C995.51 387.824 995.172 388.162 994.755 388.162C994.353 388.162 994.024 387.848 994.001 387.451L994 387.407V379.125C994 375.497 996.921 372.539 1000.53 372.48L1000.64 372.479H1068.36Z" fill="#07928A"/>
<path fill-rule="evenodd" clip-rule="evenodd" d="M1052.86 282.21C1049.76 283.504 1047.06 286.041 1044.9 289.974C1041.36 296.393 1038.43 305.864 1036.09 317.252L1036.02 317.598C1034.37 325.686 1033.12 334.309 1032.6 340.037L1032.58 340.24C1032.35 342.804 1032.4 346.469 1032.67 350.963C1032.8 353.202 1032.99 355.575 1033.21 358.016L1033.28 358.806C1033.41 360.115 1033.54 361.384 1033.67 362.59L1033.78 363.646C1033.82 363.979 1033.86 364.29 1033.89 364.578L1033.96 365.202L1033.99 365.422C1034.03 365.739 1034.26 365.997 1034.57 366.067C1036.63 366.528 1039.55 364.563 1043.27 360.791C1046.02 358.004 1049.08 354.304 1051.38 351.122C1055.35 345.669 1069.01 316.867 1073.7 303.861C1075.06 300.066 1075.28 296.613 1074.5 293.51C1073.87 290.983 1072.61 288.798 1070.93 286.946C1070.05 285.986 1069.11 285.177 1068.18 284.511L1068.09 284.452C1067.62 284.122 1067.24 283.888 1066.98 283.748L1066.95 283.735C1066.81 283.649 1066.57 283.506 1066.23 283.327C1065.67 283.031 1065.03 282.737 1064.33 282.462C1060.56 280.984 1056.6 280.654 1052.86 282.21ZM1063.78 283.869C1064.43 284.122 1065.01 284.393 1065.53 284.663L1065.7 284.755C1065.75 284.784 1065.8 284.813 1065.85 284.841L1066.02 284.939L1066.17 285.027L1066.29 285.093C1066.33 285.116 1066.38 285.145 1066.44 285.18L1066.49 285.207C1066.73 285.354 1067.01 285.532 1067.3 285.743C1068.16 286.349 1069.01 287.089 1069.81 287.964C1071.34 289.641 1072.47 291.608 1073.03 293.876C1073.74 296.683 1073.54 299.831 1072.28 303.349C1067.63 316.232 1054.03 344.918 1050.16 350.234L1049.99 350.469L1049.67 350.903C1044.46 357.979 1038.23 364.323 1035.41 364.615L1035.34 363.958C1035.31 363.7 1035.28 363.427 1035.25 363.14L1035.17 362.428C1035.01 360.988 1034.86 359.458 1034.71 357.877C1034.49 355.452 1034.31 353.094 1034.17 350.872L1034.15 350.402C1033.9 346.192 1033.87 342.758 1034.08 340.375L1034.12 339.97C1034.64 334.365 1035.85 326.04 1037.44 318.187L1037.5 317.9C1039.82 306.495 1042.74 297.023 1046.22 290.703C1048.23 287.058 1050.67 284.761 1053.44 283.604C1056.76 282.222 1060.34 282.521 1063.78 283.869Z" fill="#07928A"/>
<path fill-rule="evenodd" clip-rule="evenodd" d="M998.809 282.18C994.502 285.381 993.938 291.515 996.231 299.49C997.943 305.44 1001.27 312.235 1004.45 316.917L1004.59 317.124C1006.25 319.491 1009.24 322.674 1013.3 326.492C1014.18 327.324 1015.11 328.178 1016.07 329.053C1018.87 331.589 1021.87 334.182 1024.86 336.693L1025.68 337.381C1026.29 337.884 1026.86 338.359 1027.4 338.803L1027.98 339.276L1028.86 339.99C1029.32 340.367 1030.02 340.071 1030.08 339.484L1030.08 339.426L1030.11 338.95L1030.13 338.382C1030.14 338.181 1030.14 337.967 1030.15 337.742L1030.16 337.571C1030.36 330.82 1030.19 323.191 1029.35 315.958L1029.28 315.376C1028.48 308.717 1027.16 303.198 1025.23 299.175C1021.93 292.293 1017.71 286.553 1013.33 283.226C1008.32 279.415 1003.26 278.871 998.809 282.18ZM1012.42 284.429C1016.58 287.592 1020.66 293.145 1023.87 299.828C1025.77 303.788 1027.07 309.364 1027.85 316.131C1028.66 323.117 1028.84 330.498 1028.66 337.068L1028.64 337.862L1027.81 337.184C1027.19 336.67 1026.53 336.119 1025.83 335.536C1022.85 333.036 1019.87 330.455 1017.09 327.934C1016.13 327.065 1015.21 326.217 1014.34 325.393L1013.99 325.068C1010.07 321.353 1007.2 318.275 1005.7 316.068C1002.61 311.513 999.347 304.86 997.682 299.072C995.544 291.637 996.052 286.11 999.71 283.392C1003.57 280.527 1007.9 280.993 1012.42 284.429Z" fill="#07928A"/>
<path fill-rule="evenodd" clip-rule="evenodd" d="M1007.41 338.951C1002.93 342.256 1001.17 348.209 1003.3 354.91C1005.38 361.477 1010.87 366.065 1018.6 368.961C1023.81 370.91 1029.83 371.929 1033.45 371.951C1033.9 371.953 1034.25 371.564 1034.21 371.121L1034.19 370.978L1034.14 370.698L1034.08 370.334C1034.05 370.164 1034.01 369.981 1033.98 369.788L1033.87 369.18C1033.67 368.166 1033.45 367.058 1033.2 365.878C1032.35 361.985 1031.33 358.092 1030.13 354.453L1029.98 354.01C1027.67 347.179 1024.98 342.106 1021.83 339.456L1021.73 339.372C1017.45 335.852 1011.68 335.799 1007.41 338.951ZM1020.77 340.538C1023.75 342.988 1026.41 348.052 1028.69 354.929C1029.88 358.511 1030.89 362.354 1031.72 366.198L1031.89 366.993C1032.09 367.951 1032.27 368.853 1032.42 369.688L1032.54 370.335L1032.56 370.415L1032.41 370.408C1028.9 370.221 1023.68 369.25 1019.13 367.546C1011.79 364.798 1006.65 360.505 1004.73 354.453C1002.8 348.354 1004.36 343.078 1008.31 340.166C1012.03 337.419 1017.04 337.465 1020.77 340.538Z" fill="#07928A"/>
<path fill-rule="evenodd" clip-rule="evenodd" d="M1048.6 358.564C1044.89 361.669 1041.42 365.666 1039.2 368.961C1038.88 369.428 1039.17 370.057 1039.72 370.131L1039.78 370.137L1040.08 370.159L1040.43 370.182C1040.9 370.213 1041.44 370.244 1042.03 370.273L1042.23 370.282C1046.36 370.479 1050.72 370.499 1054.81 370.228C1059.89 369.892 1063.96 369.138 1066.67 367.857L1066.8 367.797C1070.81 365.87 1073.19 362.437 1072.9 359.107C1072.59 355.55 1069.39 352.982 1064.11 352.42C1059.09 351.886 1053.83 354.196 1048.6 358.564ZM1063.95 353.922C1068.58 354.414 1071.16 356.486 1071.4 359.237C1071.62 361.853 1069.67 364.697 1066.26 366.38L1066.14 366.437C1063.64 367.65 1059.69 368.392 1054.71 368.721C1050.69 368.988 1046.38 368.968 1042.31 368.774L1042.11 368.764C1041.85 368.751 1041.6 368.738 1041.36 368.725L1041.21 368.716L1041.34 368.535C1043.47 365.627 1046.44 362.34 1049.57 359.723C1054.51 355.592 1059.41 353.439 1063.95 353.922Z" fill="#07928A"/>
</svg>
