<svg width="700" height="362" viewBox="0 0 700 362" fill="none" xmlns="http://www.w3.org/2000/svg">
<mask id="mask0" mask-type="alpha" maskUnits="userSpaceOnUse" x="0" y="0" width="700" height="362">
<rect y="0.333374" width="700" height="361.667" fill="#C4C4C4"/>
</mask>
<g mask="url(#mask0)">
<g opacity="0.9">
<path fill-rule="evenodd" clip-rule="evenodd" d="M133.835 306.709C128.935 272.234 118.21 197.056 150.304 161.577C182.397 126.097 187.499 134.535 193.082 105.364C198.665 76.1933 228.269 64.3802 243.171 81.3364C258.113 98.2524 240.158 130.678 234.374 137.75C228.59 144.822 233.812 188.377 214.973 218.513C196.135 248.648 165.889 227.071 167.174 253.269C165.447 304.901 133.835 306.709 133.835 306.709Z" fill="#BAE0DD"/>
<path fill-rule="evenodd" clip-rule="evenodd" d="M229.192 92.5714C228.629 92.2166 227.885 92.3857 227.53 92.949L227.006 93.7874L225.954 95.4864C225.181 96.7391 224.313 98.1557 223.357 99.7285L222.443 101.235C219.366 106.317 215.984 112.012 212.367 118.235C201 137.793 189.633 158.553 179.023 179.616C170.271 196.99 162.414 213.831 155.678 229.874C142.923 260.249 134.596 286.744 131.637 308.272C131.547 308.932 132.007 309.54 132.667 309.631C133.326 309.721 133.934 309.26 134.025 308.601C136.95 287.317 145.219 261.006 157.9 230.808C164.613 214.819 172.447 198.028 181.175 180.701C191.762 159.685 203.106 138.965 214.451 119.447L215.882 116.991C219.191 111.328 222.288 106.134 225.114 101.478L226.592 99.0517C226.968 98.4376 227.327 97.8529 227.668 97.298L229.216 94.7984L229.57 94.2338C229.924 93.6705 229.755 92.9262 229.192 92.5714Z" fill="white"/>
<path fill-rule="evenodd" clip-rule="evenodd" d="M116.523 37.8209C147.894 34.8073 154.401 66.6303 155.405 93.5512C156.409 120.472 151.428 130.156 166.732 144.46C182.036 158.804 157.132 178.171 159.261 192.395C161.39 206.619 176.091 244.63 118.933 328.848C116.844 331.902 113.872 356.492 113.872 356.492L101.5 353.157C101.5 353.157 109.453 333.188 100.456 308.999C91.4582 284.77 76.1946 273.399 74.7486 243.103C73.3025 212.807 94.9528 218.673 90.9762 198.744C86.9997 178.814 66.6749 165.032 68.2414 145.063C69.808 125.053 107.365 110.507 99.0499 87.484C90.7352 64.4204 89.3695 40.4326 116.523 37.8209Z" fill="#BAE0DD"/>
<path fill-rule="evenodd" clip-rule="evenodd" d="M128.355 48.5299C127.745 48.7318 127.405 49.3733 127.569 49.9854L127.757 50.5752L127.903 51.0456C128.006 51.3782 128.118 51.749 128.239 52.1576L128.406 52.723C128.884 54.3555 129.409 56.249 129.97 58.3972L130.215 59.341C131.927 65.9985 133.636 73.7152 135.236 82.4293C140.811 112.793 143.761 147.589 142.691 185.992C141.291 236.164 133.079 288.292 116.657 341.552C116.46 342.188 116.817 342.863 117.453 343.059C118.089 343.255 118.763 342.898 118.96 342.262C135.448 288.788 143.695 236.444 145.1 186.059C146.175 147.481 143.211 112.518 137.606 81.9938L137.376 80.7476C135.755 72.0719 134.029 64.398 132.302 57.7876L132.005 56.6618C131.548 54.9478 131.118 53.4074 130.718 52.0441L130.549 51.4707C130.384 50.9151 130.235 50.4267 130.104 50.0063L129.877 49.2949C129.668 48.663 128.986 48.3205 128.355 48.5299Z" fill="white"/>
<path fill-rule="evenodd" clip-rule="evenodd" d="M118.37 303.976C129.135 276.774 152.593 217.387 190.592 204.65C228.59 191.913 228.751 200.15 244.938 181.104C261.126 162.059 287.435 165.595 291.211 184.078C294.987 202.561 268.516 218.874 261.407 221.687C254.297 224.499 239.957 258.452 213.808 272.756C187.659 287.06 174.725 258.894 164.764 278.582C142.029 315.589 118.37 303.976 118.37 303.976Z" fill="#BAE0DD"/>
<path fill-rule="evenodd" clip-rule="evenodd" d="M278.5 181.994C278.246 181.404 277.578 181.121 276.983 181.337L276.885 181.377L276.477 181.555C276.208 181.673 275.903 181.808 275.562 181.96L275.21 182.117C273.825 182.737 272.22 183.47 270.413 184.314L268.847 185.05C264.097 187.291 258.883 189.858 253.311 192.732C235.622 201.854 217.932 212.182 201.415 223.513C184.54 235.09 169.84 247.085 157.942 259.394C144.154 273.659 134.44 288.03 129.443 302.416C129.225 303.044 129.557 303.731 130.186 303.95C130.814 304.168 131.501 303.836 131.719 303.207C140.895 276.792 166.25 250.561 202.779 225.501C219.204 214.232 236.81 203.954 254.415 194.875L255.642 194.244C260.931 191.534 265.882 189.108 270.398 186.984L271.432 186.499C273.003 185.765 274.42 185.116 275.669 184.554L277.021 183.95L277.87 183.578C278.481 183.315 278.763 182.606 278.5 181.994Z" fill="white"/>
<path fill-rule="evenodd" clip-rule="evenodd" d="M132.269 310.847C131.626 279.426 130.18 210.838 96.6802 183.797C63.1805 156.755 59.927 164.992 50.7688 139.759C41.6106 114.525 13.7746 108.217 3.04984 125.414C-7.67487 142.612 12.8507 168.97 18.9562 174.435C25.0616 179.899 26.7888 219.477 47.7964 243.706C68.804 267.894 92.3421 244.389 94.9932 267.935C104.111 313.66 132.269 310.847 132.269 310.847Z" fill="#BAE0DD"/>
<path fill-rule="evenodd" clip-rule="evenodd" d="M16.3972 128.239C15.9378 128.72 15.9557 129.483 16.4372 129.943L17.1205 130.603L17.9618 131.427C18.7426 132.195 19.6186 133.065 20.5833 134.036L21.5563 135.018C24.8665 138.369 28.5183 142.177 32.4308 146.395C44.4385 159.339 56.4464 173.47 67.6514 188.317C86.4593 213.237 101.053 237.598 109.794 260.42C115.939 276.466 119.033 291.396 118.732 304.994C118.718 305.66 119.245 306.212 119.91 306.226C120.576 306.241 121.127 305.713 121.142 305.048C121.45 291.106 118.294 275.875 112.044 259.558C103.211 236.494 88.5076 211.95 69.5749 186.864C58.567 172.279 46.7928 158.387 35.0014 145.623L34.1974 144.755C30.1167 140.356 26.3174 136.399 22.8898 132.938L21.8136 131.855C21.0291 131.069 20.3069 130.352 19.6509 129.707L18.6947 128.772L18.1009 128.199C17.6194 127.739 16.8567 127.757 16.3972 128.239Z" fill="white"/>
<path fill-rule="evenodd" clip-rule="evenodd" d="M87.8834 364.492L72.9009 295.542C71.6557 290.319 75.7126 285.336 81.1754 285.336H174.364C179.827 285.336 183.843 290.279 182.679 295.462L167.375 364.05" fill="#F3EBE5"/>
</g>
<g opacity="0.8">
<path fill-rule="evenodd" clip-rule="evenodd" d="M222.58 177.588C229.743 176.244 236.742 180.522 238.313 187.195L238.359 187.398L243.432 210.962C243.521 211.377 243.257 211.787 242.842 211.877C242.442 211.963 242.048 211.721 241.94 211.33L241.929 211.286L236.856 187.724C235.563 181.772 229.301 177.894 222.863 179.102C216.487 180.298 212.354 185.985 213.52 191.865L213.557 192.043L221.175 226.91C221.264 227.326 221.001 227.736 220.586 227.825C220.186 227.912 219.791 227.669 219.683 227.279L219.672 227.235L212.055 192.369C210.579 185.553 215.312 178.951 222.58 177.588Z" fill="#00BDC8"/>
<path fill-rule="evenodd" clip-rule="evenodd" d="M251.084 177.756C251.303 170.822 257.512 165.37 264.891 165.587C272.223 165.803 278.011 171.448 277.914 178.284L277.089 212.837C277.079 213.262 276.727 213.598 276.302 213.588C275.893 213.578 275.566 213.25 275.553 212.845L275.552 212.8L276.372 178.449C276.564 172.393 271.426 167.32 264.845 167.127C258.357 166.936 252.922 171.649 252.628 177.623L252.621 177.805L251.596 209.968C251.582 210.393 251.227 210.727 250.803 210.713C250.394 210.7 250.07 210.369 250.059 209.964L250.059 209.919L251.084 177.756Z" fill="#00BDC8"/>
<path fill-rule="evenodd" clip-rule="evenodd" d="M288.841 187.345C290.317 180.557 297.384 176.179 304.62 177.536C311.808 178.885 316.527 185.389 315.188 192.113L315.145 192.317L307.946 225.713C307.856 226.128 307.447 226.393 307.032 226.303C306.632 226.216 306.372 225.832 306.435 225.432L306.443 225.387L313.643 191.991C314.93 186.067 310.77 180.257 304.337 179.05C297.963 177.854 291.762 181.644 290.379 187.515L290.339 187.694L284.318 212.028C284.215 212.441 283.799 212.693 283.387 212.59C282.989 212.492 282.742 212.1 282.816 211.702L282.825 211.657L288.841 187.345Z" fill="#00BDC8"/>
<path fill-rule="evenodd" clip-rule="evenodd" d="M320.788 211.273C324.109 205.082 332.134 202.581 338.749 205.651C345.331 208.704 348.049 216.127 344.864 222.313L344.766 222.5L313.201 281.385C313 281.76 312.534 281.901 312.16 281.699C311.8 281.506 311.656 281.065 311.825 280.699L311.846 280.657L343.412 221.771C346.323 216.344 343.963 209.767 338.103 207.048C332.273 204.343 325.214 206.497 322.232 211.839L322.142 212.002L314.123 226.967C313.922 227.341 313.456 227.482 313.082 227.281C312.722 227.087 312.579 226.647 312.748 226.28L312.769 226.238L320.788 211.273Z" fill="#00BDC8"/>
<path fill-rule="evenodd" clip-rule="evenodd" d="M202.888 259.027C203.106 258.649 203.501 258.777 203.787 259.305L203.82 259.367L213.767 279.361C214.056 279.941 214.107 280.73 213.881 281.122C213.664 281.5 213.269 281.373 212.982 280.845L212.95 280.782L202.561 260.298C202.273 259.718 202.663 259.42 202.888 259.027Z" fill="#00BDC8"/>
<path fill-rule="evenodd" clip-rule="evenodd" d="M188.107 205.272C194.657 202.233 202.587 204.654 205.968 210.71L206.069 210.894L215.549 228.58C215.749 228.955 215.609 229.422 215.235 229.623C214.875 229.817 214.43 229.694 214.218 229.35L214.194 229.309L204.715 211.623C201.785 206.163 194.643 203.937 188.753 206.67C182.953 209.361 180.581 215.834 183.359 221.23L183.445 221.393L203.891 259.511C204.092 259.886 203.952 260.353 203.578 260.554C203.218 260.748 202.772 260.625 202.56 260.281L202.537 260.24L182.091 222.122C178.753 215.899 181.46 208.356 188.107 205.272Z" fill="#00BDC8"/>
<path fill-rule="evenodd" clip-rule="evenodd" d="M246.709 208.82C253.584 207.949 259.875 213.711 260.888 221.653L260.917 221.895L263.747 246.757L269.164 221.769C270.826 214.005 277.604 209.409 284.351 211.508L284.556 211.574C291.242 213.789 295.285 221.754 293.724 229.459L293.674 229.692L288.735 252.511L297.86 232.445C301.063 225.381 308.636 222.814 314.806 226.685L314.992 226.804C321.05 230.752 323.398 239.524 320.338 246.551L320.243 246.763L304.512 281.417C304.336 281.804 303.88 281.975 303.494 281.799C303.121 281.629 302.949 281.198 303.095 280.821L303.113 280.779L318.844 246.126C321.738 239.743 319.621 231.657 314.154 228.095C308.816 224.617 302.249 226.738 299.346 232.895L299.259 233.082L287.166 259.675C286.791 260.501 285.563 260.108 285.707 259.238L285.716 259.193L292.172 229.365C293.704 222.325 290.044 215.014 284.073 213.036C278.236 211.102 272.284 215.021 270.713 221.885L270.667 222.094L264.261 251.639C264.08 252.474 262.891 252.431 262.753 251.611L262.746 251.563L259.39 222.069C258.566 214.804 252.937 209.583 246.902 210.348C240.926 211.105 236.657 217.464 237.374 224.629L237.397 224.846L240.882 255.213C240.983 256.094 239.771 256.41 239.419 255.622L239.401 255.579L231.766 235.839C229.179 229.153 222.61 226.073 217.1 228.88C211.577 231.695 209.099 239.336 211.576 246.015L211.652 246.218L225.026 280.768C225.18 281.165 224.983 281.611 224.588 281.765C224.206 281.913 223.778 281.735 223.611 281.367L223.593 281.325L210.219 246.774C207.343 239.343 210.085 230.727 216.403 227.508C222.71 224.294 230.15 227.72 233.111 235.059L233.2 235.283L238.67 249.426L235.87 225.021C234.963 217.059 239.683 209.844 246.501 208.848L246.709 208.82Z" fill="#00BDC8"/>
<path fill-rule="evenodd" clip-rule="evenodd" d="M317.417 280.302C319.863 280.302 321.855 282.27 321.9 284.71L321.901 284.794V298.425C321.901 300.875 319.937 302.871 317.501 302.916L317.417 302.917H311.8L294.578 380.773C294.484 381.172 294.096 381.425 293.698 381.355L293.654 381.346C293.255 381.252 293.003 380.863 293.073 380.464L293.082 380.42L310.443 301.97C310.521 301.637 310.808 301.398 311.145 301.378L311.191 301.377H317.417C319.017 301.377 320.323 300.093 320.363 298.5L320.364 298.425V284.794C320.364 283.191 319.083 281.883 317.492 281.843L317.417 281.842H209.04C207.439 281.842 206.134 283.126 206.094 284.719L206.093 284.794V298.425C206.093 300.028 207.374 301.336 208.965 301.376L209.04 301.377H215.701C216.042 301.377 216.34 301.601 216.437 301.925L216.449 301.97L234.871 380.312C234.968 380.726 234.712 381.141 234.299 381.238C233.901 381.332 233.501 381.097 233.386 380.709L233.375 380.665L215.092 302.917H209.04C206.594 302.917 204.602 300.949 204.557 298.509L204.556 298.425V284.794C204.556 282.344 206.52 280.348 208.955 280.303L209.04 280.302H317.417Z" fill="#B5BDBF"/>
</g>
<path fill-rule="evenodd" clip-rule="evenodd" d="M357.028 264.61C360.31 261.745 363.21 260.73 365.254 262.596C371.355 268.158 365.784 279.524 354.901 285.01L354.832 285.044L354.867 285.206C356.089 290.971 356.8 297.295 356.925 303.301L356.929 303.52L356.972 303.501C359.474 302.404 361.835 302.573 363.422 304.252L363.515 304.353C364.777 305.739 364.975 308.239 364.17 310.254C363.23 312.604 361.126 313.78 358.666 312.817L358.54 312.767C357.911 312.511 357.382 312.284 356.856 312.044L356.671 311.958L356.667 312.011C356.418 314.88 356.009 317.502 355.457 319.731L355.381 320.032C355.201 320.732 354.49 321.152 353.792 320.972C353.095 320.791 352.676 320.078 352.856 319.379C353.528 316.765 353.995 313.491 354.207 309.865C354.262 308.928 355.255 308.353 356.093 308.772L356.597 309.024C357.643 309.541 358.42 309.896 359.533 310.348C360.597 310.794 361.296 310.413 361.748 309.281C362.212 308.121 362.098 306.675 361.581 306.108C360.622 305.037 358.71 305.202 356.386 306.83C355.519 307.437 354.329 306.81 354.336 305.749C354.379 298.825 353.578 291.264 352.064 284.603C351.927 283.997 352.232 283.379 352.796 283.122C362.914 278.506 367.991 268.625 363.499 264.531C361.892 263.064 356.004 268.204 351.484 275.418C350.922 276.316 349.585 276.205 349.177 275.227C347.378 270.917 345.31 267.858 343.012 266.195C339.567 263.714 337.857 264.657 336.786 269.122C335.788 273.289 335.767 279.944 336.55 287.667C336.666 288.82 335.34 289.544 334.438 288.82C333.318 287.922 332.164 287.286 331.084 287.023C328.43 286.395 325.888 290.17 326.858 293.594C327.543 296.061 332.229 296.917 335.703 294.79C336.491 294.308 337.517 294.778 337.669 295.692C338.02 297.804 338.42 299.82 338.803 301.434L338.867 301.7L338.878 301.752C338.944 302.08 339.044 302.438 339.185 302.859C339.546 303.948 338.435 304.942 337.397 304.459C335.637 303.638 334.264 303.299 333.526 303.472L333.457 303.491C330.75 304.211 327.978 306.637 328.4 308.627C329.082 311.888 330.867 313.168 334.439 312.372C336.13 311.984 337.891 311.065 339.498 309.822C340.203 309.276 341.235 309.585 341.527 310.428C342.66 313.7 343.852 316.586 345.061 318.931C345.392 319.572 345.142 320.361 344.502 320.693C343.862 321.025 343.075 320.774 342.744 320.132C341.74 318.184 340.757 315.906 339.811 313.369L339.642 312.912L339.529 312.985C338.157 313.845 336.712 314.498 335.256 314.865L335.013 314.923C329.957 316.05 326.817 313.797 325.848 309.168C325.398 307.046 326.345 305.095 328.189 303.481C329.481 302.35 331.21 301.421 332.582 301.02L332.752 300.973C333.634 300.711 334.671 300.767 335.865 301.089L336.06 301.144L336 300.869L335.85 300.165C335.725 299.566 335.601 298.938 335.479 298.291L335.397 297.849L335.271 297.898C330.804 299.588 325.549 298.224 324.386 294.434L324.347 294.303C322.891 289.166 326.824 283.328 331.691 284.48C332.307 284.629 332.918 284.854 333.52 285.144L333.71 285.238L333.683 284.894L333.629 284.154C333.188 277.895 333.335 272.516 334.199 268.732L334.25 268.511C335.713 262.408 339.401 260.375 344.535 264.073C346.782 265.698 348.74 268.279 350.452 271.73L350.597 272.026L350.748 271.81C352.645 269.109 354.782 266.618 356.796 264.815L357.028 264.61Z" fill="#0999A2"/>
<path fill-rule="evenodd" clip-rule="evenodd" d="M379.246 289.35L379.288 289.289C383.232 283.575 387.81 280.42 393.146 280.729L393.336 280.741L393.407 280.748C396.986 281.208 397.902 284.578 396.826 289.594C396.127 292.853 394.575 296.933 392.46 301.273L392.322 301.556L392.531 301.534C394.998 301.296 397.381 301.646 399.024 302.547L399.163 302.626C401.424 303.961 402.381 307.303 401.172 309.975C399.749 313.123 395.911 314.674 390.144 314.032C388.366 313.837 386.871 313.563 385.649 313.217L385.568 313.193L383.437 316.471L382.927 317.246C381.785 318.97 380.936 320.177 380.253 321.013C379.797 321.572 378.976 321.655 378.418 321.197C377.861 320.74 377.779 319.916 378.235 319.357L378.456 319.08C379.117 318.232 379.988 316.97 381.155 315.191L383.709 311.267C383.804 311.123 383.883 311.002 383.941 310.917C384.276 310.413 384.912 310.205 385.479 310.416C386.639 310.847 388.285 311.197 390.43 311.432C395.185 311.962 397.908 310.861 398.797 308.895C399.467 307.414 398.925 305.52 397.846 304.883C396.246 303.95 393.14 303.781 390.305 304.615C389.198 304.94 388.246 303.771 388.785 302.749C391.495 297.612 393.492 292.697 394.276 289.044C395.061 285.387 394.603 283.596 393.149 283.353L393.11 283.347L392.98 283.339C388.369 283.083 384.228 286.245 380.53 292.152L380.396 292.367C379.882 293.199 378.672 293.191 378.169 292.351C376.637 289.79 373.767 287.5 371.849 287.22C368.283 286.725 366.58 288.328 367.408 291.168C368.174 293.704 372.486 297.184 375.763 297.618C376.626 297.732 377.138 298.646 376.785 299.444C376.111 300.969 375.484 302.529 374.847 304.233L374.574 304.969C374.483 305.218 374.39 305.473 374.293 305.741L373.473 308.03C372.431 310.94 371.618 315.129 371.107 319.635C371.026 320.353 370.379 320.869 369.664 320.787C368.948 320.706 368.434 320.058 368.515 319.34C369.032 314.781 369.848 310.526 370.926 307.408L371.639 305.41C371.883 304.73 372.096 304.144 372.312 303.564L372.405 303.315C372.797 302.266 373.186 301.268 373.585 300.297L373.777 299.834L373.71 299.813C369.923 298.581 365.952 295.103 364.948 292.042L364.908 291.914C363.502 287.088 366.898 283.892 372.216 284.631C374.471 284.96 377.181 286.838 379.143 289.223L379.246 289.35Z" fill="#0999A2"/>
<path fill-rule="evenodd" clip-rule="evenodd" d="M389.851 318.834H328.688C321.665 318.834 315.995 324.519 315.995 331.562V332.695C315.995 350.068 330.054 364.166 347.38 364.166H371.159C388.484 364.166 402.544 350.068 402.544 332.695V331.562C402.544 324.519 396.874 318.834 389.851 318.834ZM328.688 321.449H389.851C395.434 321.449 399.936 325.964 399.936 331.562V332.695C399.936 348.624 387.044 361.55 371.159 361.55H347.38C331.495 361.55 318.603 348.624 318.603 332.695V331.562C318.603 325.964 323.105 321.449 328.688 321.449Z" fill="#DDDDDD"/>
<path d="M673.766 153.2C669.483 159.612 642 179.382 628.794 188.466C627.188 187.754 623.547 185.901 621.834 184.191C619.693 182.054 619.157 160.147 619.693 153.2C620.228 146.254 628.794 106.714 632.006 97.0962C635.219 87.4783 652.351 65.0366 661.452 60.2277C670.554 55.4187 683.403 61.8307 687.151 62.8993C690.898 63.968 694.11 73.5858 696.787 79.9977C699.464 86.4097 697.858 102.439 696.787 108.851C695.717 115.263 679.12 145.186 673.766 153.2Z" fill="#C1E3E0"/>
<path d="M592.388 211.976C593.245 218.388 591.318 221.416 590.247 222.129C587.035 221.772 579.753 220.739 576.327 219.457C572.044 217.854 555.447 206.633 553.306 205.03C551.164 203.427 529.749 183.123 527.607 180.985C525.466 178.848 517.971 163.887 516.364 159.612C514.758 155.338 514.223 145.72 514.223 140.377C514.223 135.033 520.647 126.484 523.324 124.347C526.001 122.21 532.961 121.675 537.78 122.21C542.598 122.744 552.235 129.69 556.518 132.896C560.801 136.102 566.155 143.583 570.438 148.926C574.721 154.269 581.145 170.299 583.822 176.711C586.499 183.123 591.318 203.961 592.388 211.976Z" fill="#C1E3E0"/>
<path fill-rule="evenodd" clip-rule="evenodd" d="M513.694 136.798C509.725 152.128 516.749 172.053 534.274 189.625L534.808 190.157C547.998 203.206 559.319 212.22 568.898 217.815L569.611 218.226C576.449 222.136 581.9 224.006 586.054 224.374C588.058 224.568 590.038 223.931 591.622 222.61C593.515 220.978 594.482 218.605 594.225 216.18L594.203 215.994C589.655 174.648 570.768 137.259 544.874 123.509C530.672 115.954 517.51 122.061 513.694 136.798ZM543.406 126.271C567.98 139.319 586.28 175.19 590.962 215.156L591.099 216.369C591.292 217.832 590.734 219.248 589.6 220.225C588.668 221.002 587.513 221.373 586.342 221.26C582.525 220.922 577.273 219.085 570.475 215.115C561.247 209.725 550.274 201.01 537.449 188.37L537.006 187.933C519.828 170.962 513.016 151.892 516.721 137.582C520.037 124.773 531.017 119.679 543.406 126.271Z" fill="#C1E3E0"/>
<path fill-rule="evenodd" clip-rule="evenodd" d="M520.519 127.178C521.102 126.589 522.037 126.56 522.654 127.096L522.78 127.217L523.592 128.032C524.227 128.673 524.954 129.415 525.765 130.253L526.762 131.286C529.166 133.787 531.806 136.6 534.628 139.69C543.54 149.445 552.451 159.95 560.771 170.81C570.74 183.82 579.179 196.464 585.6 208.422C587.617 212.178 589.424 215.847 591.008 219.42C591.358 220.21 591.002 221.133 590.213 221.483C589.423 221.833 588.5 221.477 588.15 220.688C586.599 217.189 584.827 213.59 582.846 209.902C576.512 198.108 568.164 185.599 558.29 172.712C550.324 162.315 541.806 152.238 533.269 142.84L532.32 141.799C529.369 138.568 526.619 135.643 524.134 133.065L523.048 131.943C522.74 131.626 522.446 131.325 522.166 131.04L520.931 129.789L520.531 129.389C519.917 128.782 519.912 127.792 520.519 127.178Z" fill="#F7FAFA"/>
<path fill-rule="evenodd" clip-rule="evenodd" d="M530.227 178.883L530.867 178.872C531.908 178.864 533.257 178.889 534.879 178.97L535.186 178.985C538.103 179.139 541.284 179.44 544.67 179.923C553.952 181.247 563.345 183.716 572.377 187.609C573.17 187.951 573.535 188.871 573.194 189.664C572.852 190.457 571.932 190.823 571.139 190.481C562.38 186.705 553.252 184.306 544.228 183.018C540.937 182.549 537.849 182.257 535.022 182.108L534.437 182.079C533.008 182.013 531.819 181.992 530.899 181.999L530.333 182.009C529.47 182.038 528.747 181.362 528.718 180.499C528.688 179.636 529.364 178.913 530.227 178.883Z" fill="#F7FAFA"/>
<path fill-rule="evenodd" clip-rule="evenodd" d="M552.752 131.659C553.504 131.234 554.457 131.5 554.882 132.252L555.328 133.054C555.49 133.349 555.669 133.675 555.864 134.032L556.415 135.049C557.044 136.213 557.721 137.489 558.438 138.862C561.099 143.961 563.76 149.365 566.245 154.839C568.211 159.17 569.986 163.371 571.523 167.379L571.853 168.244C576.077 179.432 578.186 188.461 577.587 194.718C577.505 195.578 576.741 196.208 575.882 196.126C575.022 196.043 574.392 195.28 574.475 194.42C575.03 188.621 572.885 179.662 568.604 168.499C567.091 164.553 565.34 160.409 563.398 156.132C560.939 150.714 558.302 145.36 555.666 140.309L555.038 139.111C554.558 138.201 554.099 137.341 553.664 136.535L553.006 135.321L552.253 133.957C552.211 133.882 552.18 133.826 552.159 133.789C551.734 133.037 552 132.083 552.752 131.659Z" fill="#F7FAFA"/>
<path fill-rule="evenodd" clip-rule="evenodd" d="M554.465 202.394L554.593 202.387L555.394 202.372C557.226 202.353 559.566 202.425 562.242 202.648C566.647 203.016 571.002 203.726 575.089 204.866C578.998 205.955 582.502 207.396 585.499 209.237C586.235 209.689 586.465 210.651 586.013 211.387C585.561 212.123 584.599 212.353 583.863 211.901C581.136 210.227 577.896 208.894 574.25 207.878C570.37 206.796 566.204 206.116 561.982 205.764C559.294 205.54 556.965 205.475 555.196 205.501L554.673 205.513C553.81 205.545 553.085 204.871 553.052 204.009C553.021 203.176 553.646 202.472 554.465 202.394Z" fill="#F7FAFA"/>
<path fill-rule="evenodd" clip-rule="evenodd" d="M670.903 57.584C653.255 58.3634 636.706 74.8828 628.045 103.768L627.785 104.647L627.385 106.023C621.38 126.813 618.272 143.959 617.553 157.811L617.53 158.267C617.018 168.855 617.935 176.707 619.723 182.182C620.508 184.6 622.029 186.659 624.041 188.001C626.597 189.727 629.564 190.03 631.972 188.692C671.55 167.163 699.548 129.115 699.996 91.2419C700.257 70.8178 687.63 56.8452 670.903 57.584ZM696.87 91.2033C696.437 127.82 669.14 164.914 630.466 185.952C629.142 186.688 627.423 186.512 625.783 185.404C624.36 184.455 623.268 182.977 622.695 181.213C621.031 176.117 620.158 168.643 620.653 158.418L620.7 157.521C621.458 143.849 624.581 126.859 630.587 106.206L630.786 105.524C635.095 90.7562 641.394 79.3392 649.055 71.613C655.881 64.7285 663.57 61.0378 671.041 60.7079C685.873 60.0528 697.109 72.4869 696.87 91.2033Z" fill="#C1E3E0"/>
<path fill-rule="evenodd" clip-rule="evenodd" d="M683.628 64.5153C684.39 64.109 685.337 64.3974 685.743 65.1593C686.149 65.9213 685.861 66.8683 685.099 67.2745C669.055 75.83 655.74 96.3417 645.07 125.168C639.975 138.936 635.82 153.7 632.538 168.465L632.229 169.865C631.317 174.039 630.533 177.957 629.872 181.552L629.656 182.738C629.453 183.867 629.273 184.901 629.117 185.832L628.825 187.624L628.747 188.128C628.62 188.982 627.825 189.572 626.971 189.445C626.148 189.323 625.57 188.579 625.644 187.76L625.665 187.598L625.85 186.426L625.981 185.627C626.117 184.808 626.272 183.908 626.445 182.931L626.579 182.184C627.361 177.838 628.327 172.998 629.486 167.786C632.796 152.892 636.988 137.997 642.138 124.083C653.051 94.5979 666.73 73.526 683.628 64.5153Z" fill="#F7FAFA"/>
<path fill-rule="evenodd" clip-rule="evenodd" d="M695.714 95.944C696.503 95.5937 697.427 95.9495 697.777 96.7388C698.127 97.528 697.771 98.4518 696.982 98.8021C688.99 102.35 679.793 106.799 670.891 111.694L669.985 112.194C657.517 119.111 647.933 125.703 642.577 131.525C641.992 132.161 641.003 132.202 640.368 131.617C639.732 131.033 639.691 130.043 640.276 129.408C645.983 123.205 655.957 116.369 668.915 109.213L669.385 108.954C678.375 104.01 687.647 99.5247 695.714 95.944Z" fill="#F7FAFA"/>
<path fill-rule="evenodd" clip-rule="evenodd" d="M629.865 104.472C629.945 103.613 630.707 102.98 631.566 103.06C632.426 103.14 633.058 103.902 632.978 104.762L632.86 106.058C630.983 127.146 631.529 144.008 635.896 149.74C636.419 150.427 636.286 151.408 635.6 151.931C634.913 152.455 633.932 152.322 633.409 151.635C630.48 147.791 629.079 140.39 628.797 130.08C628.587 122.39 629.017 113.603 629.865 104.472Z" fill="#F7FAFA"/>
<path fill-rule="evenodd" clip-rule="evenodd" d="M678.957 141.858C679.631 141.319 680.615 141.428 681.155 142.102C681.694 142.776 681.585 143.76 680.911 144.299C676.057 148.187 669.058 152.206 660.456 156.27C654.485 159.091 648.095 161.768 641.705 164.217L640.685 164.606C639.004 165.244 637.422 165.827 635.963 166.352L634.605 166.837L633.174 167.334C632.356 167.611 631.469 167.173 631.192 166.355C630.925 165.566 631.323 164.713 632.085 164.405L633.782 163.811L634.476 163.564C636.319 162.904 638.374 162.145 640.587 161.297C646.908 158.874 653.228 156.226 659.12 153.442C667.521 149.474 674.331 145.563 678.957 141.858Z" fill="#F7FAFA"/>
<path fill-rule="evenodd" clip-rule="evenodd" d="M651.404 213.024C652.264 212.952 653.021 213.59 653.093 214.451C653.166 215.311 652.527 216.067 651.667 216.14C643.893 216.795 637.296 220.216 631.752 225.824C627.502 230.123 624.153 235.408 621.646 241.018C621.293 241.806 620.369 242.159 619.58 241.807C618.792 241.454 618.439 240.53 618.791 239.741C621.441 233.814 624.984 228.223 629.528 223.626C635.568 217.516 642.839 213.746 651.404 213.024Z" fill="#C1E3E0"/>
<path fill-rule="evenodd" clip-rule="evenodd" d="M652.186 213.899C654.011 213.648 654.876 208.983 654.118 203.479C653.361 197.976 651.268 193.718 649.443 193.97C647.618 194.221 646.753 198.886 647.511 204.389C648.268 209.893 650.362 214.151 652.186 213.899Z" fill="#FFE0CD"/>
<path fill-rule="evenodd" clip-rule="evenodd" d="M661.277 210.439C665.23 207.226 667.581 203.57 666.528 202.275C665.475 200.979 661.417 202.534 657.464 205.748C653.511 208.962 651.161 212.617 652.214 213.913C653.266 215.208 657.324 213.653 661.277 210.439Z" fill="#FFE0CD"/>
<path fill-rule="evenodd" clip-rule="evenodd" d="M652.177 213.644C653.022 212.007 649.707 208.614 644.772 206.064C639.837 203.515 635.151 202.775 634.306 204.412C633.461 206.049 636.776 209.442 641.711 211.991C646.646 214.541 651.332 215.28 652.177 213.644Z" fill="#FFE0CD"/>
<path fill-rule="evenodd" clip-rule="evenodd" d="M668.437 222.711C669.231 221.242 666.241 218.088 661.76 215.666C657.278 213.245 653.002 212.472 652.209 213.941C651.415 215.409 654.405 218.563 658.886 220.985C663.368 223.407 667.644 224.18 668.437 222.711Z" fill="#FFE0CD"/>
<path fill-rule="evenodd" clip-rule="evenodd" d="M651.015 223.558C653.155 218.935 653.662 214.618 652.147 213.917C650.633 213.215 647.67 216.395 645.53 221.018C643.39 225.642 642.883 229.958 644.398 230.659C645.913 231.361 648.875 228.181 651.015 223.558Z" fill="#FFE0CD"/>
<path fill-rule="evenodd" clip-rule="evenodd" d="M567.77 95.0479C568.306 94.3707 569.289 94.2561 569.966 94.7919L570.156 94.9459C570.236 95.0126 570.335 95.0948 570.449 95.1924L570.741 95.4427C571.043 95.7048 571.376 96.0023 571.739 96.3353C573.113 97.5947 574.639 99.1119 576.28 100.891C580.951 105.956 585.616 112.108 589.967 119.375C598.048 132.871 604.104 148.635 607.31 166.732C611.241 188.923 610.68 213.579 604.811 240.762C604.629 241.606 603.797 242.142 602.953 241.96C602.109 241.778 601.573 240.946 601.755 240.102C607.539 213.312 608.091 189.064 604.231 167.278C601.093 149.565 595.175 134.159 587.285 120.981C583.048 113.904 578.512 107.923 573.981 103.011C572.401 101.297 570.937 99.8416 569.627 98.6402L569.295 98.339C568.974 98.0494 568.683 97.7948 568.425 97.5752L568.086 97.2926C568.062 97.2726 568.042 97.2565 568.026 97.2441C567.349 96.7083 567.235 95.725 567.77 95.0479Z" fill="#C1E3E0"/>
<path fill-rule="evenodd" clip-rule="evenodd" d="M573.548 99.2572C576.679 97.4287 576.206 90.7878 572.492 84.4245C568.777 78.0611 563.227 74.3849 560.096 76.2135C556.964 78.042 557.437 84.6829 561.152 91.0462C564.866 97.4096 570.416 101.086 573.548 99.2572Z" fill="#FFE0CD"/>
<path fill-rule="evenodd" clip-rule="evenodd" d="M574.358 99.1824C574.431 95.5565 568.518 92.4982 561.152 92.3515C553.786 92.2047 547.757 95.0252 547.684 98.6511C547.612 102.277 553.525 105.335 560.891 105.482C568.257 105.629 574.286 102.808 574.358 99.1824Z" fill="#FFE0CD"/>
<path fill-rule="evenodd" clip-rule="evenodd" d="M586.247 93.4706C590.226 88.2167 591.369 82.3796 588.8 80.4331C586.231 78.4867 580.922 81.1679 576.943 86.4218C572.964 91.6757 571.821 97.5128 574.39 99.4593C576.959 101.406 582.267 98.7245 586.247 93.4706Z" fill="#FFE0CD"/>
<path fill-rule="evenodd" clip-rule="evenodd" d="M579.887 118.366C582.821 117.032 582.988 111.086 580.261 105.086C577.533 99.0859 572.943 95.3036 570.009 96.6378C567.075 97.9721 566.908 103.918 569.636 109.918C572.363 115.918 576.953 119.7 579.887 118.366Z" fill="#FFE0CD"/>
<path fill-rule="evenodd" clip-rule="evenodd" d="M590.257 100.279C590.563 97.3883 586.008 94.5365 580.084 93.9097C574.159 93.283 569.109 95.1185 568.803 98.0096C568.497 100.901 573.052 103.752 578.977 104.379C584.901 105.006 589.951 103.17 590.257 100.279Z" fill="#FFE0CD"/>
<path fill-rule="evenodd" clip-rule="evenodd" d="M666.073 239.077H555.292C548.741 239.077 544.129 246.216 545.742 253.387L570.232 363.037C570.392 363.751 571.026 364.259 571.758 364.259H649.555C650.287 364.259 650.921 363.751 651.081 363.037L675.572 253.384C677.182 246.227 672.583 239.077 666.073 239.077ZM666.073 242.204L666.21 242.205C670.476 242.312 673.71 247.414 672.521 252.7L648.302 361.132H573.01L548.793 252.703C547.588 247.349 550.912 242.204 555.292 242.204H666.073Z" fill="#F3EBE5"/>
<path d="M673.231 252.585L648.603 361.053L572.579 361.588L546.881 251.516C546.881 250.27 547.202 247.135 548.487 244.57C549.772 242.005 552.235 241.008 553.306 240.83H665.736C671.089 241.364 671.089 243.502 673.231 246.708C674.944 249.272 673.945 251.695 673.231 252.585Z" fill="#F3EBE5"/>
<path fill-rule="evenodd" clip-rule="evenodd" d="M554.564 210.857C545.792 210.967 537.874 212.104 530.74 214.18C530.289 214.311 530.03 214.783 530.161 215.235C530.293 215.686 530.765 215.945 531.216 215.813C537.958 213.851 545.429 212.744 553.697 212.573L553.909 212.569L553.952 212.763C554.105 213.458 554.258 214.27 554.401 215.188C555.536 222.466 555.365 230.904 552.988 239.726C552.865 240.18 553.134 240.647 553.588 240.769C554.042 240.891 554.509 240.623 554.631 240.169C557.048 231.202 557.247 222.627 556.123 215.191L556.083 214.926C555.934 213.973 555.774 213.127 555.614 212.398L555.567 212.186C555.544 212.084 555.522 211.987 555.5 211.897L555.408 211.529C555.403 211.51 555.399 211.495 555.395 211.482C555.293 211.109 554.951 210.852 554.564 210.857Z" fill="#00BDC8"/>
<path fill-rule="evenodd" clip-rule="evenodd" d="M531.872 214.762C531.79 214.3 531.348 213.992 530.885 214.074C530.423 214.157 530.115 214.599 530.197 215.061C531.829 224.192 531.696 233.074 530.029 241.772C529.941 242.234 530.243 242.679 530.705 242.768C531.166 242.856 531.612 242.554 531.7 242.093C533.406 233.195 533.542 224.103 531.872 214.762Z" fill="#00BDC8"/>
<path fill-rule="evenodd" clip-rule="evenodd" d="M504.643 163.17C504.383 162.877 503.957 162.799 503.61 162.981L503.472 163.056C503.363 163.115 503.235 163.186 503.088 163.268L502.832 163.415C502.523 163.592 502.183 163.792 501.813 164.015L501.653 164.113C500.115 165.049 498.403 166.177 496.561 167.502C491.304 171.282 486.048 175.874 481.142 181.298C478.09 184.672 475.269 188.271 472.724 192.098C472.463 192.49 472.57 193.018 472.961 193.278C473.353 193.538 473.881 193.431 474.141 193.04C476.638 189.285 479.408 185.752 482.404 182.439C487.225 177.109 492.391 172.596 497.555 168.883C499.275 167.646 500.876 166.585 502.322 165.698L502.538 165.566C502.905 165.343 503.242 165.142 503.548 164.965L503.82 164.809L503.823 164.813C518.595 181.637 527.083 198.26 530.106 214.562L530.197 215.061C530.28 215.524 530.722 215.832 531.184 215.749C531.647 215.666 531.955 215.225 531.872 214.762C528.844 197.813 520.047 180.568 504.643 163.17Z" fill="#00BDC8"/>
<path fill-rule="evenodd" clip-rule="evenodd" d="M428.319 228.73C418.375 224.552 406.821 224.152 393.573 228.19C393.187 228.307 392.937 228.679 392.974 229.081L392.991 229.252L393.032 229.625L393.081 230.024C393.137 230.474 393.206 230.978 393.29 231.532C393.58 233.464 393.982 235.615 394.513 237.93C396.171 245.557 408.048 274.378 411.446 280.389C411.658 280.808 412.17 280.977 412.589 280.765C413.009 280.553 413.177 280.042 412.965 279.622C409.909 273.574 397.659 244.039 396.171 237.55C395.651 235.278 395.257 233.17 394.972 231.279L394.915 230.892C394.87 230.577 394.829 230.282 394.794 230.006L394.745 229.615L394.84 229.587C407.263 225.947 418.06 226.35 427.372 230.179L427.66 230.298C435.517 233.6 442.057 239.236 447.389 246.558C450.508 250.841 453.022 255.434 454.98 260.027C455.666 261.633 456.232 263.124 456.687 264.46L456.789 264.763C456.887 265.058 456.974 265.329 457.05 265.574L457.148 265.898L457.212 266.117C457.336 266.57 457.805 266.836 458.258 266.711C458.711 266.586 458.977 266.118 458.852 265.665L458.78 265.415C458.76 265.348 458.738 265.275 458.714 265.197L458.635 264.941C458.538 264.632 458.426 264.288 458.298 263.913C457.83 262.537 457.248 261.007 456.546 259.359C454.54 254.655 451.966 249.951 448.765 245.557C443.262 238 436.488 232.162 428.319 228.73Z" fill="#00BDC8"/>
<path fill-rule="evenodd" clip-rule="evenodd" d="M442.616 166.549C442.292 166.354 441.878 166.397 441.6 166.654L441.507 166.741L441.323 166.919C441.133 167.105 440.917 167.321 440.677 167.569L440.572 167.677C439.77 168.51 438.877 169.498 437.917 170.638C435.179 173.89 432.443 177.715 429.891 182.091C427.167 186.76 410.311 219.637 408.704 225.537C408.549 225.981 408.784 226.466 409.227 226.621C409.671 226.775 410.156 225.981 410.311 225.537C412.148 220.267 428.69 187.525 431.361 182.948C433.862 178.66 436.541 174.913 439.219 171.733L439.566 171.324C440.312 170.452 441.011 169.681 441.651 169.01L441.798 168.857C441.899 168.752 441.996 168.653 442.089 168.559L442.3 168.346L442.62 168.541C456.804 177.191 467.985 186.869 476.409 197.42L476.668 197.747C484.294 207.38 489.528 217.601 492.639 228.249C492.771 228.7 493.243 228.959 493.694 228.827C494.145 228.696 494.404 228.223 494.272 227.772C487.462 204.459 470.941 183.591 442.616 166.549Z" fill="#00BDC8"/>
<path fill-rule="evenodd" clip-rule="evenodd" d="M457.944 202.403C447.759 214.676 441.896 226.37 439.838 237.468C439.752 237.93 440.057 238.373 440.519 238.459C440.982 238.545 441.426 238.24 441.511 237.778C443.473 227.198 449.018 216.006 458.659 204.213L458.835 203.997L459.155 204.151C459.386 204.263 459.634 204.384 459.898 204.515L460.222 204.677L460.727 204.932C462.177 205.669 463.768 206.52 465.468 207.482C470.898 210.553 476.329 214.109 481.393 218.106C491.673 226.22 499.095 235.071 502.444 244.48C506.574 256.081 504.291 267.983 494.329 280.153C494.031 280.516 494.085 281.052 494.448 281.35C494.812 281.647 495.348 281.594 495.646 281.23C505.979 268.608 508.38 256.083 504.048 243.91C500.573 234.149 492.956 225.065 482.447 216.771C477.309 212.716 471.807 209.112 466.306 206.001L465.702 205.662C464.006 204.714 462.422 203.877 460.985 203.157L460.654 202.992C460.332 202.831 460.032 202.685 459.756 202.552L459.4 202.382L458.951 202.172C458.601 202.014 458.189 202.108 457.944 202.403Z" fill="#00BDC8"/>
<path fill-rule="evenodd" clip-rule="evenodd" d="M553.856 239.611C534.751 237.929 517.62 243.52 502.552 254.489C496.76 258.705 491.508 263.559 486.801 268.818C483.266 272.766 480.295 276.65 477.887 280.247C477.626 280.637 477.73 281.165 478.121 281.427C478.511 281.688 479.04 281.583 479.301 281.193C481.667 277.66 484.59 273.838 488.069 269.952C492.7 264.779 497.864 260.006 503.553 255.865C518.308 245.124 535.042 239.663 553.706 241.305C554.174 241.347 554.587 241.001 554.629 240.533C554.67 240.065 554.324 239.652 553.856 239.611Z" fill="#00BDC8"/>
<path fill-rule="evenodd" clip-rule="evenodd" d="M553.854 239.611C553.386 239.57 552.974 239.917 552.933 240.385C552.893 240.853 553.24 241.265 553.708 241.305C558.886 241.752 564.26 242.786 569.822 244.417L570.211 244.532L570.049 244.868C569.98 245.009 569.908 245.156 569.832 245.307L569.595 245.778C568.73 247.478 567.678 249.374 566.433 251.418C562.873 257.261 558.489 263.105 553.247 268.558C548.177 273.831 542.559 278.46 536.375 282.264C535.974 282.51 535.85 283.034 536.096 283.434C536.342 283.834 536.866 283.959 537.266 283.712C543.579 279.83 549.308 275.11 554.474 269.737C559.807 264.189 564.265 258.246 567.886 252.302C569.154 250.221 570.228 248.286 571.112 246.549L571.277 246.223C571.464 245.85 571.632 245.506 571.782 245.191L571.906 244.928C571.953 244.829 571.995 244.737 572.034 244.653L572.167 244.356L572.174 244.34C572.376 243.875 572.129 243.339 571.644 243.189C565.499 241.293 559.565 240.103 553.854 239.611Z" fill="#00BDC8"/>
<path fill-rule="evenodd" clip-rule="evenodd" d="M413.589 279.812C410.881 279.812 408.676 281.986 408.627 284.681L408.626 284.774V299.773C408.626 302.48 410.8 304.684 413.496 304.734L413.589 304.735L420.227 304.735L434.061 393.312C434.162 393.754 434.59 394.036 435.031 393.962L435.08 393.953C435.522 393.852 435.804 393.425 435.73 392.983L435.721 392.934L421.736 303.696C421.652 303.325 421.333 303.058 420.958 303.035L420.906 303.034H413.589C411.818 303.034 410.373 301.616 410.329 299.856L410.328 299.773V284.774C410.328 283.004 411.745 281.559 413.506 281.515L413.589 281.514H470.663C471.132 281.514 471.513 281.133 471.513 280.663C471.513 280.21 471.159 279.84 470.713 279.814L470.663 279.812H413.589Z" fill="#B5BDBF"/>
<path fill-rule="evenodd" clip-rule="evenodd" d="M467.93 279.841C467.46 279.841 467.079 280.222 467.079 280.691C467.079 281.144 467.433 281.515 467.88 281.541L467.93 281.542H533.219C534.99 281.542 536.435 282.96 536.479 284.72L536.48 284.803V299.802C536.48 301.572 535.062 303.017 533.301 303.061L533.219 303.062H526.383C526.004 303.062 525.672 303.313 525.567 303.674L525.554 303.724L505.162 393.264C505.057 393.722 505.344 394.178 505.803 394.282C506.244 394.383 506.684 394.119 506.809 393.69L506.821 393.641L527.062 304.763H533.219C535.926 304.763 538.131 302.59 538.181 299.895L538.182 299.802V284.803C538.182 282.096 536.008 279.891 533.312 279.842L533.219 279.841H467.93Z" fill="#B5BDBF"/>
</g>
</svg>
