<svg width="600" height="310" viewBox="0 0 600 310" fill="none" xmlns="http://www.w3.org/2000/svg">
<mask id="mask0" mask-type="alpha" maskUnits="userSpaceOnUse" x="0" y="0" width="600" height="310">
<rect width="600" height="310" fill="#C4C4C4"/>
</mask>
<g mask="url(#mask0)">
<g opacity="0.9">
<path fill-rule="evenodd" clip-rule="evenodd" d="M114.716 262.607C110.515 233.058 101.323 168.62 128.832 138.209C156.341 107.798 160.713 115.03 165.499 90.0265C170.284 65.0227 195.659 54.8972 208.432 69.4311C221.24 83.9305 205.85 111.724 200.892 117.785C195.934 123.847 200.41 161.18 184.263 187.011C168.115 212.841 142.19 194.347 143.292 216.802C141.811 261.058 114.716 262.607 114.716 262.607Z" fill="#BAE0DD"/>
<path fill-rule="evenodd" clip-rule="evenodd" d="M196.45 79.0611C195.968 78.757 195.33 78.9019 195.026 79.3848L194.577 80.1034L193.674 81.5597C193.012 82.6334 192.268 83.8477 191.448 85.1958L190.665 86.4868C188.028 90.8431 185.129 95.7246 182.029 101.059C172.286 117.822 162.543 135.617 153.448 153.671C145.946 168.562 139.212 182.998 133.438 196.749C122.505 222.785 115.368 245.495 112.832 263.948C112.754 264.513 113.149 265.034 113.714 265.112C114.279 265.19 114.801 264.794 114.878 264.229C117.386 245.986 124.473 223.433 135.342 197.55C141.097 183.845 147.811 169.452 155.293 154.601C164.367 136.587 174.091 118.827 183.815 102.097L185.042 99.9924C187.878 95.1379 190.532 90.6859 192.955 86.6953L194.222 84.6157C194.544 84.0893 194.851 83.5881 195.144 83.1125L196.471 80.97L196.774 80.486C197.078 80.0032 196.933 79.3652 196.45 79.0611Z" fill="white"/>
<path fill-rule="evenodd" clip-rule="evenodd" d="M99.8765 32.1321C126.766 29.5491 132.343 56.8259 133.204 79.901C134.065 102.976 129.795 111.276 142.913 123.537C156.031 135.832 134.684 152.433 136.509 164.624C138.334 176.816 150.935 209.397 101.942 281.584C100.152 284.202 97.6041 305.279 97.6041 305.279L86.9999 302.421C86.9999 302.421 93.8169 285.304 86.1048 264.571C78.3926 243.803 65.3095 234.056 64.07 208.088C62.8306 182.12 81.3879 187.148 77.9795 170.066C74.571 152.984 57.1498 141.171 58.4925 124.054C59.8352 106.902 92.0266 94.4349 84.8997 74.7005C77.7729 54.9317 76.6023 34.3707 99.8765 32.1321Z" fill="#BAE0DD"/>
<path fill-rule="evenodd" clip-rule="evenodd" d="M110.018 41.3113C109.496 41.4844 109.204 42.0341 109.345 42.5589L109.506 43.0644L109.631 43.4676C109.719 43.7527 109.815 44.0705 109.919 44.4208L110.062 44.9053C110.472 46.3047 110.922 47.9277 111.403 49.7689L111.613 50.5779C113.081 56.2843 114.545 62.8987 115.916 70.3679C120.695 96.394 123.224 126.219 122.306 159.136C121.107 202.14 114.068 246.822 99.9912 292.473C99.8231 293.018 100.129 293.596 100.674 293.765C101.219 293.933 101.797 293.627 101.965 293.082C116.098 247.247 123.167 202.38 124.371 159.193C125.293 126.127 122.752 96.158 117.948 69.9946L117.75 68.9265C116.361 61.4902 114.882 54.9125 113.401 49.2465L113.147 48.2815C112.756 46.8123 112.386 45.492 112.044 44.3235L111.899 43.832C111.758 43.3557 111.63 42.9371 111.518 42.5768L111.323 41.967C111.144 41.4254 110.56 41.1318 110.018 41.3113Z" fill="white"/>
<path fill-rule="evenodd" clip-rule="evenodd" d="M101.46 260.266C110.687 236.949 130.794 186.046 163.364 175.129C195.934 164.211 196.072 171.271 209.947 154.947C223.822 138.622 246.373 141.653 249.609 157.495C252.846 173.338 230.157 187.321 224.063 189.732C217.969 192.142 205.678 221.245 183.264 233.505C160.851 245.766 149.765 221.623 141.226 238.499C121.739 270.219 101.46 260.266 101.46 260.266Z" fill="#BAE0DD"/>
<path fill-rule="evenodd" clip-rule="evenodd" d="M238.714 155.709C238.497 155.204 237.924 154.961 237.414 155.146L237.33 155.18L236.981 155.333C236.75 155.434 236.488 155.55 236.196 155.68L235.894 155.815C234.707 156.346 233.332 156.975 231.782 157.698L230.44 158.328C226.369 160.25 221.9 162.45 217.124 164.913C201.961 172.732 186.799 181.585 172.642 191.297C158.177 201.22 145.577 211.501 135.379 222.052C123.56 234.279 115.234 246.597 110.951 258.928C110.764 259.467 111.049 260.055 111.588 260.243C112.127 260.43 112.715 260.145 112.902 259.606C120.767 236.965 142.5 214.481 173.81 193.001C187.889 183.342 202.98 174.532 218.07 166.75L219.122 166.209C223.655 163.886 227.898 161.807 231.77 159.986L232.656 159.571C234.003 158.942 235.217 158.385 236.288 157.903L237.446 157.386L238.174 157.067C238.698 156.841 238.94 156.233 238.714 155.709Z" fill="white"/>
<path fill-rule="evenodd" clip-rule="evenodd" d="M113.373 266.155C112.822 239.222 111.582 180.433 82.8685 157.254C54.1545 134.076 51.3657 141.136 43.5159 119.507C35.666 97.8789 11.8065 92.4717 2.61391 107.212C-6.5787 121.953 11.0147 144.546 16.2479 149.23C21.4811 153.913 22.9616 187.837 40.9681 208.605C58.9746 229.338 79.1501 209.19 81.4225 229.372C89.2379 268.566 113.373 266.155 113.373 266.155Z" fill="#BAE0DD"/>
<path fill-rule="evenodd" clip-rule="evenodd" d="M14.0546 109.633C13.6608 110.046 13.6761 110.7 14.0888 111.094L14.6745 111.66L15.3956 112.366C16.0649 113.024 16.8157 113.77 17.6426 114.602L18.4766 115.444C21.3139 118.316 24.4441 121.58 27.7976 125.195C38.0899 136.291 48.3824 148.403 57.9868 161.129C74.1078 182.489 86.6163 203.369 94.1086 222.932C99.376 236.685 102.028 249.482 101.77 261.138C101.758 261.709 102.21 262.181 102.78 262.194C103.35 262.207 103.823 261.754 103.836 261.184C104.1 249.233 101.394 236.179 96.0376 222.192C88.4661 202.423 75.8634 181.386 59.6354 159.884C50.2001 147.382 40.1079 135.474 30.001 124.534L29.3119 123.79C25.8142 120.019 22.5576 116.628 19.6196 113.661L18.6972 112.733C18.0247 112.059 17.4057 111.445 16.8434 110.892L16.0238 110.09L15.5149 109.599C15.1022 109.205 14.4484 109.22 14.0546 109.633Z" fill="white"/>
<path fill-rule="evenodd" clip-rule="evenodd" d="M75.3284 312.136L62.4863 253.036C61.419 248.559 64.8964 244.288 69.5787 244.288H149.455C154.137 244.288 157.58 248.525 156.581 252.967L143.464 311.757" fill="#F3EBE5"/>
</g>
<g opacity="0.8">
<path fill-rule="evenodd" clip-rule="evenodd" d="M190.783 151.932C196.923 150.78 202.922 154.447 204.268 160.167L204.307 160.341L208.656 180.539C208.732 180.895 208.506 181.246 208.151 181.323C207.808 181.397 207.469 181.189 207.377 180.855L207.368 180.817L203.02 160.62C201.911 155.519 196.544 152.194 191.025 153.23C185.56 154.255 182.018 159.13 183.017 164.17L183.049 164.323L189.579 194.209C189.655 194.565 189.429 194.916 189.074 194.993C188.731 195.067 188.393 194.859 188.3 194.525L188.291 194.487L181.761 164.602C180.497 158.759 184.553 153.101 190.783 151.932Z" fill="#00BDC8"/>
<path fill-rule="evenodd" clip-rule="evenodd" d="M215.215 152.076C215.403 146.133 220.725 141.46 227.049 141.646C233.334 141.831 238.295 146.67 238.212 152.529L237.505 182.146C237.496 182.51 237.194 182.798 236.831 182.79C236.48 182.781 236.2 182.5 236.188 182.153L236.188 182.114L236.891 152.67C237.055 147.479 232.651 143.131 227.011 142.966C221.449 142.802 216.79 146.842 216.538 151.963L216.532 152.118L215.654 179.687C215.642 180.051 215.338 180.337 214.974 180.325C214.624 180.314 214.346 180.03 214.337 179.683L214.337 179.645L215.215 152.076Z" fill="#00BDC8"/>
<path fill-rule="evenodd" clip-rule="evenodd" d="M247.578 160.295C248.843 154.478 254.901 150.725 261.103 151.888C267.264 153.044 271.309 158.619 270.161 164.383L270.124 164.558L263.953 193.182C263.877 193.539 263.526 193.765 263.17 193.688C262.827 193.614 262.605 193.285 262.658 192.942L262.665 192.903L268.837 164.278C269.94 159.201 266.374 154.22 260.86 153.186C255.397 152.161 250.082 155.409 248.896 160.442L248.862 160.595L243.701 181.453C243.613 181.806 243.256 182.022 242.903 181.934C242.562 181.85 242.35 181.514 242.414 181.173L242.422 181.135L247.578 160.295Z" fill="#00BDC8"/>
<path fill-rule="evenodd" clip-rule="evenodd" d="M274.962 180.805C277.808 175.499 284.686 173.355 290.357 175.986C295.998 178.604 298.328 184.966 295.598 190.268L295.514 190.429L268.458 240.902C268.286 241.223 267.886 241.343 267.566 241.171C267.257 241.005 267.134 240.627 267.279 240.313L267.297 240.277L294.353 189.804C296.849 185.152 294.825 179.514 289.803 177.184C284.805 174.865 278.755 176.712 276.199 181.29L276.122 181.43L269.249 194.257C269.076 194.578 268.677 194.699 268.356 194.526C268.048 194.36 267.925 193.983 268.07 193.669L268.088 193.633L274.962 180.805Z" fill="#00BDC8"/>
<path fill-rule="evenodd" clip-rule="evenodd" d="M173.904 221.738C174.091 221.414 174.429 221.523 174.675 221.975L174.703 222.029L183.229 239.167C183.477 239.664 183.52 240.34 183.327 240.676C183.14 241 182.802 240.891 182.556 240.439L182.528 240.385L173.624 222.827C173.377 222.33 173.711 222.074 173.904 221.738Z" fill="#00BDC8"/>
<path fill-rule="evenodd" clip-rule="evenodd" d="M161.235 175.662C166.849 173.057 173.646 175.132 176.544 180.323L176.63 180.481L184.756 195.64C184.928 195.961 184.808 196.362 184.487 196.534C184.179 196.7 183.797 196.594 183.615 196.3L183.595 196.265L175.47 181.106C172.959 176.425 166.837 174.517 161.789 176.86C156.817 179.166 154.784 184.715 157.165 189.34L157.239 189.479L174.764 222.152C174.936 222.474 174.816 222.874 174.495 223.046C174.187 223.213 173.805 223.107 173.623 222.812L173.603 222.777L156.078 190.104C153.217 184.77 155.537 178.305 161.235 175.662Z" fill="#00BDC8"/>
<path fill-rule="evenodd" clip-rule="evenodd" d="M211.465 178.703C217.358 177.956 222.75 182.895 223.619 189.703L223.644 189.91L226.069 211.22L230.712 189.802C232.137 183.147 237.946 179.208 243.73 181.007L243.905 181.063C249.636 182.962 253.102 189.789 251.763 196.393L251.721 196.593L247.487 216.152L255.309 198.952C258.054 192.898 264.546 190.697 269.834 194.015L269.993 194.118C275.186 197.501 277.198 205.021 274.575 211.044L274.494 211.226L261.01 240.929C260.86 241.26 260.469 241.407 260.138 241.256C259.818 241.111 259.671 240.742 259.796 240.418L259.811 240.382L273.295 210.68C275.775 205.208 273.961 198.278 269.275 195.224C264.7 192.243 259.07 194.061 256.583 199.338L256.508 199.499L246.143 222.293C245.821 223.001 244.768 222.664 244.892 221.919L244.899 221.88L250.433 196.313C251.746 190.278 248.609 184.012 243.491 182.316C238.488 180.659 233.387 184.018 232.04 189.902L232 190.081L226.51 215.405C226.355 216.121 225.335 216.083 225.217 215.381L225.211 215.34L222.334 190.059C221.628 183.832 216.803 179.357 211.63 180.012C206.508 180.661 202.849 186.112 203.463 192.253L203.483 192.439L206.47 218.468C206.557 219.224 205.518 219.494 205.217 218.819L205.201 218.782L198.657 201.862C196.439 196.131 190.808 193.491 186.086 195.897C181.351 198.31 179.228 204.859 181.351 210.585L181.416 210.758L192.88 240.373C193.011 240.713 192.843 241.095 192.504 241.227C192.177 241.354 191.81 241.202 191.666 240.886L191.651 240.85L180.188 211.235C177.723 204.865 180.073 197.48 185.488 194.721C190.894 191.966 197.271 194.903 199.81 201.194L199.886 201.385L204.575 213.508L202.174 192.59C201.397 185.765 205.443 179.58 211.287 178.727L211.465 178.703Z" fill="#00BDC8"/>
<path fill-rule="evenodd" clip-rule="evenodd" d="M272.072 239.973C274.169 239.973 275.876 241.66 275.915 243.751L275.915 243.824V255.507C275.915 257.607 274.232 259.318 272.144 259.356L272.072 259.357H267.257L252.496 326.091C252.415 326.433 252.083 326.65 251.741 326.59L251.703 326.582C251.362 326.502 251.146 326.168 251.205 325.826L251.213 325.788L266.094 258.546C266.161 258.261 266.407 258.055 266.696 258.038L266.735 258.037H272.072C273.444 258.037 274.563 256.937 274.597 255.571L274.597 255.507V243.824C274.597 242.449 273.5 241.328 272.136 241.294L272.072 241.293H179.177C177.805 241.293 176.686 242.393 176.652 243.759L176.651 243.824V255.507C176.651 256.881 177.749 258.002 179.113 258.036L179.177 258.037H184.887C185.179 258.037 185.435 258.23 185.518 258.507L185.528 258.546L201.318 325.696C201.401 326.051 201.182 326.406 200.828 326.49C200.486 326.57 200.144 326.369 200.045 326.036L200.035 325.999L184.365 259.357H179.177C177.08 259.357 175.373 257.67 175.334 255.579L175.334 255.507V243.824C175.334 241.723 177.017 240.013 179.105 239.974L179.177 239.973H272.072Z" fill="#B5BDBF"/>
</g>
<path fill-rule="evenodd" clip-rule="evenodd" d="M306.024 226.523C308.837 224.067 311.323 223.197 313.075 224.797C318.304 229.564 313.529 239.306 304.201 244.009L304.142 244.038L304.172 244.176C305.219 249.118 305.828 254.538 305.936 259.686L305.939 259.874L305.976 259.858C308.121 258.918 310.144 259.062 311.505 260.502L311.584 260.588C312.666 261.777 312.836 263.919 312.145 265.646C311.34 267.661 309.537 268.668 307.428 267.843L307.32 267.8C306.781 267.581 306.327 267.386 305.877 267.18L305.718 267.107L305.714 267.152C305.501 269.611 305.15 271.859 304.677 273.769L304.612 274.028C304.458 274.627 303.848 274.988 303.251 274.833C302.653 274.678 302.293 274.067 302.448 273.468C303.024 271.227 303.424 268.421 303.606 265.313C303.653 264.51 304.504 264.016 305.222 264.376L305.654 264.592C306.551 265.035 307.217 265.339 308.171 265.727C309.083 266.109 309.682 265.783 310.07 264.812C310.467 263.818 310.369 262.579 309.926 262.092C309.105 261.174 307.466 261.316 305.474 262.711C304.73 263.232 303.71 262.694 303.716 261.785C303.754 255.85 303.067 249.369 301.769 243.659C301.651 243.141 301.913 242.61 302.396 242.39C311.069 238.434 315.42 229.964 311.571 226.455C310.193 225.197 305.146 229.603 301.272 235.787C300.79 236.556 299.644 236.461 299.294 235.623C297.753 231.929 295.98 229.307 294.01 227.882C291.057 225.755 289.591 226.563 288.674 230.39C287.818 233.962 287.8 239.666 288.471 246.286C288.571 247.274 287.434 247.895 286.661 247.274C285.701 246.505 284.712 245.959 283.786 245.734C281.512 245.196 279.332 248.431 280.164 251.366C280.751 253.481 284.768 254.214 287.745 252.392C288.421 251.978 289.3 252.381 289.43 253.164C289.731 254.975 290.074 256.702 290.403 258.087L290.457 258.314L290.467 258.359C290.523 258.64 290.609 258.947 290.73 259.308C291.04 260.241 290.087 261.093 289.198 260.679C287.689 259.975 286.512 259.685 285.879 259.833L285.82 259.849C283.5 260.466 281.124 262.546 281.485 264.252C282.07 267.046 283.6 268.144 286.662 267.462C288.111 267.129 289.621 266.341 290.998 265.276C291.603 264.808 292.487 265.072 292.737 265.796C293.708 268.6 294.73 271.074 295.767 273.083C296.05 273.633 295.836 274.309 295.287 274.594C294.739 274.878 294.065 274.663 293.781 274.113C292.92 272.444 292.077 270.491 291.266 268.317L291.122 267.925L291.025 267.987C289.849 268.724 288.61 269.284 287.362 269.598L287.154 269.649C282.82 270.614 280.129 268.683 279.298 264.715C278.913 262.897 279.724 261.224 281.305 259.841C282.413 258.871 283.894 258.075 285.07 257.732L285.216 257.691C285.972 257.466 286.861 257.515 287.884 257.791L288.052 257.837L288 257.602L287.871 256.998C287.764 256.485 287.658 255.947 287.554 255.393L287.483 255.013L287.375 255.055C283.547 256.504 279.042 255.335 278.045 252.086L278.012 251.974C276.764 247.57 280.135 242.567 284.306 243.554C284.834 243.682 285.358 243.875 285.875 244.123L286.037 244.204L286.014 243.909L285.967 243.275C285.59 237.91 285.716 233.299 286.456 230.056L286.5 229.866C287.754 224.636 290.915 222.893 295.316 226.062C297.242 227.455 298.92 229.668 300.388 232.625L300.512 232.879L300.641 232.694C302.267 230.379 304.099 228.244 305.825 226.698L306.024 226.523Z" fill="#0999A2"/>
<path fill-rule="evenodd" clip-rule="evenodd" d="M325.068 247.728L325.104 247.676C328.484 242.778 332.409 240.074 336.982 240.339L337.145 240.35L337.206 240.356C340.274 240.749 341.059 243.638 340.136 247.938C339.537 250.731 338.207 254.228 336.395 257.948L336.276 258.19L336.455 258.172C338.57 257.968 340.612 258.268 342.021 259.04L342.14 259.108C344.078 260.252 344.898 263.117 343.862 265.407C342.642 268.105 339.352 269.435 334.409 268.884C332.885 268.717 331.604 268.482 330.556 268.186L330.487 268.166L328.66 270.975L328.223 271.639C327.245 273.117 326.516 274.152 325.931 274.868C325.541 275.348 324.836 275.418 324.358 275.026C323.881 274.634 323.81 273.928 324.201 273.449L324.391 273.211C324.958 272.485 325.704 271.402 326.704 269.878L328.894 266.515C328.975 266.391 329.043 266.288 329.092 266.214C329.379 265.782 329.925 265.604 330.41 265.785C331.405 266.154 332.815 266.455 334.654 266.656C338.73 267.11 341.064 266.166 341.826 264.481C342.4 263.212 341.936 261.589 341.011 261.042C339.64 260.243 336.977 260.098 334.547 260.813C333.598 261.092 332.782 260.089 333.244 259.213C335.567 254.811 337.279 250.598 337.951 247.466C338.623 244.331 338.231 242.796 336.985 242.589L336.951 242.583L336.84 242.576C332.888 242.357 329.338 245.067 326.168 250.13L326.054 250.314C325.613 251.028 324.576 251.021 324.145 250.301C322.831 248.105 320.372 246.143 318.728 245.903C315.672 245.478 314.211 246.852 314.921 249.287C315.578 251.461 319.273 254.444 322.083 254.815C322.822 254.913 323.261 255.696 322.958 256.38C322.381 257.688 321.843 259.025 321.297 260.486L321.063 261.117C320.985 261.33 320.905 261.548 320.823 261.778L320.12 263.74C319.227 266.234 318.529 269.825 318.092 273.687C318.022 274.302 317.468 274.744 316.855 274.675C316.241 274.605 315.801 274.049 315.87 273.434C316.313 269.526 317.013 265.88 317.937 263.207L318.548 261.495C318.757 260.911 318.94 260.409 319.124 259.912L319.204 259.699C319.54 258.799 319.874 257.944 320.216 257.112L320.38 256.715L320.323 256.696C317.077 255.64 313.673 252.66 312.812 250.036L312.778 249.927C311.573 245.79 314.484 243.05 319.042 243.683C320.975 243.965 323.298 245.576 324.98 247.619L325.068 247.728Z" fill="#0999A2"/>
<path fill-rule="evenodd" clip-rule="evenodd" d="M334.158 273H281.733C275.713 273 270.853 277.874 270.853 283.91V284.881C270.853 299.772 282.904 311.856 297.755 311.856H318.136C332.987 311.856 345.038 299.772 345.038 284.881V283.91C345.038 277.874 340.178 273 334.158 273ZM281.733 275.242H334.158C338.943 275.242 342.802 279.112 342.802 283.91V284.881C342.802 298.534 331.752 309.615 318.136 309.615H297.755C284.139 309.615 273.088 298.534 273.088 284.881V283.91C273.088 279.112 276.947 275.242 281.733 275.242Z" fill="#DDDDDD"/>
<path d="M577.514 131.029C573.842 136.525 550.286 153.471 538.966 161.256C537.59 160.646 534.469 159.058 533.001 157.593C531.165 155.761 530.706 136.983 531.165 131.029C531.624 125.075 538.966 91.1834 541.72 82.9395C544.473 74.6956 559.158 55.4599 566.959 51.3379C574.76 47.216 585.774 52.7119 588.986 53.6279C592.198 54.5439 594.952 62.7878 597.246 68.2837C599.541 73.7796 598.164 87.5194 597.246 93.0154C596.328 98.5113 582.103 124.159 577.514 131.029Z" fill="#C1E3E0"/>
<path d="M507.761 181.408C508.496 186.904 506.844 189.499 505.926 190.11C503.172 189.805 496.931 188.919 493.995 187.82C490.323 186.446 476.098 176.828 474.262 175.454C472.426 174.08 454.07 156.677 452.235 154.845C450.399 153.013 443.975 140.189 442.598 136.525C441.221 132.861 440.762 124.617 440.762 120.037C440.762 115.457 446.269 108.129 448.564 106.297C450.858 104.465 456.824 104.007 460.954 104.465C465.084 104.923 473.344 110.877 477.015 113.625C480.687 116.373 485.275 122.785 488.947 127.365C492.618 131.945 498.125 145.685 500.419 151.181C502.714 156.677 506.844 174.538 507.761 181.408Z" fill="#C1E3E0"/>
<path fill-rule="evenodd" clip-rule="evenodd" d="M440.309 116.969C436.908 130.11 442.928 147.188 457.949 162.25L458.407 162.706C469.712 173.891 479.417 181.617 487.627 186.413L488.238 186.765C494.1 190.116 498.772 191.719 502.332 192.035C504.05 192.201 505.747 191.655 507.104 190.523C508.727 189.124 509.556 187.09 509.336 185.012L509.317 184.852C505.418 149.413 489.23 117.365 467.035 105.579C454.862 99.1032 443.58 104.338 440.309 116.969ZM465.777 107.946C486.84 119.13 502.525 149.877 506.539 184.134L506.657 185.173C506.821 186.428 506.343 187.641 505.372 188.478C504.572 189.144 503.583 189.463 502.579 189.366C499.307 189.076 494.805 187.501 488.978 184.098C481.069 179.478 471.663 172.008 460.671 161.174L460.291 160.799C445.567 146.253 439.728 129.908 442.904 117.641C445.746 106.663 455.157 102.296 465.777 107.946Z" fill="#C1E3E0"/>
<path fill-rule="evenodd" clip-rule="evenodd" d="M446.159 108.724C446.658 108.219 447.46 108.195 447.989 108.654L448.097 108.757L448.793 109.456C449.337 110.006 449.96 110.642 450.656 111.36L451.51 112.245C453.57 114.389 455.834 116.8 458.253 119.448C465.891 127.81 473.529 136.814 480.661 146.122C489.206 157.274 496.439 168.112 501.943 178.362C503.672 181.581 505.22 184.726 506.578 187.789C506.878 188.465 506.573 189.257 505.896 189.557C505.22 189.857 504.428 189.552 504.128 188.875C502.799 185.876 501.28 182.792 499.582 179.63C494.153 169.521 486.998 158.799 478.534 147.753C471.706 138.841 464.405 130.204 457.087 122.149L456.274 121.256C453.744 118.487 451.387 115.979 449.258 113.77L448.327 112.808C448.063 112.537 447.811 112.279 447.571 112.034L446.512 110.962L446.169 110.619C445.643 110.099 445.638 109.25 446.159 108.724Z" fill="#F7FAFA"/>
<path fill-rule="evenodd" clip-rule="evenodd" d="M454.48 153.043L455.029 153.033C455.921 153.026 457.077 153.048 458.467 153.117L458.731 153.13C461.231 153.262 463.958 153.52 466.86 153.934C474.816 155.069 482.867 157.185 490.609 160.522C491.288 160.815 491.602 161.604 491.309 162.283C491.016 162.963 490.228 163.277 489.548 162.984C482.04 159.747 474.216 157.691 466.481 156.587C463.661 156.185 461.013 155.934 458.59 155.807L458.089 155.782C456.864 155.725 455.845 155.707 455.056 155.714L454.571 155.722C453.832 155.747 453.212 155.167 453.187 154.428C453.161 153.688 453.741 153.068 454.48 153.043Z" fill="#F7FAFA"/>
<path fill-rule="evenodd" clip-rule="evenodd" d="M473.787 112.564C474.432 112.201 475.249 112.429 475.613 113.073L475.995 113.761C476.135 114.013 476.288 114.293 476.455 114.598L476.928 115.47C477.466 116.468 478.047 117.562 478.661 118.738C480.942 123.109 483.223 127.741 485.353 132.433C487.038 136.146 488.56 139.746 489.877 143.182L490.159 143.924C493.78 153.513 495.588 161.252 495.075 166.616C495.004 167.352 494.35 167.893 493.613 167.822C492.876 167.751 492.336 167.097 492.407 166.36C492.883 161.39 491.044 153.71 487.375 144.142C486.078 140.759 484.577 137.208 482.913 133.541C480.805 128.898 478.545 124.309 476.285 119.979L475.747 118.953C475.336 118.172 474.942 117.435 474.57 116.744L474.005 115.704L473.36 114.534C473.324 114.471 473.297 114.422 473.279 114.39C472.915 113.746 473.143 112.928 473.787 112.564Z" fill="#F7FAFA"/>
<path fill-rule="evenodd" clip-rule="evenodd" d="M475.255 173.195L475.366 173.189L476.052 173.176C477.622 173.16 479.628 173.221 481.921 173.413C485.697 173.728 489.43 174.337 492.933 175.313C496.284 176.247 499.288 177.483 501.856 179.06C502.487 179.447 502.684 180.273 502.297 180.903C501.91 181.534 501.085 181.731 500.454 181.344C498.116 179.909 495.339 178.766 492.214 177.895C488.888 176.968 485.318 176.385 481.699 176.084C479.395 175.891 477.399 175.836 475.882 175.858L475.434 175.868C474.694 175.896 474.072 175.318 474.045 174.579C474.018 173.866 474.554 173.262 475.255 173.195Z" fill="#F7FAFA"/>
<path fill-rule="evenodd" clip-rule="evenodd" d="M575.06 49.0719C559.933 49.74 545.748 63.8995 538.324 88.6581L538.101 89.4116L537.758 90.5911C532.611 108.411 529.947 123.107 529.331 134.981L529.312 135.371C528.873 144.447 529.658 151.177 531.191 155.87C531.864 157.943 533.167 159.708 534.892 160.858C537.083 162.337 539.626 162.597 541.691 161.45C575.614 142.997 599.613 110.385 599.996 77.9215C600.22 60.4152 589.397 48.4387 575.06 49.0719ZM597.317 77.8885C596.946 109.274 573.549 141.069 540.4 159.101C539.265 159.732 537.791 159.581 536.385 158.632C535.165 157.819 534.23 156.551 533.739 155.04C532.312 150.671 531.564 144.265 531.988 135.501L532.028 134.732C532.678 123.013 535.355 108.451 540.503 90.7483L540.674 90.1635C544.367 77.5052 549.766 67.7192 556.333 61.0968C562.184 55.1958 568.774 52.0323 575.178 51.7495C587.891 51.1881 597.522 61.8458 597.317 77.8885Z" fill="#C1E3E0"/>
<path fill-rule="evenodd" clip-rule="evenodd" d="M585.967 55.0131C586.62 54.6649 587.432 54.912 587.78 55.5651C588.128 56.2182 587.881 57.0299 587.228 57.3782C573.476 64.7114 562.063 82.2928 552.918 107.001C548.55 118.802 544.989 131.457 542.175 144.113L541.911 145.313C541.129 148.89 540.457 152.249 539.89 155.33L539.705 156.347C539.531 157.315 539.377 158.2 539.243 158.999L538.993 160.535L538.926 160.967C538.818 161.699 538.136 162.204 537.404 162.096C536.698 161.991 536.203 161.354 536.266 160.652L536.285 160.513L536.443 159.508L536.555 158.823C536.672 158.121 536.805 157.349 536.953 156.512L537.068 155.872C537.738 152.147 538.566 147.998 539.559 143.531C542.397 130.765 545.99 117.997 550.404 106.071C559.758 80.7982 571.483 62.7366 585.967 55.0131Z" fill="#F7FAFA"/>
<path fill-rule="evenodd" clip-rule="evenodd" d="M596.326 81.9519C597.003 81.6517 597.795 81.9567 598.095 82.6332C598.395 83.3097 598.09 84.1015 597.414 84.4017C590.563 87.4426 582.68 91.2563 575.049 95.4519L574.273 95.8809C563.586 101.809 555.372 107.459 550.78 112.45C550.279 112.995 549.431 113.03 548.887 112.529C548.342 112.028 548.307 111.18 548.808 110.635C553.7 105.318 562.249 99.4594 573.356 93.325L573.758 93.1032C581.464 88.8661 589.412 85.0211 596.326 81.9519Z" fill="#F7FAFA"/>
<path fill-rule="evenodd" clip-rule="evenodd" d="M539.884 89.2621C539.953 88.5251 540.606 87.9832 541.343 88.0517C542.079 88.1202 542.621 88.7732 542.553 89.5101L542.452 90.6213C540.843 108.697 541.31 123.149 545.054 128.063C545.502 128.652 545.388 129.493 544.8 129.941C544.211 130.39 543.37 130.276 542.922 129.687C540.412 126.392 539.211 120.049 538.969 111.211C538.789 104.62 539.157 97.0883 539.884 89.2621Z" fill="#F7FAFA"/>
<path fill-rule="evenodd" clip-rule="evenodd" d="M581.963 121.307C582.541 120.844 583.384 120.938 583.847 121.516C584.309 122.093 584.216 122.937 583.638 123.399C579.477 126.732 573.478 130.176 566.105 133.66C560.987 136.078 555.51 138.372 550.033 140.471L549.159 140.805C547.718 141.352 546.362 141.852 545.111 142.302L543.947 142.717L542.72 143.144C542.019 143.381 541.259 143.005 541.021 142.304C540.792 141.628 541.134 140.897 541.787 140.632L543.242 140.123L543.836 139.912C545.416 139.347 547.177 138.696 549.074 137.969C554.492 135.892 559.91 133.622 564.96 131.236C572.161 127.834 577.998 124.483 581.963 121.307Z" fill="#F7FAFA"/>
<path fill-rule="evenodd" clip-rule="evenodd" d="M558.346 182.306C559.084 182.244 559.732 182.792 559.794 183.529C559.856 184.267 559.309 184.915 558.572 184.977C551.909 185.539 546.254 188.47 541.502 193.278C537.859 196.963 534.989 201.492 532.839 206.301C532.537 206.976 531.745 207.279 531.069 206.977C530.393 206.675 530.091 205.883 530.393 205.207C532.663 200.127 535.701 195.334 539.596 191.394C544.773 186.156 551.005 182.925 558.346 182.306Z" fill="#C1E3E0"/>
<path fill-rule="evenodd" clip-rule="evenodd" d="M559.017 183.057C560.581 182.841 561.323 178.843 560.673 174.125C560.024 169.408 558.229 165.759 556.665 165.974C555.101 166.189 554.36 170.188 555.009 174.905C555.659 179.622 557.453 183.272 559.017 183.057Z" fill="#FFE0CD"/>
<path fill-rule="evenodd" clip-rule="evenodd" d="M566.809 180.091C570.197 177.336 572.212 174.203 571.31 173.093C570.407 171.982 566.929 173.315 563.541 176.07C560.153 178.824 558.138 181.958 559.04 183.068C559.943 184.178 563.421 182.845 566.809 180.091Z" fill="#FFE0CD"/>
<path fill-rule="evenodd" clip-rule="evenodd" d="M559.009 182.837C559.733 181.435 556.891 178.526 552.661 176.341C548.431 174.156 544.415 173.522 543.691 174.925C542.966 176.328 545.808 179.236 550.038 181.421C554.268 183.606 558.284 184.24 559.009 182.837Z" fill="#FFE0CD"/>
<path fill-rule="evenodd" clip-rule="evenodd" d="M572.947 190.61C573.627 189.351 571.064 186.647 567.223 184.571C563.381 182.495 559.716 181.833 559.036 183.092C558.356 184.351 560.918 187.054 564.76 189.13C568.601 191.206 572.266 191.868 572.947 190.61Z" fill="#FFE0CD"/>
<path fill-rule="evenodd" clip-rule="evenodd" d="M558.013 191.335C559.848 187.372 560.282 183.673 558.984 183.072C557.685 182.47 555.146 185.196 553.312 189.158C551.477 193.121 551.043 196.821 552.341 197.422C553.64 198.023 556.179 195.298 558.013 191.335Z" fill="#FFE0CD"/>
<path fill-rule="evenodd" clip-rule="evenodd" d="M486.66 81.1839C487.119 80.6035 487.962 80.5052 488.542 80.9645L488.705 81.0965C488.774 81.1537 488.858 81.2241 488.957 81.3077L489.206 81.5223C489.465 81.747 489.751 82.0019 490.062 82.2874C491.24 83.3668 492.548 84.6673 493.954 86.1919C497.958 90.5334 501.957 95.8066 505.686 102.035C512.612 113.604 517.803 127.115 520.551 142.627C523.921 161.648 523.44 182.782 518.41 206.081C518.254 206.805 517.541 207.265 516.817 207.108C516.094 206.952 515.634 206.239 515.79 205.516C520.748 182.553 521.221 161.769 517.912 143.095C515.223 127.913 510.15 114.707 503.387 103.412C499.755 97.3466 495.867 92.2196 491.984 88.0092C490.63 86.5406 489.375 85.2928 488.252 84.263L487.968 84.0048C487.692 83.7566 487.443 83.5384 487.221 83.3501L486.931 83.1079C486.91 83.0908 486.893 83.0769 486.88 83.0664C486.299 82.6071 486.201 81.7643 486.66 81.1839Z" fill="#C1E3E0"/>
<path fill-rule="evenodd" clip-rule="evenodd" d="M491.612 84.7918C494.296 83.2245 493.891 77.5323 490.707 72.078C487.523 66.6237 482.766 63.4727 480.082 65.04C477.398 66.6074 477.803 72.2995 480.987 77.7538C484.171 83.2081 488.928 86.3592 491.612 84.7918Z" fill="#FFE0CD"/>
<path fill-rule="evenodd" clip-rule="evenodd" d="M492.307 84.7277C492.369 81.6198 487.301 78.9984 480.988 78.8726C474.674 78.7468 469.506 81.1644 469.444 84.2723C469.382 87.3802 474.45 90.0017 480.764 90.1274C487.077 90.2532 492.245 87.8357 492.307 84.7277Z" fill="#FFE0CD"/>
<path fill-rule="evenodd" clip-rule="evenodd" d="M502.497 79.8318C505.908 75.3285 506.888 70.3253 504.685 68.6569C502.483 66.9885 497.933 69.2867 494.522 73.79C491.112 78.2934 490.132 83.2966 492.334 84.965C494.536 86.6334 499.086 84.3352 502.497 79.8318Z" fill="#FFE0CD"/>
<path fill-rule="evenodd" clip-rule="evenodd" d="M497.046 101.171C499.561 100.027 499.704 94.9308 497.366 89.7879C495.028 84.645 491.094 81.403 488.579 82.5466C486.064 83.6903 485.921 88.7866 488.259 93.9295C490.597 99.0724 494.531 102.314 497.046 101.171Z" fill="#FFE0CD"/>
<path fill-rule="evenodd" clip-rule="evenodd" d="M505.935 85.668C506.197 83.1899 502.293 80.7455 497.215 80.2083C492.137 79.671 487.808 81.2444 487.546 83.7225C487.284 86.2005 491.188 88.6449 496.266 89.1822C501.344 89.7194 505.673 88.1461 505.935 85.668Z" fill="#FFE0CD"/>
<path fill-rule="evenodd" clip-rule="evenodd" d="M570.92 204.637H475.964C470.349 204.637 466.396 210.756 467.779 216.903L488.77 310.888C488.907 311.501 489.451 311.936 490.078 311.936H556.762C557.389 311.936 557.932 311.501 558.069 310.888L579.061 216.901C580.442 210.766 576.5 204.637 570.92 204.637ZM570.92 207.317L571.037 207.319C574.694 207.41 577.465 211.784 576.446 216.315L555.688 309.256H491.151L470.394 216.317C469.361 211.728 472.21 207.317 475.964 207.317H570.92Z" fill="#F3EBE5"/>
<path d="M577.055 216.216L555.946 309.189L490.782 309.646L468.755 215.3C468.755 214.231 469.03 211.544 470.132 209.346C471.233 207.147 473.344 206.293 474.262 206.14H570.63C575.219 206.598 575.219 208.43 577.055 211.178C578.523 213.376 577.667 215.452 577.055 216.216Z" fill="#F3EBE5"/>
<path fill-rule="evenodd" clip-rule="evenodd" d="M475.341 180.449C467.822 180.543 461.035 181.517 454.92 183.297C454.534 183.41 454.311 183.814 454.424 184.201C454.536 184.588 454.941 184.81 455.328 184.697C461.107 183.015 467.511 182.066 474.597 181.92L474.779 181.916L474.816 182.082C474.947 182.678 475.078 183.374 475.201 184.161C476.174 190.399 476.028 197.632 473.989 205.194C473.885 205.583 474.115 205.983 474.504 206.088C474.893 206.192 475.293 205.962 475.398 205.573C477.469 197.887 477.641 190.538 476.677 184.163L476.642 183.936C476.515 183.119 476.378 182.395 476.241 181.77L476.2 181.588C476.181 181.5 476.161 181.418 476.143 181.341L476.064 181.025C476.06 181.009 476.056 180.995 476.053 180.984C475.965 180.665 475.672 180.445 475.341 180.449Z" fill="#00BDC8"/>
<path fill-rule="evenodd" clip-rule="evenodd" d="M455.89 183.796C455.82 183.4 455.441 183.136 455.044 183.207C454.648 183.277 454.384 183.656 454.455 184.053C455.853 191.879 455.74 199.492 454.31 206.948C454.235 207.343 454.494 207.725 454.889 207.801C455.285 207.877 455.667 207.618 455.743 207.222C457.205 199.595 457.321 191.802 455.89 183.796Z" fill="#00BDC8"/>
<path fill-rule="evenodd" clip-rule="evenodd" d="M432.551 139.574C432.329 139.323 431.963 139.256 431.666 139.412L431.547 139.476C431.454 139.527 431.344 139.588 431.219 139.659L430.999 139.784C430.734 139.936 430.442 140.107 430.126 140.299L429.988 140.382C428.67 141.184 427.203 142.152 425.624 143.287C421.118 146.527 416.613 150.463 412.407 155.113C409.792 158.004 407.373 161.089 405.192 164.37C404.969 164.705 405.06 165.158 405.395 165.381C405.731 165.604 406.183 165.513 406.406 165.177C408.547 161.958 410.921 158.93 413.489 156.091C417.621 151.522 422.049 147.654 426.476 144.471C427.95 143.411 429.323 142.502 430.562 141.741L430.747 141.628C431.061 141.436 431.35 141.265 431.613 141.113L431.846 140.979L431.848 140.982C444.51 155.403 451.785 169.651 454.377 183.625L454.455 184.052C454.526 184.449 454.904 184.713 455.301 184.642C455.697 184.571 455.961 184.192 455.891 183.796C453.295 169.268 445.755 154.486 432.551 139.574Z" fill="#00BDC8"/>
<path fill-rule="evenodd" clip-rule="evenodd" d="M367.131 195.769C358.607 192.187 348.703 191.844 337.348 195.305C337.018 195.406 336.803 195.725 336.835 196.069L336.849 196.216L336.885 196.535L336.926 196.877C336.974 197.263 337.034 197.695 337.105 198.17C337.354 199.826 337.699 201.67 338.154 203.654C339.575 210.192 349.756 234.895 352.668 240.048C352.85 240.407 353.288 240.551 353.648 240.37C354.007 240.188 354.152 239.75 353.97 239.39C351.351 234.206 340.851 208.891 339.575 203.328C339.129 201.381 338.791 199.574 338.548 197.954L338.499 197.622C338.46 197.352 338.425 197.098 338.394 196.862L338.353 196.527L338.434 196.503C349.082 193.383 358.337 193.728 366.319 197.01L366.565 197.113C373.3 199.943 378.905 204.774 383.476 211.05C386.15 214.721 388.304 218.657 389.983 222.594C390.57 223.971 391.056 225.249 391.446 226.395L391.533 226.654C391.617 226.907 391.692 227.139 391.757 227.349L391.841 227.627L391.896 227.814C392.002 228.203 392.404 228.431 392.792 228.324C393.181 228.217 393.409 227.815 393.302 227.427L393.24 227.213C393.223 227.156 393.204 227.093 393.183 227.026L393.115 226.806C393.032 226.541 392.936 226.247 392.826 225.925C392.425 224.746 391.927 223.434 391.325 222.022C389.605 217.99 387.399 213.958 384.656 210.192C379.938 203.715 374.132 198.711 367.131 195.769Z" fill="#00BDC8"/>
<path fill-rule="evenodd" clip-rule="evenodd" d="M379.386 142.471C379.108 142.304 378.752 142.34 378.514 142.56L378.435 142.635L378.277 142.787C378.114 142.947 377.929 143.133 377.723 143.345L377.633 143.437C376.945 144.151 376.18 144.998 375.357 145.975C373.011 148.762 370.666 152.041 368.478 155.792C366.143 159.794 351.695 187.975 350.318 193.032C350.185 193.412 350.386 193.828 350.766 193.96C351.147 194.093 351.563 193.412 351.695 193.032C353.27 188.515 367.449 160.45 369.738 156.527C371.882 152.851 374.178 149.64 376.473 146.914L376.771 146.563C377.41 145.816 378.009 145.155 378.558 144.58L378.684 144.449C378.771 144.359 378.854 144.274 378.933 144.193L379.114 144.011L379.389 144.178C391.546 151.593 401.13 159.888 408.35 168.932L408.573 169.212C415.109 177.468 419.596 186.23 422.262 195.357C422.375 195.743 422.78 195.965 423.166 195.852C423.553 195.739 423.775 195.334 423.662 194.948C417.825 174.965 403.664 157.078 379.386 142.471Z" fill="#00BDC8"/>
<path fill-rule="evenodd" clip-rule="evenodd" d="M392.524 173.203C383.794 183.722 378.768 193.746 377.004 203.258C376.931 203.654 377.192 204.034 377.588 204.108C377.984 204.181 378.365 203.92 378.438 203.524C380.12 194.455 384.872 184.862 393.136 174.754L393.287 174.569L393.561 174.701C393.76 174.797 393.972 174.901 394.198 175.013L394.476 175.152L394.909 175.371C396.151 176.002 397.515 176.732 398.973 177.556C403.627 180.188 408.282 183.237 412.622 186.663C421.434 193.617 427.796 201.204 430.667 209.269C434.206 219.212 432.25 229.414 423.71 239.845C423.455 240.157 423.501 240.616 423.813 240.871C424.124 241.126 424.584 241.08 424.839 240.769C433.696 229.95 435.755 219.214 432.041 208.78C429.063 200.413 422.534 192.627 413.526 185.518C409.122 182.042 404.406 178.953 399.691 176.287L399.173 175.996C397.719 175.183 396.362 174.466 395.13 173.848L394.847 173.707C394.57 173.57 394.313 173.444 394.077 173.33L393.771 173.184L393.386 173.005C393.087 172.869 392.734 172.95 392.524 173.203Z" fill="#00BDC8"/>
<path fill-rule="evenodd" clip-rule="evenodd" d="M474.733 205.095C458.358 203.654 443.674 208.446 430.759 217.848C425.794 221.462 421.292 225.622 417.258 230.13C414.228 233.514 411.681 236.843 409.617 239.926C409.393 240.26 409.483 240.713 409.818 240.937C410.153 241.161 410.606 241.071 410.83 240.737C412.857 237.708 415.363 234.433 418.345 231.102C422.314 226.667 426.741 222.576 431.617 219.027C444.264 209.82 458.607 205.139 474.605 206.547C475.007 206.583 475.361 206.286 475.396 205.885C475.431 205.484 475.135 205.13 474.733 205.095Z" fill="#00BDC8"/>
<path fill-rule="evenodd" clip-rule="evenodd" d="M474.732 205.095C474.331 205.06 473.977 205.357 473.943 205.758C473.908 206.16 474.205 206.513 474.607 206.548C479.045 206.93 483.652 207.817 488.419 209.215L488.752 209.313L488.613 209.601C488.554 209.722 488.492 209.848 488.427 209.978L488.224 210.381C487.483 211.838 486.581 213.463 485.514 215.215C482.462 220.223 478.705 225.233 474.212 229.907C469.866 234.427 465.05 238.394 459.75 241.654C459.407 241.865 459.3 242.315 459.511 242.658C459.722 243 460.171 243.107 460.514 242.896C465.925 239.568 470.836 235.523 475.263 230.917C479.835 226.162 483.655 221.068 486.759 215.974C487.847 214.189 488.767 212.531 489.525 211.042L489.666 210.762C489.826 210.443 489.97 210.148 490.099 209.878L490.205 209.652C490.245 209.567 490.282 209.489 490.314 209.417L490.429 209.163L490.435 209.149C490.608 208.75 490.396 208.29 489.981 208.162C484.713 206.536 479.627 205.517 474.732 205.095Z" fill="#00BDC8"/>
<path fill-rule="evenodd" clip-rule="evenodd" d="M354.505 239.553C352.184 239.553 350.294 241.417 350.251 243.727L350.251 243.806V256.663C350.251 258.983 352.114 260.872 354.425 260.915L354.505 260.916L360.195 260.915L372.053 336.839C372.139 337.217 372.505 337.459 372.883 337.396L372.925 337.388C373.304 337.302 373.546 336.935 373.483 336.557L373.475 336.515L361.488 260.025C361.416 259.707 361.143 259.478 360.821 259.459L360.777 259.458H354.505C352.987 259.458 351.748 258.243 351.71 256.734L351.709 256.663V243.806C351.709 242.289 352.925 241.05 354.434 241.013L354.505 241.012H403.425C403.828 241.012 404.154 240.685 404.154 240.283C404.154 239.894 403.851 239.577 403.468 239.555L403.425 239.553H354.505Z" fill="#B5BDBF"/>
<path fill-rule="evenodd" clip-rule="evenodd" d="M401.083 239.578C400.68 239.578 400.354 239.904 400.354 240.307C400.354 240.695 400.657 241.013 401.04 241.035L401.083 241.036H457.045C458.563 241.036 459.802 242.251 459.839 243.76L459.84 243.831V256.687C459.84 258.205 458.625 259.443 457.116 259.481L457.045 259.482H451.186C450.86 259.482 450.576 259.697 450.486 260.006L450.475 260.049L432.996 336.797C432.906 337.19 433.152 337.581 433.545 337.67C433.924 337.756 434.301 337.531 434.407 337.163L434.418 337.121L451.768 260.94H457.045C459.365 260.94 461.255 259.077 461.298 256.767L461.299 256.687V243.831C461.299 241.511 459.435 239.621 457.124 239.578L457.045 239.578H401.083Z" fill="#B5BDBF"/>
</g>
</svg>
