<svg width="900" height="392" viewBox="0 0 900 392" fill="none" xmlns="http://www.w3.org/2000/svg">
<mask id="mask0" mask-type="alpha" maskUnits="userSpaceOnUse" x="0" y="0" width="900" height="392">
<rect width="900" height="392" fill="#C4C4C4"/>
</mask>
<g mask="url(#mask0)">
<g opacity="0.9">
<path fill-rule="evenodd" clip-rule="evenodd" d="M151.69 342.596C146.135 303.522 133.98 218.315 170.355 178.102C206.731 137.89 212.512 147.453 218.841 114.391C225.169 81.3281 258.721 67.9391 275.611 87.1573C292.547 106.33 272.197 143.081 265.641 151.097C259.085 159.112 265.004 208.478 243.652 242.634C222.3 276.789 188.019 252.334 189.476 282.026C187.519 340.546 151.69 342.596 151.69 342.596Z" fill="#BAE0DD"/>
<path fill-rule="evenodd" clip-rule="evenodd" d="M259.768 99.8912C259.13 99.4891 258.286 99.6807 257.884 100.319L257.29 101.269L256.097 103.195C255.221 104.615 254.238 106.221 253.154 108.003L252.118 109.71C248.631 115.471 244.798 121.925 240.699 128.979C227.815 151.145 214.932 174.675 202.906 198.548C192.986 218.239 184.082 237.327 176.446 255.511C161.99 289.938 152.553 319.967 149.199 344.368C149.096 345.115 149.618 345.805 150.366 345.907C151.113 346.01 151.802 345.487 151.905 344.74C155.221 320.617 164.592 290.795 178.965 256.569C186.574 238.448 195.452 219.416 205.345 199.777C217.344 175.958 230.202 152.474 243.06 130.352L244.682 127.569C248.433 121.15 251.943 115.263 255.146 109.986L256.821 107.236C257.247 106.54 257.654 105.877 258.041 105.248L259.795 102.415L260.196 101.775C260.598 101.137 260.406 100.293 259.768 99.8912Z" fill="white"/>
<path fill-rule="evenodd" clip-rule="evenodd" d="M132.068 37.8367C167.624 34.4211 174.999 70.4894 176.137 101.002C177.275 131.514 171.63 142.489 188.976 158.702C206.321 174.96 178.095 196.911 180.508 213.032C182.921 229.153 199.583 272.235 134.8 367.689C132.432 371.15 129.063 399.021 129.063 399.021L115.041 395.241C115.041 395.241 124.055 372.607 113.858 345.191C103.66 317.73 86.36 304.842 84.721 270.505C83.0821 236.167 107.621 242.816 103.114 220.227C98.6065 197.639 75.5703 182.019 77.3458 159.385C79.1213 136.706 121.688 120.22 112.264 94.1251C102.84 67.9847 101.292 40.7968 132.068 37.8367Z" fill="#BAE0DD"/>
<path fill-rule="evenodd" clip-rule="evenodd" d="M145.478 49.9743C144.788 50.2032 144.402 50.9302 144.588 51.624L144.801 52.2925L144.967 52.8256C145.083 53.2026 145.21 53.6229 145.347 54.086L145.536 54.7268C146.078 56.5771 146.673 58.7232 147.309 61.1579L147.587 62.2277C149.528 69.7733 151.464 78.5195 153.278 88.3961C159.597 122.811 162.94 162.249 161.727 205.774C160.141 262.64 150.833 321.722 132.22 382.087C131.997 382.808 132.401 383.572 133.122 383.795C133.843 384.017 134.608 383.613 134.83 382.892C153.518 322.284 162.865 262.957 164.457 205.85C165.677 162.126 162.316 122.498 155.964 87.9025L155.703 86.4901C153.866 76.657 151.909 67.9594 149.952 60.4671L149.616 59.1911C149.098 57.2484 148.61 55.5025 148.158 53.9574L147.966 53.3075C147.779 52.6777 147.61 52.1242 147.461 51.6477L147.204 50.8414C146.967 50.1252 146.194 49.737 145.478 49.9743Z" fill="white"/>
<path fill-rule="evenodd" clip-rule="evenodd" d="M134.162 339.499C146.363 308.668 172.95 241.358 216.018 226.922C259.086 212.486 259.268 221.821 277.615 200.235C295.962 178.649 325.781 182.656 330.061 203.605C334.34 224.554 304.338 243.043 296.28 246.231C288.222 249.419 271.969 287.901 242.332 304.114C212.695 320.326 198.035 288.402 186.745 310.717C160.977 352.66 134.162 339.499 134.162 339.499Z" fill="#BAE0DD"/>
<path fill-rule="evenodd" clip-rule="evenodd" d="M315.654 201.243C315.366 200.575 314.609 200.254 313.934 200.499L313.823 200.544L313.361 200.746C313.056 200.88 312.71 201.033 312.324 201.205L311.925 201.383C310.356 202.085 308.536 202.917 306.488 203.873L304.713 204.707C299.33 207.247 293.42 210.157 287.105 213.414C267.055 223.753 247.006 235.458 228.286 248.301C209.159 261.423 192.498 275.018 179.013 288.969C163.385 305.137 152.376 321.425 146.712 337.73C146.464 338.442 146.841 339.221 147.554 339.469C148.266 339.716 149.044 339.339 149.292 338.627C159.692 308.688 188.429 278.957 229.831 250.554C248.448 237.782 268.402 226.133 288.356 215.842L289.746 215.128C295.741 212.056 301.352 209.306 306.471 206.899L307.643 206.349C309.424 205.518 311.029 204.782 312.445 204.144L313.977 203.46L314.939 203.038C315.632 202.74 315.952 201.936 315.654 201.243Z" fill="white"/>
<path fill-rule="evenodd" clip-rule="evenodd" d="M149.914 347.286C149.186 311.673 147.547 233.935 109.578 203.286C71.6093 172.637 67.9217 181.973 57.5418 153.374C47.1619 124.774 15.6123 117.624 3.4569 137.116C-8.69854 156.607 14.5653 186.482 21.4852 192.675C28.4052 198.869 30.3628 243.727 54.1729 271.188C77.983 298.603 104.661 271.962 107.666 298.649C118 350.474 149.914 347.286 149.914 347.286Z" fill="#BAE0DD"/>
<path fill-rule="evenodd" clip-rule="evenodd" d="M18.5848 140.317C18.0641 140.863 18.0844 141.727 18.6301 142.248L19.4046 142.997L20.3581 143.93C21.2431 144.8 22.2359 145.787 23.3293 146.887L24.4321 148C28.1839 151.798 32.3229 156.115 36.7573 160.895C50.3669 175.566 63.9768 191.582 76.6766 208.41C97.9935 236.655 114.534 264.265 124.441 290.132C131.406 308.318 134.913 325.24 134.572 340.653C134.555 341.407 135.153 342.032 135.907 342.049C136.661 342.065 137.286 341.467 137.303 340.713C137.652 324.911 134.075 307.649 126.991 289.154C116.98 263.014 100.315 235.196 78.8567 206.763C66.3803 190.232 53.0354 174.486 39.6709 160.021L38.7596 159.036C34.1346 154.05 29.8284 149.566 25.9435 145.643L24.7238 144.416C23.8346 143.525 23.0161 142.712 22.2725 141.981L21.1888 140.921L20.5158 140.271C19.9701 139.75 19.1056 139.771 18.5848 140.317Z" fill="white"/>
<path fill-rule="evenodd" clip-rule="evenodd" d="M99.6079 408.087L82.6267 329.939C81.2154 324.019 85.8136 318.372 92.0051 318.372H197.625C203.817 318.372 208.37 323.974 207.049 329.848L189.704 407.586" fill="#F3EBE5"/>
</g>
<g opacity="0.8">
<path fill-rule="evenodd" clip-rule="evenodd" d="M252.273 205.505C260.392 203.982 268.324 208.83 270.105 216.394L270.157 216.624L275.907 243.331C276.008 243.803 275.709 244.267 275.239 244.369C274.785 244.467 274.338 244.192 274.216 243.749L274.204 243.7L268.454 216.993C266.988 210.248 259.892 205.852 252.594 207.221C245.367 208.577 240.683 215.023 242.005 221.687L242.047 221.889L250.681 261.407C250.782 261.879 250.484 262.343 250.013 262.445C249.56 262.543 249.113 262.268 248.99 261.826L248.978 261.776L240.344 222.259C238.672 214.533 244.036 207.051 252.273 205.505Z" fill="#00BDC8"/>
<path fill-rule="evenodd" clip-rule="evenodd" d="M284.58 205.696C284.828 197.837 291.866 191.658 300.228 191.904C308.538 192.148 315.099 198.547 314.989 206.294L314.054 245.457C314.043 245.938 313.643 246.32 313.162 246.308C312.699 246.297 312.328 245.925 312.313 245.466L312.312 245.415L313.242 206.481C313.458 199.617 307.636 193.868 300.177 193.649C292.823 193.432 286.663 198.774 286.33 205.545L286.322 205.751L285.16 242.205C285.145 242.687 284.742 243.065 284.262 243.05C283.798 243.035 283.43 242.659 283.418 242.201L283.419 242.149L284.58 205.696Z" fill="#00BDC8"/>
<path fill-rule="evenodd" clip-rule="evenodd" d="M327.374 216.564C329.046 208.871 337.057 203.909 345.258 205.447C353.405 206.976 358.753 214.347 357.235 221.969L357.187 222.2L349.027 260.05C348.926 260.521 348.462 260.821 347.992 260.719C347.538 260.621 347.244 260.186 347.315 259.732L347.324 259.682L355.484 221.83C356.943 215.116 352.228 208.531 344.937 207.163C337.712 205.807 330.685 210.102 329.117 216.757L329.071 216.96L322.247 244.54C322.131 245.008 321.659 245.293 321.192 245.177C320.741 245.065 320.461 244.621 320.545 244.17L320.556 244.12L327.374 216.564Z" fill="#00BDC8"/>
<path fill-rule="evenodd" clip-rule="evenodd" d="M363.583 243.684C367.347 236.667 376.442 233.833 383.941 237.312C391.4 240.773 394.481 249.186 390.871 256.197L390.76 256.41L354.983 323.15C354.756 323.575 354.228 323.734 353.804 323.506C353.395 323.286 353.233 322.787 353.425 322.372L353.448 322.324L389.225 255.583C392.525 249.432 389.849 241.977 383.208 238.896C376.6 235.83 368.6 238.272 365.219 244.326L365.118 244.51L356.029 261.472C355.801 261.896 355.273 262.056 354.849 261.828C354.441 261.608 354.278 261.109 354.47 260.694L354.494 260.646L363.583 243.684Z" fill="#00BDC8"/>
<path fill-rule="evenodd" clip-rule="evenodd" d="M229.955 297.809C230.201 297.381 230.649 297.525 230.974 298.124L231.011 298.195L242.285 320.856C242.612 321.514 242.67 322.407 242.414 322.852C242.168 323.28 241.72 323.136 241.395 322.538L241.358 322.467L229.584 299.25C229.257 298.592 229.699 298.254 229.955 297.809Z" fill="#00BDC8"/>
<path fill-rule="evenodd" clip-rule="evenodd" d="M213.202 236.883C220.625 233.438 229.614 236.182 233.445 243.046L233.559 243.255L244.304 263.301C244.532 263.725 244.373 264.254 243.949 264.482C243.54 264.702 243.036 264.562 242.795 264.172L242.769 264.126L232.025 244.081C228.705 237.892 220.61 235.369 213.934 238.467C207.36 241.517 204.672 248.854 207.821 254.969L207.918 255.154L231.091 298.358C231.319 298.783 231.16 299.312 230.736 299.54C230.328 299.76 229.823 299.62 229.583 299.23L229.556 299.184L206.383 255.98C202.599 248.927 205.667 240.379 213.202 236.883Z" fill="#00BDC8"/>
<path fill-rule="evenodd" clip-rule="evenodd" d="M279.621 240.904C287.414 239.916 294.544 246.448 295.692 255.45L295.725 255.723L298.932 283.902L305.072 255.581C306.956 246.781 314.638 241.572 322.285 243.951L322.517 244.025C330.095 246.535 334.678 255.563 332.908 264.296L332.852 264.56L327.253 290.423L337.596 267.68C341.226 259.674 349.81 256.764 356.802 261.152L357.014 261.287C363.88 265.762 366.541 275.704 363.072 283.669L362.965 283.909L345.135 323.186C344.936 323.624 344.42 323.818 343.982 323.619C343.559 323.426 343.364 322.938 343.53 322.51L343.549 322.463L361.379 283.187C364.659 275.952 362.26 266.788 356.064 262.751C350.014 258.808 342.57 261.213 339.281 268.19L339.182 268.403L325.476 298.544C325.05 299.479 323.659 299.035 323.822 298.049L323.832 297.997L331.15 264.19C332.886 256.211 328.738 247.924 321.97 245.682C315.354 243.491 308.608 247.933 306.827 255.712L306.775 255.949L299.515 289.436C299.31 290.382 297.962 290.332 297.806 289.404L297.798 289.349L293.994 255.921C293.06 247.687 286.68 241.769 279.84 242.636C273.067 243.494 268.229 250.701 269.041 258.822L269.067 259.068L273.017 293.486C273.131 294.485 271.758 294.843 271.359 293.95L271.339 293.901L262.685 271.528C259.752 263.949 252.307 260.459 246.062 263.641C239.802 266.831 236.994 275.491 239.801 283.062L239.888 283.291L255.046 322.45C255.22 322.9 254.997 323.406 254.549 323.58C254.116 323.748 253.632 323.546 253.442 323.129L253.422 323.082L238.263 283.922C235.004 275.499 238.111 265.734 245.272 262.085C252.42 258.442 260.853 262.326 264.21 270.644L264.31 270.897L270.51 286.927L267.336 259.267C266.308 250.242 271.658 242.064 279.386 240.936L279.621 240.904Z" fill="#00BDC8"/>
<path fill-rule="evenodd" clip-rule="evenodd" d="M359.762 321.922C362.535 321.922 364.792 324.153 364.843 326.918L364.844 327.014V342.462C364.844 345.24 362.618 347.502 359.858 347.553L359.762 347.554H353.395L333.877 435.797C333.77 436.249 333.33 436.536 332.879 436.456L332.829 436.446C332.377 436.339 332.091 435.899 332.17 435.447L332.181 435.396L351.858 346.481C351.946 346.104 352.272 345.833 352.653 345.81L352.706 345.808H359.762C361.576 345.808 363.056 344.354 363.101 342.547L363.102 342.462V327.014C363.102 325.197 361.65 323.714 359.847 323.669L359.762 323.668H236.927C235.113 323.668 233.633 325.122 233.588 326.929L233.587 327.014V342.462C233.587 344.279 235.039 345.762 236.842 345.807L236.927 345.808H244.477C244.863 345.808 245.201 346.063 245.311 346.43L245.325 346.481L266.204 435.274C266.314 435.743 266.024 436.213 265.556 436.324C265.104 436.43 264.652 436.164 264.521 435.724L264.508 435.674L243.787 347.554H236.927C234.154 347.554 231.897 345.323 231.846 342.558L231.845 342.462V327.014C231.845 324.236 234.071 321.974 236.831 321.923L236.927 321.922H359.762Z" fill="#B5BDBF"/>
</g>
<path fill-rule="evenodd" clip-rule="evenodd" d="M411.269 296.203C414.989 292.955 418.276 291.806 420.593 293.921C427.507 300.224 421.193 313.106 408.858 319.325L408.781 319.363L408.82 319.546C410.204 326.08 411.01 333.248 411.153 340.055L411.157 340.304L411.206 340.282C414.042 339.039 416.718 339.23 418.516 341.133L418.621 341.247C420.052 342.819 420.276 345.652 419.363 347.936C418.299 350.6 415.914 351.932 413.125 350.841L412.983 350.784C412.27 350.494 411.67 350.236 411.074 349.965L410.864 349.868L410.86 349.928C410.578 353.179 410.114 356.151 409.489 358.677L409.402 359.019C409.198 359.812 408.392 360.288 407.602 360.084C406.811 359.879 406.336 359.071 406.54 358.278C407.302 355.315 407.831 351.605 408.072 347.495C408.135 346.433 409.26 345.781 410.209 346.257L410.78 346.541C411.966 347.128 412.847 347.53 414.108 348.043C415.314 348.548 416.107 348.116 416.619 346.833C417.145 345.519 417.015 343.88 416.429 343.237C415.343 342.022 413.176 342.21 410.542 344.055C409.559 344.743 408.21 344.033 408.218 342.83C408.267 334.982 407.359 326.412 405.643 318.862C405.487 318.177 405.834 317.475 406.472 317.184C417.94 311.953 423.694 300.754 418.604 296.113C416.782 294.45 410.109 300.276 404.986 308.453C404.348 309.47 402.833 309.345 402.37 308.237C400.332 303.351 397.988 299.884 395.383 298C391.478 295.187 389.54 296.256 388.327 301.317C387.195 306.04 387.172 313.582 388.059 322.336C388.191 323.643 386.688 324.463 385.665 323.643C384.396 322.625 383.088 321.904 381.864 321.606C378.856 320.894 375.974 325.173 377.074 329.054C377.851 331.85 383.162 332.82 387.099 330.409C387.993 329.862 389.155 330.395 389.327 331.431C389.725 333.825 390.179 336.11 390.613 337.94L390.685 338.241L390.698 338.3C390.772 338.671 390.886 339.077 391.045 339.555C391.455 340.788 390.195 341.916 389.02 341.367C387.024 340.437 385.468 340.053 384.632 340.25L384.553 340.27C381.485 341.087 378.343 343.837 378.821 346.092C379.595 349.787 381.618 351.239 385.667 350.337C387.583 349.897 389.579 348.855 391.401 347.446C392.2 346.828 393.369 347.177 393.7 348.134C394.984 351.842 396.335 355.113 397.706 357.77C398.081 358.497 397.797 359.391 397.072 359.767C396.347 360.143 395.455 359.859 395.08 359.132C393.941 356.924 392.827 354.342 391.755 351.467L391.564 350.949L391.435 351.032C389.881 352.006 388.243 352.746 386.593 353.162L386.318 353.228C380.586 354.505 377.027 351.952 375.929 346.705C375.42 344.3 376.493 342.089 378.583 340.259C380.048 338.977 382.007 337.925 383.562 337.471L383.754 337.417C384.754 337.12 385.929 337.184 387.283 337.548L387.504 337.61L387.436 337.299L387.265 336.501C387.124 335.822 386.983 335.111 386.846 334.377L386.753 333.876L386.61 333.931C381.547 335.847 375.59 334.301 374.272 330.006L374.229 329.857C372.578 324.034 377.035 317.418 382.552 318.723C383.25 318.893 383.942 319.148 384.625 319.476L384.841 319.583L384.81 319.193L384.748 318.354C384.249 311.26 384.415 305.163 385.394 300.874L385.453 300.624C387.111 293.708 391.291 291.403 397.11 295.594C399.656 297.436 401.875 300.361 403.816 304.272L403.98 304.608L404.151 304.363C406.301 301.302 408.724 298.478 411.006 296.435L411.269 296.203Z" fill="#0999A2"/>
<path fill-rule="evenodd" clip-rule="evenodd" d="M436.451 324.243L436.499 324.174C440.968 317.698 446.158 314.121 452.205 314.472L452.421 314.486L452.501 314.494C456.557 315.015 457.596 318.835 456.376 324.52C455.584 328.213 453.825 332.838 451.428 337.757L451.271 338.077L451.508 338.053C454.305 337.783 457.006 338.179 458.868 339.201L459.025 339.29C461.588 340.804 462.673 344.592 461.303 347.62C459.689 351.187 455.339 352.946 448.803 352.217C446.787 351.997 445.093 351.686 443.708 351.294L443.617 351.267L441.201 354.982L440.623 355.861C439.329 357.815 438.366 359.183 437.593 360.131C437.076 360.764 436.145 360.857 435.513 360.339C434.881 359.821 434.788 358.887 435.305 358.254L435.555 357.939C436.305 356.979 437.292 355.547 438.615 353.531L441.51 349.085C441.617 348.92 441.707 348.784 441.772 348.687C442.152 348.116 442.873 347.881 443.515 348.119C444.831 348.608 446.696 349.005 449.127 349.271C454.516 349.872 457.602 348.624 458.61 346.396C459.37 344.717 458.755 342.571 457.532 341.848C455.719 340.791 452.198 340.6 448.985 341.545C447.731 341.914 446.651 340.588 447.263 339.429C450.335 333.608 452.598 328.037 453.486 323.897C454.375 319.751 453.857 317.721 452.209 317.447L452.164 317.44L452.017 317.43C446.792 317.14 442.098 320.724 437.906 327.419L437.755 327.662C437.172 328.606 435.8 328.597 435.231 327.645C433.493 324.742 430.241 322.146 428.067 321.829C424.026 321.268 422.095 323.084 423.033 326.304C423.902 329.178 428.789 333.123 432.503 333.614C433.482 333.743 434.061 334.779 433.662 335.684C432.898 337.412 432.187 339.18 431.465 341.112L431.156 341.946C431.052 342.228 430.947 342.517 430.837 342.821L429.908 345.415C428.727 348.713 427.805 353.461 427.226 358.569C427.134 359.382 426.402 359.967 425.591 359.874C424.779 359.782 424.197 359.048 424.289 358.234C424.874 353.066 425.799 348.245 427.021 344.71L427.829 342.446C428.106 341.675 428.347 341.011 428.592 340.353L428.697 340.071C429.142 338.882 429.583 337.751 430.035 336.651L430.253 336.126L430.177 336.102C425.884 334.705 421.384 330.764 420.246 327.294L420.2 327.15C418.606 321.68 422.456 318.057 428.483 318.894C431.039 319.267 434.11 321.397 436.334 324.099L436.451 324.243Z" fill="#0999A2"/>
<path fill-rule="evenodd" clip-rule="evenodd" d="M448.471 357.661H379.149C371.188 357.661 364.762 364.104 364.762 372.086V373.371C364.762 393.061 380.697 409.04 400.334 409.04H427.285C446.922 409.04 462.857 393.061 462.857 373.371V372.086C462.857 364.104 456.431 357.661 448.471 357.661ZM379.149 360.625H448.471C454.798 360.625 459.901 365.741 459.901 372.086V373.371C459.901 391.424 445.289 406.076 427.285 406.076H400.334C382.33 406.076 367.718 391.424 367.718 373.371V372.086C367.718 365.741 372.821 360.625 379.149 360.625Z" fill="#DDDDDD"/>
<path d="M870.266 156.491C865.412 163.759 834.263 186.166 819.295 196.461C817.475 195.654 813.348 193.555 811.407 191.617C808.979 189.194 808.373 164.364 808.979 156.491C809.586 148.618 819.295 103.803 822.936 92.9025C826.577 82.0015 845.994 56.566 856.31 51.1155C866.626 45.665 881.189 52.9323 885.437 54.1435C889.684 55.3548 893.325 66.2557 896.359 73.523C899.393 80.7903 897.573 98.9585 896.359 106.226C895.145 113.493 876.334 147.407 870.266 156.491Z" fill="#C1E3E0"/>
<path d="M778.032 223.108C779.003 230.375 776.819 233.807 775.605 234.615C771.964 234.211 763.712 233.04 759.828 231.587C754.974 229.77 736.163 217.052 733.736 215.235C731.309 213.418 707.036 190.405 704.609 187.983C702.182 185.56 693.687 168.603 691.866 163.759C690.046 158.914 689.439 148.013 689.439 141.957C689.439 135.901 696.721 126.211 699.755 123.788C702.789 121.366 710.677 120.76 716.139 121.366C721.6 121.972 732.522 129.845 737.377 133.478C742.231 137.112 748.299 145.59 753.153 151.646C758.008 157.702 765.29 175.871 768.324 183.138C771.358 190.405 776.819 214.024 778.032 223.108Z" fill="#C1E3E0"/>
<path fill-rule="evenodd" clip-rule="evenodd" d="M688.84 137.9C684.342 155.276 692.303 177.859 712.165 197.775L712.771 198.378C727.72 213.168 740.552 223.384 751.409 229.726L752.216 230.192C759.967 234.623 766.145 236.743 770.853 237.159C773.124 237.379 775.368 236.657 777.164 235.161C779.309 233.311 780.405 230.621 780.115 227.873L780.089 227.661C774.934 180.8 753.528 138.423 724.179 122.839C708.083 114.276 693.164 121.198 688.84 137.9ZM722.516 125.969C750.368 140.758 771.109 181.415 776.415 226.712L776.571 228.086C776.789 229.745 776.157 231.35 774.872 232.457C773.815 233.338 772.507 233.759 771.18 233.63C766.853 233.247 760.9 231.165 753.196 226.665C742.737 220.556 730.3 210.679 715.764 196.353L715.262 195.857C695.793 176.622 688.071 155.009 692.271 138.789C696.029 124.272 708.474 118.498 722.516 125.969Z" fill="#C1E3E0"/>
<path fill-rule="evenodd" clip-rule="evenodd" d="M696.575 126.998C697.236 126.33 698.296 126.297 698.995 126.905L699.138 127.041L700.059 127.965C700.778 128.692 701.602 129.533 702.521 130.483L703.651 131.654C706.375 134.488 709.368 137.677 712.567 141.178C722.667 152.235 732.767 164.141 742.198 176.449C753.496 191.196 763.06 205.527 770.339 219.08C772.625 223.337 774.672 227.495 776.468 231.545C776.865 232.44 776.461 233.487 775.566 233.884C774.672 234.28 773.625 233.877 773.228 232.982C771.47 229.016 769.462 224.938 767.217 220.757C760.038 207.39 750.576 193.212 739.385 178.605C730.356 166.821 720.702 155.4 711.026 144.749L709.95 143.569C706.606 139.907 703.489 136.591 700.672 133.669L699.441 132.398C699.093 132.039 698.759 131.698 698.442 131.374L697.042 129.956L696.588 129.504C695.893 128.815 695.887 127.693 696.575 126.998Z" fill="#F7FAFA"/>
<path fill-rule="evenodd" clip-rule="evenodd" d="M707.578 185.601L708.304 185.588C709.483 185.578 711.012 185.607 712.851 185.698L713.199 185.716C716.505 185.89 720.11 186.231 723.948 186.779C734.469 188.28 745.114 191.078 755.351 195.491C756.25 195.878 756.664 196.921 756.277 197.819C755.89 198.718 754.847 199.133 753.949 198.745C744.021 194.466 733.675 191.747 723.448 190.287C719.718 189.755 716.217 189.424 713.013 189.255L712.35 189.222C710.73 189.147 709.382 189.124 708.34 189.132L707.699 189.143C706.721 189.176 705.901 188.41 705.868 187.432C705.835 186.454 706.6 185.634 707.578 185.601Z" fill="#F7FAFA"/>
<path fill-rule="evenodd" clip-rule="evenodd" d="M733.109 132.076C733.961 131.595 735.041 131.896 735.522 132.748L736.028 133.657C736.212 133.991 736.415 134.361 736.635 134.765L737.261 135.918C737.973 137.238 738.741 138.683 739.553 140.24C742.569 146.019 745.585 152.144 748.402 158.348C750.63 163.258 752.642 168.018 754.384 172.562L754.757 173.542C759.545 186.222 761.936 196.455 761.257 203.548C761.163 204.522 760.298 205.236 759.324 205.143C758.35 205.05 757.636 204.184 757.729 203.21C758.359 196.638 755.927 186.483 751.076 173.831C749.36 169.358 747.376 164.662 745.175 159.814C742.388 153.673 739.399 147.605 736.411 141.88L735.7 140.523C735.156 139.491 734.636 138.516 734.143 137.602L733.396 136.227L732.543 134.681C732.496 134.596 732.46 134.533 732.436 134.49C731.955 133.638 732.256 132.557 733.109 132.076Z" fill="#F7FAFA"/>
<path fill-rule="evenodd" clip-rule="evenodd" d="M735.049 212.248L735.195 212.239L736.102 212.222C738.179 212.201 740.831 212.282 743.864 212.535C748.856 212.952 753.793 213.758 758.425 215.049C762.856 216.284 766.827 217.917 770.224 220.003C771.058 220.515 771.319 221.606 770.807 222.44C770.294 223.275 769.203 223.535 768.37 223.023C765.279 221.125 761.607 219.615 757.474 218.463C753.077 217.237 748.355 216.467 743.569 216.067C740.523 215.813 737.884 215.74 735.878 215.769L735.285 215.782C734.307 215.819 733.485 215.055 733.449 214.077C733.414 213.134 734.122 212.336 735.049 212.248Z" fill="#F7FAFA"/>
<path fill-rule="evenodd" clip-rule="evenodd" d="M867.021 48.1191C847.019 49.0025 828.263 67.7257 818.446 100.464L818.151 101.461L817.698 103.02C810.892 126.583 807.369 146.017 806.554 161.717L806.528 162.234C805.948 174.234 806.987 183.133 809.013 189.339C809.903 192.079 811.627 194.413 813.908 195.934C816.805 197.89 820.167 198.235 822.897 196.718C867.755 172.317 899.488 129.193 899.995 86.2672C900.291 63.1184 885.98 47.2819 867.021 48.1191ZM896.452 86.2235C895.961 127.725 865.023 169.768 821.19 193.612C819.689 194.446 817.741 194.246 815.882 192.991C814.269 191.916 813.032 190.24 812.382 188.241C810.496 182.465 809.507 173.993 810.068 162.405L810.12 161.388C810.98 145.892 814.52 126.636 821.327 103.228L821.552 102.455C826.436 85.7167 833.576 72.7766 842.258 64.0197C849.995 56.2167 858.71 52.0337 867.177 51.6598C883.988 50.9174 896.723 65.0102 896.452 86.2235Z" fill="#C1E3E0"/>
<path fill-rule="evenodd" clip-rule="evenodd" d="M881.444 55.9751C882.307 55.5147 883.381 55.8415 883.841 56.7051C884.301 57.5687 883.974 58.6421 883.111 59.1025C864.927 68.7993 849.835 92.0473 837.742 124.719C831.967 140.324 827.258 157.057 823.538 173.792L823.188 175.38C822.155 180.11 821.266 184.55 820.516 188.625L820.271 189.969C820.041 191.249 819.838 192.42 819.661 193.476L819.33 195.507L819.242 196.078C819.098 197.047 818.197 197.715 817.229 197.571C816.296 197.433 815.641 196.59 815.724 195.662L815.748 195.478L815.958 194.149L816.107 193.243C816.261 192.315 816.436 191.295 816.633 190.188L816.784 189.341C817.671 184.416 818.766 178.93 820.079 173.023C823.831 156.142 828.582 139.26 834.419 123.489C846.788 90.071 862.292 66.188 881.444 55.9751Z" fill="#F7FAFA"/>
<path fill-rule="evenodd" clip-rule="evenodd" d="M895.142 91.5966C896.037 91.1996 897.084 91.6029 897.481 92.4974C897.878 93.392 897.474 94.439 896.58 94.836C887.521 98.857 877.098 103.9 867.008 109.448L865.981 110.015C851.849 117.854 840.988 125.325 834.916 131.925C834.254 132.645 833.133 132.692 832.413 132.029C831.693 131.366 831.646 130.245 832.309 129.525C838.777 122.494 850.081 114.747 864.768 106.635L865.301 106.342C875.49 100.739 885.999 95.655 895.142 91.5966Z" fill="#F7FAFA"/>
<path fill-rule="evenodd" clip-rule="evenodd" d="M820.509 101.263C820.599 100.288 821.463 99.5718 822.437 99.6623C823.411 99.7529 824.128 100.616 824.037 101.591L823.903 103.06C821.776 126.961 822.394 146.072 827.344 152.569C827.937 153.348 827.787 154.46 827.008 155.053C826.23 155.646 825.118 155.496 824.525 154.717C821.206 150.36 819.618 141.972 819.298 130.286C819.06 121.571 819.547 111.611 820.509 101.263Z" fill="#F7FAFA"/>
<path fill-rule="evenodd" clip-rule="evenodd" d="M876.15 143.636C876.914 143.024 878.029 143.148 878.64 143.912C879.252 144.676 879.129 145.791 878.365 146.403C872.863 150.809 864.93 155.364 855.18 159.97C848.413 163.167 841.17 166.202 833.929 168.977L832.772 169.418C830.867 170.141 829.074 170.803 827.42 171.398L825.881 171.947L824.259 172.511C823.332 172.825 822.326 172.328 822.012 171.401C821.71 170.507 822.161 169.54 823.025 169.19L824.948 168.517L825.735 168.237C827.824 167.49 830.152 166.629 832.66 165.668C839.825 162.922 846.988 159.921 853.667 156.765C863.188 152.267 870.907 147.835 876.15 143.636Z" fill="#F7FAFA"/>
<path fill-rule="evenodd" clip-rule="evenodd" d="M844.921 224.296C845.896 224.213 846.754 224.937 846.836 225.913C846.918 226.888 846.194 227.745 845.219 227.827C836.409 228.57 828.931 232.447 822.647 238.804C817.831 243.676 814.035 249.665 811.193 256.024C810.794 256.917 809.746 257.318 808.852 256.918C807.959 256.519 807.559 255.471 807.958 254.577C810.961 247.86 814.977 241.522 820.127 236.312C826.973 229.386 835.214 225.114 844.921 224.296Z" fill="#C1E3E0"/>
<path fill-rule="evenodd" clip-rule="evenodd" d="M845.808 225.288C847.876 225.003 848.857 219.715 847.998 213.478C847.139 207.24 844.767 202.414 842.699 202.699C840.63 202.984 839.65 208.272 840.509 214.509C841.367 220.747 843.74 225.572 845.808 225.288Z" fill="#FFE0CD"/>
<path fill-rule="evenodd" clip-rule="evenodd" d="M856.112 221.366C860.592 217.724 863.256 213.581 862.063 212.113C860.87 210.644 856.27 212.407 851.79 216.049C847.31 219.692 844.646 223.835 845.839 225.303C847.032 226.771 851.632 225.009 856.112 221.366Z" fill="#FFE0CD"/>
<path fill-rule="evenodd" clip-rule="evenodd" d="M845.797 224.998C846.755 223.143 842.998 219.297 837.404 216.408C831.811 213.518 826.5 212.68 825.542 214.535C824.584 216.39 828.342 220.236 833.935 223.125C839.528 226.015 844.839 226.853 845.797 224.998Z" fill="#FFE0CD"/>
<path fill-rule="evenodd" clip-rule="evenodd" d="M864.227 235.275C865.127 233.61 861.738 230.036 856.659 227.291C851.579 224.546 846.733 223.67 845.833 225.334C844.934 226.999 848.322 230.574 853.402 233.319C858.481 236.064 863.328 236.94 864.227 235.275Z" fill="#FFE0CD"/>
<path fill-rule="evenodd" clip-rule="evenodd" d="M844.481 236.235C846.906 230.995 847.481 226.102 845.764 225.308C844.047 224.513 840.689 228.116 838.264 233.356C835.838 238.596 835.264 243.489 836.981 244.284C838.698 245.079 842.055 241.475 844.481 236.235Z" fill="#FFE0CD"/>
<path fill-rule="evenodd" clip-rule="evenodd" d="M750.13 90.5809C750.737 89.8134 751.852 89.6835 752.619 90.2908L752.834 90.4653C752.925 90.541 753.037 90.6341 753.167 90.7447L753.497 91.0284C753.839 91.3255 754.217 91.6626 754.629 92.0401C756.186 93.4674 757.915 95.1871 759.775 97.2031C765.069 102.944 770.357 109.917 775.288 118.153C784.447 133.45 791.311 151.316 794.944 171.828C799.4 196.979 798.764 224.925 792.113 255.734C791.906 256.69 790.963 257.298 790.007 257.092C789.05 256.885 788.442 255.942 788.649 254.985C795.204 224.622 795.829 197.14 791.455 172.446C787.899 152.371 781.19 134.909 772.248 119.974C767.446 111.953 762.305 105.174 757.17 99.606C755.379 97.6641 753.719 96.0141 752.234 94.6525L751.859 94.311C751.495 93.9828 751.165 93.6943 750.872 93.4453L750.489 93.1251C750.461 93.1024 750.438 93.0841 750.42 93.0701C749.653 92.4628 749.523 91.3484 750.13 90.5809Z" fill="#C1E3E0"/>
<path fill-rule="evenodd" clip-rule="evenodd" d="M756.678 95.3518C760.227 93.2793 759.692 85.7525 755.481 78.5403C751.271 71.328 744.981 67.1614 741.432 69.2339C737.883 71.3064 738.418 78.8331 742.628 86.0454C746.839 93.2577 753.129 97.4243 756.678 95.3518Z" fill="#FFE0CD"/>
<path fill-rule="evenodd" clip-rule="evenodd" d="M757.597 95.2671C757.679 91.1574 750.978 87.6911 742.629 87.5248C734.281 87.3585 727.447 90.5552 727.365 94.6649C727.283 98.7745 733.984 102.241 742.333 102.407C750.681 102.573 757.515 99.3767 757.597 95.2671Z" fill="#FFE0CD"/>
<path fill-rule="evenodd" clip-rule="evenodd" d="M771.071 88.7932C775.581 82.8384 776.877 76.2226 773.965 74.0165C771.053 71.8104 765.036 74.8493 760.526 80.8041C756.016 86.7589 754.721 93.3747 757.633 95.5808C760.545 97.7869 766.561 94.748 771.071 88.7932Z" fill="#FFE0CD"/>
<path fill-rule="evenodd" clip-rule="evenodd" d="M763.864 117.01C767.189 115.497 767.379 108.759 764.287 101.958C761.195 95.1576 755.993 90.8707 752.668 92.383C749.342 93.8953 749.153 100.634 752.244 107.435C755.336 114.235 760.538 118.522 763.864 117.01Z" fill="#FFE0CD"/>
<path fill-rule="evenodd" clip-rule="evenodd" d="M775.617 96.5104C775.964 93.2336 770.801 90.0014 764.086 89.291C757.372 88.5806 751.647 90.661 751.301 93.9378C750.954 97.2146 756.117 100.447 762.831 101.157C769.546 101.868 775.27 99.7872 775.617 96.5104Z" fill="#FFE0CD"/>
<path fill-rule="evenodd" clip-rule="evenodd" d="M861.548 253.824H735.987C728.562 253.824 723.335 261.916 725.163 270.043L752.921 394.321C753.102 395.131 753.82 395.706 754.65 395.706H842.826C843.656 395.706 844.374 395.131 844.555 394.321L872.313 270.04C874.138 261.928 868.926 253.824 861.548 253.824ZM861.547 257.368L861.702 257.37C866.538 257.491 870.203 263.274 868.855 269.265L841.406 392.162H756.069L728.621 269.268C727.256 263.2 731.023 257.368 735.987 257.368H861.547Z" fill="#F3EBE5"/>
<path d="M869.66 269.134L841.747 392.073L755.581 392.678L726.454 267.923C726.454 266.51 726.818 262.957 728.275 260.05C729.731 257.143 732.522 256.013 733.736 255.811H861.165C867.233 256.417 867.233 258.839 869.66 262.473C871.602 265.38 870.469 268.125 869.66 269.134Z" fill="#F3EBE5"/>
<path fill-rule="evenodd" clip-rule="evenodd" d="M736.485 261.509C726.542 261.633 717.568 262.922 709.483 265.275C708.972 265.424 708.678 265.959 708.827 266.47C708.975 266.981 709.511 267.275 710.022 267.126C717.664 264.902 726.132 263.647 735.502 263.454L735.743 263.449L735.792 263.668C735.965 264.457 736.138 265.377 736.3 266.417C737.587 274.666 737.393 284.23 734.698 294.229C734.56 294.744 734.864 295.273 735.379 295.411C735.893 295.55 736.422 295.245 736.561 294.731C739.3 284.568 739.526 274.849 738.252 266.421L738.206 266.12C738.038 265.04 737.857 264.082 737.676 263.255L737.622 263.015C737.596 262.899 737.57 262.79 737.546 262.688L737.442 262.271C737.436 262.249 737.431 262.231 737.427 262.217C737.311 261.794 736.924 261.504 736.485 261.509Z" fill="#00BDC8"/>
<path fill-rule="evenodd" clip-rule="evenodd" d="M710.766 265.935C710.672 265.411 710.171 265.062 709.647 265.155C709.123 265.249 708.774 265.75 708.867 266.274C710.717 276.623 710.567 286.69 708.677 296.548C708.576 297.071 708.919 297.576 709.442 297.677C709.965 297.777 710.471 297.434 710.571 296.911C712.504 286.826 712.658 276.522 710.766 265.935Z" fill="#00BDC8"/>
<path fill-rule="evenodd" clip-rule="evenodd" d="M679.904 207.46C679.61 207.128 679.127 207.039 678.733 207.246L678.576 207.33C678.453 207.398 678.308 207.478 678.142 207.571L677.851 207.737C677.501 207.938 677.116 208.165 676.697 208.418L676.515 208.528C674.772 209.589 672.832 210.869 670.744 212.37C664.786 216.654 658.829 221.859 653.268 228.007C649.809 231.83 646.611 235.909 643.727 240.248C643.432 240.691 643.552 241.289 643.996 241.584C644.439 241.879 645.038 241.758 645.333 241.315C648.163 237.058 651.302 233.054 654.698 229.3C660.162 223.259 666.017 218.144 671.871 213.935C673.82 212.534 675.635 211.331 677.274 210.325L677.518 210.175C677.934 209.922 678.316 209.696 678.664 209.495L678.971 209.318L678.975 209.322C695.717 228.391 705.338 247.231 708.764 265.708L708.867 266.274C708.961 266.798 709.462 267.147 709.986 267.053C710.511 266.96 710.86 266.459 710.766 265.935C707.333 246.724 697.363 227.179 679.904 207.46Z" fill="#00BDC8"/>
<path fill-rule="evenodd" clip-rule="evenodd" d="M593.398 281.766C582.127 277.031 569.032 276.577 554.017 281.154C553.58 281.287 553.296 281.708 553.338 282.163L553.357 282.358L553.404 282.78L553.459 283.232C553.523 283.742 553.601 284.314 553.696 284.942C554.025 287.132 554.48 289.569 555.082 292.193C556.962 300.838 570.423 333.503 574.274 340.317C574.515 340.792 575.095 340.983 575.57 340.743C576.045 340.503 576.236 339.923 575.996 339.448C572.533 332.592 558.648 299.118 556.962 291.762C556.372 289.188 555.925 286.798 555.603 284.655L555.538 284.217C555.487 283.86 555.441 283.525 555.4 283.212L555.345 282.769L555.453 282.737C569.533 278.611 581.771 279.068 592.325 283.408L592.651 283.544C601.556 287.286 608.968 293.674 615.013 301.973C618.548 306.827 621.396 312.032 623.616 317.238C624.393 319.059 625.035 320.749 625.55 322.263L625.666 322.606C625.777 322.94 625.876 323.247 625.962 323.525L626.073 323.893L626.145 324.141C626.287 324.654 626.818 324.955 627.331 324.814C627.845 324.673 628.146 324.142 628.005 323.628L627.923 323.345C627.9 323.269 627.875 323.187 627.848 323.098L627.758 322.807C627.648 322.457 627.521 322.068 627.376 321.642C626.846 320.083 626.187 318.349 625.39 316.482C623.117 311.15 620.199 305.819 616.572 300.838C610.334 292.273 602.657 285.656 593.398 281.766Z" fill="#00BDC8"/>
<path fill-rule="evenodd" clip-rule="evenodd" d="M609.603 211.29C609.235 211.069 608.766 211.117 608.451 211.408L608.346 211.507L608.137 211.709C607.922 211.92 607.677 212.165 607.404 212.446L607.286 212.568C606.376 213.512 605.364 214.632 604.276 215.924C601.173 219.61 598.072 223.945 595.179 228.905C592.092 234.197 572.988 271.46 571.166 278.148C570.991 278.65 571.257 279.2 571.76 279.375C572.262 279.55 572.812 278.65 572.988 278.148C575.069 272.175 593.819 235.064 596.845 229.876C599.681 225.016 602.717 220.77 605.752 217.166L606.145 216.702C606.991 215.714 607.783 214.839 608.508 214.079L608.675 213.906C608.79 213.787 608.9 213.674 609.005 213.567L609.244 213.326L609.607 213.547C625.683 223.352 638.355 234.321 647.903 246.28L648.197 246.65C656.84 257.567 662.773 269.153 666.298 281.221C666.448 281.732 666.983 282.026 667.494 281.877C668.006 281.727 668.299 281.192 668.15 280.681C660.431 254.257 641.706 230.605 609.603 211.29Z" fill="#00BDC8"/>
<path fill-rule="evenodd" clip-rule="evenodd" d="M626.976 251.927C615.432 265.837 608.786 279.091 606.454 291.669C606.357 292.193 606.703 292.696 607.226 292.793C607.75 292.89 608.253 292.544 608.35 292.021C610.574 280.03 616.858 267.345 627.785 253.978L627.986 253.734L628.348 253.908C628.61 254.035 628.891 254.173 629.19 254.321L629.557 254.504L630.13 254.794C631.773 255.629 633.576 256.594 635.503 257.683C641.658 261.164 647.812 265.195 653.552 269.725C665.204 278.921 673.616 288.953 677.412 299.617C682.092 312.766 679.505 326.256 668.214 340.049C667.877 340.461 667.937 341.068 668.349 341.405C668.762 341.743 669.369 341.682 669.706 341.27C681.418 326.964 684.14 312.768 679.229 298.971C675.291 287.907 666.658 277.612 654.748 268.212C648.923 263.615 642.688 259.531 636.453 256.005L635.769 255.621C633.845 254.546 632.051 253.598 630.422 252.781L630.047 252.594C629.681 252.412 629.342 252.246 629.029 252.096L628.625 251.903L628.116 251.665C627.72 251.485 627.253 251.593 626.976 251.927Z" fill="#00BDC8"/>
<path fill-rule="evenodd" clip-rule="evenodd" d="M735.682 294.098C714.029 292.193 694.612 298.529 677.534 310.962C670.97 315.74 665.017 321.241 659.681 327.202C655.676 331.677 652.308 336.079 649.579 340.155C649.283 340.598 649.401 341.197 649.844 341.493C650.287 341.789 650.885 341.67 651.182 341.228C653.863 337.223 657.176 332.892 661.119 328.488C666.367 322.624 672.221 317.214 678.669 312.521C695.392 300.347 714.358 294.157 735.513 296.019C736.043 296.066 736.511 295.674 736.558 295.143C736.605 294.613 736.212 294.145 735.682 294.098Z" fill="#00BDC8"/>
<path fill-rule="evenodd" clip-rule="evenodd" d="M735.68 294.098C735.15 294.052 734.682 294.445 734.636 294.976C734.591 295.506 734.984 295.973 735.514 296.019C741.384 296.526 747.475 297.697 753.778 299.546L754.219 299.677L754.035 300.057C753.957 300.217 753.875 300.383 753.79 300.555L753.521 301.088C752.541 303.015 751.348 305.164 749.937 307.48C745.902 314.103 740.933 320.727 734.992 326.907C729.246 332.884 722.878 338.13 715.869 342.441C715.415 342.72 715.274 343.314 715.553 343.768C715.832 344.221 716.426 344.362 716.88 344.083C724.034 339.683 730.528 334.334 736.383 328.243C742.428 321.955 747.48 315.22 751.584 308.483C753.022 306.124 754.239 303.931 755.24 301.962L755.427 301.592C755.639 301.17 755.83 300.78 756 300.423L756.141 300.125C756.193 300.012 756.241 299.909 756.285 299.814L756.436 299.477L756.444 299.459C756.673 298.932 756.393 298.324 755.844 298.154C748.879 296.005 742.153 294.657 735.68 294.098Z" fill="#00BDC8"/>
<path fill-rule="evenodd" clip-rule="evenodd" d="M576.703 339.663C573.634 339.663 571.135 342.127 571.079 345.181L571.078 345.287V362.287C571.078 365.355 573.542 367.853 576.598 367.91L576.703 367.911L584.227 367.91L599.907 468.304C600.021 468.805 600.505 469.125 601.005 469.041L601.061 469.03C601.562 468.916 601.882 468.432 601.798 467.932L601.787 467.876L585.937 366.733C585.842 366.313 585.48 366.01 585.055 365.984L584.997 365.982H576.703C574.696 365.982 573.058 364.376 573.008 362.381L573.007 362.287V345.287C573.007 343.28 574.614 341.642 576.609 341.593L576.703 341.591H641.391C641.923 341.591 642.355 341.16 642.355 340.627C642.355 340.114 641.954 339.694 641.447 339.665L641.391 339.663H576.703Z" fill="#B5BDBF"/>
<path fill-rule="evenodd" clip-rule="evenodd" d="M638.293 339.695C637.761 339.695 637.329 340.127 637.329 340.659C637.329 341.173 637.731 341.593 638.237 341.622L638.293 341.623H712.292C714.299 341.623 715.937 343.23 715.987 345.225L715.989 345.319V362.319C715.989 364.326 714.381 365.963 712.386 366.013L712.292 366.015H704.545C704.114 366.015 703.738 366.299 703.619 366.708L703.605 366.765L680.492 468.249C680.374 468.769 680.699 469.285 681.218 469.404C681.719 469.517 682.218 469.219 682.358 468.732L682.373 468.678L705.314 367.943H712.292C715.361 367.943 717.86 365.479 717.916 362.424L717.917 362.319V345.319C717.917 342.251 715.453 339.753 712.397 339.696L712.292 339.695H638.293Z" fill="#B5BDBF"/>
<path fill-rule="evenodd" clip-rule="evenodd" d="M549.864 379.972C553.318 379.972 556.134 382.755 556.19 386.197L556.191 386.302V395.94C556.191 396.337 555.869 396.659 555.472 396.659C555.089 396.659 554.776 396.359 554.754 395.982L554.753 395.94V386.302C554.753 383.634 552.603 381.456 549.947 381.412L549.864 381.411H485.375C482.708 381.411 480.531 383.561 480.486 386.219L480.486 386.302V394.189C480.486 394.587 480.164 394.909 479.767 394.909C479.384 394.909 479.071 394.609 479.049 394.232L479.048 394.189V386.302C479.048 382.847 481.83 380.029 485.27 379.973L485.375 379.972H549.864Z" fill="#0999A2"/>
<path fill-rule="evenodd" clip-rule="evenodd" d="M535.107 294.002C532.151 295.234 529.585 297.65 527.522 301.396C524.155 307.509 521.362 316.529 519.13 327.375L519.063 327.705C517.491 335.408 516.308 343.62 515.806 349.075L515.789 349.268C515.569 351.71 515.615 355.201 515.873 359.481C516.001 361.613 516.178 363.874 516.391 366.198L516.462 366.95C516.58 368.197 516.703 369.406 516.827 370.554L516.937 371.56C516.973 371.877 517.006 372.173 517.038 372.448L517.108 373.042L517.133 373.251C517.17 373.553 517.393 373.799 517.689 373.865C519.645 374.305 522.43 372.433 525.973 368.841C528.592 366.187 531.504 362.663 533.695 359.632C537.475 354.438 550.481 327.008 554.95 314.622C556.251 311.007 556.452 307.719 555.714 304.764C555.113 302.357 553.919 300.276 552.31 298.512C551.477 297.598 550.585 296.827 549.692 296.193L549.612 296.137C549.163 295.822 548.799 295.6 548.552 295.466L548.524 295.454C548.395 295.372 548.163 295.236 547.838 295.065C547.303 294.784 546.696 294.503 546.028 294.242C542.434 292.835 538.662 292.52 535.107 294.002ZM545.504 295.581C546.121 295.823 546.679 296.081 547.168 296.338L547.331 296.425C547.382 296.453 547.432 296.481 547.479 296.507L547.642 296.601L547.781 296.685L547.896 296.748C547.934 296.769 547.982 296.797 548.038 296.83L548.082 296.856C548.315 296.996 548.577 297.166 548.86 297.367C549.674 297.944 550.488 298.648 551.248 299.481C552.704 301.079 553.779 302.952 554.319 305.112C554.987 307.786 554.803 310.784 553.597 314.134C549.171 326.403 536.217 353.723 532.531 358.787L532.37 359.01L532.067 359.423C527.102 366.162 521.172 372.204 518.49 372.483L518.418 371.857C518.39 371.611 518.361 371.351 518.33 371.078L518.256 370.4C518.108 369.029 517.962 367.571 517.823 366.066C517.611 363.756 517.435 361.51 517.308 359.394L517.282 358.946C517.051 354.937 517.017 351.666 517.221 349.397L517.256 349.011C517.757 343.673 518.901 335.745 520.416 328.266L520.471 327.992C522.688 317.13 525.466 308.109 528.781 302.09C530.693 298.619 533.017 296.431 535.66 295.329C538.818 294.013 542.226 294.298 545.504 295.581Z" fill="#0999A2"/>
<path fill-rule="evenodd" clip-rule="evenodd" d="M483.628 293.973C479.526 297.022 478.988 302.863 481.173 310.459C482.803 316.126 485.976 322.597 488.997 327.056L489.133 327.253C490.712 329.508 493.566 332.539 497.429 336.176C498.269 336.967 499.151 337.781 500.07 338.614C502.734 341.029 505.586 343.499 508.438 345.891L509.221 346.545C509.796 347.025 510.344 347.477 510.858 347.9L511.408 348.351L512.244 349.03C512.69 349.389 513.35 349.107 513.409 348.548L513.413 348.493L513.434 348.04L513.455 347.499C513.462 347.307 513.469 347.104 513.476 346.889L513.481 346.726C513.676 340.297 513.512 333.031 512.716 326.142L512.65 325.588C511.882 319.247 510.626 313.99 508.789 310.159C505.647 303.605 501.629 298.138 497.459 294.97C492.682 291.34 487.868 290.822 483.628 293.973ZM496.59 296.115C500.555 299.127 504.442 304.416 507.493 310.781C509.301 314.552 510.542 319.863 511.287 326.307C512.056 332.961 512.229 339.99 512.057 346.247L512.034 347.004L511.248 346.358C510.656 345.869 510.025 345.344 509.362 344.788C506.523 342.407 503.684 339.949 501.036 337.548C500.124 336.721 499.248 335.913 498.414 335.128L498.087 334.819C494.35 331.281 491.617 328.349 490.187 326.248C487.247 321.909 484.14 315.573 482.555 310.061C480.518 302.98 481.002 297.716 484.485 295.128C488.158 292.399 492.282 292.843 496.59 296.115Z" fill="#0999A2"/>
<path fill-rule="evenodd" clip-rule="evenodd" d="M491.82 348.041C487.554 351.188 485.879 356.858 487.901 363.24C489.885 369.494 495.114 373.864 502.479 376.621C507.439 378.478 513.174 379.448 516.62 379.469C517.05 379.472 517.382 379.1 517.34 378.679L517.32 378.543L517.275 378.276L517.215 377.929C517.186 377.767 517.155 377.593 517.122 377.409L517.015 376.83C516.833 375.864 516.621 374.81 516.378 373.686C515.575 369.978 514.602 366.27 513.453 362.805L513.312 362.383C511.116 355.877 508.554 351.045 505.555 348.522L505.459 348.441C501.383 345.089 495.887 345.039 491.82 348.041ZM504.545 349.553C507.383 351.885 509.917 356.708 512.088 363.258C513.219 366.669 514.18 370.329 514.972 373.99L515.134 374.748C515.325 375.66 515.495 376.519 515.642 377.314L515.755 377.93L515.768 378.006L515.624 377.999C512.285 377.822 507.318 376.897 502.983 375.274C495.993 372.657 491.1 368.568 489.271 362.805C487.431 356.996 488.916 351.971 492.673 349.198C496.219 346.582 500.987 346.625 504.545 349.553Z" fill="#0999A2"/>
<path fill-rule="evenodd" clip-rule="evenodd" d="M531.049 366.72C527.511 369.677 524.206 373.483 522.092 376.622C521.792 377.067 522.068 377.666 522.59 377.736L522.648 377.742L522.937 377.763L523.263 377.784C523.718 377.814 524.231 377.843 524.794 377.871L524.984 377.88C528.914 378.067 533.066 378.087 536.961 377.829C541.802 377.509 545.675 376.791 548.26 375.57L548.381 375.513C552.198 373.678 554.464 370.409 554.19 367.237C553.898 363.849 550.849 361.404 545.818 360.869C541.035 360.36 536.027 362.56 531.049 366.72ZM545.666 362.299C550.072 362.768 552.531 364.741 552.757 367.361C552.972 369.852 551.117 372.56 547.866 374.163L547.755 374.218C545.376 375.373 541.612 376.079 536.866 376.394C533.033 376.647 528.932 376.628 525.052 376.443L524.865 376.434C524.618 376.422 524.381 376.41 524.154 376.397L524.009 376.389L524.135 376.216C526.165 373.447 528.988 370.316 531.971 367.824C536.678 363.89 541.346 361.839 545.666 362.299Z" fill="#0999A2"/>
</g>
</svg>
