<svg width="375" height="332" viewBox="0 0 375 332" fill="none" xmlns="http://www.w3.org/2000/svg">
<g opacity="0.9">
<path fill-rule="evenodd" clip-rule="evenodd" d="M39.865 273.31C34.8903 238.294 24.0029 161.936 56.5834 125.9C89.1639 89.8639 94.3426 98.4343 100.01 68.8054C105.678 39.1766 135.731 27.1781 150.859 44.4004C166.028 61.5819 147.801 94.5164 141.929 101.699C136.057 108.882 141.358 153.121 122.234 183.729C103.11 214.338 72.4047 192.422 73.7096 219.031C71.9562 271.473 39.865 273.31 39.865 273.31Z" fill="#BAE0DD"/>
<path fill-rule="evenodd" clip-rule="evenodd" d="M136.668 55.8118C136.097 55.4515 135.341 55.6232 134.981 56.1953L134.449 57.0469L133.381 58.7726C132.596 60.0449 131.715 61.4838 130.744 63.0812L129.817 64.6111C126.694 69.7732 123.26 75.5576 119.588 81.8784C108.049 101.743 96.5094 122.829 85.7381 144.222C76.8533 161.869 68.8779 178.974 62.0388 195.27C49.0906 226.121 40.6379 253.032 37.6338 274.898C37.5418 275.568 38.0098 276.186 38.6791 276.278C39.3484 276.37 39.9656 275.901 40.0576 275.232C43.0275 253.614 51.4217 226.889 64.2945 196.218C71.1102 179.978 79.0621 162.923 87.9229 145.324C98.6705 123.978 110.187 102.934 121.703 83.1091L123.156 80.6148C126.516 74.8624 129.659 69.5869 132.528 64.8581L134.029 62.3938C134.41 61.7701 134.774 61.1762 135.121 60.6126L136.693 58.0737L137.051 57.5003C137.411 56.9281 137.24 56.1722 136.668 55.8118Z" fill="white"/>
<path fill-rule="evenodd" clip-rule="evenodd" d="M22.2904 0.201977C54.137 -2.85886 60.7428 29.4635 61.7622 56.807C62.7816 84.1504 57.7253 93.9859 73.2612 108.515C88.7971 123.084 63.5156 142.755 65.6767 157.202C67.8379 171.649 82.7621 210.257 24.737 295.797C22.6167 298.898 19.5992 323.875 19.5992 323.875L7.03999 320.488C7.03999 320.488 15.1138 300.204 5.9798 275.636C-3.15416 251.027 -18.6493 239.477 -20.1172 208.706C-21.5852 177.934 0.393409 183.893 -3.64347 163.65C-7.68036 143.408 -28.3133 129.41 -26.723 109.127C-25.1327 88.8029 12.9934 74.0293 4.55262 50.6445C-3.88814 27.2189 -5.27454 2.8547 22.2904 0.201977Z" fill="#BAE0DD"/>
<path fill-rule="evenodd" clip-rule="evenodd" d="M34.3016 11.0791C33.6832 11.2842 33.3379 11.9357 33.5046 12.5575L33.6948 13.1565L33.8433 13.6342C33.9473 13.9721 34.0613 14.3487 34.1845 14.7637L34.3538 15.338C34.8391 16.9961 35.372 18.9194 35.9417 21.1012L36.1901 22.0599C37.9287 28.8218 39.6632 36.6596 41.2874 45.5105C46.9471 76.3508 49.9421 111.693 48.855 150.698C47.4347 201.658 39.0976 254.604 22.4262 308.7C22.2271 309.346 22.5891 310.031 23.2346 310.23C23.8802 310.43 24.565 310.067 24.7642 309.421C41.5027 255.108 49.8743 201.942 51.3007 150.766C52.3927 111.584 49.3833 76.0711 43.6938 45.0682L43.4595 43.8024C41.8142 34.9906 40.0619 27.1963 38.3088 20.4821L38.0074 19.3387C37.544 17.5977 37.1066 16.0331 36.7014 14.6485L36.5297 14.0661C36.3621 13.5017 36.211 13.0056 36.0778 12.5787L35.8476 11.8561C35.6351 11.2143 34.9429 10.8664 34.3016 11.0791Z" fill="white"/>
<path fill-rule="evenodd" clip-rule="evenodd" d="M24.1661 270.535C35.0943 242.906 58.9078 182.587 97.4824 169.65C136.057 156.713 136.22 165.079 152.653 145.734C169.086 126.39 195.795 129.981 199.628 148.754C203.461 167.527 176.589 184.097 169.372 186.954C162.154 189.81 147.597 224.296 121.051 238.824C94.5058 253.353 81.3757 224.745 71.2631 244.742C48.1835 282.329 24.1661 270.535 24.1661 270.535Z" fill="#BAE0DD"/>
<path fill-rule="evenodd" clip-rule="evenodd" d="M186.724 146.638C186.467 146.039 185.788 145.751 185.184 145.971L185.085 146.011L184.671 146.192C184.397 146.312 184.087 146.449 183.742 146.603L183.384 146.763C181.979 147.392 180.349 148.137 178.514 148.995L176.925 149.741C172.103 152.018 166.81 154.626 161.153 157.544C143.196 166.81 125.237 177.3 108.471 188.808C91.3387 200.567 76.4163 212.75 64.338 225.253C50.3405 239.742 40.4795 254.338 35.4066 268.949C35.1848 269.588 35.5224 270.286 36.1606 270.508C36.7988 270.73 37.4959 270.392 37.7176 269.753C47.0327 242.924 72.7714 216.281 109.854 190.828C126.529 179.382 144.401 168.942 162.274 159.721L163.519 159.08C168.889 156.327 173.914 153.864 178.499 151.706L179.549 151.214C181.144 150.468 182.582 149.809 183.85 149.238L185.222 148.625L186.084 148.247C186.705 147.979 186.991 147.259 186.724 146.638Z" fill="white"/>
<path fill-rule="evenodd" clip-rule="evenodd" d="M38.2749 277.513C37.6225 245.599 36.1545 175.935 2.14684 148.469C-31.8608 121.003 -35.1637 129.369 -44.4608 103.74C-53.7579 78.1103 -82.0161 71.703 -92.9034 89.1701C-103.791 106.637 -82.9539 133.409 -76.7559 138.96C-70.5578 144.51 -68.8044 184.709 -47.4783 209.318C-26.1521 233.886 -2.25703 210.012 0.434221 233.927C9.69051 280.37 38.2749 277.513 38.2749 277.513Z" fill="#BAE0DD"/>
<path fill-rule="evenodd" clip-rule="evenodd" d="M-79.3537 92.0387C-79.8201 92.5279 -79.8019 93.3029 -79.3131 93.7697L-78.6194 94.4408L-77.7654 95.277C-76.9728 96.0568 -76.0835 96.9414 -75.1041 97.9268L-74.1164 98.9241C-70.756 102.328 -67.0488 106.196 -63.077 110.48C-50.8872 123.627 -38.6971 137.98 -27.3222 153.06C-8.2291 178.372 6.58548 203.114 15.459 226.295C21.6975 242.592 24.8384 257.756 24.5334 271.569C24.5184 272.245 25.0539 272.805 25.7293 272.82C26.4048 272.835 26.9644 272.299 26.9793 271.623C27.2921 257.462 24.088 241.992 17.7437 225.419C8.77627 201.993 -6.14976 177.064 -25.3696 151.585C-36.5443 136.77 -48.4971 122.66 -60.4674 109.696L-61.2836 108.814C-65.4261 104.346 -69.2831 100.328 -72.7627 96.8119L-73.8551 95.7122C-74.6516 94.9136 -75.3847 94.1856 -76.0507 93.5303L-77.0214 92.5806L-77.6241 91.9982C-78.1129 91.5314 -78.8873 91.5495 -79.3537 92.0387Z" fill="white"/>
<path fill-rule="evenodd" clip-rule="evenodd" d="M-6.78335 332L-21.993 261.968C-23.2571 256.663 -19.1387 251.602 -13.593 251.602H81.0087C86.5543 251.602 90.6319 256.622 89.4494 261.887L73.9135 331.551" fill="#F3EBE5"/>
</g>
<path d="M379.77 168.84C376.468 173.784 355.275 189.03 345.091 196.034C343.852 195.485 341.045 194.057 339.724 192.738C338.072 191.09 337.66 174.197 338.072 168.84C338.485 163.484 345.091 132.993 347.568 125.576C350.045 118.159 363.256 100.854 370.275 97.1456C377.293 93.4372 387.202 98.3817 390.092 99.2057C392.982 100.03 395.459 107.446 397.523 112.391C399.587 117.335 398.349 129.696 397.523 134.641C396.697 139.585 383.899 162.659 379.77 168.84Z" fill="#C1E3E0"/>
<path d="M317.017 214.164C317.678 219.109 316.191 221.443 315.366 221.993C312.889 221.718 307.274 220.922 304.632 219.933C301.329 218.697 288.53 210.044 286.879 208.808C285.228 207.572 268.714 191.914 267.062 190.266C265.411 188.618 259.631 177.081 258.392 173.785C257.154 170.488 256.741 163.072 256.741 158.951C256.741 154.831 261.695 148.238 263.759 146.59C265.824 144.942 271.191 144.53 274.906 144.942C278.622 145.354 286.053 150.71 289.356 153.183C292.659 155.655 296.787 161.423 300.09 165.544C303.393 169.664 308.347 182.025 310.411 186.97C312.476 191.914 316.191 207.984 317.017 214.164Z" fill="#C1E3E0"/>
<path fill-rule="evenodd" clip-rule="evenodd" d="M256.333 156.191C253.273 168.013 258.689 183.378 272.203 196.928L272.615 197.338C282.786 207.401 291.516 214.352 298.903 218.666L299.452 218.984C304.726 221.998 308.929 223.441 312.133 223.724C313.678 223.874 315.204 223.383 316.426 222.364C317.886 221.106 318.631 219.276 318.434 217.406L318.417 217.262C314.909 185.379 300.345 156.547 280.377 145.944C269.426 140.118 259.275 144.828 256.333 156.191ZM279.245 148.074C298.195 158.135 312.306 185.797 315.917 216.616L316.023 217.551C316.171 218.68 315.741 219.771 314.867 220.525C314.148 221.124 313.258 221.411 312.355 221.323C309.411 221.063 305.361 219.646 300.119 216.584C293.003 212.428 284.541 205.708 274.652 195.961L274.31 195.623C261.064 182.537 255.81 167.831 258.667 156.796C261.224 146.919 269.691 142.99 279.245 148.074Z" fill="#C1E3E0"/>
<path fill-rule="evenodd" clip-rule="evenodd" d="M261.596 148.774C262.046 148.319 262.767 148.297 263.243 148.71L263.34 148.803L263.966 149.432C264.456 149.926 265.016 150.499 265.642 151.145L266.411 151.941C268.264 153.87 270.3 156.039 272.476 158.422C279.348 165.944 286.22 174.045 292.636 182.419C300.324 192.452 306.831 202.202 311.783 211.423C313.338 214.32 314.731 217.149 315.953 219.905C316.223 220.513 315.948 221.226 315.339 221.495C314.731 221.765 314.019 221.491 313.749 220.882C312.552 218.184 311.186 215.409 309.659 212.564C304.775 203.47 298.337 193.824 290.723 183.886C284.58 175.868 278.011 168.098 271.428 160.851L270.696 160.048C268.421 157.557 266.3 155.301 264.384 153.313L263.546 152.447C263.309 152.203 263.082 151.971 262.867 151.751L261.914 150.786L261.605 150.479C261.132 150.01 261.128 149.247 261.596 148.774Z" fill="#F7FAFA"/>
<path fill-rule="evenodd" clip-rule="evenodd" d="M269.082 188.645L269.576 188.637C270.378 188.63 271.419 188.65 272.669 188.711L272.906 188.724C275.156 188.842 277.609 189.074 280.22 189.447C287.378 190.468 294.621 192.372 301.585 195.374C302.197 195.637 302.479 196.347 302.215 196.958C301.952 197.57 301.243 197.852 300.631 197.588C293.877 194.677 286.838 192.827 279.879 191.834C277.341 191.472 274.96 191.246 272.78 191.132L272.329 191.109C271.227 191.058 270.31 191.042 269.601 191.048L269.164 191.055C268.499 191.078 267.941 190.556 267.918 189.891C267.896 189.225 268.417 188.668 269.082 188.645Z" fill="#F7FAFA"/>
<path fill-rule="evenodd" clip-rule="evenodd" d="M286.452 152.228C287.032 151.901 287.767 152.106 288.094 152.686L288.438 153.305C288.564 153.532 288.702 153.783 288.852 154.058L289.277 154.843C289.762 155.741 290.284 156.724 290.837 157.783C292.889 161.715 294.941 165.883 296.857 170.104C298.373 173.444 299.742 176.683 300.928 179.774L301.181 180.441C304.439 189.068 306.065 196.03 305.603 200.856C305.54 201.519 304.951 202.005 304.288 201.941C303.626 201.878 303.14 201.289 303.203 200.626C303.632 196.154 301.977 189.245 298.677 180.638C297.509 177.594 296.159 174.399 294.662 171.101C292.765 166.923 290.732 162.794 288.699 158.899L288.215 157.976C287.845 157.274 287.491 156.61 287.156 155.989L286.648 155.053L286.067 154.001C286.035 153.943 286.011 153.9 285.995 153.871C285.668 153.291 285.872 152.556 286.452 152.228Z" fill="#F7FAFA"/>
<path fill-rule="evenodd" clip-rule="evenodd" d="M287.773 206.775L287.872 206.769L288.489 206.758C289.902 206.744 291.706 206.799 293.77 206.971C297.167 207.254 300.525 207.802 303.677 208.681C306.691 209.521 309.394 210.633 311.704 212.052C312.272 212.4 312.449 213.142 312.101 213.71C311.752 214.277 311.01 214.455 310.443 214.106C308.34 212.815 305.841 211.788 303.03 211.004C300.038 210.17 296.825 209.645 293.569 209.374C291.497 209.201 289.701 209.151 288.337 209.171L287.933 209.18C287.268 209.205 286.708 208.685 286.684 208.02C286.66 207.378 287.142 206.835 287.773 206.775Z" fill="#F7FAFA"/>
<path fill-rule="evenodd" clip-rule="evenodd" d="M377.562 95.1069C363.953 95.708 351.192 108.447 344.513 130.721L344.313 131.399L344.004 132.46C339.374 148.492 336.977 161.714 336.423 172.396L336.405 172.747C336.01 180.912 336.717 186.967 338.095 191.189C338.701 193.053 339.874 194.641 341.426 195.676C343.397 197.007 345.684 197.241 347.542 196.209C378.061 179.607 399.652 150.267 399.997 121.062C400.198 105.312 390.462 94.5373 377.562 95.1069ZM397.586 121.032C397.252 149.268 376.203 177.873 346.38 194.096C345.359 194.663 344.034 194.527 342.769 193.673C341.671 192.942 340.83 191.802 340.388 190.442C339.105 186.511 338.432 180.748 338.813 172.863L338.849 172.172C339.433 161.629 341.842 148.528 346.473 132.601L346.627 132.075C349.95 120.687 354.807 111.883 360.715 105.925C365.979 100.616 371.908 97.7703 377.669 97.5159C389.106 97.0108 397.77 106.599 397.586 121.032Z" fill="#C1E3E0"/>
<path fill-rule="evenodd" clip-rule="evenodd" d="M387.375 100.452C387.963 100.139 388.693 100.361 389.006 100.949C389.319 101.536 389.097 102.266 388.51 102.58C376.137 109.177 365.869 124.994 357.642 147.223C353.713 157.84 350.509 169.225 347.978 180.611L347.74 181.691C347.037 184.909 346.432 187.931 345.922 190.703L345.755 191.618C345.599 192.488 345.46 193.285 345.34 194.003L345.115 195.385L345.055 195.774C344.957 196.433 344.344 196.887 343.685 196.79C343.05 196.695 342.605 196.122 342.662 195.49L342.678 195.366L342.821 194.461L342.922 193.845C343.027 193.214 343.146 192.52 343.28 191.766L343.383 191.19C343.986 187.839 344.731 184.107 345.624 180.088C348.177 168.603 351.41 157.116 355.381 146.386C363.796 123.65 374.345 107.4 387.375 100.452Z" fill="#F7FAFA"/>
<path fill-rule="evenodd" clip-rule="evenodd" d="M396.695 124.688C397.304 124.418 398.016 124.692 398.286 125.301C398.556 125.909 398.282 126.622 397.673 126.892C391.51 129.627 384.418 133.058 377.553 136.833L376.855 137.219C367.24 142.552 359.85 147.636 355.719 152.126C355.268 152.616 354.506 152.647 354.016 152.197C353.526 151.746 353.494 150.983 353.945 150.493C358.346 145.709 366.037 140.438 376.03 134.92L376.392 134.72C383.325 130.908 390.475 127.449 396.695 124.688Z" fill="#F7FAFA"/>
<path fill-rule="evenodd" clip-rule="evenodd" d="M345.917 131.264C345.978 130.601 346.566 130.114 347.229 130.175C347.891 130.237 348.379 130.824 348.317 131.487L348.226 132.487C346.779 148.749 347.2 161.751 350.567 166.172C350.971 166.701 350.868 167.458 350.339 167.861C349.809 168.265 349.053 168.163 348.649 167.633C346.391 164.669 345.311 158.962 345.093 151.011C344.931 145.081 345.262 138.305 345.917 131.264Z" fill="#F7FAFA"/>
<path fill-rule="evenodd" clip-rule="evenodd" d="M383.773 160.094C384.293 159.678 385.052 159.762 385.468 160.281C385.884 160.801 385.8 161.56 385.28 161.976C381.537 164.974 376.14 168.073 369.506 171.207C364.902 173.382 359.974 175.447 355.047 177.335L354.26 177.635C352.964 178.127 351.744 178.577 350.619 178.982L349.572 179.355L348.468 179.739C347.838 179.953 347.153 179.615 346.94 178.984C346.734 178.376 347.041 177.718 347.628 177.48L348.937 177.022L349.472 176.832C350.894 176.323 352.478 175.738 354.184 175.083C359.059 173.215 363.933 171.173 368.476 169.027C374.954 165.966 380.206 162.951 383.773 160.094Z" fill="#F7FAFA"/>
<path fill-rule="evenodd" clip-rule="evenodd" d="M362.526 214.972C363.19 214.916 363.773 215.409 363.829 216.072C363.885 216.736 363.392 217.319 362.729 217.375C356.735 217.88 351.647 220.518 347.372 224.843C344.095 228.158 341.512 232.233 339.578 236.559C339.307 237.167 338.594 237.439 337.986 237.167C337.378 236.896 337.106 236.183 337.377 235.575C339.42 231.004 342.153 226.692 345.657 223.148C350.315 218.436 355.922 215.529 362.526 214.972Z" fill="#C1E3E0"/>
<path fill-rule="evenodd" clip-rule="evenodd" d="M363.13 215.647C364.537 215.453 365.204 211.856 364.62 207.612C364.035 203.368 362.421 200.085 361.014 200.279C359.607 200.472 358.94 204.07 359.524 208.314C360.108 212.558 361.723 215.841 363.13 215.647Z" fill="#FFE0CD"/>
<path fill-rule="evenodd" clip-rule="evenodd" d="M370.14 212.979C373.188 210.501 375.001 207.682 374.189 206.683C373.377 205.684 370.248 206.883 367.2 209.361C364.151 211.84 362.339 214.658 363.151 215.657C363.962 216.656 367.092 215.457 370.14 212.979Z" fill="#FFE0CD"/>
<path fill-rule="evenodd" clip-rule="evenodd" d="M363.122 215.45C363.774 214.188 361.217 211.571 357.412 209.605C353.606 207.639 349.993 207.069 349.341 208.331C348.689 209.593 351.246 212.21 355.052 214.176C358.857 216.142 362.47 216.712 363.122 215.45Z" fill="#FFE0CD"/>
<path fill-rule="evenodd" clip-rule="evenodd" d="M375.661 222.442C376.273 221.31 373.968 218.877 370.512 217.01C367.056 215.142 363.759 214.546 363.147 215.679C362.535 216.811 364.84 219.244 368.296 221.111C371.752 222.979 375.05 223.575 375.661 222.442Z" fill="#FFE0CD"/>
<path fill-rule="evenodd" clip-rule="evenodd" d="M362.227 223.095C363.877 219.53 364.268 216.201 363.1 215.66C361.931 215.12 359.647 217.571 357.997 221.137C356.347 224.702 355.956 228.03 357.124 228.571C358.292 229.112 360.577 226.66 362.227 223.095Z" fill="#FFE0CD"/>
<path fill-rule="evenodd" clip-rule="evenodd" d="M298.033 123.997C298.446 123.474 299.205 123.386 299.727 123.799L299.873 123.918C299.935 123.969 300.011 124.033 300.099 124.108L300.324 124.301C300.557 124.503 300.814 124.733 301.094 124.989C302.153 125.961 303.33 127.131 304.595 128.502C308.197 132.408 311.795 137.152 315.15 142.756C321.381 153.163 326.051 165.319 328.524 179.275C331.555 196.387 331.122 215.4 326.597 236.361C326.456 237.012 325.815 237.426 325.164 237.285C324.513 237.145 324.1 236.503 324.24 235.853C328.7 215.194 329.126 196.496 326.15 179.695C323.73 166.037 319.166 154.156 313.082 143.995C309.814 138.538 306.316 133.925 302.823 130.137C301.605 128.816 300.475 127.693 299.465 126.767L299.209 126.535C298.962 126.311 298.737 126.115 298.538 125.946L298.277 125.728C298.258 125.712 298.243 125.7 298.231 125.69C297.709 125.277 297.62 124.519 298.033 123.997Z" fill="#C1E3E0"/>
<path fill-rule="evenodd" clip-rule="evenodd" d="M302.488 127.243C304.903 125.833 304.539 120.712 301.674 115.805C298.81 110.898 294.53 108.063 292.115 109.473C289.701 110.883 290.065 116.004 292.929 120.911C295.794 125.818 300.074 128.653 302.488 127.243Z" fill="#FFE0CD"/>
<path fill-rule="evenodd" clip-rule="evenodd" d="M303.114 127.185C303.169 124.389 298.61 122.031 292.93 121.917C287.25 121.804 282.6 123.979 282.544 126.775C282.489 129.571 287.048 131.93 292.728 132.043C298.408 132.156 303.058 129.981 303.114 127.185Z" fill="#FFE0CD"/>
<path fill-rule="evenodd" clip-rule="evenodd" d="M312.281 122.78C315.35 118.729 316.231 114.228 314.25 112.727C312.269 111.226 308.175 113.293 305.107 117.345C302.038 121.396 301.157 125.897 303.138 127.398C305.119 128.899 309.213 126.832 312.281 122.78Z" fill="#FFE0CD"/>
<path fill-rule="evenodd" clip-rule="evenodd" d="M307.377 141.978C309.64 140.949 309.769 136.364 307.665 131.737C305.562 127.111 302.022 124.194 299.76 125.223C297.497 126.252 297.368 130.837 299.472 135.463C301.575 140.09 305.114 143.007 307.377 141.978Z" fill="#FFE0CD"/>
<path fill-rule="evenodd" clip-rule="evenodd" d="M315.374 128.031C315.61 125.801 312.097 123.602 307.529 123.119C302.96 122.636 299.066 124.051 298.83 126.281C298.594 128.51 302.106 130.709 306.675 131.192C311.243 131.676 315.138 130.26 315.374 128.031Z" fill="#FFE0CD"/>
<path fill-rule="evenodd" clip-rule="evenodd" d="M373.838 235.062H288.411C283.359 235.062 279.803 240.568 281.047 246.097L299.932 330.652C300.055 331.203 300.544 331.595 301.108 331.595H361.101C361.665 331.595 362.154 331.203 362.277 330.652L381.163 246.095C382.404 240.576 378.858 235.062 373.838 235.062ZM373.838 237.473L373.943 237.475C377.234 237.557 379.727 241.492 378.81 245.568L360.134 329.184H302.074L283.399 245.57C282.47 241.442 285.034 237.473 288.411 237.473H373.838Z" fill="#F3EBE5"/>
<path d="M379.357 245.479L360.366 329.123L301.742 329.535L281.925 244.655C281.925 243.694 282.173 241.276 283.163 239.298C284.154 237.321 286.053 236.552 286.879 236.414H373.578C377.706 236.826 377.706 238.474 379.357 240.947C380.679 242.924 379.908 244.792 379.357 245.479Z" fill="#F3EBE5"/>
<path fill-rule="evenodd" clip-rule="evenodd" d="M298.138 230.907C293.244 230.969 288.828 231.607 284.849 232.771C284.597 232.845 284.452 233.11 284.526 233.362C284.599 233.615 284.862 233.761 285.114 233.687C288.875 232.587 293.042 231.966 297.654 231.87L297.772 231.867L297.796 231.976C297.882 232.366 297.967 232.821 298.047 233.336C298.68 237.418 298.585 242.151 297.258 247.099C297.19 247.354 297.34 247.616 297.593 247.684C297.846 247.753 298.107 247.602 298.175 247.348C299.523 242.318 299.634 237.509 299.007 233.338L298.985 233.189C298.902 232.655 298.813 232.18 298.724 231.772L298.697 231.653C298.684 231.595 298.672 231.541 298.66 231.491L298.608 231.284C298.606 231.274 298.603 231.265 298.601 231.258C298.544 231.049 298.354 230.905 298.138 230.907Z" fill="#00BDC8"/>
<path fill-rule="evenodd" clip-rule="evenodd" d="M285.48 233.097C285.434 232.838 285.188 232.665 284.93 232.712C284.671 232.758 284.5 233.006 284.546 233.265C285.456 238.386 285.382 243.368 284.452 248.247C284.403 248.506 284.571 248.756 284.829 248.805C285.086 248.855 285.335 248.685 285.384 248.426C286.336 243.436 286.411 238.336 285.48 233.097Z" fill="#00BDC8"/>
<path fill-rule="evenodd" clip-rule="evenodd" d="M270.292 204.161C270.147 203.996 269.909 203.953 269.715 204.055L269.638 204.097C269.577 204.13 269.506 204.17 269.425 204.216L269.281 204.298C269.109 204.397 268.919 204.51 268.713 204.635L268.624 204.689C267.766 205.214 266.811 205.848 265.784 206.59C262.851 208.711 259.919 211.286 257.183 214.328C255.481 216.221 253.907 218.239 252.487 220.386C252.342 220.605 252.401 220.902 252.619 221.047C252.838 221.193 253.132 221.134 253.277 220.914C254.67 218.808 256.215 216.826 257.887 214.968C260.576 211.979 263.457 209.448 266.338 207.365C267.297 206.672 268.191 206.076 268.997 205.578L269.117 205.505C269.322 205.379 269.51 205.267 269.681 205.168L269.833 205.08L269.834 205.082C278.074 214.519 282.809 223.842 284.495 232.985L284.546 233.265C284.592 233.525 284.839 233.697 285.097 233.651C285.355 233.605 285.526 233.357 285.48 233.098C283.791 223.591 278.884 213.919 270.292 204.161Z" fill="#00BDC8"/>
<path fill-rule="evenodd" clip-rule="evenodd" d="M227.718 240.932C222.171 238.588 215.726 238.364 208.336 240.629C208.121 240.695 207.982 240.903 208.002 241.128L208.012 241.225L208.035 241.433L208.061 241.657C208.093 241.91 208.132 242.192 208.178 242.503C208.34 243.587 208.564 244.793 208.86 246.092C209.786 250.37 216.411 266.534 218.306 269.906C218.424 270.141 218.71 270.236 218.944 270.117C219.178 269.998 219.271 269.711 219.153 269.476C217.449 266.083 210.616 249.518 209.786 245.878C209.495 244.604 209.275 243.422 209.117 242.362L209.085 242.145C209.059 241.968 209.037 241.802 209.017 241.647L208.99 241.428L209.043 241.412C215.972 239.371 221.995 239.597 227.19 241.744L227.35 241.811C231.733 243.663 235.38 246.824 238.355 250.931C240.095 253.333 241.497 255.909 242.589 258.485C242.972 259.386 243.288 260.223 243.541 260.972L243.598 261.142C243.653 261.307 243.701 261.459 243.744 261.596L243.799 261.778L243.834 261.901C243.904 262.155 244.165 262.304 244.418 262.234C244.67 262.164 244.819 261.902 244.749 261.648L244.709 261.507C244.698 261.47 244.686 261.429 244.672 261.385L244.628 261.241C244.574 261.068 244.511 260.876 244.44 260.665C244.179 259.893 243.854 259.035 243.463 258.111C242.344 255.473 240.908 252.834 239.122 250.37C236.053 246.131 232.274 242.857 227.718 240.932Z" fill="#00BDC8"/>
<path fill-rule="evenodd" clip-rule="evenodd" d="M235.693 206.056C235.512 205.947 235.281 205.971 235.126 206.115L235.074 206.164L234.972 206.263C234.865 206.368 234.745 206.489 234.611 206.628L234.553 206.689C234.105 207.156 233.607 207.71 233.071 208.349C231.544 210.173 230.018 212.319 228.594 214.773C227.075 217.392 217.673 235.832 216.776 239.141C216.69 239.39 216.821 239.662 217.068 239.749C217.316 239.835 217.586 239.39 217.673 239.141C218.697 236.185 227.925 217.821 229.414 215.254C230.81 212.849 232.304 210.747 233.798 208.964L233.991 208.734C234.407 208.245 234.797 207.812 235.154 207.437L235.236 207.351C235.293 207.292 235.347 207.236 235.398 207.183L235.516 207.064L235.695 207.173C243.607 212.025 249.843 217.453 254.542 223.371L254.687 223.554C258.941 228.957 261.861 234.69 263.596 240.662C263.669 240.915 263.933 241.06 264.184 240.986C264.436 240.913 264.58 240.648 264.507 240.395C260.708 227.319 251.493 215.614 235.693 206.056Z" fill="#00BDC8"/>
<path fill-rule="evenodd" clip-rule="evenodd" d="M244.243 226.166C238.561 233.049 235.291 239.608 234.143 245.833C234.095 246.092 234.265 246.341 234.523 246.389C234.781 246.437 235.029 246.266 235.076 246.006C236.171 240.073 239.263 233.795 244.641 227.181L244.74 227.06L244.918 227.146C245.047 227.209 245.185 227.277 245.332 227.35L245.513 227.441L245.795 227.584C246.604 227.998 247.491 228.475 248.44 229.014C251.469 230.737 254.498 232.731 257.322 234.973C263.057 239.524 267.197 244.488 269.065 249.766C271.368 256.272 270.095 262.948 264.538 269.773C264.372 269.977 264.402 270.278 264.605 270.445C264.808 270.612 265.107 270.582 265.273 270.378C271.037 263.298 272.376 256.273 269.959 249.446C268.021 243.971 263.773 238.876 257.911 234.224C255.044 231.95 251.976 229.929 248.907 228.184L248.57 227.993C247.624 227.462 246.741 226.993 245.939 226.588L245.754 226.496C245.574 226.406 245.407 226.324 245.253 226.249L245.055 226.154L244.804 226.036C244.609 225.947 244.379 226 244.243 226.166Z" fill="#00BDC8"/>
<path fill-rule="evenodd" clip-rule="evenodd" d="M297.743 247.034C287.086 246.091 277.53 249.227 269.125 255.38C265.894 257.744 262.965 260.466 260.339 263.416C258.368 265.631 256.71 267.809 255.367 269.826C255.221 270.045 255.28 270.341 255.497 270.488C255.715 270.635 256.01 270.576 256.156 270.357C257.475 268.375 259.106 266.232 261.046 264.052C263.629 261.151 266.51 258.474 269.684 256.151C277.914 250.127 287.248 247.064 297.659 247.985C297.92 248.008 298.151 247.814 298.174 247.552C298.197 247.289 298.004 247.058 297.743 247.034Z" fill="#00BDC8"/>
<path fill-rule="evenodd" clip-rule="evenodd" d="M297.742 247.034C297.48 247.012 297.251 247.206 297.228 247.469C297.205 247.731 297.399 247.962 297.66 247.985C300.549 248.236 303.546 248.815 306.648 249.73L306.865 249.795L306.775 249.983C306.737 250.062 306.696 250.144 306.654 250.23L306.522 250.493C306.04 251.447 305.453 252.51 304.758 253.657C302.772 256.934 300.327 260.212 297.403 263.27C294.575 266.228 291.441 268.824 287.992 270.957C287.768 271.095 287.699 271.389 287.836 271.614C287.973 271.838 288.266 271.908 288.489 271.77C292.01 269.592 295.206 266.945 298.087 263.931C301.063 260.82 303.549 257.487 305.569 254.153C306.276 252.985 306.875 251.9 307.368 250.926L307.46 250.743C307.564 250.534 307.658 250.341 307.742 250.164L307.811 250.017C307.837 249.961 307.861 249.91 307.882 249.863L307.957 249.696L307.961 249.687C308.073 249.426 307.935 249.125 307.665 249.042C304.237 247.978 300.927 247.311 297.742 247.034Z" fill="#00BDC8"/>
<path fill-rule="evenodd" clip-rule="evenodd" d="M219.501 269.583C217.991 269.583 216.761 270.802 216.733 272.313L216.733 272.366V280.778C216.733 282.296 217.946 283.533 219.449 283.561L219.501 283.561L223.204 283.561L230.921 333.242C230.977 333.489 231.215 333.648 231.462 333.606L231.489 333.601C231.735 333.545 231.893 333.305 231.852 333.057L231.846 333.03L224.046 282.978C223.999 282.77 223.821 282.62 223.612 282.608L223.583 282.607H219.501C218.513 282.607 217.707 281.812 217.683 280.825L217.682 280.778V272.366C217.682 271.372 218.473 270.562 219.455 270.537L219.501 270.537H251.337C251.599 270.537 251.812 270.323 251.812 270.06C251.812 269.806 251.614 269.598 251.365 269.583L251.337 269.583H219.501Z" fill="#B5BDBF"/>
<path fill-rule="evenodd" clip-rule="evenodd" d="M249.813 269.599C249.551 269.599 249.338 269.812 249.338 270.076C249.338 270.33 249.536 270.537 249.785 270.552L249.813 270.553H286.231C287.219 270.553 288.025 271.348 288.05 272.335L288.051 272.381V280.794C288.051 281.787 287.26 282.598 286.277 282.622L286.231 282.623H282.419C282.207 282.623 282.022 282.764 281.963 282.966L281.956 282.994L270.581 333.215C270.523 333.472 270.683 333.727 270.938 333.786C271.185 333.842 271.43 333.695 271.5 333.454L271.507 333.426L282.797 283.577H286.231C287.742 283.577 288.972 282.358 288.999 280.846L289 280.794V272.381C289 270.863 287.787 269.627 286.283 269.599L286.231 269.599H249.813Z" fill="#B5BDBF"/>
<path fill-rule="evenodd" clip-rule="evenodd" d="M118.083 250.54C120.89 248.08 123.37 247.209 125.117 248.811C130.333 253.585 125.57 263.342 116.265 268.052L116.206 268.081L116.236 268.22C117.281 273.168 117.888 278.597 117.996 283.753L117.999 283.941L118.036 283.925C120.175 282.983 122.194 283.128 123.551 284.569L123.63 284.656C124.709 285.846 124.878 287.991 124.19 289.721C123.387 291.739 121.588 292.748 119.484 291.922L119.377 291.878C118.839 291.659 118.386 291.464 117.937 291.258L117.778 291.184L117.775 291.23C117.562 293.692 117.212 295.943 116.74 297.857L116.675 298.115C116.522 298.716 115.913 299.077 115.317 298.922C114.721 298.767 114.362 298.155 114.516 297.554C115.091 295.31 115.49 292.5 115.672 289.388C115.719 288.583 116.568 288.089 117.284 288.449L117.715 288.665C118.61 289.109 119.274 289.414 120.225 289.802C121.135 290.185 121.733 289.858 122.12 288.886C122.516 287.89 122.418 286.649 121.976 286.162C121.157 285.243 119.522 285.385 117.535 286.782C116.793 287.303 115.776 286.765 115.782 285.854C115.819 279.91 115.134 273.42 113.84 267.702C113.722 267.182 113.983 266.651 114.465 266.431C123.116 262.469 127.457 253.986 123.617 250.472C122.242 249.213 117.208 253.625 113.344 259.818C112.863 260.588 111.719 260.493 111.371 259.654C109.833 255.954 108.065 253.328 106.099 251.901C103.154 249.771 101.692 250.58 100.777 254.413C99.9231 257.99 99.9055 263.702 100.574 270.332C100.674 271.322 99.5404 271.944 98.7686 271.322C97.8116 270.552 96.8246 270.005 95.9012 269.78C93.6325 269.241 91.4583 272.481 92.2882 275.42C92.874 277.538 96.8805 278.273 99.8505 276.447C100.525 276.033 101.401 276.436 101.531 277.221C101.832 279.034 102.174 280.764 102.501 282.15L102.556 282.378L102.566 282.423C102.621 282.704 102.708 283.012 102.827 283.374C103.137 284.308 102.186 285.162 101.299 284.746C99.7941 284.042 98.6203 283.751 97.9892 283.9L97.9299 283.916C95.6154 284.534 93.2455 286.617 93.6061 288.325C94.1896 291.124 95.7158 292.223 98.7701 291.54C100.215 291.206 101.721 290.417 103.095 289.35C103.699 288.882 104.58 289.147 104.83 289.871C105.799 292.68 106.818 295.157 107.852 297.169C108.135 297.72 107.921 298.397 107.374 298.682C106.827 298.967 106.154 298.752 105.871 298.201C105.012 296.529 104.171 294.573 103.363 292.396L103.219 292.003L103.122 292.066C101.949 292.804 100.713 293.365 99.4686 293.679L99.261 293.73C94.9373 294.697 92.2528 292.763 91.4242 288.789C91.0398 286.968 91.8494 285.293 93.4263 283.907C94.5311 282.936 96.0091 282.139 97.1822 281.795L97.3272 281.754C98.0815 281.529 98.968 281.578 99.989 281.854L100.156 281.901L100.104 281.665L99.976 281.06C99.8692 280.546 99.7631 280.008 99.6595 279.452L99.5893 279.073L99.4816 279.115C95.6623 280.565 91.1685 279.394 90.1744 276.141L90.1415 276.028C88.8966 271.619 92.2588 266.608 96.42 267.596C96.9466 267.725 97.4692 267.918 97.9845 268.167L98.1468 268.247L98.1237 267.952L98.0771 267.316C97.7003 261.944 97.826 257.326 98.5645 254.078L98.6086 253.888C99.8591 248.65 103.013 246.904 107.402 250.079C109.323 251.474 110.997 253.689 112.461 256.652L112.585 256.906L112.714 256.72C114.336 254.402 116.163 252.263 117.885 250.716L118.083 250.54Z" fill="#0999A2"/>
<path fill-rule="evenodd" clip-rule="evenodd" d="M137.08 271.777L137.116 271.725C140.488 266.82 144.403 264.111 148.964 264.376L149.127 264.387L149.188 264.393C152.248 264.788 153.031 267.681 152.111 271.987C151.513 274.784 150.187 278.287 148.379 282.012L148.26 282.255L148.439 282.236C150.548 282.032 152.586 282.332 153.991 283.106L154.109 283.173C156.043 284.319 156.861 287.189 155.827 289.482C154.61 292.184 151.329 293.516 146.398 292.964C144.877 292.797 143.6 292.562 142.555 292.265L142.486 292.244L140.664 295.058L140.227 295.723C139.251 297.203 138.525 298.239 137.941 298.957C137.551 299.437 136.849 299.508 136.372 299.115C135.896 298.723 135.826 298.015 136.215 297.536L136.404 297.298C136.97 296.57 137.715 295.486 138.712 293.959L140.896 290.591C140.978 290.467 141.045 290.364 141.094 290.29C141.38 289.857 141.925 289.68 142.409 289.86C143.401 290.23 144.808 290.531 146.642 290.733C150.708 291.187 153.036 290.242 153.796 288.555C154.369 287.283 153.906 285.658 152.983 285.111C151.616 284.31 148.959 284.165 146.535 284.881C145.589 285.16 144.775 284.156 145.236 283.279C147.553 278.87 149.261 274.651 149.931 271.515C150.602 268.375 150.21 266.837 148.968 266.629L148.934 266.624L148.822 266.617C144.881 266.397 141.34 269.112 138.178 274.182L138.064 274.367C137.624 275.081 136.589 275.074 136.16 274.353C134.849 272.154 132.396 270.189 130.756 269.949C127.707 269.523 126.251 270.899 126.958 273.338C127.613 275.515 131.3 278.502 134.102 278.874C134.84 278.972 135.277 279.757 134.976 280.442C134.4 281.751 133.864 283.09 133.319 284.553L133.085 285.185C133.007 285.399 132.928 285.617 132.845 285.847L132.144 287.812C131.253 290.31 130.558 293.906 130.121 297.775C130.052 298.391 129.499 298.833 128.887 298.763C128.275 298.693 127.836 298.137 127.905 297.521C128.347 293.607 129.045 289.955 129.966 287.278L130.576 285.564C130.785 284.979 130.967 284.476 131.151 283.978L131.231 283.765C131.566 282.864 131.899 282.008 132.24 281.174L132.404 280.777L132.347 280.758C129.109 279.701 125.714 276.716 124.855 274.088L124.821 273.978C123.619 269.835 126.523 267.092 131.069 267.726C132.997 268.008 135.314 269.621 136.992 271.668L137.08 271.777Z" fill="#0999A2"/>
<path fill-rule="evenodd" clip-rule="evenodd" d="M146.147 297.087H93.8528C87.8478 297.087 83 301.967 83 308.012V308.985C83 323.898 95.0211 336 109.835 336H130.165C144.979 336 157 323.898 157 308.985V308.012C157 301.967 152.152 297.087 146.147 297.087ZM93.8529 299.332H146.147C150.921 299.332 154.77 303.207 154.77 308.012V308.985C154.77 322.658 143.747 333.755 130.165 333.755H109.835C96.2527 333.755 85.2301 322.658 85.2301 308.985V308.012C85.2301 303.207 89.0794 299.332 93.8529 299.332Z" fill="#DDDDDD"/>
<path fill-rule="evenodd" clip-rule="evenodd" d="M208.145 321.169C210.25 321.169 211.965 322.975 211.999 325.209L212 325.277V331.533C212 331.791 211.804 332 211.562 332C211.329 332 211.138 331.806 211.125 331.561L211.124 331.533V325.277C211.124 323.546 209.814 322.132 208.196 322.103L208.145 322.103H168.855C167.23 322.103 165.904 323.498 165.876 325.223L165.876 325.277V330.397C165.876 330.655 165.68 330.864 165.438 330.864C165.205 330.864 165.014 330.67 165.001 330.425L165 330.397V325.277C165 323.035 166.695 321.206 168.791 321.169L168.855 321.169H208.145Z" fill="#0999A2"/>
<path fill-rule="evenodd" clip-rule="evenodd" d="M199.155 265.366C197.354 266.166 195.791 267.734 194.533 270.166C192.482 274.134 190.78 279.989 189.421 287.029L189.379 287.242C188.422 292.243 187.701 297.573 187.396 301.114L187.385 301.239C187.251 302.824 187.279 305.09 187.436 307.868C187.514 309.252 187.622 310.719 187.752 312.228L187.795 312.716C187.867 313.526 187.942 314.31 188.017 315.056L188.084 315.708C188.106 315.914 188.127 316.107 188.146 316.285L188.189 316.671L188.204 316.807C188.227 317.002 188.362 317.162 188.543 317.205C189.734 317.49 191.431 316.275 193.59 313.944C195.185 312.221 196.959 309.933 198.294 307.966C200.597 304.595 208.521 286.791 211.244 278.75C212.037 276.405 212.159 274.27 211.71 272.352C211.343 270.789 210.616 269.439 209.636 268.294C209.128 267.701 208.585 267.2 208.041 266.789L207.992 266.752C207.719 266.548 207.496 266.404 207.346 266.317L207.329 266.309C207.25 266.256 207.109 266.168 206.911 266.056C206.585 265.874 206.216 265.692 205.809 265.522C203.619 264.609 201.321 264.404 199.155 265.366ZM205.489 266.391C205.865 266.548 206.205 266.716 206.503 266.883L206.602 266.939C206.634 266.958 206.664 266.975 206.692 266.992L206.791 267.053L206.876 267.108L206.946 267.149C206.97 267.163 206.999 267.18 207.033 267.202L207.06 267.219C207.202 267.31 207.361 267.42 207.534 267.55C208.029 267.925 208.526 268.382 208.989 268.923C209.876 269.96 210.531 271.176 210.86 272.578C211.267 274.313 211.155 276.259 210.42 278.434C207.723 286.398 199.831 304.131 197.585 307.418L197.487 307.562L197.302 307.831C194.277 312.205 190.665 316.127 189.03 316.308L188.987 315.901C188.97 315.742 188.952 315.573 188.933 315.396L188.888 314.955C188.798 314.066 188.709 313.119 188.624 312.142C188.495 310.643 188.388 309.185 188.31 307.812L188.294 307.521C188.154 304.919 188.133 302.796 188.257 301.323L188.279 301.072C188.584 297.608 189.281 292.461 190.204 287.607L190.238 287.429C191.588 280.379 193.281 274.523 195.301 270.616C196.465 268.363 197.881 266.943 199.492 266.228C201.416 265.374 203.492 265.558 205.489 266.391Z" fill="#0999A2"/>
<path fill-rule="evenodd" clip-rule="evenodd" d="M167.79 265.348C165.291 267.326 164.964 271.118 166.295 276.048C167.288 279.727 169.221 283.927 171.062 286.822L171.145 286.949C172.107 288.413 173.845 290.38 176.199 292.741C176.711 293.255 177.248 293.783 177.808 294.324C179.431 295.891 181.169 297.494 182.906 299.047L183.383 299.472C183.734 299.783 184.067 300.077 184.38 300.351L184.716 300.644L185.225 301.085C185.497 301.318 185.899 301.135 185.935 300.772L185.937 300.736L185.95 300.442L185.963 300.091C185.967 299.966 185.972 299.834 185.976 299.695L185.979 299.589C186.097 295.416 185.997 290.7 185.512 286.228L185.472 285.869C185.004 281.753 184.24 278.341 183.12 275.853C181.206 271.599 178.758 268.051 176.217 265.994C173.307 263.639 170.374 263.302 167.79 265.348ZM175.688 266.738C178.103 268.693 180.472 272.126 182.331 276.257C183.432 278.705 184.188 282.152 184.642 286.336C185.111 290.654 185.216 295.217 185.111 299.278L185.097 299.77L184.618 299.35C184.257 299.033 183.873 298.692 183.469 298.331C181.74 296.786 180.01 295.19 178.397 293.632C177.841 293.095 177.307 292.57 176.799 292.061L176.6 291.86C174.323 289.564 172.658 287.661 171.786 286.297C169.996 283.481 168.103 279.368 167.137 275.79C165.896 271.194 166.191 267.777 168.313 266.097C170.55 264.326 173.063 264.614 175.688 266.738Z" fill="#0999A2"/>
<path fill-rule="evenodd" clip-rule="evenodd" d="M172.781 300.442C170.183 302.485 169.162 306.166 170.394 310.308C171.602 314.367 174.789 317.204 179.276 318.994C182.298 320.199 185.792 320.829 187.891 320.842C188.153 320.844 188.356 320.603 188.33 320.33L188.317 320.241L188.29 320.068L188.254 319.843C188.236 319.737 188.217 319.625 188.197 319.505L188.132 319.129C188.021 318.503 187.892 317.818 187.743 317.088C187.255 314.682 186.662 312.275 185.962 310.026L185.876 309.752C184.538 305.529 182.977 302.393 181.15 300.755L181.091 300.703C178.608 298.526 175.259 298.494 172.781 300.442ZM180.535 301.424C182.263 302.938 183.807 306.069 185.13 310.32C185.819 312.534 186.405 314.91 186.887 317.286L186.986 317.778C187.102 318.37 187.206 318.928 187.295 319.443L187.364 319.844L187.372 319.893L187.285 319.888C185.25 319.773 182.224 319.173 179.583 318.119C175.324 316.42 172.343 313.767 171.229 310.026C170.108 306.255 171.012 302.993 173.301 301.194C175.461 299.496 178.366 299.524 180.535 301.424Z" fill="#0999A2"/>
<path fill-rule="evenodd" clip-rule="evenodd" d="M196.682 312.567C194.527 314.486 192.513 316.957 191.225 318.994C191.042 319.283 191.21 319.672 191.529 319.717L191.564 319.721L191.74 319.735L191.939 319.749C192.216 319.768 192.528 319.787 192.872 319.805L192.987 319.811C195.382 319.932 197.911 319.945 200.284 319.778C203.234 319.57 205.593 319.104 207.169 318.312L207.242 318.274C209.567 317.083 210.948 314.961 210.781 312.903C210.603 310.704 208.746 309.116 205.681 308.769C202.767 308.438 199.715 309.867 196.682 312.567ZM205.588 309.697C208.272 310.002 209.771 311.282 209.908 312.983C210.039 314.6 208.909 316.358 206.929 317.398L206.861 317.434C205.411 318.183 203.118 318.642 200.226 318.846C197.891 319.011 195.393 318.998 193.029 318.878L192.915 318.872C192.764 318.864 192.62 318.856 192.482 318.848L192.393 318.843L192.47 318.731C193.706 316.933 195.427 314.901 197.244 313.283C200.112 310.73 202.956 309.399 205.588 309.697Z" fill="#0999A2"/>
</svg>
