<svg width="1435" height="450" viewBox="0 0 1435 450" fill="none" xmlns="http://www.w3.org/2000/svg">
<path d="M1396.5 140.019C1390.21 149.406 1349.88 178.348 1330.5 191.646C1328.14 190.603 1322.8 187.892 1320.29 185.389C1317.14 182.26 1316.36 150.188 1317.14 140.019C1317.93 129.85 1330.5 71.9652 1335.21 57.885C1339.93 43.8049 1365.07 10.9512 1378.43 3.91114C1391.79 -3.12893 1410.64 6.25783 1416.14 7.82229C1421.64 9.38675 1426.36 23.4669 1430.29 32.8536C1434.21 42.2404 1431.86 65.7073 1430.29 75.0941C1428.71 84.4808 1404.36 128.286 1396.5 140.019Z" fill="#BAE0DD"/>
<path d="M1277.07 226.064C1278.33 235.451 1275.5 239.884 1273.93 240.927C1269.21 240.405 1258.53 238.893 1253.5 237.016C1247.21 234.669 1222.86 218.242 1219.71 215.895C1216.57 213.549 1185.14 183.824 1182 180.695C1178.86 177.566 1167.86 155.664 1165.5 149.406C1163.14 143.148 1162.36 129.068 1162.36 121.246C1162.36 113.423 1171.79 100.908 1175.71 97.7787C1179.64 94.6498 1189.86 93.8676 1196.93 94.6498C1204 95.432 1218.14 105.601 1224.43 110.294C1230.71 114.988 1238.57 125.939 1244.86 133.761C1251.14 141.584 1260.57 165.05 1264.5 174.437C1268.43 183.824 1275.5 214.331 1277.07 226.064Z" fill="#BAE0DD"/>
<path fill-rule="evenodd" clip-rule="evenodd" d="M1161.58 116.006C1155.76 138.45 1166.06 167.619 1191.78 193.343L1192.57 194.121C1211.92 213.225 1228.54 226.421 1242.6 234.612L1243.64 235.214C1253.68 240.937 1261.68 243.675 1267.78 244.214C1270.72 244.498 1273.62 243.565 1275.95 241.632C1278.72 239.243 1280.14 235.768 1279.77 232.219L1279.73 231.946C1273.06 171.417 1245.34 116.681 1207.34 96.5528C1186.5 85.4918 1167.18 94.4327 1161.58 116.006ZM1205.19 100.595C1241.25 119.697 1268.11 172.211 1274.98 230.72L1275.18 232.495C1275.46 234.637 1274.64 236.709 1272.98 238.14C1271.61 239.278 1269.92 239.821 1268.2 239.655C1262.6 239.161 1254.89 236.471 1244.91 230.659C1231.37 222.768 1215.26 210.01 1196.44 191.506L1195.79 190.866C1170.58 166.021 1160.59 138.104 1166.02 117.154C1170.89 98.4031 1187 90.9451 1205.19 100.595Z" fill="#BAE0DD"/>
<path fill-rule="evenodd" clip-rule="evenodd" d="M1171.6 101.924C1172.45 101.061 1173.83 101.019 1174.73 101.804L1174.92 101.98L1176.11 103.174C1177.04 104.113 1178.11 105.199 1179.3 106.425L1180.76 107.938C1184.29 111.599 1188.16 115.717 1192.3 120.24C1205.38 134.521 1218.46 149.9 1230.67 165.798C1245.3 184.845 1257.68 203.355 1267.11 220.861C1270.07 226.36 1272.72 231.73 1275.05 236.962C1275.56 238.118 1275.04 239.47 1273.88 239.982C1272.72 240.495 1271.36 239.973 1270.85 238.818C1268.57 233.695 1265.97 228.427 1263.07 223.027C1253.77 205.762 1241.52 187.449 1227.03 168.582C1215.34 153.362 1202.84 138.61 1190.31 124.852L1188.92 123.328C1184.58 118.598 1180.55 114.315 1176.9 110.541L1175.31 108.899C1174.86 108.435 1174.43 107.995 1174.01 107.577L1172.2 105.745L1171.61 105.161C1170.71 104.272 1170.71 102.822 1171.6 101.924Z" fill="#F7FAFA"/>
<path fill-rule="evenodd" clip-rule="evenodd" d="M1185.84 177.618L1186.78 177.602C1188.31 177.589 1190.29 177.627 1192.67 177.744L1193.12 177.767C1197.4 177.991 1202.07 178.432 1207.04 179.14C1220.66 181.079 1234.45 184.693 1247.7 190.392C1248.87 190.893 1249.4 192.239 1248.9 193.4C1248.4 194.561 1247.05 195.097 1245.89 194.596C1233.03 189.069 1219.64 185.556 1206.39 183.671C1201.56 182.984 1197.03 182.556 1192.88 182.338L1192.02 182.296C1189.93 182.199 1188.18 182.168 1186.83 182.179L1186 182.193C1184.73 182.236 1183.67 181.246 1183.63 179.983C1183.59 178.72 1184.58 177.661 1185.84 177.618Z" fill="#F7FAFA"/>
<path fill-rule="evenodd" clip-rule="evenodd" d="M1218.9 108.483C1220.01 107.862 1221.41 108.251 1222.03 109.352L1222.68 110.526C1222.92 110.957 1223.18 111.435 1223.47 111.957L1224.28 113.446C1225.2 115.151 1226.19 117.018 1227.25 119.028C1231.15 126.493 1235.06 134.404 1238.7 142.418C1241.59 148.759 1244.19 154.908 1246.45 160.777L1246.93 162.043C1253.13 178.421 1256.23 191.638 1255.35 200.8C1255.23 202.058 1254.11 202.98 1252.85 202.86C1251.59 202.739 1250.66 201.622 1250.78 200.363C1251.6 191.874 1248.45 178.757 1242.17 162.416C1239.95 156.638 1237.38 150.572 1234.53 144.31C1230.92 136.379 1227.05 128.541 1223.18 121.146L1222.26 119.393C1221.55 118.061 1220.88 116.801 1220.24 115.621L1219.27 113.845L1218.17 111.847C1218.11 111.738 1218.06 111.656 1218.03 111.601C1217.41 110.5 1217.8 109.104 1218.9 108.483Z" fill="#F7FAFA"/>
<path fill-rule="evenodd" clip-rule="evenodd" d="M1221.42 212.036L1221.6 212.026L1222.78 212.004C1225.47 211.977 1228.9 212.081 1232.83 212.408C1239.29 212.946 1245.68 213.987 1251.68 215.655C1257.42 217.25 1262.56 219.36 1266.96 222.054C1268.04 222.715 1268.38 224.125 1267.71 225.202C1267.05 226.279 1265.64 226.616 1264.56 225.955C1260.56 223.503 1255.8 221.552 1250.45 220.064C1244.76 218.481 1238.64 217.486 1232.45 216.97C1228.5 216.642 1225.09 216.547 1222.49 216.585L1221.72 216.602C1220.45 216.649 1219.39 215.663 1219.34 214.4C1219.3 213.182 1220.21 212.151 1221.42 212.036Z" fill="#F7FAFA"/>
<path fill-rule="evenodd" clip-rule="evenodd" d="M1392.3 0.0409237C1366.4 1.1819 1342.11 25.3656 1329.4 67.6521L1329.02 68.939L1328.43 70.9535C1319.62 101.389 1315.06 126.49 1314 146.769L1313.97 147.436C1313.22 162.937 1314.56 174.431 1317.19 182.447C1318.34 185.986 1320.57 189.001 1323.52 190.965C1327.28 193.492 1331.63 193.937 1335.16 191.977C1393.25 160.46 1434.34 104.76 1434.99 49.3146C1435.38 19.4146 1416.85 -1.04055 1392.3 0.0409237ZM1430.41 49.2582C1429.77 102.863 1389.71 157.168 1332.95 187.966C1331.01 189.043 1328.49 188.785 1326.08 187.164C1323.99 185.775 1322.39 183.61 1321.55 181.029C1319.11 173.567 1317.83 162.626 1318.55 147.657L1318.62 146.344C1319.73 126.329 1324.32 101.457 1333.13 71.2219L1333.42 70.2232C1339.75 48.6035 1348.99 31.8895 1360.23 20.5788C1370.25 10.5001 1381.54 5.09713 1392.5 4.61411C1414.27 3.6552 1430.76 21.8581 1430.41 49.2582Z" fill="#BAE0DD"/>
<path fill-rule="evenodd" clip-rule="evenodd" d="M1410.97 10.1881C1412.09 9.59332 1413.48 10.0155 1414.08 11.1309C1414.67 12.2464 1414.25 13.6328 1413.13 14.2275C1389.59 26.7524 1370.04 56.7805 1354.39 98.9811C1346.91 119.136 1340.81 140.75 1335.99 162.366L1335.54 164.416C1334.2 170.525 1333.05 176.261 1332.08 181.524L1331.76 183.261C1331.47 184.914 1331.2 186.427 1330.97 187.79L1330.55 190.413L1330.43 191.152C1330.25 192.402 1329.08 193.265 1327.82 193.08C1326.62 192.901 1325.77 191.812 1325.88 190.613L1325.91 190.376L1326.18 188.66L1326.37 187.49C1326.57 186.291 1326.8 184.973 1327.05 183.543L1327.25 182.45C1328.4 176.088 1329.81 169.002 1331.51 161.372C1336.37 139.568 1342.53 117.762 1350.08 97.3919C1366.1 54.2278 1386.17 23.3794 1410.97 10.1881Z" fill="#F7FAFA"/>
<path fill-rule="evenodd" clip-rule="evenodd" d="M1428.71 56.1983C1429.87 55.6855 1431.22 56.2064 1431.74 57.3618C1432.25 58.5173 1431.73 59.8696 1430.57 60.3824C1418.84 65.5761 1405.35 72.0896 1392.28 79.2555L1390.95 79.9883C1372.65 90.1132 1358.59 99.7638 1350.73 108.288C1349.87 109.218 1348.42 109.278 1347.49 108.422C1346.55 107.566 1346.49 106.118 1347.35 105.188C1355.73 96.1065 1370.36 86.1002 1389.38 75.6229L1390.07 75.244C1403.26 68.0073 1416.87 61.4403 1428.71 56.1983Z" fill="#F7FAFA"/>
<path fill-rule="evenodd" clip-rule="evenodd" d="M1332.07 68.6836C1332.19 67.4249 1333.31 66.4994 1334.57 66.6164C1335.83 66.7334 1336.76 67.8486 1336.64 69.1072L1336.47 71.005C1333.71 101.877 1334.51 126.561 1340.92 134.954C1341.69 135.959 1341.5 137.395 1340.49 138.161C1339.48 138.927 1338.04 138.733 1337.27 137.728C1332.97 132.1 1330.92 121.265 1330.5 106.171C1330.2 94.914 1330.83 82.0503 1332.07 68.6836Z" fill="#F7FAFA"/>
<path fill-rule="evenodd" clip-rule="evenodd" d="M1404.12 123.415C1405.11 122.625 1406.55 122.784 1407.34 123.771C1408.13 124.758 1407.98 126.198 1406.99 126.988C1399.86 132.679 1389.59 138.563 1376.97 144.512C1368.2 148.642 1358.82 152.561 1349.45 156.146L1347.95 156.716C1345.48 157.65 1343.16 158.504 1341.02 159.273L1339.03 159.982L1336.93 160.711C1335.73 161.116 1334.42 160.474 1334.02 159.277C1333.63 158.122 1334.21 156.873 1335.33 156.422L1337.82 155.552L1338.84 155.191C1341.54 154.225 1344.56 153.114 1347.81 151.872C1357.08 148.325 1366.36 144.449 1375.01 140.373C1387.33 134.563 1397.33 128.839 1404.12 123.415Z" fill="#F7FAFA"/>
<path fill-rule="evenodd" clip-rule="evenodd" d="M1363.68 227.598C1364.94 227.492 1366.05 228.427 1366.16 229.687C1366.27 230.946 1365.33 232.054 1364.07 232.16C1352.66 233.119 1342.98 238.126 1334.84 246.337C1328.6 252.631 1323.69 260.367 1320.01 268.58C1319.49 269.734 1318.13 270.251 1316.98 269.735C1315.82 269.219 1315.3 267.865 1315.82 266.711C1319.71 258.034 1324.91 249.848 1331.58 243.119C1340.44 234.174 1351.11 228.655 1363.68 227.598Z" fill="#BAE0DD"/>
<path fill-rule="evenodd" clip-rule="evenodd" d="M1364.83 228.88C1367.51 228.512 1368.78 221.682 1367.67 213.625C1366.55 205.569 1363.48 199.336 1360.8 199.703C1358.13 200.071 1356.86 206.901 1357.97 214.958C1359.08 223.014 1362.15 229.247 1364.83 228.88Z" fill="#FFE0CD"/>
<path fill-rule="evenodd" clip-rule="evenodd" d="M1378.17 223.814C1383.97 219.11 1387.42 213.759 1385.88 211.862C1384.33 209.966 1378.38 212.242 1372.58 216.947C1366.77 221.651 1363.32 227.003 1364.87 228.899C1366.42 230.796 1372.37 228.519 1378.17 223.814Z" fill="#FFE0CD"/>
<path fill-rule="evenodd" clip-rule="evenodd" d="M1364.82 228.505C1366.06 226.109 1361.19 221.142 1353.95 217.41C1346.71 213.678 1339.83 212.595 1338.59 214.991C1337.35 217.387 1342.21 222.355 1349.46 226.087C1356.7 229.819 1363.58 230.901 1364.82 228.505Z" fill="#FFE0CD"/>
<path fill-rule="evenodd" clip-rule="evenodd" d="M1388.68 241.78C1389.84 239.63 1385.46 235.012 1378.88 231.467C1372.3 227.921 1366.03 226.79 1364.86 228.94C1363.7 231.09 1368.09 235.708 1374.66 239.253C1381.24 242.799 1387.52 243.93 1388.68 241.78Z" fill="#FFE0CD"/>
<path fill-rule="evenodd" clip-rule="evenodd" d="M1363.11 243.019C1366.25 236.251 1367 229.932 1364.77 228.905C1362.55 227.878 1358.2 232.533 1355.06 239.301C1351.92 246.07 1351.18 252.389 1353.4 253.416C1355.62 254.442 1359.97 249.788 1363.11 243.019Z" fill="#FFE0CD"/>
<path fill-rule="evenodd" clip-rule="evenodd" d="M1240.94 54.8864C1241.73 53.8951 1243.17 53.7274 1244.17 54.5117L1244.44 54.7372C1244.56 54.8348 1244.71 54.9551 1244.87 55.098L1245.3 55.4645C1245.75 55.8482 1246.23 56.2837 1246.77 56.7712C1248.78 58.6148 1251.02 60.836 1253.43 63.44C1260.29 70.8549 1267.13 79.8613 1273.52 90.4998C1285.38 110.257 1294.26 133.335 1298.97 159.829C1304.74 192.315 1303.92 228.411 1295.3 268.205C1295.04 269.44 1293.81 270.226 1292.58 269.959C1291.34 269.692 1290.55 268.474 1290.82 267.239C1299.31 228.019 1300.12 192.523 1294.45 160.628C1289.85 134.697 1281.16 112.143 1269.58 92.8516C1263.36 82.4916 1256.71 73.7349 1250.06 66.5437C1247.74 64.0354 1245.59 61.9043 1243.67 60.1455L1243.18 59.7045C1242.71 59.2805 1242.28 58.9079 1241.9 58.5863L1241.41 58.1726C1241.37 58.1434 1241.34 58.1197 1241.32 58.1016C1240.32 57.3173 1240.16 55.8778 1240.94 54.8864Z" fill="#BAE0DD"/>
<path fill-rule="evenodd" clip-rule="evenodd" d="M1249.42 61.0487C1254.02 58.3718 1253.32 48.6498 1247.87 39.3342C1242.42 30.0185 1234.28 24.6367 1229.68 27.3136C1225.08 29.9906 1225.78 39.7125 1231.23 49.0282C1236.68 58.3438 1244.83 63.7256 1249.42 61.0487Z" fill="#FFE0CD"/>
<path fill-rule="evenodd" clip-rule="evenodd" d="M1250.61 60.9392C1250.72 55.631 1242.04 51.1538 1231.23 50.939C1220.42 50.7242 1211.57 54.8532 1211.46 60.1614C1211.36 65.4696 1220.04 69.9469 1230.85 70.1617C1241.66 70.3764 1250.51 66.2474 1250.61 60.9392Z" fill="#FFE0CD"/>
<path fill-rule="evenodd" clip-rule="evenodd" d="M1268.06 52.5773C1273.9 44.8858 1275.58 36.3406 1271.81 33.4911C1268.03 30.6416 1260.24 34.5668 1254.4 42.2583C1248.56 49.9498 1246.89 58.495 1250.66 61.3445C1254.43 64.194 1262.22 60.2688 1268.06 52.5773Z" fill="#FFE0CD"/>
<path fill-rule="evenodd" clip-rule="evenodd" d="M1258.73 89.023C1263.03 87.0697 1263.28 78.3655 1259.27 69.5817C1255.27 60.7979 1248.53 55.2607 1244.23 57.2141C1239.92 59.1674 1239.68 67.8716 1243.68 76.6554C1247.68 85.4392 1254.42 90.9764 1258.73 89.023Z" fill="#FFE0CD"/>
<path fill-rule="evenodd" clip-rule="evenodd" d="M1273.94 62.5452C1274.39 58.3127 1267.71 54.1378 1259.01 53.2202C1250.32 52.3027 1242.91 54.9899 1242.46 59.2223C1242.01 63.4547 1248.69 67.6296 1257.39 68.5472C1266.08 69.4648 1273.49 66.7776 1273.94 62.5452Z" fill="#FFE0CD"/>
<path fill-rule="evenodd" clip-rule="evenodd" d="M1385.21 265.738H1222.63C1213.01 265.738 1206.25 276.19 1208.61 286.688L1244.56 447.21C1244.79 448.256 1245.72 449 1246.79 449H1360.97C1362.04 449 1362.97 448.256 1363.21 447.21L1399.15 286.684C1401.51 276.206 1394.76 265.738 1385.21 265.738ZM1385.21 270.316L1385.41 270.318C1391.67 270.475 1396.42 277.944 1394.67 285.683L1359.13 444.422H1248.63L1213.09 285.686C1211.32 277.849 1216.2 270.316 1222.63 270.316H1385.21Z" fill="#F3EBE5"/>
<path d="M1395.71 285.514L1359.57 444.307L1248 445.089L1210.29 283.949C1210.29 282.124 1210.76 277.535 1212.64 273.781C1214.53 270.026 1218.14 268.566 1219.71 268.305H1384.71C1392.57 269.087 1392.57 272.216 1395.71 276.909C1398.23 280.664 1396.76 284.21 1395.71 285.514Z" fill="#F4EEEA"/>
<path fill-rule="evenodd" clip-rule="evenodd" d="M1215.54 207.441C1203.41 207.592 1192.45 209.167 1182.58 212.042C1181.96 212.224 1181.6 212.878 1181.78 213.503C1181.97 214.127 1182.62 214.486 1183.24 214.305C1192.57 211.587 1202.9 210.054 1214.34 209.817L1214.64 209.811L1214.7 210.079C1214.91 211.043 1215.12 212.166 1215.32 213.438C1216.89 223.518 1216.65 235.204 1213.36 247.422C1213.19 248.051 1213.56 248.697 1214.19 248.866C1214.82 249.036 1215.46 248.663 1215.63 248.035C1218.98 235.617 1219.25 223.741 1217.7 213.442L1217.64 213.075C1217.44 211.755 1217.22 210.584 1216.99 209.574L1216.93 209.28C1216.9 209.139 1216.87 209.006 1216.84 208.881L1216.71 208.371C1216.7 208.345 1216.7 208.323 1216.69 208.306C1216.55 207.789 1216.08 207.434 1215.54 207.441Z" fill="#00BDC8"/>
<path fill-rule="evenodd" clip-rule="evenodd" d="M1184.15 212.848C1184.04 212.208 1183.42 211.782 1182.78 211.896C1182.15 212.01 1181.72 212.622 1181.83 213.263C1184.09 225.908 1183.91 238.209 1181.6 250.256C1181.48 250.895 1181.9 251.512 1182.54 251.634C1183.17 251.757 1183.79 251.338 1183.91 250.699C1186.27 238.376 1186.46 225.785 1184.15 212.848Z" fill="#00BDC8"/>
<path fill-rule="evenodd" clip-rule="evenodd" d="M1146.48 141.397C1146.12 140.991 1145.53 140.883 1145.05 141.135L1144.86 141.239C1144.71 141.321 1144.53 141.419 1144.33 141.533L1143.98 141.736C1143.55 141.981 1143.08 142.259 1142.57 142.568L1142.35 142.703C1140.22 143.999 1137.85 145.562 1135.3 147.396C1128.03 152.632 1120.76 158.991 1113.97 166.503C1109.75 171.175 1105.85 176.16 1102.33 181.461C1101.97 182.003 1102.11 182.734 1102.66 183.094C1103.2 183.454 1103.93 183.307 1104.29 182.765C1107.74 177.564 1111.57 172.671 1115.72 168.084C1122.39 160.702 1129.53 154.452 1136.68 149.309C1139.06 147.597 1141.27 146.127 1143.27 144.898L1143.57 144.715C1144.08 144.406 1144.55 144.129 1144.97 143.883L1145.34 143.667L1145.35 143.672C1165.78 166.973 1177.53 189.994 1181.71 212.572L1181.83 213.263C1181.95 213.903 1182.56 214.33 1183.2 214.215C1183.84 214.101 1184.27 213.489 1184.15 212.849C1179.96 189.375 1167.79 165.492 1146.48 141.397Z" fill="#00BDC8"/>
<path fill-rule="evenodd" clip-rule="evenodd" d="M1040.9 232.193C1027.14 226.407 1011.16 225.853 992.834 231.445C992.3 231.608 991.954 232.123 992.005 232.679L992.029 232.916L992.086 233.432L992.153 233.985C992.23 234.608 992.326 235.306 992.442 236.074C992.844 238.749 993.399 241.728 994.134 244.934C996.428 255.497 1012.86 295.412 1017.56 303.737C1017.85 304.318 1018.56 304.551 1019.14 304.258C1019.72 303.964 1019.95 303.256 1019.66 302.675C1015.43 294.298 998.487 253.395 996.428 244.408C995.708 241.262 995.163 238.342 994.77 235.724L994.691 235.188C994.628 234.752 994.572 234.342 994.522 233.96L994.455 233.418L994.586 233.379C1011.77 228.338 1026.71 228.897 1039.59 234.2L1039.99 234.365C1050.86 238.937 1059.9 246.743 1067.28 256.884C1071.6 262.815 1075.07 269.176 1077.78 275.537C1078.73 277.762 1079.51 279.827 1080.14 281.677L1080.28 282.097C1080.42 282.505 1080.54 282.88 1080.64 283.219L1080.78 283.668L1080.87 283.971C1081.04 284.598 1081.69 284.967 1082.32 284.794C1082.94 284.621 1083.31 283.973 1083.14 283.346L1083.04 282.999C1083.01 282.907 1082.98 282.806 1082.95 282.697L1082.84 282.342C1082.7 281.915 1082.55 281.439 1082.37 280.919C1081.72 279.014 1080.92 276.894 1079.95 274.613C1077.17 268.098 1073.61 261.583 1069.18 255.497C1061.57 245.032 1052.2 236.947 1040.9 232.193Z" fill="#00BDC8"/>
<path fill-rule="evenodd" clip-rule="evenodd" d="M1060.68 146.077C1060.23 145.807 1059.66 145.866 1059.27 146.222L1059.14 146.342L1058.89 146.589C1058.63 146.846 1058.33 147.147 1057.99 147.489L1057.85 147.639C1056.74 148.792 1055.51 150.16 1054.18 151.74C1050.39 156.243 1046.61 161.541 1043.07 167.601C1039.31 174.067 1015.99 219.6 1013.77 227.772C1013.55 228.386 1013.88 229.058 1014.49 229.272C1015.1 229.486 1015.77 228.386 1015.99 227.772C1018.53 220.473 1041.41 175.127 1045.11 168.788C1048.57 162.849 1052.27 157.661 1055.98 153.257L1056.46 152.69C1057.49 151.483 1058.46 150.414 1059.34 149.485L1059.55 149.274C1059.69 149.128 1059.82 148.99 1059.95 148.86L1060.24 148.565L1060.68 148.835C1080.3 160.816 1095.77 174.219 1107.42 188.832L1107.78 189.284C1118.33 202.624 1125.57 216.78 1129.88 231.527C1130.06 232.152 1130.71 232.51 1131.34 232.328C1131.96 232.146 1132.32 231.492 1132.14 230.867C1122.72 198.58 1099.86 169.678 1060.68 146.077Z" fill="#00BDC8"/>
<path fill-rule="evenodd" clip-rule="evenodd" d="M1081.88 195.733C1067.79 212.729 1059.68 228.924 1056.83 244.294C1056.72 244.934 1057.14 245.549 1057.78 245.667C1058.42 245.786 1059.03 245.363 1059.15 244.724C1061.86 230.072 1069.53 214.571 1082.87 198.238L1083.11 197.94L1083.56 198.153C1083.88 198.308 1084.22 198.476 1084.58 198.657L1085.03 198.881L1085.73 199.235C1087.74 200.256 1089.94 201.434 1092.29 202.766C1099.8 207.019 1107.31 211.945 1114.32 217.48C1128.54 228.717 1138.81 240.975 1143.44 254.006C1149.15 270.072 1146 286.556 1132.21 303.41C1131.8 303.913 1131.88 304.656 1132.38 305.068C1132.88 305.48 1133.62 305.406 1134.04 304.902C1148.33 287.421 1151.65 270.075 1145.66 253.216C1140.85 239.697 1130.32 227.118 1115.78 215.631C1108.67 210.014 1101.06 205.024 1093.45 200.715L1092.61 200.245C1090.27 198.932 1088.08 197.774 1086.09 196.776L1085.63 196.547C1085.18 196.325 1084.77 196.122 1084.39 195.938L1083.9 195.702L1083.27 195.412C1082.79 195.193 1082.22 195.324 1081.88 195.733Z" fill="#00BDC8"/>
<path fill-rule="evenodd" clip-rule="evenodd" d="M1214.56 247.262C1188.13 244.933 1164.43 252.677 1143.59 267.868C1135.58 273.707 1128.31 280.429 1121.8 287.712C1116.91 293.18 1112.8 298.56 1109.47 303.54C1109.11 304.081 1109.25 304.812 1109.79 305.174C1110.33 305.536 1111.06 305.391 1111.43 304.85C1114.7 299.958 1118.74 294.665 1123.55 289.283C1129.96 282.118 1137.11 275.508 1144.98 269.773C1165.39 254.897 1188.53 247.334 1214.35 249.609C1215 249.666 1215.57 249.187 1215.63 248.539C1215.69 247.891 1215.21 247.319 1214.56 247.262Z" fill="#00BDC8"/>
<path fill-rule="evenodd" clip-rule="evenodd" d="M1214.56 247.262C1213.91 247.206 1213.34 247.686 1213.29 248.334C1213.23 248.982 1213.71 249.553 1214.36 249.609C1221.52 250.228 1228.95 251.66 1236.65 253.919L1237.19 254.078L1236.96 254.543C1236.87 254.739 1236.77 254.941 1236.66 255.151L1236.33 255.803C1235.14 258.157 1233.68 260.784 1231.96 263.614C1227.04 271.706 1220.97 279.8 1213.72 287.352C1206.71 294.656 1198.93 301.065 1190.38 306.333C1189.83 306.674 1189.65 307.4 1189.99 307.954C1190.33 308.508 1191.06 308.681 1191.61 308.34C1200.34 302.963 1208.27 296.426 1215.42 288.984C1222.8 281.301 1228.96 273.071 1233.97 264.839C1235.72 261.956 1237.21 259.277 1238.43 256.871L1238.66 256.419C1238.92 255.904 1239.15 255.426 1239.36 254.99L1239.53 254.626C1239.6 254.489 1239.65 254.362 1239.71 254.246L1239.89 253.834L1239.9 253.812C1240.18 253.169 1239.84 252.425 1239.17 252.218C1230.67 249.591 1222.46 247.944 1214.56 247.262Z" fill="#00BDC8"/>
<path fill-rule="evenodd" clip-rule="evenodd" d="M1020.52 302.939C1016.78 302.939 1013.73 305.949 1013.66 309.681L1013.66 309.81V330.583C1013.66 334.332 1016.67 337.385 1020.39 337.454L1020.52 337.455L1029.71 337.454L1048.84 460.127C1048.98 460.739 1049.57 461.13 1050.18 461.028L1050.25 461.015C1050.86 460.875 1051.25 460.283 1051.15 459.673L1051.14 459.605L1031.79 336.015C1031.68 335.502 1031.24 335.132 1030.72 335.101L1030.65 335.099H1020.52C1018.07 335.099 1016.07 333.136 1016.01 330.698L1016.01 330.583V309.81C1016.01 307.358 1017.97 305.357 1020.41 305.296L1020.52 305.295H1099.48C1100.13 305.295 1100.65 304.767 1100.65 304.117C1100.65 303.489 1100.16 302.977 1099.55 302.941L1099.48 302.939H1020.52Z" fill="#B5BDBF"/>
<path fill-rule="evenodd" clip-rule="evenodd" d="M1095.7 302.978C1095.05 302.978 1094.52 303.505 1094.52 304.156C1094.52 304.783 1095.01 305.296 1095.63 305.332L1095.7 305.334H1186.01C1188.46 305.334 1190.46 307.297 1190.52 309.735L1190.53 309.85V330.622C1190.53 333.075 1188.56 335.076 1186.13 335.137L1186.01 335.138H1176.56C1176.03 335.138 1175.57 335.486 1175.43 335.985L1175.41 336.054L1147.2 460.061C1147.06 460.695 1147.45 461.327 1148.09 461.471C1148.7 461.61 1149.31 461.246 1149.48 460.651L1149.5 460.584L1177.5 337.494H1186.01C1189.76 337.494 1192.81 334.484 1192.88 330.751L1192.88 330.622V309.85C1192.88 306.101 1189.87 303.048 1186.14 302.979L1186.01 302.978H1095.7Z" fill="#B5BDBF"/>
<path fill-rule="evenodd" clip-rule="evenodd" d="M999.897 427.108C1004.87 427.108 1008.92 431.093 1009 436.021L1009 436.171V449.97C1009 450.539 1008.54 451 1007.97 451C1007.41 451 1006.96 450.571 1006.93 450.031L1006.93 449.97V436.171C1006.93 432.351 1003.84 429.233 1000.02 429.169L999.897 429.168H907.103C903.266 429.168 900.134 432.247 900.07 436.051L900.069 436.171V447.464C900.069 448.033 899.606 448.494 899.034 448.494C898.484 448.494 898.033 448.065 898.002 447.525L898 447.464V436.171C898 431.224 902.003 427.189 906.953 427.109L907.103 427.108H999.897Z" fill="#0999A2"/>
<path fill-rule="evenodd" clip-rule="evenodd" d="M978.664 304.013C974.41 305.778 970.718 309.237 967.749 314.601C962.904 323.354 958.886 336.269 955.674 351.798L955.577 352.27C953.315 363.3 951.613 375.058 950.892 382.868L950.867 383.145C950.55 386.641 950.617 391.64 950.987 397.768C951.172 400.82 951.426 404.057 951.734 407.385L951.835 408.462C952.005 410.247 952.182 411.978 952.36 413.623L952.519 415.062C952.57 415.516 952.618 415.941 952.664 416.334L952.765 417.185L952.801 417.485C952.854 417.917 953.175 418.269 953.601 418.364C956.415 418.993 960.422 416.313 965.521 411.17C969.288 407.37 973.479 402.323 976.632 397.984C982.071 390.548 1000.79 351.273 1007.21 333.538C1009.09 328.363 1009.38 323.655 1008.31 319.423C1007.45 315.977 1005.73 312.998 1003.42 310.472C1002.22 309.163 1000.93 308.059 999.65 307.152L999.534 307.07C998.889 306.62 998.364 306.302 998.01 306.111L997.969 306.093C997.783 305.975 997.449 305.781 996.981 305.536C996.212 305.133 995.339 304.732 994.378 304.357C989.206 302.342 983.779 301.892 978.664 304.013ZM993.624 306.275C994.511 306.621 995.314 306.99 996.018 307.359L996.252 307.484C996.326 307.524 996.397 307.563 996.465 307.601L996.699 307.735L996.899 307.855L997.065 307.945C997.121 307.976 997.189 308.015 997.27 308.063L997.333 308.1C997.669 308.3 998.045 308.544 998.453 308.832C999.623 309.658 1000.8 310.666 1001.89 311.859C1003.98 314.147 1005.53 316.829 1006.31 319.922C1007.27 323.75 1007 328.042 1005.27 332.839C998.9 350.407 980.26 389.524 974.957 396.774L974.724 397.093L974.289 397.685C967.145 407.334 958.612 415.986 954.753 416.385L954.649 415.488C954.609 415.137 954.567 414.764 954.524 414.373L954.417 413.402C954.204 411.439 953.993 409.352 953.794 407.197C953.489 403.889 953.235 400.673 953.052 397.644L953.014 397.002C952.683 391.262 952.633 386.579 952.927 383.33L952.978 382.777C953.698 375.134 955.345 363.782 957.524 353.073L957.604 352.682C960.794 337.129 964.791 324.213 969.561 315.595C972.312 310.625 975.655 307.492 979.46 305.915C984.003 304.03 988.906 304.437 993.624 306.275Z" fill="#0999A2"/>
<path fill-rule="evenodd" clip-rule="evenodd" d="M904.59 303.973C898.687 308.338 897.914 316.702 901.057 327.577C903.403 335.691 907.969 344.957 912.316 351.342L912.512 351.624C914.784 354.852 918.89 359.192 924.448 364.399C925.658 365.532 926.927 366.697 928.249 367.89C932.081 371.348 936.186 374.884 940.29 378.309L941.416 379.246C942.244 379.933 943.031 380.581 943.771 381.186L944.563 381.832L945.765 382.804C946.407 383.318 947.357 382.915 947.442 382.114L947.448 382.035L947.478 381.386L947.509 380.612C947.519 380.338 947.529 380.046 947.538 379.739L947.546 379.505C947.826 370.3 947.59 359.896 946.444 350.033L946.35 349.24C945.244 340.16 943.438 332.634 940.795 327.147C936.274 317.763 930.492 309.935 924.492 305.399C917.618 300.203 910.691 299.461 904.59 303.973ZM923.241 307.04C928.946 311.353 934.539 318.925 938.929 328.038C941.531 333.438 943.317 341.042 944.389 350.27C945.495 359.796 945.744 369.86 945.496 378.82L945.463 379.903L944.332 378.978C943.48 378.278 942.572 377.526 941.619 376.731C937.534 373.322 933.449 369.802 929.639 366.364C928.326 365.18 927.066 364.023 925.866 362.899L925.395 362.456C920.019 357.391 916.086 353.193 914.028 350.184C909.798 343.972 905.327 334.9 903.046 327.008C900.116 316.869 900.812 309.332 905.824 305.626C911.108 301.718 917.042 302.354 923.241 307.04Z" fill="#0999A2"/>
<path fill-rule="evenodd" clip-rule="evenodd" d="M916.377 381.388C910.24 385.894 907.829 394.013 910.738 403.15C913.593 412.105 921.118 418.362 931.715 422.31C938.852 424.969 947.104 426.357 952.063 426.387C952.681 426.391 953.159 425.86 953.098 425.256L953.069 425.061L953.004 424.679L952.918 424.183C952.877 423.95 952.832 423.702 952.784 423.438L952.63 422.609C952.369 421.226 952.063 419.716 951.713 418.106C950.559 412.798 949.158 407.489 947.505 402.527L947.302 401.923C944.142 392.608 940.457 385.689 936.141 382.077L936.002 381.962C930.138 377.161 922.23 377.09 916.377 381.388ZM934.688 383.552C938.771 386.892 942.417 393.798 945.542 403.176C947.169 408.06 948.551 413.301 949.691 418.542L949.923 419.627C950.199 420.933 950.443 422.164 950.655 423.301L950.817 424.184L950.836 424.293L950.629 424.283C945.824 424.029 938.677 422.704 932.44 420.381C922.381 416.633 915.341 410.779 912.71 402.527C910.062 394.211 912.199 387.015 917.605 383.045C922.707 379.299 929.567 379.361 934.688 383.552Z" fill="#0999A2"/>
<path fill-rule="evenodd" clip-rule="evenodd" d="M972.824 408.133C967.733 412.367 962.978 417.817 959.935 422.31C959.504 422.947 959.901 423.805 960.652 423.906L960.736 423.914L961.152 423.944L961.621 423.975C962.275 424.017 963.013 424.059 963.824 424.099L964.097 424.112C969.752 424.38 975.726 424.408 981.33 424.039C988.297 423.58 993.869 422.552 997.589 420.805L997.762 420.723C1003.25 418.096 1006.52 413.415 1006.12 408.873C1005.7 404.023 1001.31 400.522 994.075 399.755C987.193 399.026 979.986 402.176 972.824 408.133ZM993.856 401.803C1000.2 402.474 1003.73 405.299 1004.06 409.05C1004.37 412.618 1001.7 416.495 997.022 418.79L996.862 418.868C993.438 420.522 988.023 421.534 981.194 421.984C975.679 422.347 969.778 422.319 964.195 422.055L963.926 422.042C963.57 422.025 963.229 422.007 962.903 421.989L962.695 421.977L962.876 421.729C965.796 417.764 969.859 413.282 974.15 409.713C980.924 404.08 987.639 401.145 993.856 401.803Z" fill="#0999A2"/>
<g opacity="0.9">
<path fill-rule="evenodd" clip-rule="evenodd" d="M182.684 370.334C175.995 323.4 161.355 221.053 205.163 172.752C248.971 124.45 255.934 135.938 263.555 96.2242C271.176 56.5108 311.584 40.4285 331.925 63.5126C352.321 86.542 327.813 130.686 319.918 140.314C312.023 149.941 319.15 209.238 293.436 250.264C267.722 291.29 226.436 261.915 228.191 297.581C225.833 367.872 182.684 370.334 182.684 370.334Z" fill="#B3DDDA"/>
<path fill-rule="evenodd" clip-rule="evenodd" d="M312.845 78.808C312.076 78.325 311.061 78.5551 310.576 79.322L309.861 80.4634L308.424 82.7765C307.369 84.4819 306.184 86.4105 304.879 88.5516L303.632 90.6022C299.433 97.5213 294.816 105.275 289.879 113.747C274.363 140.372 258.847 168.635 244.364 197.31C232.418 220.963 221.694 243.89 212.498 265.732C195.088 307.083 183.723 343.154 179.684 372.463C179.56 373.361 180.189 374.188 181.089 374.312C181.989 374.435 182.819 373.808 182.943 372.91C186.936 343.934 198.223 308.114 215.531 267.003C224.696 245.236 235.388 222.376 247.302 198.787C261.753 170.176 277.238 141.969 292.723 115.396L294.677 112.053C299.194 104.343 303.42 97.2715 307.278 90.9332L309.296 87.6303C309.809 86.7943 310.299 85.9981 310.765 85.2427L312.878 81.8398L313.36 81.0712C313.844 80.3043 313.614 79.291 312.845 78.808Z" fill="white"/>
<path fill-rule="evenodd" clip-rule="evenodd" d="M159.052 4.27072C201.873 0.1681 210.755 43.4918 212.126 80.1419C213.497 116.792 206.698 129.975 227.587 149.449C248.477 168.977 214.484 195.344 217.389 214.708C220.295 234.072 240.362 285.82 162.342 400.475C159.491 404.632 155.434 438.109 155.434 438.109L138.547 433.569C138.547 433.569 149.403 406.382 137.121 373.452C124.84 340.467 104.005 324.986 102.031 283.741C100.058 242.496 129.61 250.483 124.182 223.351C118.754 196.219 91.0109 177.456 93.1492 150.269C95.2875 123.028 146.552 103.226 135.202 71.8819C123.853 40.4832 121.989 7.82633 159.052 4.27072Z" fill="#B3DDDA"/>
<path fill-rule="evenodd" clip-rule="evenodd" d="M175.203 18.85C174.371 19.1249 173.907 19.9981 174.131 20.8315L174.387 21.6345L174.586 22.2748C174.726 22.7277 174.88 23.2325 175.045 23.7887L175.273 24.5584C175.925 26.7809 176.642 29.3588 177.408 32.2832L177.742 33.5682C180.08 42.6316 182.412 53.1371 184.596 65.0005C192.206 106.338 196.233 153.709 194.771 205.99C192.861 274.294 181.651 345.261 159.235 417.769C158.967 418.635 159.454 419.554 160.322 419.821C161.19 420.088 162.111 419.602 162.379 418.736C184.885 345.937 196.142 274.676 198.06 206.081C199.528 153.562 195.481 105.963 187.831 64.4076L187.516 62.7111C185.304 50.9 182.948 40.4528 180.591 31.4534L180.185 29.9208C179.562 27.5873 178.974 25.4901 178.429 23.6342L178.199 22.8536C177.973 22.0971 177.77 21.4322 177.591 20.86L177.281 19.8915C176.996 19.0312 176.065 18.5649 175.203 18.85Z" fill="white"/>
<path fill-rule="evenodd" clip-rule="evenodd" d="M161.575 366.614C176.269 329.581 208.288 248.732 260.155 231.392C312.023 214.051 312.242 225.265 334.338 199.337C356.433 173.408 392.346 178.222 397.5 203.385C402.653 228.547 366.522 250.756 356.817 254.585C347.113 258.414 327.539 304.637 291.846 324.111C256.153 343.585 238.498 305.239 224.901 332.043C193.868 382.423 161.575 366.614 161.575 366.614Z" fill="#B3DDDA"/>
<path fill-rule="evenodd" clip-rule="evenodd" d="M380.15 200.548C379.803 199.745 378.891 199.359 378.079 199.654L377.945 199.708L377.389 199.95C377.021 200.111 376.604 200.295 376.14 200.501L375.659 200.715C373.769 201.559 371.578 202.558 369.111 203.707L366.973 204.708C360.49 207.76 353.373 211.254 345.767 215.166C321.621 227.585 297.475 241.645 274.93 257.071C251.895 272.833 231.83 289.162 215.59 305.92C196.769 325.341 183.51 344.905 176.689 364.489C176.391 365.345 176.845 366.281 177.703 366.578C178.561 366.876 179.498 366.423 179.796 365.567C192.321 329.605 226.929 293.895 276.791 259.778C299.212 244.437 323.243 230.444 347.274 218.083L348.949 217.225C356.168 213.535 362.925 210.233 369.09 207.341L370.502 206.681C372.647 205.682 374.58 204.798 376.285 204.032L378.13 203.211L379.289 202.704C380.124 202.346 380.509 201.38 380.15 200.548Z" fill="white"/>
<path fill-rule="evenodd" clip-rule="evenodd" d="M180.545 375.968C179.668 333.192 177.694 239.816 131.968 203.002C86.2413 166.188 81.8002 177.401 69.2994 143.049C56.7986 108.696 18.8028 100.108 4.16373 123.52C-10.4753 146.933 17.5418 182.817 25.8756 190.256C34.2095 197.696 36.5671 251.577 65.2421 284.562C93.9172 317.492 126.046 285.492 129.665 317.547C142.111 379.797 180.545 375.968 180.545 375.968Z" fill="#B3DDDA"/>
<path fill-rule="evenodd" clip-rule="evenodd" d="M22.3828 127.365C21.7557 128.021 21.7801 129.06 22.4374 129.685L23.3701 130.585L24.5184 131.706C25.5842 132.751 26.7799 133.936 28.0968 135.257L29.4249 136.594C33.9432 141.156 38.9279 146.341 44.2684 152.083C60.6588 169.705 77.0494 188.943 92.3441 209.156C118.017 243.083 137.936 276.246 149.867 307.317C158.256 329.161 162.479 349.487 162.069 368C162.049 368.906 162.769 369.657 163.677 369.677C164.585 369.697 165.338 368.979 165.358 368.073C165.778 349.092 161.47 328.357 152.939 306.143C140.882 274.743 120.812 241.33 94.9696 207.178C79.944 187.321 63.8724 168.409 47.7772 151.033L46.6798 149.85C41.1098 143.862 35.9237 138.475 31.2451 133.763L29.7762 132.289C28.7053 131.219 27.7195 130.243 26.824 129.364L25.5188 128.091L24.7084 127.311C24.0511 126.685 23.01 126.709 22.3828 127.365Z" fill="white"/>
<path fill-rule="evenodd" clip-rule="evenodd" d="M119.96 449L99.5096 355.132C97.81 348.021 103.348 341.238 110.804 341.238H238.005C245.462 341.238 250.945 347.966 249.355 355.023L228.465 448.398" fill="#F4EDE8"/>
</g>
<g opacity="0.8">
<path fill-rule="evenodd" clip-rule="evenodd" d="M321.939 194.512C331.156 192.776 340.161 198.302 342.183 206.923L342.242 207.186L348.769 237.629C348.884 238.166 348.545 238.696 348.011 238.812C347.496 238.923 346.988 238.61 346.85 238.106L346.836 238.049L340.308 207.607C338.644 199.918 330.588 194.907 322.303 196.468C314.098 198.013 308.781 205.361 310.281 212.957L310.329 213.188L320.131 258.234C320.246 258.771 319.907 259.3 319.373 259.416C318.858 259.528 318.35 259.215 318.211 258.711L318.197 258.654L308.396 213.609C306.497 204.802 312.587 196.273 321.939 194.512Z" fill="#00BDC8"/>
<path fill-rule="evenodd" clip-rule="evenodd" d="M358.616 194.729C358.898 185.771 366.887 178.727 376.381 179.008C385.815 179.286 393.264 186.58 393.139 195.411L392.077 240.052C392.064 240.601 391.611 241.036 391.065 241.022C390.539 241.01 390.118 240.585 390.1 240.063L390.1 240.004L391.155 195.624C391.401 187.8 384.791 181.247 376.323 180.997C367.974 180.75 360.981 186.839 360.603 194.558L360.593 194.792L359.275 236.345C359.257 236.895 358.8 237.325 358.255 237.308C357.728 237.291 357.311 236.863 357.297 236.34L357.298 236.282L358.616 194.729Z" fill="#00BDC8"/>
<path fill-rule="evenodd" clip-rule="evenodd" d="M407.199 207.117C409.098 198.348 418.192 192.692 427.502 194.446C436.751 196.188 442.823 204.59 441.1 213.278L441.045 213.542L431.781 256.687C431.666 257.224 431.14 257.565 430.606 257.449C430.091 257.337 429.757 256.841 429.837 256.324L429.848 256.267L439.112 213.12C440.769 205.467 435.415 197.961 427.138 196.401C418.936 194.856 410.958 199.752 409.178 207.338L409.126 207.568L401.378 239.007C401.247 239.54 400.711 239.866 400.18 239.733C399.669 239.606 399.35 239.1 399.446 238.585L399.458 238.528L407.199 207.117Z" fill="#00BDC8"/>
<path fill-rule="evenodd" clip-rule="evenodd" d="M448.306 238.031C452.58 230.033 462.905 226.802 471.418 230.768C479.886 234.713 483.384 244.303 479.286 252.295L479.159 252.537L438.543 328.613C438.285 329.097 437.685 329.279 437.204 329.019C436.74 328.768 436.556 328.2 436.774 327.726L436.801 327.672L477.417 251.595C481.163 244.583 478.126 236.086 470.586 232.574C463.084 229.078 454.002 231.862 450.164 238.763L450.049 238.973L439.73 258.307C439.472 258.791 438.872 258.973 438.391 258.713C437.927 258.463 437.743 257.894 437.96 257.42L437.987 257.366L448.306 238.031Z" fill="#00BDC8"/>
<path fill-rule="evenodd" clip-rule="evenodd" d="M296.601 299.728C296.881 299.24 297.389 299.404 297.758 300.086L297.8 300.167L310.6 325.998C310.971 326.748 311.037 327.767 310.746 328.274C310.466 328.762 309.958 328.598 309.589 327.915L309.547 327.834L296.181 301.37C295.809 300.62 296.311 300.235 296.601 299.728Z" fill="#00BDC8"/>
<path fill-rule="evenodd" clip-rule="evenodd" d="M277.582 230.279C286.01 226.352 296.214 229.48 300.563 237.304L300.694 237.542L312.891 260.392C313.15 260.876 312.969 261.479 312.488 261.739C312.025 261.989 311.452 261.83 311.179 261.386L311.149 261.333L298.951 238.484C295.182 231.429 285.992 228.554 278.413 232.084C270.949 235.561 267.898 243.925 271.473 250.895L271.583 251.106L297.891 300.353C298.15 300.837 297.969 301.44 297.488 301.7C297.025 301.951 296.452 301.792 296.179 301.347L296.149 301.295L269.841 252.048C265.545 244.008 269.028 234.264 277.582 230.279Z" fill="#00BDC8"/>
<path fill-rule="evenodd" clip-rule="evenodd" d="M352.986 234.862C361.833 233.737 369.928 241.181 371.232 251.443L371.269 251.754L374.909 283.875L381.88 251.592C384.019 241.561 392.74 235.623 401.422 238.335L401.685 238.42C410.289 241.281 415.491 251.572 413.482 261.526L413.418 261.828L407.062 291.309L418.804 265.384C422.925 256.258 432.67 252.941 440.609 257.943L440.849 258.097C448.644 263.197 451.664 274.53 447.727 283.609L447.606 283.883L427.363 328.654C427.137 329.154 426.551 329.375 426.054 329.147C425.574 328.928 425.353 328.372 425.54 327.884L425.563 327.83L445.805 283.06C449.529 274.813 446.804 264.367 439.77 259.765C432.902 255.271 424.451 258.012 420.717 265.965L420.605 266.208L405.044 300.565C404.561 301.631 402.981 301.124 403.166 300L403.178 299.942L411.486 261.405C413.457 252.31 408.747 242.865 401.064 240.309C393.553 237.811 385.895 242.874 383.873 251.742L383.814 252.012L375.572 290.183C375.339 291.262 373.809 291.205 373.631 290.146L373.623 290.084L369.304 251.979C368.243 242.594 361 235.848 353.234 236.836C345.545 237.815 340.053 246.029 340.975 255.286L341.005 255.567L345.488 294.799C345.619 295.938 344.059 296.346 343.607 295.328L343.584 295.272L333.759 269.77C330.43 261.131 321.977 257.152 314.888 260.779C307.781 264.416 304.592 274.287 307.779 282.917L307.878 283.178L325.087 327.816C325.284 328.328 325.032 328.904 324.522 329.103C324.031 329.295 323.481 329.065 323.265 328.589L323.243 328.535L306.034 283.897C302.333 274.296 305.861 263.165 313.991 259.006C322.106 254.854 331.679 259.281 335.49 268.762L335.604 269.051L342.643 287.323L339.04 255.794C337.873 245.507 343.946 236.185 352.72 234.899L352.986 234.862Z" fill="#00BDC8"/>
<path fill-rule="evenodd" clip-rule="evenodd" d="M443.969 327.214C447.116 327.214 449.679 329.756 449.737 332.908L449.738 333.017V350.627C449.738 353.793 447.211 356.371 444.077 356.429L443.969 356.43H436.741L414.581 457.017C414.46 457.533 413.961 457.859 413.449 457.769L413.392 457.757C412.879 457.636 412.554 457.133 412.644 456.618L412.656 456.561L434.995 355.207C435.096 354.778 435.465 354.469 435.898 354.442L435.958 354.441H443.969C446.028 354.441 447.708 352.783 447.759 350.724L447.76 350.627V333.017C447.76 330.946 446.112 329.256 444.065 329.205L443.969 329.204H304.516C302.457 329.204 300.777 330.862 300.726 332.921L300.725 333.017V350.627C300.725 352.698 302.373 354.388 304.42 354.439L304.516 354.441H313.087C313.526 354.441 313.91 354.731 314.035 355.15L314.05 355.207L337.754 456.421C337.879 456.956 337.55 457.492 337.018 457.618C336.505 457.739 335.992 457.435 335.843 456.934L335.828 456.878L312.304 356.43H304.516C301.368 356.43 298.805 353.888 298.748 350.736L298.747 350.627V333.017C298.747 329.851 301.274 327.273 304.408 327.215L304.516 327.214H443.969Z" fill="#B5BDBF"/>
</g>
<path fill-rule="evenodd" clip-rule="evenodd" d="M498.099 320.81C502.347 317.12 506.1 315.814 508.745 318.217C516.639 325.378 509.43 340.013 495.346 347.078L495.258 347.121L495.303 347.33C496.884 354.753 497.804 362.895 497.967 370.629L497.971 370.911L498.027 370.887C501.265 369.475 504.32 369.691 506.374 371.854L506.493 371.983C508.127 373.769 508.383 376.987 507.341 379.582C506.126 382.608 503.403 384.122 500.219 382.883L500.056 382.817C499.243 382.488 498.557 382.195 497.877 381.887L497.637 381.777L497.632 381.845C497.31 385.539 496.78 388.915 496.066 391.785L495.968 392.173C495.735 393.073 494.815 393.615 493.912 393.383C493.01 393.15 492.467 392.232 492.7 391.332C493.57 387.966 494.174 383.75 494.449 379.081C494.52 377.875 495.805 377.134 496.889 377.674L497.541 377.998C498.895 378.664 499.9 379.12 501.341 379.703C502.718 380.277 503.622 379.787 504.208 378.329C504.808 376.836 504.66 374.974 503.991 374.243C502.75 372.864 500.276 373.077 497.269 375.173C496.146 375.955 494.607 375.148 494.615 373.782C494.672 364.865 493.635 355.129 491.676 346.553C491.498 345.773 491.893 344.977 492.623 344.646C505.716 338.703 512.286 325.98 506.474 320.708C504.394 318.819 496.774 325.437 490.925 334.727C490.198 335.882 488.467 335.74 487.939 334.481C485.612 328.931 482.936 324.992 479.961 322.851C475.503 319.656 473.29 320.87 471.905 326.619C470.613 331.985 470.586 340.554 471.599 350.498C471.75 351.983 470.034 352.916 468.866 351.983C467.417 350.827 465.924 350.008 464.526 349.669C461.092 348.861 457.802 353.721 459.058 358.131C459.944 361.307 466.008 362.409 470.503 359.671C471.524 359.049 472.851 359.654 473.047 360.831C473.502 363.551 474.02 366.146 474.515 368.226L474.597 368.567L474.613 368.635C474.697 369.056 474.827 369.518 475.009 370.061C475.477 371.462 474.038 372.743 472.696 372.12C470.418 371.063 468.641 370.627 467.686 370.85L467.596 370.873C464.093 371.801 460.507 374.925 461.052 377.487C461.935 381.685 464.245 383.335 468.868 382.31C471.055 381.81 473.335 380.626 475.415 379.026C476.327 378.323 477.662 378.72 478.04 379.807C479.506 384.019 481.048 387.735 482.613 390.754C483.042 391.58 482.718 392.596 481.89 393.023C481.062 393.451 480.044 393.127 479.615 392.301C478.315 389.793 477.043 386.86 475.819 383.593L475.601 383.005L475.454 383.099C473.679 384.206 471.809 385.047 469.925 385.519L469.611 385.595C463.067 387.045 459.004 384.145 457.75 378.183C457.168 375.451 458.394 372.94 460.78 370.861C462.452 369.405 464.689 368.209 466.465 367.693L466.684 367.632C467.826 367.294 469.168 367.367 470.713 367.781L470.966 367.851L470.888 367.498L470.693 366.591C470.532 365.819 470.371 365.012 470.214 364.179L470.108 363.609L469.945 363.672C464.164 365.848 457.363 364.092 455.858 359.212L455.809 359.043C453.924 352.428 459.013 344.912 465.311 346.394C466.108 346.587 466.899 346.877 467.679 347.25L467.925 347.371L467.89 346.928L467.819 345.975C467.249 337.916 467.439 330.989 468.557 326.117L468.624 325.833C470.516 317.975 475.289 315.356 481.933 320.118C484.841 322.21 487.374 325.534 489.59 329.977L489.777 330.359L489.973 330.08C492.427 326.603 495.193 323.395 497.799 321.074L498.099 320.81Z" fill="#0999A2"/>
<path fill-rule="evenodd" clip-rule="evenodd" d="M526.851 352.665L526.906 352.587C532.009 345.229 537.934 341.167 544.838 341.565L545.085 341.581L545.176 341.59C549.807 342.181 550.993 346.521 549.6 352.98C548.695 357.176 546.688 362.43 543.951 368.018L543.772 368.382L544.042 368.354C547.235 368.047 550.319 368.498 552.445 369.658L552.625 369.76C555.551 371.479 556.789 375.783 555.225 379.223C553.383 383.276 548.417 385.273 540.954 384.446C538.652 384.196 536.718 383.842 535.137 383.397L535.032 383.367L532.275 387.587L531.614 388.585C530.137 390.805 529.038 392.359 528.155 393.436C527.564 394.156 526.501 394.262 525.78 393.673C525.058 393.084 524.952 392.023 525.542 391.303L525.828 390.947C526.685 389.855 527.811 388.229 529.321 385.939L532.627 380.887C532.75 380.7 532.852 380.546 532.926 380.435C533.36 379.786 534.183 379.519 534.916 379.79C536.418 380.345 538.548 380.797 541.323 381.099C547.477 381.781 551 380.363 552.151 377.832C553.018 375.925 552.317 373.487 550.92 372.666C548.851 371.465 544.83 371.247 541.162 372.321C539.729 372.74 538.497 371.234 539.195 369.918C542.702 363.304 545.286 356.976 546.301 352.272C547.316 347.562 546.724 345.256 544.843 344.944L544.791 344.936L544.623 344.925C538.657 344.596 533.298 348.667 528.512 356.274L528.34 356.55C527.674 357.622 526.108 357.611 525.458 356.53C523.474 353.232 519.761 350.283 517.279 349.923C512.665 349.285 510.46 351.349 511.531 355.007C512.523 358.272 518.102 362.753 522.344 363.311C523.461 363.458 524.122 364.635 523.666 365.663C522.794 367.626 521.983 369.635 521.158 371.83L520.805 372.777C520.687 373.098 520.567 373.426 520.441 373.771L519.38 376.718C518.032 380.465 516.979 385.859 516.318 391.662C516.213 392.586 515.377 393.25 514.451 393.145C513.525 393.04 512.859 392.205 512.965 391.282C513.633 385.41 514.689 379.933 516.084 375.917L517.007 373.345C517.323 372.469 517.599 371.714 517.878 370.967L517.998 370.647C518.505 369.296 519.009 368.011 519.526 366.761L519.774 366.165L519.687 366.137C514.786 364.551 509.648 360.073 508.348 356.131L508.296 355.967C506.477 349.753 510.872 345.637 517.753 346.589C520.672 347.012 524.178 349.431 526.718 352.502L526.851 352.665Z" fill="#0999A2"/>
<path fill-rule="evenodd" clip-rule="evenodd" d="M540.574 390.63H461.426C452.337 390.63 445 397.95 445 407.018V408.478C445 430.847 463.194 449 485.615 449H516.385C538.806 449 557 430.847 557 408.478V407.018C557 397.95 549.663 390.63 540.574 390.63ZM461.426 393.997H540.574C547.799 393.997 553.625 399.81 553.625 407.018V408.478C553.625 428.988 536.942 445.633 516.385 445.633H485.615C465.058 445.633 448.375 428.988 448.375 408.478V407.018C448.375 399.81 454.201 393.997 461.426 393.997Z" fill="#DDDDDD"/>
</svg>
