<svg width="19" height="19" viewBox="0 0 19 19" fill="none" xmlns="http://www.w3.org/2000/svg">
<path fill-rule="evenodd" clip-rule="evenodd" d="M9.39117 17.4003C7.51388 16.8411 4.57938 15.3403 1.6844 11.3478C-1.21058 7.35542 0.893958 4.48126 3.7593 6.69819C6.62463 8.91511 9.39117 17.4003 9.39117 17.4003Z" fill="white"/>
<path fill-rule="evenodd" clip-rule="evenodd" d="M0.302302 6.55245C-0.342558 7.71333 0.047135 9.59349 1.44397 11.5198C3.94217 14.9651 6.65962 16.8939 9.30613 17.6822C9.52982 17.7488 9.73727 17.545 9.67789 17.3251L9.67015 17.3L9.60334 17.1003C9.57494 17.0165 9.54309 16.9235 9.50792 16.8221L9.41905 16.5681C9.30699 16.2505 9.18241 15.9072 9.04625 15.5436C8.55099 14.221 8.00444 12.8982 7.42197 11.6622L7.34442 11.4986C6.1942 9.08627 5.05279 7.32583 3.94163 6.46613C2.45391 5.31507 0.959634 5.36912 0.302302 6.55245ZM3.57711 6.9304C4.61715 7.73508 5.7462 9.49542 6.8849 11.9117C7.45979 13.1316 8.00043 14.44 8.49046 15.7487L8.52694 15.8464C8.65963 16.2026 8.78075 16.5381 8.88931 16.8476L8.91979 16.935L8.86978 16.9169C6.53919 16.0619 4.15325 14.249 1.92498 11.176C0.648338 9.41541 0.306098 7.76419 0.821305 6.83672C1.2765 6.01728 2.34688 5.97856 3.57711 6.9304Z" fill="#00BDC8"/>
<path fill-rule="evenodd" clip-rule="evenodd" d="M9.47029 17.2336C8.39332 14.7616 6.39746 10.2101 6.08129 5.87429C5.65643 -0.0800208 10.0928 -1.47296 11.4167 2.70585C13.4027 8.98387 9.47029 17.2336 9.47029 17.2336Z" fill="white"/>
<path fill-rule="evenodd" clip-rule="evenodd" d="M7.96727 0.223773C6.47114 0.922152 5.58279 3.0499 5.7858 5.89502C5.81553 6.30264 5.86024 6.71802 5.91944 7.14141C6.21515 9.25641 6.85116 11.4861 7.76797 13.8979L7.88353 14.1993C8.26094 15.176 8.57849 15.9274 9.19843 17.3504C9.29962 17.5826 9.62937 17.5882 9.73841 17.3594L9.76814 17.2957C9.78382 17.2617 9.80112 17.2237 9.81996 17.1818L9.84936 17.116C9.93625 16.9206 10.0329 16.6942 10.1369 16.4393C10.4335 15.7122 10.7299 14.9018 11.0066 14.028C11.8191 11.4621 12.2977 8.89049 12.2726 6.48254C12.2586 5.13364 12.084 3.87357 11.7313 2.71908L11.6997 2.61749C11.0249 0.48762 9.45631 -0.471298 7.96727 0.223773ZM11.134 2.79397C11.4894 3.91729 11.6659 5.15494 11.6797 6.48862C11.7041 8.8263 11.2363 11.3398 10.4409 13.8515C10.1693 14.7095 9.8782 15.5053 9.58731 16.2183L9.53261 16.3514L9.47245 16.4952L9.28617 16.0627C8.9181 15.2042 8.67002 14.5969 8.37511 13.8279C7.44425 11.4005 6.80089 9.16579 6.50653 7.0605C6.44909 6.64961 6.40575 6.24702 6.37701 5.85298C6.18964 3.22699 6.97947 1.3352 8.21941 0.756409C9.33264 0.236762 10.5329 0.958526 11.1166 2.7398L11.134 2.79397Z" fill="#00BDC8"/>
<path fill-rule="evenodd" clip-rule="evenodd" d="M17.3153 11.5147C20.2103 7.52223 18.1057 4.64807 15.2404 6.865C12.3751 9.09173 11.0511 13.0842 9.60852 17.4003C9.60852 17.4003 14.4203 15.5071 17.3153 11.5147Z" fill="white"/>
<path fill-rule="evenodd" clip-rule="evenodd" d="M15.0583 6.63286C13.7934 7.61583 12.7691 8.96243 11.8611 10.7415L11.8151 10.8324C11.1237 12.2042 10.5639 13.6483 9.75683 16.0281L9.32731 17.3076C9.24975 17.5396 9.47372 17.7563 9.70258 17.6794L9.71784 17.6739C9.73928 17.6654 9.77875 17.6494 9.83507 17.6256L9.90717 17.5949C9.96949 17.5681 10.0373 17.5382 10.1104 17.5053L10.1549 17.4852C10.497 17.3299 10.8776 17.1428 11.2872 16.9238C12.4567 16.2984 13.626 15.5408 14.7186 14.6475C15.8152 13.751 16.7741 12.7648 17.556 11.6866C18.9528 9.76022 19.3425 7.88006 18.6976 6.71918C18.0403 5.53586 16.546 5.4818 15.0583 6.63286ZM15.3625 7.14481L15.4232 7.09712C16.6535 6.14528 17.7238 6.184 18.179 7.00344C18.6942 7.93091 18.352 9.58213 17.0754 11.3427C16.3252 12.3772 15.4014 13.3273 14.3423 14.1932C13.2817 15.0602 12.1441 15.7973 11.0066 16.4057L10.9274 16.4478C10.6673 16.5855 10.4201 16.7095 10.1884 16.8198L10.1019 16.8607L10.1982 16.5741C11.0634 14.0025 11.6362 12.5035 12.3457 11.0957C13.2138 9.37339 14.1816 8.08055 15.3625 7.14481Z" fill="#00BDC8"/>
<path fill-rule="evenodd" clip-rule="evenodd" d="M9.60879 18.7049C9.50999 18.5774 9.97437 16.5468 6.1111 14.1239C2.24784 11.701 1.36847 12.4857 0.874451 13.3686C0.380427 14.2514 2.6233 16.3506 5.02425 17.5572C7.43509 18.7735 9.60879 18.7049 9.60879 18.7049Z" fill="white"/>
<path fill-rule="evenodd" clip-rule="evenodd" d="M2.2277 12.2124C1.44664 12.2162 0.986008 12.5631 0.615167 13.2258C0.0119307 14.3038 2.22489 16.4805 4.89022 17.8199C5.92625 18.3426 6.99331 18.6753 8.03888 18.8555C8.41769 18.9208 8.77154 18.9619 9.094 18.9834L9.17728 18.9885C9.33904 18.9978 9.47186 19.0008 9.57245 18.9999L9.61805 18.9991L9.63471 18.9982C9.83251 18.9815 9.95037 18.7826 9.88941 18.6092L9.88775 18.605L9.87873 18.4619C9.87535 18.4113 9.87147 18.3641 9.86642 18.3151C9.85326 18.1875 9.83326 18.0596 9.80348 17.9248C9.72638 17.5759 9.59096 17.2147 9.38022 16.8363C8.82988 15.848 7.83054 14.8544 6.26924 13.8752L6.14223 13.796C4.37627 12.7018 3.12088 12.2081 2.2277 12.2124ZM2.2306 12.801C3.00498 12.7973 4.20713 13.2781 5.95265 14.3729C7.43388 15.3019 8.36247 16.2251 8.86143 17.1211L8.88982 17.1727C9.13937 17.6314 9.2313 17.951 9.27415 18.3648L9.27795 18.4045L9.24676 18.403C9.21087 18.4011 9.17318 18.3988 9.13373 18.3962C8.83138 18.376 8.49806 18.3373 8.14029 18.2757C7.15004 18.105 6.13893 17.7897 5.1584 17.295C4.00718 16.7165 2.86516 15.9126 2.07221 15.1326C1.31565 14.3885 0.990021 13.7679 1.13342 13.5117C1.40973 13.0179 1.69426 12.8036 2.2306 12.801Z" fill="#00BDC8"/>
<path fill-rule="evenodd" clip-rule="evenodd" d="M9.60852 18.7049C9.70733 18.5774 9.24294 16.5468 13.1062 14.1239C16.9695 11.701 17.8488 12.4857 18.3429 13.3686C18.8369 14.2514 16.594 16.3506 14.1931 17.5572C11.7822 18.7735 9.60852 18.7049 9.60852 18.7049Z" fill="white"/>
<path fill-rule="evenodd" clip-rule="evenodd" d="M16.9895 12.2124C16.075 12.208 14.7809 12.7256 12.9479 13.8752C11.3866 14.8544 10.3873 15.848 9.83695 16.8363C9.62621 17.2147 9.49079 17.5759 9.41369 17.9248C9.38391 18.0596 9.36391 18.1875 9.35076 18.3151C9.34739 18.3478 9.34454 18.3796 9.34201 18.4122L9.32933 18.605L9.32776 18.6092C9.267 18.782 9.38387 18.9802 9.58046 18.998L9.60468 18.9993L9.62025 18.9996C9.73924 19.0015 9.90902 18.9976 10.1232 18.9834C10.4456 18.9619 10.7995 18.9208 11.1783 18.8555C12.2239 18.6753 13.2909 18.3426 14.3274 17.8196C16.9923 16.4805 19.2052 14.3038 18.602 13.2258C18.2312 12.5631 17.7705 12.2162 16.9895 12.2124ZM16.987 12.801C17.5233 12.8036 17.8079 13.0179 18.0842 13.5117C18.2276 13.7679 17.9019 14.3885 17.1454 15.1326C16.3524 15.9126 15.2104 16.7165 14.0596 17.2948C13.0787 17.7897 12.0675 18.105 11.0773 18.2757C10.7195 18.3373 10.3862 18.376 10.0838 18.3962L9.97082 18.403L9.93953 18.4045L9.94343 18.3648C9.98787 17.9357 10.0851 17.6078 10.3561 17.1211C10.8551 16.2251 11.7837 15.3018 13.2649 14.3729L13.3872 14.2966C15.0668 13.2558 16.2308 12.7974 16.987 12.801Z" fill="#00BDC8"/>
</svg>
