<svg width="248" height="40" viewBox="0 0 248 40" fill="none" xmlns="http://www.w3.org/2000/svg">
<path d="M34.312 32L29.416 8.192L34.536 8L37.064 22.368L39.784 8.192L43.624 8L46.152 22.528L49.192 8.192L53.512 8L48.36 32H43.72L41.192 17.344L38.6 32H34.312Z" fill="#00BDC8"/>
<path d="M58.6773 32.416C57.9093 32.416 57.2159 32.1813 56.5973 31.712C55.9786 31.2213 55.4986 30.5707 55.1573 29.76C54.8159 28.928 54.6453 28 54.6453 26.976C54.6453 24.6507 55.4346 23.0187 57.0133 22.08C58.6133 21.12 60.4693 20.576 62.5813 20.448C62.5813 19.296 62.5066 18.4427 62.3573 17.888C62.2079 17.3333 61.8453 17.056 61.2693 17.056C60.7786 17.056 60.4053 17.248 60.1493 17.632C59.8933 18.016 59.7333 18.5067 59.6693 19.104L55.2853 18.336C55.4986 16.6933 56.1706 15.52 57.3013 14.816C58.4319 14.112 59.7546 13.76 61.2693 13.76C63.2106 13.76 64.6613 14.272 65.6213 15.296C66.6026 16.32 67.0933 17.6533 67.0933 19.296V28.608C67.0933 29.6107 67.2533 30.6773 67.5733 31.808L63.1893 32.192L62.6773 29.984C62.2933 30.6667 61.7279 31.2427 60.9813 31.712C60.2346 32.1813 59.4666 32.416 58.6773 32.416ZM60.7573 29.216C61.1199 29.216 61.4186 29.1307 61.6533 28.96C61.9093 28.7893 62.2186 28.512 62.5813 28.128V23.136C61.5146 23.136 60.6613 23.424 60.0213 24C59.3813 24.576 59.0613 25.472 59.0613 26.688C59.0613 27.4987 59.1999 28.128 59.4773 28.576C59.7759 29.0027 60.2026 29.216 60.7573 29.216Z" fill="#00BDC8"/>
<path d="M76.9398 32.352C75.4891 32.352 74.2624 31.9893 73.2598 31.264C72.2571 30.5173 71.7558 29.2053 71.7558 27.328V17.376H69.2598L69.4518 13.984H71.8838L72.3318 10.08L76.2358 9.536V13.984H79.9478L79.7558 17.376H76.2678V27.296C76.2678 27.936 76.4278 28.3947 76.7478 28.672C77.0678 28.9493 77.5371 29.088 78.1558 29.088C78.4971 29.088 79.0731 29.024 79.8838 28.896V32C79.7984 32.0213 79.4571 32.0853 78.8598 32.192C78.2838 32.2987 77.6438 32.352 76.9398 32.352Z" fill="#00BDC8"/>
<path d="M88.055 32.416C85.9217 32.416 84.2897 31.5733 83.159 29.888C82.0284 28.1813 81.463 25.92 81.463 23.104C81.463 20.2453 82.039 17.9733 83.191 16.288C84.343 14.6027 86.0177 13.76 88.215 13.76C90.3057 13.76 91.9057 14.6027 93.015 16.288C94.1244 17.9733 94.679 20.2453 94.679 23.104C94.679 23.2747 94.647 23.4027 94.583 23.488C94.519 23.552 94.487 23.5947 94.487 23.616H85.943C85.943 25.0027 86.1243 26.272 86.487 27.424C86.8497 28.5547 87.4044 29.12 88.151 29.12C88.983 29.12 89.6017 28.64 90.007 27.68C90.4123 26.72 90.6257 26.2187 90.647 26.176L94.039 27.456C93.591 28.992 92.8764 30.208 91.895 31.104C90.9137 31.9787 89.6337 32.416 88.055 32.416ZM90.263 21.024C90.263 19.744 90.0923 18.7307 89.751 17.984C89.4097 17.2373 88.8764 16.864 88.151 16.864C87.7883 16.864 87.4363 17.0453 87.095 17.408C86.7537 17.7707 86.4763 18.272 86.263 18.912C86.0497 19.552 85.943 20.256 85.943 21.024H90.263Z" fill="#00BDC8"/>
<path d="M97.3895 14.368L101.87 13.984V16.896C102.51 15.9787 103.299 15.2427 104.238 14.688C105.198 14.112 106.414 13.824 107.886 13.824V18.208C107.118 18.208 106.104 18.3467 104.846 18.624C103.608 18.88 102.616 19.3387 101.87 20V31.808L97.3895 32.192V14.368Z" fill="#00BDC8"/>
<path d="M134.492 32.192V14.176L130.012 32H127.132L122.3 14.112V31.808L118.428 32V8.224L125.308 8.032L129.276 22.88L133.084 8.576L139.356 8.192V31.808L134.492 32.192Z" fill="#00BDC8"/>
<path d="M143.962 37.696C143.45 37.696 142.82 37.632 142.074 37.504V33.76C142.863 33.8027 143.492 33.824 143.962 33.824C145.839 33.824 146.778 32.9493 146.778 31.2V30.304L141.626 14.208L146.49 13.984L149.018 25.28L151.418 14.08L155.482 14.048L150.874 31.68C150.234 33.984 149.295 35.5627 148.058 36.416C146.842 37.2693 145.476 37.696 143.962 37.696Z" fill="#00BDC8"/>
<path d="M165.74 8H168.748C171.159 8 173.079 8.10667 174.508 8.32C175.937 8.512 177.196 9.13067 178.284 10.176C179.393 11.2213 179.948 12.896 179.948 15.2C179.948 17.2907 179.479 18.88 178.54 19.968C177.623 21.0347 176.481 21.7387 175.116 22.08C173.772 22.4 172.215 22.56 170.444 22.56V31.808L165.74 32.192V8ZM171.276 18.752C172.513 18.752 173.484 18.496 174.188 17.984C174.913 17.472 175.276 16.5333 175.276 15.168C175.276 13.824 174.945 12.9173 174.284 12.448C173.623 11.9787 172.577 11.744 171.148 11.744H170.476V18.752H171.276Z" fill="#00BDC8"/>
<path d="M182.547 32.192V8.576L187.027 8V31.808L182.547 32.192Z" fill="#00BDC8"/>
<path d="M193.865 32.416C193.097 32.416 192.403 32.1813 191.785 31.712C191.166 31.2213 190.686 30.5707 190.345 29.76C190.003 28.928 189.833 28 189.833 26.976C189.833 24.6507 190.622 23.0187 192.201 22.08C193.801 21.12 195.657 20.576 197.769 20.448C197.769 19.296 197.694 18.4427 197.545 17.888C197.395 17.3333 197.033 17.056 196.457 17.056C195.966 17.056 195.593 17.248 195.337 17.632C195.081 18.016 194.921 18.5067 194.857 19.104L190.473 18.336C190.686 16.6933 191.358 15.52 192.489 14.816C193.619 14.112 194.942 13.76 196.457 13.76C198.398 13.76 199.849 14.272 200.809 15.296C201.79 16.32 202.281 17.6533 202.281 19.296V28.608C202.281 29.6107 202.441 30.6773 202.761 31.808L198.377 32.192L197.865 29.984C197.481 30.6667 196.915 31.2427 196.169 31.712C195.422 32.1813 194.654 32.416 193.865 32.416ZM195.945 29.216C196.307 29.216 196.606 29.1307 196.841 28.96C197.097 28.7893 197.406 28.512 197.769 28.128V23.136C196.702 23.136 195.849 23.424 195.209 24C194.569 24.576 194.249 25.472 194.249 26.688C194.249 27.4987 194.387 28.128 194.665 28.576C194.963 29.0027 195.39 29.216 195.945 29.216Z" fill="#00BDC8"/>
<path d="M205.983 14.368L210.463 13.984V16.288C211.381 15.4773 212.277 14.8587 213.151 14.432C214.047 13.984 214.869 13.76 215.615 13.76C216.746 13.76 217.663 14.176 218.367 15.008C219.093 15.8187 219.455 16.9173 219.455 18.304V31.808L214.975 32.192V20C214.975 18.4 214.431 17.6 213.343 17.6C212.981 17.6 212.575 17.7067 212.127 17.92C211.701 18.1333 211.146 18.4427 210.463 18.848V31.808L205.983 32.192V14.368Z" fill="#00BDC8"/>
<path d="M229.377 32.352C227.927 32.352 226.7 31.9893 225.697 31.264C224.695 30.5173 224.193 29.2053 224.193 27.328V17.376H221.697L221.889 13.984H224.321L224.769 10.08L228.673 9.536V13.984H232.385L232.193 17.376H228.705V27.296C228.705 27.936 228.865 28.3947 229.185 28.672C229.505 28.9493 229.975 29.088 230.593 29.088C230.935 29.088 231.511 29.024 232.321 28.896V32C232.236 32.0213 231.895 32.0853 231.297 32.192C230.721 32.2987 230.081 32.352 229.377 32.352Z" fill="#00BDC8"/>
<path d="M240.141 32.416C238.37 32.416 236.941 32.0213 235.853 31.232C234.765 30.4213 234.061 29.3013 233.741 27.872L237.229 26.72C237.314 27.1253 237.474 27.488 237.709 27.808C238.199 28.512 238.914 28.864 239.853 28.864C240.386 28.864 240.898 28.7467 241.389 28.512C241.879 28.2773 242.125 27.9147 242.125 27.424C242.125 26.7627 241.666 26.2507 240.749 25.888L236.973 24.352C235.97 23.9253 235.202 23.2853 234.669 22.432C234.135 21.5787 233.869 20.5333 233.869 19.296C233.869 18.144 234.146 17.152 234.701 16.32C235.277 15.488 236.023 14.8587 236.941 14.432C237.879 13.984 238.882 13.76 239.949 13.76C241.293 13.76 242.53 14.1547 243.661 14.944C244.791 15.712 245.549 16.768 245.933 18.112L242.221 19.264C242.135 18.9013 241.986 18.5387 241.773 18.176C241.303 17.4507 240.706 17.088 239.981 17.088C239.447 17.088 238.989 17.216 238.605 17.472C238.221 17.7067 238.029 18.0587 238.029 18.528C238.029 19.0827 238.551 19.5947 239.597 20.064L242.797 21.376C243.927 21.9093 244.813 22.5813 245.453 23.392C246.093 24.2027 246.413 25.2907 246.413 26.656C246.413 27.8933 246.114 28.9493 245.517 29.824C244.919 30.6773 244.141 31.328 243.181 31.776C242.221 32.2027 241.207 32.416 240.141 32.416Z" fill="#00BDC8"/>
<g clip-path="url(#clip0)">
<path fill-rule="evenodd" clip-rule="evenodd" d="M7.21029 36L1.97681 31.3726L6.59937 23H16.294L20.7551 31.5166L15.6945 36H7.21029Z" fill="#FDDBC6"/>
<path d="M14.2978 18.6917C14.0935 19.9317 12.5106 24.2028 11.7446 26.1833C10.8084 23.6 8.7829 17.9167 8.17013 15.85C7.40418 13.2667 7.91481 8.61667 8.42545 7.58333C8.93609 6.55 10.2127 5.51667 11.234 5.51667C12.2552 5.51667 13.2765 6.55 14.2978 8.61667C15.3191 10.6833 14.5531 17.1417 14.2978 18.6917Z" fill="white"/>
<path d="M10.8884 25.3497C11.0733 25.8604 11.2192 26.2808 11.3199 26.577C9.02361 25.7787 5.651 23.8457 2.30909 19.1824C0.522354 16.6893 0.344972 14.6364 0.924027 13.5817C1.20682 13.0666 1.6766 12.7682 2.27988 12.7461C2.89411 12.7237 3.67187 12.9883 4.5365 13.6652C5.39205 14.3349 6.25886 15.4958 7.08134 16.8871C7.90056 18.2729 8.66279 19.8644 9.31574 21.3738C9.96839 22.8823 10.5099 24.3045 10.8884 25.3497Z" fill="white" stroke="#00BDC8"/>
<path fill-rule="evenodd" clip-rule="evenodd" d="M0.377399 13.2767C-0.427656 14.7431 0.0588447 17.1181 1.80268 19.5513C4.92148 23.9032 8.31401 26.3397 11.6179 27.3353C11.8972 27.4195 12.1562 27.1621 12.0821 26.8842L12.0724 26.8526L11.989 26.6004C11.9535 26.4945 11.9138 26.3771 11.8699 26.2489L11.7589 25.928C11.619 25.5269 11.4635 25.0933 11.2935 24.634C10.6753 22.9633 9.99289 21.2924 9.26574 19.7311L9.16892 19.5245C7.73295 16.4773 6.30802 14.2537 4.92081 13.1677C3.06351 11.7137 1.19802 11.782 0.377399 13.2767ZM4.46545 13.7542C5.76383 14.7706 7.1734 16.9942 8.59496 20.0463C9.31267 21.5872 9.98763 23.24 10.5994 24.8931L10.6449 25.0164C10.8106 25.4665 10.9618 25.8903 11.0973 26.2811L11.1353 26.3916L11.0729 26.3688C8.16337 25.2887 5.18472 22.9987 2.4029 19.117C0.809112 16.8932 0.381853 14.8074 1.02505 13.6358C1.59332 12.6008 2.9296 12.5519 4.46545 13.7542Z" fill="#00BDC8"/>
<path fill-rule="evenodd" clip-rule="evenodd" d="M9.94625 5.28266C8.07849 6.16482 6.96944 8.8525 7.22287 12.4464C7.25999 12.9612 7.3158 13.4859 7.38969 14.0207C7.75888 16.6923 8.55288 19.5088 9.69747 22.5552L9.84173 22.9359C10.3129 24.1697 10.7094 25.1188 11.4833 26.9162C11.6096 27.2096 12.0213 27.2166 12.1574 26.9277L12.1945 26.8471C12.2141 26.8043 12.2357 26.7563 12.2592 26.7033L12.2959 26.6202C12.4044 26.3734 12.525 26.0874 12.6548 25.7654C13.0251 24.847 13.3952 23.8233 13.7406 22.7196C14.7549 19.4784 15.3524 16.2301 15.3212 13.1885C15.3037 11.4846 15.0857 9.89294 14.6454 8.43462L14.6059 8.3063C13.7634 5.61594 11.8052 4.40468 9.94625 5.28266ZM13.8999 8.52923C14.3435 9.94816 14.5639 11.5115 14.5812 13.1961C14.6115 16.149 14.0275 19.324 13.0346 22.4967C12.6955 23.5804 12.3321 24.5856 11.9689 25.4863L11.9006 25.6544L11.8256 25.836L11.593 25.2898C11.1335 24.2053 10.8238 23.4382 10.4556 22.4667C9.2935 19.4006 8.49032 16.5778 8.12282 13.9185C8.05112 13.3995 7.997 12.891 7.96115 12.3932C7.72722 9.07621 8.71327 6.68657 10.2612 5.95547C11.651 5.29907 13.1494 6.21078 13.8781 8.4608L13.8999 8.52923Z" fill="#00BDC8"/>
<path d="M12.8795 26.2943C12.7053 26.3795 12.5507 26.4523 12.4188 26.5129C13.2557 23.9825 14.0702 21.5709 15.0752 19.4473C16.1517 17.1724 17.4379 15.2479 19.1829 13.8757C20.0475 13.199 20.8252 12.9344 21.4393 12.9569C22.0426 12.9789 22.5124 13.2773 22.7951 13.7924C23.3742 14.8471 23.1968 16.9 21.4101 19.3932C19.6295 21.8777 17.2541 23.7153 15.3161 24.9338C14.3483 25.5423 13.4925 25.9945 12.8795 26.2943Z" fill="white" stroke="#00BDC8"/>
<path fill-rule="evenodd" clip-rule="evenodd" d="M18.799 13.3784C17.2199 14.62 15.9411 16.321 14.8076 18.5683L14.7501 18.683C13.8869 20.4159 13.1882 22.24 12.1805 25.2461L11.6443 26.8623C11.5475 27.1554 11.8271 27.4291 12.1128 27.3319L12.1319 27.3249C12.1586 27.3143 12.2079 27.294 12.2782 27.2639L12.3682 27.2251C12.446 27.1912 12.5307 27.1535 12.6219 27.112L12.6774 27.0866C13.1046 26.8904 13.5798 26.6542 14.0911 26.3774C15.551 25.5875 17.0109 24.6304 18.3749 23.5022C19.7439 22.3698 20.9411 21.124 21.9171 19.762C23.661 17.3287 24.1475 14.9538 23.3424 13.4874C22.5218 11.9927 20.6563 11.9244 18.799 13.3784ZM19.1789 14.025L19.2548 13.9648C20.7906 12.7625 22.1269 12.8114 22.6951 13.8465C23.3383 15.018 22.9111 17.1037 21.3173 19.3277C20.3809 20.6344 19.2275 21.8345 17.9052 22.9283C16.5812 24.0235 15.161 24.9545 13.7409 25.723L13.642 25.7762C13.3174 25.9501 13.0087 26.1067 12.7195 26.2462L12.6115 26.2977L12.7317 25.9358C13.8119 22.6874 14.527 20.794 15.4128 19.0157C16.4964 16.8401 17.7046 15.2071 19.1789 14.025Z" fill="#00BDC8"/>
<path d="M11.7095 28.3662C11.6588 28.3644 11.6016 28.3621 11.5383 28.3588C11.2448 28.3433 10.8206 28.307 10.3032 28.2234C9.26802 28.0562 7.86366 27.7004 6.38761 26.9469L6.38725 26.9467C4.90977 26.1954 3.48275 25.1666 2.50601 24.1945C2.01649 23.7074 1.65111 23.2453 1.4458 22.8494C1.23436 22.4417 1.22605 22.1731 1.31474 22.0128C1.46234 21.7458 1.62574 21.5113 1.84898 21.3412C2.06671 21.1753 2.35804 21.0582 2.78459 21.0561C3.66068 21.0518 5.08705 21.5323 7.49381 23.0596C9.87404 24.57 10.8952 25.9413 11.343 26.929C11.5672 27.4232 11.651 27.8284 11.6866 28.1175C11.6983 28.2121 11.7049 28.2945 11.7095 28.3662Z" fill="white" stroke="#00BDC8"/>
<path fill-rule="evenodd" clip-rule="evenodd" d="M2.78132 20.4262C1.80622 20.4309 1.23116 20.8691 0.76819 21.7062C0.015099 23.0679 2.77781 25.8174 6.10527 27.5093C7.39867 28.1696 8.73077 28.5899 10.0361 28.8175C10.509 28.8999 10.9508 28.9518 11.3534 28.979L11.4573 28.9855C11.6592 28.9972 11.8251 29.001 11.9506 28.9999L12.0076 28.9989L12.0284 28.9977C12.2753 28.9766 12.4224 28.7254 12.3463 28.5064L12.3443 28.5011L12.333 28.3203C12.3288 28.2564 12.3239 28.1967 12.3176 28.1348C12.3012 27.9737 12.2762 27.8121 12.2391 27.6419C12.1428 27.2011 11.9737 26.7448 11.7106 26.2668C11.0236 25.0186 9.77599 23.7635 7.82684 22.5266L7.66828 22.4265C5.4636 21.0444 3.89638 20.4207 2.78132 20.4262ZM2.78495 21.1697C3.7517 21.165 5.2525 21.7723 7.4316 23.1552C9.28083 24.3286 10.4401 25.4948 11.063 26.6266L11.0984 26.6917C11.41 27.2712 11.5247 27.6749 11.5782 28.1975L11.583 28.2477L11.5441 28.2458C11.4992 28.2434 11.4522 28.2405 11.4029 28.2372C11.0255 28.2118 10.6094 28.1629 10.1627 28.085C8.92644 27.8695 7.6642 27.4712 6.44004 26.8463C5.00286 26.1155 3.57713 25.1 2.5872 24.1148C1.6427 23.1748 1.23618 22.391 1.4152 22.0673C1.76015 21.4436 2.11536 21.1729 2.78495 21.1697Z" fill="#00BDC8"/>
<path fill-rule="evenodd" clip-rule="evenodd" d="M21.2099 20.4262C20.0683 20.4206 18.4527 21.0744 16.1644 22.5266C14.2152 23.7635 12.9676 25.0186 12.2806 26.2668C12.0175 26.7449 11.8484 27.2011 11.7522 27.6419C11.715 27.8121 11.69 27.9737 11.6736 28.1348C11.6694 28.1761 11.6659 28.2164 11.6627 28.2575L11.6469 28.5011L11.6449 28.5064C11.569 28.7247 11.7149 28.9749 11.9603 28.9975L11.9906 28.9991L12.01 28.9995C12.1586 29.0019 12.3705 28.997 12.6379 28.979C13.0404 28.9518 13.4822 28.8999 13.9551 28.8175C15.2604 28.5899 16.5926 28.1696 17.8865 27.509C21.2134 25.8174 23.9761 23.0679 23.223 21.7062C22.7601 20.8691 22.185 20.4309 21.2099 20.4262ZM21.2068 21.1697C21.8764 21.173 22.2316 21.4436 22.5766 22.0674C22.7556 22.3911 22.3491 23.1749 21.4046 24.1149C20.4147 25.1 18.9889 26.1156 17.5522 26.8461C16.3276 27.4712 15.0653 27.8695 13.8291 28.085C13.3824 28.1629 12.9663 28.2118 12.5888 28.2372L12.4477 28.2458L12.4087 28.2478L12.4135 28.1976C12.469 27.6556 12.5904 27.2415 12.9288 26.6266C13.5517 25.4949 14.7109 24.3286 16.5602 23.1552L16.7128 23.0588C18.8096 21.7441 20.2628 21.1651 21.2068 21.1697Z" fill="#00BDC8"/>
<path d="M12.2821 28.3662C12.2868 28.2945 12.2934 28.2121 12.305 28.1175C12.3407 27.8284 12.4245 27.4232 12.6486 26.929C13.0964 25.9413 14.1176 24.57 16.4978 23.0596C18.9046 21.5323 20.331 21.0518 21.207 21.0561C21.6336 21.0582 21.9249 21.1753 22.1427 21.3412C22.3659 21.5113 22.5293 21.7458 22.6769 22.0128C22.7656 22.1731 22.7573 22.4417 22.5458 22.8494C22.3406 23.2453 21.9751 23.7074 21.4856 24.1945C20.5089 25.1666 19.0819 26.1954 17.6044 26.9467L17.604 26.9469C16.128 27.7004 14.7236 28.0562 13.6884 28.2234C13.1711 28.307 12.7469 28.3433 12.4534 28.3588C12.3901 28.3621 12.3329 28.3644 12.2821 28.3662Z" fill="white" stroke="#00BDC8"/>
</g>
<defs>
<clipPath id="clip0">
<rect width="24" height="31" fill="white" transform="translate(0 5)"/>
</clipPath>
</defs>
</svg>
