<svg width="262" height="40" viewBox="0 0 262 40" fill="none" xmlns="http://www.w3.org/2000/svg">
<path fill-rule="evenodd" clip-rule="evenodd" d="M5.29527 35L0 30.3726L4.6771 22H14.4862L19 30.5166L13.8797 35H5.29527Z" fill="#FDDBC6"/>
<path d="M8.44452 21.2118C8.49239 21.3425 8.53697 21.4656 8.5781 21.5803C6.8281 20.8548 4.45445 19.3164 2.08906 16.0543C0.68139 14.113 0.619529 12.6199 0.998694 11.9373C1.17508 11.6198 1.45758 11.4414 1.83713 11.4277C2.2381 11.4132 2.79495 11.5843 3.45321 12.0936C4.09369 12.5892 4.76508 13.4693 5.41887 14.5623C6.06632 15.6447 6.67125 16.8923 7.19157 18.0811C7.71123 19.2683 8.14278 20.3882 8.44452 21.2118Z" fill="white" stroke="#00BDC8"/>
<path fill-rule="evenodd" clip-rule="evenodd" d="M0.302302 11.5525C-0.342558 12.7133 0.047135 14.5935 1.44397 16.5198C3.94217 19.9651 6.65962 21.8939 9.30613 22.6822C9.52982 22.7488 9.73727 22.545 9.67789 22.3251L9.67015 22.3L9.60334 22.1003C9.57494 22.0165 9.54309 21.9235 9.50792 21.8221L9.41905 21.5681C9.30699 21.2505 9.18241 20.9072 9.04625 20.5436C8.55099 19.221 8.00444 17.8982 7.42197 16.6622L7.34442 16.4986C6.1942 14.0863 5.05279 12.3258 3.94163 11.4661C2.45391 10.3151 0.959634 10.3691 0.302302 11.5525ZM3.57711 11.9304C4.61715 12.7351 5.7462 14.4954 6.8849 16.9117C7.45979 18.1316 8.00043 19.44 8.49046 20.7487L8.52694 20.8464C8.65963 21.2026 8.78074 21.5381 8.88931 21.8476L8.91979 21.935L8.86978 21.9169C6.53919 21.0619 4.15325 19.249 1.92498 16.176C0.648338 14.4154 0.306098 12.7642 0.821305 11.8367C1.2765 11.0173 2.34688 10.9786 3.57711 11.9304Z" fill="#00BDC8"/>
<path d="M9.46793 20.9694C9.50616 20.8739 9.5461 20.7726 9.58747 20.6658C9.91985 19.8079 10.3427 18.5995 10.7041 17.199C11.4315 14.3808 11.8902 10.8606 10.9401 7.85686L9.46793 20.9694ZM9.46793 20.9694C8.36522 18.3901 6.84888 14.5244 6.57999 10.8383C6.37385 7.94788 7.36053 6.38394 8.30469 5.94322C8.76355 5.72903 9.2516 5.75069 9.70398 6.02725C10.1684 6.31115 10.634 6.8909 10.94 7.85665L9.46793 20.9694Z" fill="white" stroke="#00BDC8"/>
<path fill-rule="evenodd" clip-rule="evenodd" d="M7.96727 5.22377C6.47114 5.92215 5.58279 8.0499 5.7858 10.895C5.81553 11.3026 5.86024 11.718 5.91944 12.1414C6.21515 14.2564 6.85116 16.4861 7.76797 18.8979L7.88353 19.1993C8.26094 20.176 8.57849 20.9274 9.19843 22.3504C9.29962 22.5826 9.62937 22.5882 9.73841 22.3594L9.76815 22.2957C9.78382 22.2617 9.80112 22.2237 9.81996 22.1818L9.84936 22.116C9.93625 21.9206 10.0329 21.6942 10.1369 21.4393C10.4335 20.7122 10.7299 19.9018 11.0066 19.028C11.8191 16.4621 12.2977 13.8905 12.2726 11.4825C12.2586 10.1336 12.084 8.87357 11.7313 7.71908L11.6997 7.61749C11.0249 5.48762 9.45631 4.5287 7.96727 5.22377ZM11.134 7.79397C11.4894 8.91729 11.6659 10.1549 11.6797 11.4886C11.7041 13.8263 11.2363 16.3398 10.4409 18.8515C10.1693 19.7095 9.8782 20.5053 9.58731 21.2183L9.53261 21.3514L9.47245 21.4952L9.28617 21.0627C8.9181 20.2042 8.67002 19.5969 8.37511 18.8279C7.44425 16.4005 6.80089 14.1658 6.50653 12.0605C6.44909 11.6496 6.40575 11.247 6.37701 10.853C6.18964 8.22699 6.97947 6.3352 8.21941 5.75641C9.33264 5.23676 10.5329 5.95853 11.1166 7.7398L11.134 7.79397Z" fill="#00BDC8"/>
<path d="M12.1124 20.5299C11.4773 20.9246 10.9034 21.235 10.4502 21.4627C11.044 19.7035 11.6339 18.0438 12.3419 16.565C13.1938 14.7858 14.1994 13.3074 15.5468 12.2601C16.2049 11.7511 16.7616 11.58 17.1624 11.5945C17.542 11.6082 17.8245 11.7866 18.0009 12.1041C18.38 12.7867 18.3182 14.2798 16.9105 16.2211C15.515 18.1457 13.6468 19.5765 12.1124 20.5299Z" fill="white" stroke="#00BDC8"/>
<path fill-rule="evenodd" clip-rule="evenodd" d="M15.0583 11.6329C13.7934 12.6158 12.7691 13.9624 11.8611 15.7415L11.8151 15.8324C11.1237 17.2042 10.5639 18.6483 9.75683 21.0281L9.32731 22.3076C9.24975 22.5396 9.47372 22.7563 9.70258 22.6794L9.71784 22.6739C9.73928 22.6654 9.77875 22.6494 9.83507 22.6256L9.90718 22.5949C9.96949 22.5681 10.0373 22.5382 10.1104 22.5053L10.1549 22.4852C10.497 22.3299 10.8776 22.1429 11.2872 21.9238C12.4567 21.2984 13.626 20.5408 14.7186 19.6475C15.8152 18.751 16.7741 17.7648 17.556 16.6866C18.9528 14.7602 19.3425 12.8801 18.6976 11.7192C18.0403 10.5359 16.546 10.4818 15.0583 11.6329ZM15.3625 12.1448L15.4232 12.0971C16.6535 11.1453 17.7238 11.184 18.179 12.0034C18.6942 12.9309 18.352 14.5821 17.0754 16.3427C16.3252 17.3772 15.4014 18.3273 14.3423 19.1932C13.2817 20.0602 12.1441 20.7973 11.0066 21.4057L10.9274 21.4478C10.6673 21.5855 10.4201 21.7095 10.1884 21.8198L10.1019 21.8607L10.1982 21.5741C11.0634 19.0025 11.6362 17.5035 12.3457 16.0957C13.2138 14.3734 14.1816 13.0805 15.3625 12.1448Z" fill="#00BDC8"/>
<path d="M9.04383 23.1832C8.8412 23.1671 8.58942 23.1397 8.29954 23.0934C7.49276 22.9646 6.39855 22.6905 5.2496 22.1108L5.24889 22.1104C4.08992 21.528 2.97271 20.7308 2.21447 19.985C1.8331 19.6099 1.56412 19.2688 1.41967 18.9935C1.34788 18.8567 1.31714 18.7554 1.3084 18.6881C1.30424 18.6561 1.30564 18.6361 1.30728 18.6258C1.30873 18.6166 1.31055 18.6134 1.31088 18.6128L1.3109 18.6127C1.42151 18.4151 1.52826 18.2711 1.65873 18.1728C1.77842 18.0827 1.94878 18.0079 2.23184 18.0066C2.84293 18.0036 3.92318 18.3418 5.84557 19.5475C7.71601 20.7206 8.48813 21.7662 8.81729 22.4837C8.94421 22.7603 9.00906 22.9962 9.04383 23.1832Z" fill="white" stroke="#00BDC8"/>
<path fill-rule="evenodd" clip-rule="evenodd" d="M2.2277 17.2124C1.44664 17.2162 0.986008 17.563 0.615167 18.2258C0.0119307 19.3038 2.22489 21.4804 4.89022 22.8199C5.92625 23.3426 6.99331 23.6753 8.03888 23.8555C8.41769 23.9208 8.77154 23.9619 9.094 23.9834L9.17728 23.9885C9.33904 23.9978 9.47186 24.0008 9.57245 23.9999L9.61805 23.9991L9.63472 23.9982C9.83251 23.9815 9.95037 23.7826 9.88941 23.6092L9.88775 23.605L9.87873 23.4619C9.87535 23.4113 9.87147 23.3641 9.86642 23.3151C9.85326 23.1875 9.83327 23.0596 9.80348 22.9248C9.72638 22.5759 9.59096 22.2147 9.38022 21.8363C8.82988 20.848 7.83054 19.8544 6.26924 18.8752L6.14223 18.796C4.37627 17.7018 3.12088 17.2081 2.2277 17.2124ZM2.2306 17.801C3.00498 17.7973 4.20713 18.2781 5.95265 19.3729C7.43388 20.3019 8.36247 21.2251 8.86143 22.1211L8.88982 22.1727C9.13937 22.6314 9.2313 22.951 9.27415 23.3648L9.27795 23.4045L9.24676 23.403C9.21087 23.4011 9.17318 23.3988 9.13373 23.3962C8.83138 23.376 8.49806 23.3373 8.14028 23.2757C7.15004 23.105 6.13893 22.7897 5.1584 22.295C4.00718 21.7165 2.86516 20.9126 2.07221 20.1326C1.31565 19.3885 0.990021 18.7679 1.13342 18.5117C1.40973 18.0179 1.69426 17.8036 2.2306 17.801Z" fill="#00BDC8"/>
<path d="M10.9179 23.0934C10.628 23.1397 10.3762 23.1671 10.1736 23.1832C10.2084 22.9962 10.2732 22.7603 10.4001 22.4837C10.7293 21.7662 11.5014 20.7206 13.3719 19.5475C15.2943 18.3418 16.3745 18.0036 16.9856 18.0066C17.2687 18.0079 17.439 18.0827 17.5587 18.1728C17.6892 18.2711 17.7959 18.4151 17.9065 18.6127C17.9068 18.6132 17.9087 18.6163 17.9102 18.6258C17.9118 18.6361 17.9132 18.6561 17.909 18.6881C17.9003 18.7554 17.8696 18.8567 17.7978 18.9935C17.6533 19.2688 17.3843 19.6099 17.003 19.985C16.2447 20.7308 15.1275 21.528 13.9686 22.1104L13.9678 22.1108C12.8189 22.6905 11.7247 22.9646 10.9179 23.0934Z" fill="white" stroke="#00BDC8"/>
<path fill-rule="evenodd" clip-rule="evenodd" d="M16.9895 17.2124C16.075 17.208 14.7809 17.7256 12.9479 18.8752C11.3866 19.8544 10.3873 20.848 9.83695 21.8363C9.62621 22.2147 9.49079 22.5759 9.41369 22.9248C9.38391 23.0596 9.36391 23.1875 9.35076 23.3151C9.34739 23.3478 9.34454 23.3796 9.34201 23.4122L9.32933 23.605L9.32776 23.6092C9.267 23.782 9.38387 23.9802 9.58046 23.998L9.60468 23.9993L9.62025 23.9996C9.73924 24.0015 9.90902 23.9976 10.1232 23.9834C10.4456 23.9619 10.7995 23.9208 11.1783 23.8555C12.2239 23.6753 13.2909 23.3426 14.3274 22.8196C16.9923 21.4804 19.2052 19.3038 18.602 18.2258C18.2312 17.563 17.7705 17.2162 16.9895 17.2124ZM16.987 17.801C17.5233 17.8036 17.8079 18.0179 18.0842 18.5117C18.2276 18.7679 17.9019 19.3885 17.1454 20.1326C16.3524 20.9125 15.2104 21.7165 14.0596 22.2948C13.0787 22.7897 12.0675 23.105 11.0773 23.2757C10.7195 23.3373 10.3862 23.376 10.0838 23.3962L9.97082 23.4029L9.93953 23.4045L9.94343 23.3647C9.98787 22.9357 10.0851 22.6078 10.3561 22.1211C10.8551 21.2251 11.7837 20.3018 13.2649 19.3729L13.3872 19.2966C15.0668 18.2558 16.2308 17.7974 16.987 17.801Z" fill="#00BDC8"/>
<path d="M32.312 32L27.416 8.192L32.536 8L35.064 22.368L37.784 8.192L41.624 8L44.152 22.528L47.192 8.192L51.512 8L46.36 32H41.72L39.192 17.344L36.6 32H32.312ZM56.6773 32.416C55.9093 32.416 55.2159 32.1813 54.5973 31.712C53.9786 31.2213 53.4986 30.5707 53.1573 29.76C52.8159 28.928 52.6453 28 52.6453 26.976C52.6453 24.6507 53.4346 23.0187 55.0133 22.08C56.6133 21.12 58.4693 20.576 60.5813 20.448C60.5813 19.296 60.5066 18.4427 60.3573 17.888C60.2079 17.3333 59.8453 17.056 59.2693 17.056C58.7786 17.056 58.4053 17.248 58.1493 17.632C57.8933 18.016 57.7333 18.5067 57.6693 19.104L53.2853 18.336C53.4986 16.6933 54.1706 15.52 55.3013 14.816C56.4319 14.112 57.7546 13.76 59.2693 13.76C61.2106 13.76 62.6613 14.272 63.6213 15.296C64.6026 16.32 65.0933 17.6533 65.0933 19.296V28.608C65.0933 29.6107 65.2533 30.6773 65.5733 31.808L61.1892 32.192L60.6773 29.984C60.2933 30.6667 59.7279 31.2427 58.9813 31.712C58.2346 32.1813 57.4666 32.416 56.6773 32.416ZM58.7573 29.216C59.1199 29.216 59.4186 29.1307 59.6533 28.96C59.9093 28.7893 60.2186 28.512 60.5813 28.128V23.136C59.5146 23.136 58.6613 23.424 58.0213 24C57.3813 24.576 57.0613 25.472 57.0613 26.688C57.0613 27.4987 57.1999 28.128 57.4773 28.576C57.7759 29.0027 58.2026 29.216 58.7573 29.216ZM74.9398 32.352C73.4891 32.352 72.2624 31.9893 71.2598 31.264C70.2571 30.5173 69.7558 29.2053 69.7558 27.328V17.376H67.2598L67.4518 13.984H69.8838L70.3318 10.08L74.2358 9.536V13.984H77.9478L77.7558 17.376H74.2678V27.296C74.2678 27.936 74.4278 28.3947 74.7478 28.672C75.0678 28.9493 75.5371 29.088 76.1558 29.088C76.4971 29.088 77.0731 29.024 77.8838 28.896V32C77.7984 32.0213 77.4571 32.0853 76.8598 32.192C76.2838 32.2987 75.6438 32.352 74.9398 32.352ZM86.055 32.416C83.9217 32.416 82.2897 31.5733 81.159 29.888C80.0283 28.1813 79.463 25.92 79.463 23.104C79.463 20.2453 80.039 17.9733 81.191 16.288C82.343 14.6027 84.0177 13.76 86.215 13.76C88.3057 13.76 89.9057 14.6027 91.015 16.288C92.1243 17.9733 92.679 20.2453 92.679 23.104C92.679 23.2747 92.647 23.4027 92.583 23.488C92.519 23.552 92.487 23.5947 92.487 23.616H83.943C83.943 25.0027 84.1243 26.272 84.487 27.424C84.8497 28.5547 85.4043 29.12 86.151 29.12C86.983 29.12 87.6017 28.64 88.007 27.68C88.4123 26.72 88.6257 26.2187 88.647 26.176L92.039 27.456C91.591 28.992 90.8763 30.208 89.895 31.104C88.9137 31.9787 87.6337 32.416 86.055 32.416ZM88.263 21.024C88.263 19.744 88.0923 18.7307 87.751 17.984C87.4097 17.2373 86.8763 16.864 86.151 16.864C85.7883 16.864 85.4363 17.0453 85.095 17.408C84.7537 17.7707 84.4763 18.272 84.263 18.912C84.0497 19.552 83.943 20.256 83.943 21.024H88.263ZM95.3895 14.368L99.8695 13.984V16.896C100.51 15.9787 101.299 15.2427 102.238 14.688C103.198 14.112 104.414 13.824 105.886 13.824V18.208C105.118 18.208 104.104 18.3467 102.845 18.624C101.608 18.88 100.616 19.3387 99.8695 20V31.808L95.3895 32.192V14.368ZM132.492 32.192V14.176L128.012 32H125.132L120.3 14.112V31.808L116.428 32V8.224L123.308 8.032L127.276 22.88L131.083 8.576L137.356 8.192V31.808L132.492 32.192ZM141.962 37.696C141.45 37.696 140.82 37.632 140.074 37.504V33.76C140.863 33.8027 141.492 33.824 141.962 33.824C143.839 33.824 144.778 32.9493 144.778 31.2V30.304L139.626 14.208L144.49 13.984L147.018 25.28L149.418 14.08L153.482 14.048L148.874 31.68C148.234 33.984 147.295 35.5627 146.058 36.416C144.842 37.2693 143.476 37.696 141.962 37.696ZM163.74 8H166.748C169.159 8 171.079 8.10667 172.508 8.32C173.937 8.512 175.196 9.13067 176.284 10.176C177.393 11.2213 177.948 12.896 177.948 15.2C177.948 17.2907 177.479 18.88 176.54 19.968C175.623 21.0347 174.481 21.7387 173.116 22.08C171.772 22.4 170.215 22.56 168.444 22.56V31.808L163.74 32.192V8ZM169.276 18.752C170.513 18.752 171.484 18.496 172.188 17.984C172.913 17.472 173.276 16.5333 173.276 15.168C173.276 13.824 172.945 12.9173 172.284 12.448C171.623 11.9787 170.577 11.744 169.148 11.744H168.476V18.752H169.276ZM180.547 32.192V8.576L185.027 8V31.808L180.547 32.192ZM191.865 32.416C191.097 32.416 190.403 32.1813 189.785 31.712C189.166 31.2213 188.686 30.5707 188.345 29.76C188.003 28.928 187.833 28 187.833 26.976C187.833 24.6507 188.622 23.0187 190.201 22.08C191.801 21.12 193.657 20.576 195.769 20.448C195.769 19.296 195.694 18.4427 195.545 17.888C195.395 17.3333 195.033 17.056 194.457 17.056C193.966 17.056 193.593 17.248 193.337 17.632C193.081 18.016 192.921 18.5067 192.857 19.104L188.473 18.336C188.686 16.6933 189.358 15.52 190.489 14.816C191.619 14.112 192.942 13.76 194.457 13.76C196.398 13.76 197.849 14.272 198.809 15.296C199.79 16.32 200.281 17.6533 200.281 19.296V28.608C200.281 29.6107 200.441 30.6773 200.761 31.808L196.377 32.192L195.865 29.984C195.481 30.6667 194.915 31.2427 194.169 31.712C193.422 32.1813 192.654 32.416 191.865 32.416ZM193.945 29.216C194.307 29.216 194.606 29.1307 194.841 28.96C195.097 28.7893 195.406 28.512 195.769 28.128V23.136C194.702 23.136 193.849 23.424 193.209 24C192.569 24.576 192.249 25.472 192.249 26.688C192.249 27.4987 192.387 28.128 192.665 28.576C192.963 29.0027 193.39 29.216 193.945 29.216ZM203.983 14.368L208.463 13.984V16.288C209.381 15.4773 210.277 14.8587 211.151 14.432C212.047 13.984 212.869 13.76 213.615 13.76C214.746 13.76 215.663 14.176 216.367 15.008C217.093 15.8187 217.455 16.9173 217.455 18.304V31.808L212.975 32.192V20C212.975 18.4 212.431 17.6 211.343 17.6C210.981 17.6 210.575 17.7067 210.127 17.92C209.701 18.1333 209.146 18.4427 208.463 18.848V31.808L203.983 32.192V14.368ZM227.377 32.352C225.927 32.352 224.7 31.9893 223.697 31.264C222.695 30.5173 222.193 29.2053 222.193 27.328V17.376H219.697L219.889 13.984H222.321L222.769 10.08L226.673 9.536V13.984H230.385L230.193 17.376H226.705V27.296C226.705 27.936 226.865 28.3947 227.185 28.672C227.505 28.9493 227.975 29.088 228.593 29.088C228.935 29.088 229.511 29.024 230.321 28.896V32C230.236 32.0213 229.895 32.0853 229.297 32.192C228.721 32.2987 228.081 32.352 227.377 32.352ZM238.141 32.416C236.37 32.416 234.941 32.0213 233.853 31.232C232.765 30.4213 232.061 29.3013 231.741 27.872L235.229 26.72C235.314 27.1253 235.474 27.488 235.709 27.808C236.199 28.512 236.914 28.864 237.853 28.864C238.386 28.864 238.898 28.7467 239.389 28.512C239.879 28.2773 240.125 27.9147 240.125 27.424C240.125 26.7627 239.666 26.2507 238.749 25.888L234.973 24.352C233.97 23.9253 233.202 23.2853 232.669 22.432C232.135 21.5787 231.868 20.5333 231.868 19.296C231.868 18.144 232.146 17.152 232.701 16.32C233.277 15.488 234.023 14.8587 234.941 14.432C235.879 13.984 236.882 13.76 237.949 13.76C239.293 13.76 240.53 14.1547 241.661 14.944C242.791 15.712 243.549 16.768 243.933 18.112L240.22 19.264C240.135 18.9013 239.986 18.5387 239.773 18.176C239.303 17.4507 238.706 17.088 237.981 17.088C237.447 17.088 236.989 17.216 236.605 17.472C236.221 17.7067 236.029 18.0587 236.029 18.528C236.029 19.0827 236.551 19.5947 237.597 20.064L240.797 21.376C241.927 21.9093 242.813 22.5813 243.453 23.392C244.093 24.2027 244.413 25.2907 244.413 26.656C244.413 27.8933 244.114 28.9493 243.517 29.824C242.919 30.6773 242.141 31.328 241.181 31.776C240.221 32.2027 239.207 32.416 238.141 32.416Z" fill="#00BDC8"/>
</svg>
