<svg width="1440" height="730" viewBox="0 0 1440 730" fill="none" xmlns="http://www.w3.org/2000/svg">
<mask id="mask0" mask-type="alpha" maskUnits="userSpaceOnUse" x="0" y="0" width="1440" height="730">
<rect width="1440" height="730" fill="#FCF7F3"/>
</mask>
<g mask="url(#mask0)">
<path d="M1011.09 8.68357C1010.6 17.1753 1008.48 19.5506 1006.06 19.4082C1003.63 19.2658 1001.81 16.6594 1002.31 8.16771C1002.81 -0.323991 1007.86 -11.343 1007.86 -11.343C1007.86 -11.343 1011.59 0.191865 1011.09 8.68357Z" fill="#D3F3F5" fill-opacity="0.5"/>
<path d="M776.614 555.706C776.116 564.198 774.003 566.573 771.577 566.431C769.15 566.288 767.33 563.682 767.828 555.19C768.327 546.699 773.382 535.68 773.382 535.68C773.382 535.68 777.113 547.215 776.614 555.706Z" fill="#D3F3F5" fill-opacity="0.5"/>
<path d="M1315.27 29.5049C1314.77 37.9966 1312.65 40.3719 1310.23 40.2295C1307.8 40.0871 1305.98 37.4807 1306.48 28.989C1306.98 20.4973 1312.03 9.47832 1312.03 9.47832C1312.03 9.47832 1315.76 21.0132 1315.27 29.5049Z" fill="#D3F3F5" fill-opacity="0.5"/>
<path d="M105.669 316.785C105.171 325.277 103.058 327.652 100.632 327.51C98.2055 327.367 96.3849 324.761 96.8835 316.269C97.382 307.778 102.437 296.759 102.437 296.759C102.437 296.759 106.168 308.293 105.669 316.785Z" fill="#D3F3F5" fill-opacity="0.5"/>
<path d="M1012.34 195.556C1011.84 204.048 1009.73 206.424 1007.3 206.281C1004.88 206.139 1003.06 203.532 1003.55 195.041C1004.05 186.549 1009.11 175.53 1009.11 175.53C1009.11 175.53 1012.84 187.065 1012.34 195.556Z" fill="#D3F3F5" fill-opacity="0.5"/>
<path d="M122.828 517.379C122.329 525.87 120.216 528.246 117.79 528.103C115.364 527.961 113.543 525.354 114.042 516.863C114.54 508.371 119.595 497.352 119.595 497.352C119.595 497.352 123.326 508.887 122.828 517.379Z" fill="#D3F3F5" fill-opacity="0.5"/>
<path d="M812.286 296.039C811.788 304.53 809.675 306.906 807.248 306.763C804.822 306.621 803.002 304.015 803.5 295.523C803.999 287.031 809.054 276.012 809.054 276.012C809.054 276.012 812.785 287.547 812.286 296.039Z" fill="#D3F3F5" fill-opacity="0.5"/>
<path d="M536.831 428.138C536.333 436.629 534.22 439.005 531.793 438.862C529.367 438.72 527.547 436.113 528.045 427.622C528.544 419.13 533.599 408.111 533.599 408.111C533.599 408.111 537.33 419.646 536.831 428.138Z" fill="#D3F3F5" fill-opacity="0.5"/>
<path d="M200.665 320.179C200.166 328.671 198.053 331.046 195.627 330.904C193.201 330.762 191.38 328.155 191.879 319.663C192.377 311.172 197.432 300.153 197.432 300.153C197.432 300.153 201.163 311.688 200.665 320.179Z" fill="#D3F3F5" fill-opacity="0.5"/>
<path d="M521.631 178.301C520.814 192.217 517.351 196.11 513.375 195.876C509.399 195.643 506.415 191.372 507.232 177.455C508.05 163.539 516.334 145.481 516.334 145.481C516.334 145.481 522.448 164.384 521.631 178.301Z" fill="#D3F3F5" fill-opacity="0.5"/>
<path d="M414.118 254.628C413.301 268.545 409.838 272.438 405.862 272.204C401.886 271.971 398.902 267.699 399.719 253.783C400.536 239.867 408.821 221.808 408.821 221.808C408.821 221.808 414.935 240.712 414.118 254.628Z" fill="#D3F3F5" fill-opacity="0.5"/>
<path d="M1167.33 509.935C1166.51 523.851 1163.05 527.744 1159.07 527.511C1155.1 527.277 1152.11 523.006 1152.93 509.089C1153.75 495.173 1162.03 477.115 1162.03 477.115C1162.03 477.115 1168.15 496.018 1167.33 509.935Z" fill="#D3F3F5" fill-opacity="0.5"/>
<path d="M344.871 478.249C344.053 492.165 340.591 496.058 336.614 495.825C332.638 495.591 329.655 491.32 330.472 477.404C331.289 463.487 339.573 445.429 339.573 445.429C339.573 445.429 345.688 464.333 344.871 478.249Z" fill="#D3F3F5" fill-opacity="0.5"/>
<path d="M1024.76 735.089C1023.94 749.005 1020.48 752.898 1016.5 752.665C1012.52 752.431 1009.54 748.16 1010.36 734.244C1011.17 720.327 1019.46 702.269 1019.46 702.269C1019.46 702.269 1025.57 721.173 1024.76 735.089Z" fill="#D3F3F5" fill-opacity="0.5"/>
<path d="M377.646 712.367C376.829 726.283 373.366 730.176 369.39 729.943C365.414 729.709 362.43 725.438 363.247 711.522C364.064 697.605 372.349 679.547 372.349 679.547C372.349 679.547 378.463 698.451 377.646 712.367Z" fill="#D3F3F5" fill-opacity="0.5"/>
<path d="M1106.07 116.326C1105.25 130.243 1101.79 134.136 1097.81 133.902C1093.84 133.669 1090.85 129.397 1091.67 115.481C1092.49 101.565 1100.77 83.5065 1100.77 83.5065C1100.77 83.5065 1106.89 102.41 1106.07 116.326Z" fill="#D3F3F5" fill-opacity="0.5"/>
<path d="M743.519 246.85C742.702 260.767 739.239 264.659 735.263 264.426C731.287 264.193 728.303 259.921 729.12 246.005C729.937 232.089 738.222 214.03 738.222 214.03C738.222 214.03 744.336 232.934 743.519 246.85Z" fill="#D3F3F5" fill-opacity="0.5"/>
<path d="M1206.06 17.0068C1205.24 30.9232 1201.78 34.8161 1197.8 34.5826C1193.83 34.3492 1190.85 30.0779 1191.66 16.1615C1192.48 2.24514 1200.76 -15.8131 1200.76 -15.8131C1200.76 -15.8131 1206.88 3.09039 1206.06 17.0068Z" fill="#D3F3F5" fill-opacity="0.5"/>
<path d="M216.556 438.148C215.739 452.065 212.276 455.958 208.3 455.724C204.324 455.491 201.34 451.219 202.157 437.303C202.974 423.387 211.259 405.328 211.259 405.328C211.259 405.328 217.373 424.232 216.556 438.148Z" fill="#D3F3F5" fill-opacity="0.5"/>
<path d="M556.777 342.798C555.96 356.715 552.497 360.608 548.521 360.374C544.545 360.141 541.561 355.869 542.378 341.953C543.195 328.037 551.479 309.978 551.479 309.978C551.479 309.978 557.594 328.882 556.777 342.798Z" fill="#D3F3F5" fill-opacity="0.5"/>
<path d="M747.621 118.352C746.804 132.269 743.341 136.162 739.365 135.928C735.389 135.695 732.406 131.423 733.223 117.507C734.04 103.591 742.324 85.5323 742.324 85.5323C742.324 85.5323 748.439 104.436 747.621 118.352Z" fill="#D3F3F5" fill-opacity="0.5"/>
<path d="M513.141 665.375C512.324 679.291 508.861 683.184 504.885 682.95C500.909 682.717 497.926 678.446 498.743 664.529C499.56 650.613 507.844 632.555 507.844 632.555C507.844 632.555 513.959 651.458 513.141 665.375Z" fill="#D3F3F5" fill-opacity="0.5"/>
<path d="M1111.91 229.756C1111.09 243.672 1107.63 247.565 1103.65 247.332C1099.67 247.098 1096.69 242.827 1097.51 228.911C1098.32 214.994 1106.61 196.936 1106.61 196.936C1106.61 196.936 1112.72 215.839 1111.91 229.756Z" fill="#D3F3F5" fill-opacity="0.5"/>
<path d="M222.394 551.578C221.577 565.494 218.114 569.387 214.138 569.154C210.162 568.92 207.178 564.649 207.995 550.733C208.812 536.816 217.097 518.758 217.097 518.758C217.097 518.758 223.211 537.662 222.394 551.578Z" fill="#D3F3F5" fill-opacity="0.5"/>
<path d="M701.991 482.593C701.174 496.509 697.711 500.402 693.734 500.169C689.758 499.935 686.775 495.664 687.592 481.747C688.409 467.831 696.693 449.773 696.693 449.773C696.693 449.773 702.808 468.676 701.991 482.593Z" fill="#D3F3F5" fill-opacity="0.5"/>
<path d="M312.949 158.573C312.132 172.489 308.669 176.382 304.693 176.149C300.717 175.915 297.733 171.644 298.55 157.728C299.367 143.811 307.652 125.753 307.652 125.753C307.652 125.753 313.766 144.657 312.949 158.573Z" fill="#D3F3F5" fill-opacity="0.5"/>
<path d="M1066.16 413.879C1065.34 427.796 1061.88 431.689 1057.9 431.455C1053.93 431.222 1050.94 426.95 1051.76 413.034C1052.58 399.118 1060.86 381.059 1060.86 381.059C1060.86 381.059 1066.98 399.963 1066.16 413.879Z" fill="#D3F3F5" fill-opacity="0.5"/>
<path d="M176.648 735.701C175.831 749.618 172.368 753.511 168.392 753.277C164.416 753.044 161.432 748.772 162.249 734.856C163.066 720.94 171.351 702.881 171.351 702.881C171.351 702.881 177.465 721.785 176.648 735.701Z" fill="#D3F3F5" fill-opacity="0.5"/>
<path d="M69.1215 133.648C68.3044 147.565 64.8415 151.458 60.8653 151.224C56.8892 150.991 53.9056 146.719 54.7227 132.803C55.5398 118.887 63.8242 100.828 63.8242 100.828C63.8242 100.828 69.9385 119.732 69.1215 133.648Z" fill="#D3F3F5" fill-opacity="0.5"/>
<path d="M716.868 586.261C716.355 594.997 714.181 597.441 711.684 597.295C709.188 597.148 707.315 594.467 707.828 585.73C708.341 576.994 713.542 565.657 713.542 565.657C713.542 565.657 717.38 577.524 716.868 586.261Z" fill="#D3F3F5" fill-opacity="0.5"/>
<path d="M340.041 19.862C339.224 33.7785 335.761 37.6713 331.785 37.4378C327.809 37.2044 324.826 32.9331 325.643 19.0167C326.46 5.10035 334.744 -12.9579 334.744 -12.9579C334.744 -12.9579 340.858 5.94561 340.041 19.862Z" fill="#D3F3F5" fill-opacity="0.5"/>
<path d="M259.85 259.355C259.033 273.272 255.57 277.164 251.594 276.931C247.618 276.698 244.634 272.426 245.451 258.51C246.268 244.594 254.553 226.535 254.553 226.535C254.553 226.535 260.667 245.439 259.85 259.355Z" fill="#D3F3F5" fill-opacity="0.5"/>
<path d="M1431.62 132.829C1430.8 146.745 1427.34 150.638 1423.37 150.405C1419.39 150.171 1416.41 145.9 1417.22 131.984C1418.04 118.067 1426.32 100.009 1426.32 100.009C1426.32 100.009 1432.44 118.913 1431.62 132.829Z" fill="#D3F3F5" fill-opacity="0.5"/>
<path d="M1013.06 514.661C1012.24 528.578 1008.78 532.471 1004.81 532.237C1000.83 532.004 997.846 527.732 998.663 513.816C999.48 499.9 1007.76 481.841 1007.76 481.841C1007.76 481.841 1013.88 500.745 1013.06 514.661Z" fill="#D3F3F5" fill-opacity="0.5"/>
<path d="M593.622 58.8745C592.805 72.7909 589.342 76.6837 585.366 76.4503C581.39 76.2168 578.407 71.9455 579.224 58.0292C580.041 44.1128 588.325 26.0546 588.325 26.0546C588.325 26.0546 594.44 44.9581 593.622 58.8745Z" fill="#D3F3F5" fill-opacity="0.5"/>
<path d="M608.925 496.289C608.108 510.206 604.645 514.099 600.669 513.865C596.693 513.632 593.709 509.36 594.526 495.444C595.343 481.528 603.628 463.469 603.628 463.469C603.628 463.469 609.742 482.373 608.925 496.289Z" fill="#D3F3F5" fill-opacity="0.5"/>
<path d="M681.4 339.547C680.583 353.464 677.12 357.357 673.144 357.123C669.168 356.89 666.184 352.618 667.001 338.702C667.818 324.786 676.102 306.727 676.102 306.727C676.102 306.727 682.217 325.631 681.4 339.547Z" fill="#D3F3F5" fill-opacity="0.5"/>
<path d="M323.787 331.962C322.97 345.878 319.507 349.771 315.531 349.537C311.555 349.304 308.571 345.033 309.388 331.116C310.205 317.2 318.49 299.142 318.49 299.142C318.49 299.142 324.604 318.045 323.787 331.962Z" fill="#D3F3F5" fill-opacity="0.5"/>
<path d="M1284.58 726.523C1283.76 740.44 1280.3 744.333 1276.32 744.099C1272.35 743.866 1269.36 739.594 1270.18 725.678C1271 711.762 1279.28 693.703 1279.28 693.703C1279.28 693.703 1285.4 712.607 1284.58 726.523Z" fill="#D3F3F5" fill-opacity="0.5"/>
<path d="M1077 587.268C1076.18 601.184 1072.72 605.077 1068.74 604.844C1064.77 604.61 1061.78 600.339 1062.6 586.422C1063.42 572.506 1071.7 554.448 1071.7 554.448C1071.7 554.448 1077.82 573.351 1077 587.268Z" fill="#D3F3F5" fill-opacity="0.5"/>
<path d="M1272 216.008C1271.19 229.924 1267.72 233.817 1263.75 233.584C1259.77 233.35 1256.79 229.079 1257.61 215.163C1258.42 201.246 1266.71 183.188 1266.71 183.188C1266.71 183.188 1272.82 202.092 1272 216.008Z" fill="#D3F3F5" fill-opacity="0.5"/>
<path d="M853.444 597.84C852.627 611.757 849.164 615.65 845.188 615.416C841.212 615.183 838.228 610.911 839.045 596.995C839.863 583.079 848.147 565.021 848.147 565.021C848.147 565.021 854.261 583.924 853.444 597.84Z" fill="#D3F3F5" fill-opacity="0.5"/>
<path d="M62.4076 503.288C61.5905 517.205 58.1276 521.097 54.1515 520.864C50.1754 520.63 47.1918 516.359 48.0088 502.443C48.8259 488.526 57.1103 470.468 57.1103 470.468C57.1103 470.468 63.2247 489.372 62.4076 503.288Z" fill="#D3F3F5" fill-opacity="0.5"/>
<path d="M24.0092 679.412C23.1921 693.329 19.7292 697.222 15.753 696.988C11.7769 696.755 8.79334 692.484 9.61041 678.567C10.4275 664.651 18.7119 646.593 18.7119 646.593C18.7119 646.593 24.8262 665.496 24.0092 679.412Z" fill="#D3F3F5" fill-opacity="0.5"/>
<path d="M1248.65 131.589C1248.15 140.081 1246.04 142.456 1243.61 142.313C1241.18 142.171 1239.36 139.565 1239.86 131.073C1240.36 122.581 1245.42 111.562 1245.42 111.562C1245.42 111.562 1249.15 123.097 1248.65 131.589Z" fill="#D3F3F5" fill-opacity="0.5"/>
<path d="M39.0508 418.869C38.5523 427.361 36.4392 429.736 34.0131 429.594C31.5869 429.451 29.7663 426.845 30.2648 418.353C30.7634 409.861 35.8185 398.842 35.8185 398.842C35.8185 398.842 39.5494 410.377 39.0508 418.869Z" fill="#D3F3F5" fill-opacity="0.5"/>
<path d="M745.667 398.123C745.168 406.614 743.055 408.99 740.629 408.847C738.203 408.705 736.382 406.098 736.881 397.607C737.379 389.115 742.434 378.096 742.434 378.096C742.434 378.096 746.165 389.631 745.667 398.123Z" fill="#D3F3F5" fill-opacity="0.5"/>
<path d="M918.951 190.144C918.452 198.636 916.339 201.011 913.913 200.869C911.487 200.727 909.666 198.12 910.165 189.629C910.663 181.137 915.718 170.118 915.718 170.118C915.718 170.118 919.449 181.653 918.951 190.144Z" fill="#D3F3F5" fill-opacity="0.5"/>
<path d="M684.471 737.167C683.973 745.658 681.86 748.034 679.433 747.891C677.007 747.749 675.187 745.142 675.685 736.651C676.184 728.159 681.239 717.14 681.239 717.14C681.239 717.14 684.97 728.675 684.471 737.167Z" fill="#D3F3F5" fill-opacity="0.5"/>
<path d="M1313.44 570.897C1312.95 579.389 1310.83 581.764 1308.41 581.622C1305.98 581.48 1304.16 578.873 1304.66 570.381C1305.16 561.89 1310.21 550.871 1310.21 550.871C1310.21 550.871 1313.94 562.406 1313.44 570.897Z" fill="#D3F3F5" fill-opacity="0.5"/>
<path d="M1140.07 325.874C1139.57 334.366 1137.46 336.741 1135.03 336.599C1132.61 336.456 1130.79 333.85 1131.28 325.358C1131.78 316.866 1136.84 305.847 1136.84 305.847C1136.84 305.847 1140.57 317.382 1140.07 325.874Z" fill="#D3F3F5" fill-opacity="0.5"/>
<path d="M250.558 647.696C250.06 656.188 247.947 658.563 245.52 658.421C243.094 658.278 241.274 655.672 241.772 647.18C242.271 638.688 247.326 627.669 247.326 627.669C247.326 627.669 251.057 639.204 250.558 647.696Z" fill="#D3F3F5" fill-opacity="0.5"/>
<path d="M414.034 123.529C413.536 132.021 411.423 134.396 408.996 134.254C406.57 134.111 404.75 131.505 405.248 123.013C405.747 114.521 410.802 103.502 410.802 103.502C410.802 103.502 414.533 115.037 414.034 123.529Z" fill="#D3F3F5" fill-opacity="0.5"/>
<path d="M390.441 418.287C389.942 426.779 387.829 429.154 385.403 429.012C382.977 428.87 381.156 426.263 381.655 417.772C382.154 409.28 387.209 398.261 387.209 398.261C387.209 398.261 390.94 409.796 390.441 418.287Z" fill="#D3F3F5" fill-opacity="0.5"/>
<path d="M1143.65 673.594C1143.15 682.086 1141.04 684.461 1138.61 684.319C1136.19 684.176 1134.37 681.57 1134.87 673.078C1135.36 664.586 1140.42 653.567 1140.42 653.567C1140.42 653.567 1144.15 665.102 1143.65 673.594Z" fill="#D3F3F5" fill-opacity="0.5"/>
<path d="M437.067 346.17C436.569 354.661 434.456 357.037 432.03 356.894C429.603 356.752 427.783 354.146 428.281 345.654C428.78 337.162 433.835 326.143 433.835 326.143C433.835 326.143 437.566 337.678 437.067 346.17Z" fill="#D3F3F5" fill-opacity="0.5"/>
<path d="M1190.28 601.476C1189.78 609.967 1187.67 612.343 1185.24 612.2C1182.82 612.058 1180.99 609.452 1181.49 600.96C1181.99 592.468 1187.05 581.449 1187.05 581.449C1187.05 581.449 1190.78 592.984 1190.28 601.476Z" fill="#D3F3F5" fill-opacity="0.5"/>
<path d="M553.315 219.862C552.816 228.354 550.703 230.729 548.277 230.587C545.851 230.445 544.03 227.838 544.528 219.347C545.027 210.855 550.082 199.836 550.082 199.836C550.082 199.836 553.813 211.371 553.315 219.862Z" fill="#D3F3F5" fill-opacity="0.5"/>
<path d="M441.949 503.794C441.45 512.286 439.337 514.661 436.911 514.519C434.485 514.377 432.664 511.77 433.163 503.279C433.661 494.787 438.716 483.768 438.716 483.768C438.716 483.768 442.447 495.303 441.949 503.794Z" fill="#D3F3F5" fill-opacity="0.5"/>
<path d="M1409.09 321.068C1408.6 329.559 1406.48 331.935 1404.06 331.792C1401.63 331.65 1399.81 329.044 1400.31 320.552C1400.81 312.06 1405.86 301.041 1405.86 301.041C1405.86 301.041 1409.59 312.576 1409.09 321.068Z" fill="#D3F3F5" fill-opacity="0.5"/>
<path d="M374.713 614.793C374.214 623.284 372.101 625.66 369.675 625.517C367.249 625.375 365.428 622.769 365.927 614.277C366.425 605.785 371.481 594.766 371.481 594.766C371.481 594.766 375.212 606.301 374.713 614.793Z" fill="#D3F3F5" fill-opacity="0.5"/>
<path d="M320.905 665.072C320.407 673.564 318.294 675.94 315.868 675.797C313.441 675.655 311.621 673.048 312.119 664.557C312.618 656.065 317.673 645.046 317.673 645.046C317.673 645.046 321.404 656.581 320.905 665.072Z" fill="#D3F3F5" fill-opacity="0.5"/>
<path d="M936.471 480.902C935.972 489.394 933.859 491.769 931.433 491.627C929.007 491.485 927.186 488.878 927.685 480.386C928.183 471.895 933.238 460.876 933.238 460.876C933.238 460.876 936.969 472.411 936.471 480.902Z" fill="#D3F3F5" fill-opacity="0.5"/>
<path d="M60.9463 227.622C60.4478 236.113 58.3347 238.489 55.9086 238.346C53.4824 238.204 51.6618 235.598 52.1603 227.106C52.6589 218.614 57.714 207.595 57.714 207.595C57.714 207.595 61.4449 219.13 60.9463 227.622Z" fill="#D3F3F5" fill-opacity="0.5"/>
<path d="M888.441 303.426C887.943 311.917 885.83 314.293 883.404 314.15C880.977 314.008 879.157 311.401 879.655 302.91C880.154 294.418 885.209 283.399 885.209 283.399C885.209 283.399 888.94 294.934 888.441 303.426Z" fill="#D3F3F5" fill-opacity="0.5"/>
<path d="M12.9171 50.1444C12.4185 58.6361 10.3054 61.0114 7.87926 60.869C5.45306 60.7266 3.63249 58.1202 4.13104 49.6285C4.6296 41.1368 9.68473 30.1178 9.68473 30.1178C9.68473 30.1178 13.4156 41.6527 12.9171 50.1444Z" fill="#D3F3F5" fill-opacity="0.5"/>
<path d="M1243.78 445.033C1243.28 453.525 1241.17 455.901 1238.74 455.758C1236.32 455.616 1234.5 453.009 1235 444.518C1235.49 436.026 1240.55 425.007 1240.55 425.007C1240.55 425.007 1244.28 436.542 1243.78 445.033Z" fill="#D3F3F5" fill-opacity="0.5"/>
<path d="M228.423 85.9665C227.606 99.8829 224.143 103.776 220.167 103.542C216.191 103.309 213.207 99.0375 214.024 85.1211C214.842 71.2047 223.126 53.1465 223.126 53.1465C223.126 53.1465 229.24 72.0501 228.423 85.9665Z" fill="#D3F3F5" fill-opacity="0.5"/>
<path d="M1312.45 324.013C1311.64 337.929 1308.17 341.822 1304.2 341.589C1300.22 341.355 1297.24 337.084 1298.05 323.168C1298.87 309.251 1307.16 291.193 1307.16 291.193C1307.16 291.193 1313.27 310.097 1312.45 324.013Z" fill="#D3F3F5" fill-opacity="0.5"/>
<path d="M1378.8 645.15C1377.98 659.067 1374.52 662.959 1370.54 662.726C1366.57 662.493 1363.58 658.221 1364.4 644.305C1365.22 630.389 1373.5 612.33 1373.5 612.33C1373.5 612.33 1379.62 631.234 1378.8 645.15Z" fill="#D3F3F5" fill-opacity="0.5"/>
<path d="M800.623 715.102C799.806 729.019 796.343 732.912 792.367 732.678C788.391 732.445 785.407 728.173 786.224 714.257C787.041 700.341 795.326 682.282 795.326 682.282C795.326 682.282 801.44 701.186 800.623 715.102Z" fill="#D3F3F5" fill-opacity="0.5"/>
<path d="M1344.98 444.671C1344.48 453.163 1342.36 455.539 1339.94 455.396C1337.51 455.254 1335.69 452.647 1336.19 444.156C1336.69 435.664 1341.74 424.645 1341.74 424.645C1341.74 424.645 1345.47 436.18 1344.98 444.671Z" fill="#D3F3F5" fill-opacity="0.5"/>
<path d="M942.609 639.405C942.11 647.896 939.997 650.272 937.571 650.129C935.145 649.987 933.324 647.381 933.823 638.889C934.321 630.397 939.377 619.378 939.377 619.378C939.377 619.378 943.108 630.913 942.609 639.405Z" fill="#D3F3F5" fill-opacity="0.5"/>
<path d="M151.898 184.719C151.4 193.211 149.287 195.586 146.861 195.444C144.435 195.302 142.614 192.695 143.112 184.204C143.611 175.712 148.666 164.693 148.666 164.693C148.666 164.693 152.397 176.228 151.898 184.719Z" fill="#D3F3F5" fill-opacity="0.5"/>
<path d="M873.717 158.555C873.218 167.047 871.105 169.422 868.679 169.28C866.253 169.137 864.432 166.531 864.931 158.039C865.429 149.547 870.485 138.528 870.485 138.528C870.485 138.528 874.215 150.063 873.717 158.555Z" fill="#D3F3F5" fill-opacity="0.5"/>
<path d="M639.237 705.577C638.739 714.069 636.626 716.444 634.2 716.302C631.773 716.159 629.953 713.553 630.451 705.061C630.95 696.57 636.005 685.551 636.005 685.551C636.005 685.551 639.736 697.086 639.237 705.577Z" fill="#D3F3F5" fill-opacity="0.5"/>
<path d="M1103.07 700.058C1102.57 708.55 1100.46 710.925 1098.03 710.783C1095.6 710.64 1093.78 708.034 1094.28 699.542C1094.78 691.05 1099.83 680.031 1099.83 680.031C1099.83 680.031 1103.57 691.566 1103.07 700.058Z" fill="#D3F3F5" fill-opacity="0.5"/>
<path d="M833.427 55.6468C832.929 64.1385 830.816 66.5139 828.39 66.3715C825.963 66.229 824.143 63.6227 824.641 55.131C825.14 46.6393 830.195 35.6203 830.195 35.6203C830.195 35.6203 833.926 47.1551 833.427 55.6468Z" fill="#D3F3F5" fill-opacity="0.5"/>
<path d="M598.947 602.67C598.449 611.161 596.336 613.537 593.91 613.394C591.483 613.252 589.663 610.645 590.161 602.154C590.66 593.662 595.715 582.643 595.715 582.643C595.715 582.643 599.446 594.178 598.947 602.67Z" fill="#D3F3F5" fill-opacity="0.5"/>
<path d="M1028.75 312.625C1028.26 321.117 1026.14 323.492 1023.72 323.35C1021.29 323.207 1019.47 320.601 1019.97 312.109C1020.47 303.617 1025.52 292.598 1025.52 292.598C1025.52 292.598 1029.25 304.133 1028.75 312.625Z" fill="#D3F3F5" fill-opacity="0.5"/>
<path d="M139.241 634.447C138.743 642.939 136.63 645.314 134.203 645.172C131.777 645.029 129.957 642.423 130.455 633.931C130.954 625.44 136.009 614.421 136.009 614.421C136.009 614.421 139.74 625.955 139.241 634.447Z" fill="#D3F3F5" fill-opacity="0.5"/>
<path d="M153.231 59.3437C152.732 67.8354 150.619 70.2108 148.193 70.0683C145.767 69.9259 143.946 67.3196 144.445 58.8279C144.944 50.3362 149.999 39.3172 149.999 39.3172C149.999 39.3172 153.73 50.852 153.231 59.3437Z" fill="#D3F3F5" fill-opacity="0.5"/>
<path d="M525.774 579.158C525.275 587.65 523.162 590.025 520.736 589.883C518.31 589.741 516.489 587.134 516.988 578.643C517.487 570.151 522.542 559.132 522.542 559.132C522.542 559.132 526.273 570.667 525.774 579.158Z" fill="#D3F3F5" fill-opacity="0.5"/>
<path d="M641.305 203.004C640.487 216.92 637.025 220.813 633.048 220.58C629.072 220.346 626.089 216.075 626.906 202.158C627.723 188.242 636.007 170.184 636.007 170.184C636.007 170.184 642.122 189.087 641.305 203.004Z" fill="white" fill-opacity="0.5"/>
</g>
</svg>
